<?xml version="1.0" encoding="utf-8"?>
<svg xmlns="http://www.w3.org/2000/svg" xmlns:xlink="http://www.w3.org/1999/xlink" width="600" height="400" viewBox="0 0 2400 1600">
<defs>
  <clipPath id="clip670">
    <rect x="0" y="0" width="2400" height="1600"/>
  </clipPath>
</defs>
<path clip-path="url(#clip670)" d="M0 1600 L2400 1600 L2400 0 L0 0  Z" fill="#ffffff" fill-rule="evenodd" fill-opacity="1"/>
<defs>
  <clipPath id="clip671">
    <rect x="480" y="0" width="1681" height="1600"/>
  </clipPath>
</defs>
<path clip-path="url(#clip670)" d="M257.69 1423.18 L2352.76 1423.18 L2352.76 47.2441 L257.69 47.2441  Z" fill="#ffffff" fill-rule="evenodd" fill-opacity="1"/>
<defs>
  <clipPath id="clip672">
    <rect x="257" y="47" width="2096" height="1377"/>
  </clipPath>
</defs>
<polyline clip-path="url(#clip672)" style="stroke:#000000; stroke-linecap:round; stroke-linejoin:round; stroke-width:2; stroke-opacity:0.1; fill:none" points="432.279,1423.18 432.279,47.2441 "/>
<polyline clip-path="url(#clip672)" style="stroke:#000000; stroke-linecap:round; stroke-linejoin:round; stroke-width:2; stroke-opacity:0.1; fill:none" points="868.751,1423.18 868.751,47.2441 "/>
<polyline clip-path="url(#clip672)" style="stroke:#000000; stroke-linecap:round; stroke-linejoin:round; stroke-width:2; stroke-opacity:0.1; fill:none" points="1305.22,1423.18 1305.22,47.2441 "/>
<polyline clip-path="url(#clip672)" style="stroke:#000000; stroke-linecap:round; stroke-linejoin:round; stroke-width:2; stroke-opacity:0.1; fill:none" points="1741.7,1423.18 1741.7,47.2441 "/>
<polyline clip-path="url(#clip672)" style="stroke:#000000; stroke-linecap:round; stroke-linejoin:round; stroke-width:2; stroke-opacity:0.1; fill:none" points="2178.17,1423.18 2178.17,47.2441 "/>
<polyline clip-path="url(#clip672)" style="stroke:#000000; stroke-linecap:round; stroke-linejoin:round; stroke-width:2; stroke-opacity:0.1; fill:none" points="257.69,1193.86 2352.76,1193.86 "/>
<polyline clip-path="url(#clip672)" style="stroke:#000000; stroke-linecap:round; stroke-linejoin:round; stroke-width:2; stroke-opacity:0.1; fill:none" points="257.69,964.535 2352.76,964.535 "/>
<polyline clip-path="url(#clip672)" style="stroke:#000000; stroke-linecap:round; stroke-linejoin:round; stroke-width:2; stroke-opacity:0.1; fill:none" points="257.69,735.212 2352.76,735.212 "/>
<polyline clip-path="url(#clip672)" style="stroke:#000000; stroke-linecap:round; stroke-linejoin:round; stroke-width:2; stroke-opacity:0.1; fill:none" points="257.69,505.889 2352.76,505.889 "/>
<polyline clip-path="url(#clip672)" style="stroke:#000000; stroke-linecap:round; stroke-linejoin:round; stroke-width:2; stroke-opacity:0.1; fill:none" points="257.69,276.567 2352.76,276.567 "/>
<polyline clip-path="url(#clip670)" style="stroke:#000000; stroke-linecap:round; stroke-linejoin:round; stroke-width:4; stroke-opacity:1; fill:none" points="257.69,1423.18 2352.76,1423.18 "/>
<polyline clip-path="url(#clip670)" style="stroke:#000000; stroke-linecap:round; stroke-linejoin:round; stroke-width:4; stroke-opacity:1; fill:none" points="432.279,1423.18 432.279,1404.28 "/>
<polyline clip-path="url(#clip670)" style="stroke:#000000; stroke-linecap:round; stroke-linejoin:round; stroke-width:4; stroke-opacity:1; fill:none" points="868.751,1423.18 868.751,1404.28 "/>
<polyline clip-path="url(#clip670)" style="stroke:#000000; stroke-linecap:round; stroke-linejoin:round; stroke-width:4; stroke-opacity:1; fill:none" points="1305.22,1423.18 1305.22,1404.28 "/>
<polyline clip-path="url(#clip670)" style="stroke:#000000; stroke-linecap:round; stroke-linejoin:round; stroke-width:4; stroke-opacity:1; fill:none" points="1741.7,1423.18 1741.7,1404.28 "/>
<polyline clip-path="url(#clip670)" style="stroke:#000000; stroke-linecap:round; stroke-linejoin:round; stroke-width:4; stroke-opacity:1; fill:none" points="2178.17,1423.18 2178.17,1404.28 "/>
<path clip-path="url(#clip670)" d="M378.807 1468.75 L408.483 1468.75 L408.483 1472.69 L378.807 1472.69 L378.807 1468.75 Z" fill="#000000" fill-rule="nonzero" fill-opacity="1" /><path clip-path="url(#clip670)" d="M419.386 1481.64 L427.024 1481.64 L427.024 1455.28 L418.714 1456.95 L418.714 1452.69 L426.978 1451.02 L431.654 1451.02 L431.654 1481.64 L439.293 1481.64 L439.293 1485.58 L419.386 1485.58 L419.386 1481.64 Z" fill="#000000" fill-rule="nonzero" fill-opacity="1" /><path clip-path="url(#clip670)" d="M448.737 1479.7 L453.621 1479.7 L453.621 1485.58 L448.737 1485.58 L448.737 1479.7 Z" fill="#000000" fill-rule="nonzero" fill-opacity="1" /><path clip-path="url(#clip670)" d="M473.807 1454.1 Q470.195 1454.1 468.367 1457.66 Q466.561 1461.2 466.561 1468.33 Q466.561 1475.44 468.367 1479.01 Q470.195 1482.55 473.807 1482.55 Q477.441 1482.55 479.246 1479.01 Q481.075 1475.44 481.075 1468.33 Q481.075 1461.2 479.246 1457.66 Q477.441 1454.1 473.807 1454.1 M473.807 1450.39 Q479.617 1450.39 482.672 1455 Q485.751 1459.58 485.751 1468.33 Q485.751 1477.06 482.672 1481.67 Q479.617 1486.25 473.807 1486.25 Q467.996 1486.25 464.918 1481.67 Q461.862 1477.06 461.862 1468.33 Q461.862 1459.58 464.918 1455 Q467.996 1450.39 473.807 1450.39 Z" fill="#000000" fill-rule="nonzero" fill-opacity="1" /><path clip-path="url(#clip670)" d="M815.777 1468.75 L845.453 1468.75 L845.453 1472.69 L815.777 1472.69 L815.777 1468.75 Z" fill="#000000" fill-rule="nonzero" fill-opacity="1" /><path clip-path="url(#clip670)" d="M865.545 1454.1 Q861.934 1454.1 860.105 1457.66 Q858.3 1461.2 858.3 1468.33 Q858.3 1475.44 860.105 1479.01 Q861.934 1482.55 865.545 1482.55 Q869.179 1482.55 870.985 1479.01 Q872.813 1475.44 872.813 1468.33 Q872.813 1461.2 870.985 1457.66 Q869.179 1454.1 865.545 1454.1 M865.545 1450.39 Q871.355 1450.39 874.411 1455 Q877.489 1459.58 877.489 1468.33 Q877.489 1477.06 874.411 1481.67 Q871.355 1486.25 865.545 1486.25 Q859.735 1486.25 856.656 1481.67 Q853.601 1477.06 853.601 1468.33 Q853.601 1459.58 856.656 1455 Q859.735 1450.39 865.545 1450.39 Z" fill="#000000" fill-rule="nonzero" fill-opacity="1" /><path clip-path="url(#clip670)" d="M885.707 1479.7 L890.591 1479.7 L890.591 1485.58 L885.707 1485.58 L885.707 1479.7 Z" fill="#000000" fill-rule="nonzero" fill-opacity="1" /><path clip-path="url(#clip670)" d="M900.823 1451.02 L919.179 1451.02 L919.179 1454.96 L905.105 1454.96 L905.105 1463.43 Q906.123 1463.08 907.142 1462.92 Q908.16 1462.73 909.179 1462.73 Q914.966 1462.73 918.346 1465.9 Q921.725 1469.08 921.725 1474.49 Q921.725 1480.07 918.253 1483.17 Q914.781 1486.25 908.461 1486.25 Q906.286 1486.25 904.017 1485.88 Q901.772 1485.51 899.364 1484.77 L899.364 1480.07 Q901.448 1481.2 903.67 1481.76 Q905.892 1482.32 908.369 1482.32 Q912.373 1482.32 914.711 1480.21 Q917.049 1478.1 917.049 1474.49 Q917.049 1470.88 914.711 1468.77 Q912.373 1466.67 908.369 1466.67 Q906.494 1466.67 904.619 1467.08 Q902.767 1467.5 900.823 1468.38 L900.823 1451.02 Z" fill="#000000" fill-rule="nonzero" fill-opacity="1" /><path clip-path="url(#clip670)" d="M1282.61 1454.1 Q1279 1454.1 1277.17 1457.66 Q1275.36 1461.2 1275.36 1468.33 Q1275.36 1475.44 1277.17 1479.01 Q1279 1482.55 1282.61 1482.55 Q1286.24 1482.55 1288.05 1479.01 Q1289.88 1475.44 1289.88 1468.33 Q1289.88 1461.2 1288.05 1457.66 Q1286.24 1454.1 1282.61 1454.1 M1282.61 1450.39 Q1288.42 1450.39 1291.47 1455 Q1294.55 1459.58 1294.55 1468.33 Q1294.55 1477.06 1291.47 1481.67 Q1288.42 1486.25 1282.61 1486.25 Q1276.8 1486.25 1273.72 1481.67 Q1270.66 1477.06 1270.66 1468.33 Q1270.66 1459.58 1273.72 1455 Q1276.8 1450.39 1282.61 1450.39 Z" fill="#000000" fill-rule="nonzero" fill-opacity="1" /><path clip-path="url(#clip670)" d="M1302.77 1479.7 L1307.65 1479.7 L1307.65 1485.58 L1302.77 1485.58 L1302.77 1479.7 Z" fill="#000000" fill-rule="nonzero" fill-opacity="1" /><path clip-path="url(#clip670)" d="M1327.84 1454.1 Q1324.23 1454.1 1322.4 1457.66 Q1320.59 1461.2 1320.59 1468.33 Q1320.59 1475.44 1322.4 1479.01 Q1324.23 1482.55 1327.84 1482.55 Q1331.47 1482.55 1333.28 1479.01 Q1335.11 1475.44 1335.11 1468.33 Q1335.11 1461.2 1333.28 1457.66 Q1331.47 1454.1 1327.84 1454.1 M1327.84 1450.39 Q1333.65 1450.39 1336.7 1455 Q1339.78 1459.58 1339.78 1468.33 Q1339.78 1477.06 1336.7 1481.67 Q1333.65 1486.25 1327.84 1486.25 Q1322.03 1486.25 1318.95 1481.67 Q1315.89 1477.06 1315.89 1468.33 Q1315.89 1459.58 1318.95 1455 Q1322.03 1450.39 1327.84 1450.39 Z" fill="#000000" fill-rule="nonzero" fill-opacity="1" /><path clip-path="url(#clip670)" d="M1719.58 1454.1 Q1715.97 1454.1 1714.14 1457.66 Q1712.33 1461.2 1712.33 1468.33 Q1712.33 1475.44 1714.14 1479.01 Q1715.97 1482.55 1719.58 1482.55 Q1723.21 1482.55 1725.02 1479.01 Q1726.85 1475.44 1726.85 1468.33 Q1726.85 1461.2 1725.02 1457.66 Q1723.21 1454.1 1719.58 1454.1 M1719.58 1450.39 Q1725.39 1450.39 1728.44 1455 Q1731.52 1459.58 1731.52 1468.33 Q1731.52 1477.06 1728.44 1481.67 Q1725.39 1486.25 1719.58 1486.25 Q1713.77 1486.25 1710.69 1481.67 Q1707.63 1477.06 1707.63 1468.33 Q1707.63 1459.58 1710.69 1455 Q1713.77 1450.39 1719.58 1450.39 Z" fill="#000000" fill-rule="nonzero" fill-opacity="1" /><path clip-path="url(#clip670)" d="M1739.74 1479.7 L1744.62 1479.7 L1744.62 1485.58 L1739.74 1485.58 L1739.74 1479.7 Z" fill="#000000" fill-rule="nonzero" fill-opacity="1" /><path clip-path="url(#clip670)" d="M1754.85 1451.02 L1773.21 1451.02 L1773.21 1454.96 L1759.14 1454.96 L1759.14 1463.43 Q1760.16 1463.08 1761.17 1462.92 Q1762.19 1462.73 1763.21 1462.73 Q1769 1462.73 1772.38 1465.9 Q1775.76 1469.08 1775.76 1474.49 Q1775.76 1480.07 1772.29 1483.17 Q1768.81 1486.25 1762.49 1486.25 Q1760.32 1486.25 1758.05 1485.88 Q1755.8 1485.51 1753.4 1484.77 L1753.4 1480.07 Q1755.48 1481.2 1757.7 1481.76 Q1759.92 1482.32 1762.4 1482.32 Q1766.41 1482.32 1768.74 1480.21 Q1771.08 1478.1 1771.08 1474.49 Q1771.08 1470.88 1768.74 1468.77 Q1766.41 1466.67 1762.4 1466.67 Q1760.53 1466.67 1758.65 1467.08 Q1756.8 1467.5 1754.85 1468.38 L1754.85 1451.02 Z" fill="#000000" fill-rule="nonzero" fill-opacity="1" /><path clip-path="url(#clip670)" d="M2145.32 1481.64 L2152.96 1481.64 L2152.96 1455.28 L2144.65 1456.95 L2144.65 1452.69 L2152.91 1451.02 L2157.59 1451.02 L2157.59 1481.64 L2165.23 1481.64 L2165.23 1485.58 L2145.32 1485.58 L2145.32 1481.64 Z" fill="#000000" fill-rule="nonzero" fill-opacity="1" /><path clip-path="url(#clip670)" d="M2174.67 1479.7 L2179.56 1479.7 L2179.56 1485.58 L2174.67 1485.58 L2174.67 1479.7 Z" fill="#000000" fill-rule="nonzero" fill-opacity="1" /><path clip-path="url(#clip670)" d="M2199.74 1454.1 Q2196.13 1454.1 2194.3 1457.66 Q2192.5 1461.2 2192.5 1468.33 Q2192.5 1475.44 2194.3 1479.01 Q2196.13 1482.55 2199.74 1482.55 Q2203.38 1482.55 2205.18 1479.01 Q2207.01 1475.44 2207.01 1468.33 Q2207.01 1461.2 2205.18 1457.66 Q2203.38 1454.1 2199.74 1454.1 M2199.74 1450.39 Q2205.55 1450.39 2208.61 1455 Q2211.69 1459.58 2211.69 1468.33 Q2211.69 1477.06 2208.61 1481.67 Q2205.55 1486.25 2199.74 1486.25 Q2193.93 1486.25 2190.85 1481.67 Q2187.8 1477.06 2187.8 1468.33 Q2187.8 1459.58 2190.85 1455 Q2193.93 1450.39 2199.74 1450.39 Z" fill="#000000" fill-rule="nonzero" fill-opacity="1" /><path clip-path="url(#clip670)" d="M1290.3 1553.98 L1290.3 1532.4 L1296.15 1532.4 L1296.15 1553.75 Q1296.15 1558.81 1298.13 1561.36 Q1300.1 1563.87 1304.05 1563.87 Q1308.79 1563.87 1311.53 1560.85 Q1314.29 1557.83 1314.29 1552.61 L1314.29 1532.4 L1320.15 1532.4 L1320.15 1568.04 L1314.29 1568.04 L1314.29 1562.57 Q1312.16 1565.82 1309.33 1567.41 Q1306.53 1568.97 1302.8 1568.97 Q1296.66 1568.97 1293.48 1565.15 Q1290.3 1561.33 1290.3 1553.98 M1305.03 1531.54 L1305.03 1531.54 Z" fill="#000000" fill-rule="nonzero" fill-opacity="1" /><polyline clip-path="url(#clip670)" style="stroke:#000000; stroke-linecap:round; stroke-linejoin:round; stroke-width:4; stroke-opacity:1; fill:none" points="257.69,1423.18 257.69,47.2441 "/>
<polyline clip-path="url(#clip670)" style="stroke:#000000; stroke-linecap:round; stroke-linejoin:round; stroke-width:4; stroke-opacity:1; fill:none" points="257.69,1193.86 276.588,1193.86 "/>
<polyline clip-path="url(#clip670)" style="stroke:#000000; stroke-linecap:round; stroke-linejoin:round; stroke-width:4; stroke-opacity:1; fill:none" points="257.69,964.535 276.588,964.535 "/>
<polyline clip-path="url(#clip670)" style="stroke:#000000; stroke-linecap:round; stroke-linejoin:round; stroke-width:4; stroke-opacity:1; fill:none" points="257.69,735.212 276.588,735.212 "/>
<polyline clip-path="url(#clip670)" style="stroke:#000000; stroke-linecap:round; stroke-linejoin:round; stroke-width:4; stroke-opacity:1; fill:none" points="257.69,505.889 276.588,505.889 "/>
<polyline clip-path="url(#clip670)" style="stroke:#000000; stroke-linecap:round; stroke-linejoin:round; stroke-width:4; stroke-opacity:1; fill:none" points="257.69,276.567 276.588,276.567 "/>
<path clip-path="url(#clip670)" d="M114.26 1194.31 L143.936 1194.31 L143.936 1198.24 L114.26 1198.24 L114.26 1194.31 Z" fill="#000000" fill-rule="nonzero" fill-opacity="1" /><path clip-path="url(#clip670)" d="M164.028 1179.66 Q160.417 1179.66 158.589 1183.22 Q156.783 1186.76 156.783 1193.89 Q156.783 1201 158.589 1204.56 Q160.417 1208.1 164.028 1208.1 Q167.663 1208.1 169.468 1204.56 Q171.297 1201 171.297 1193.89 Q171.297 1186.76 169.468 1183.22 Q167.663 1179.66 164.028 1179.66 M164.028 1175.95 Q169.839 1175.95 172.894 1180.56 Q175.973 1185.14 175.973 1193.89 Q175.973 1202.62 172.894 1207.23 Q169.839 1211.81 164.028 1211.81 Q158.218 1211.81 155.14 1207.23 Q152.084 1202.62 152.084 1193.89 Q152.084 1185.14 155.14 1180.56 Q158.218 1175.95 164.028 1175.95 Z" fill="#000000" fill-rule="nonzero" fill-opacity="1" /><path clip-path="url(#clip670)" d="M184.19 1205.26 L189.075 1205.26 L189.075 1211.14 L184.19 1211.14 L184.19 1205.26 Z" fill="#000000" fill-rule="nonzero" fill-opacity="1" /><path clip-path="url(#clip670)" d="M212.107 1180.65 L200.301 1199.1 L212.107 1199.1 L212.107 1180.65 M210.88 1176.58 L216.76 1176.58 L216.76 1199.1 L221.69 1199.1 L221.69 1202.99 L216.76 1202.99 L216.76 1211.14 L212.107 1211.14 L212.107 1202.99 L196.505 1202.99 L196.505 1198.48 L210.88 1176.58 Z" fill="#000000" fill-rule="nonzero" fill-opacity="1" /><path clip-path="url(#clip670)" d="M116.343 964.986 L146.019 964.986 L146.019 968.921 L116.343 968.921 L116.343 964.986 Z" fill="#000000" fill-rule="nonzero" fill-opacity="1" /><path clip-path="url(#clip670)" d="M166.112 950.333 Q162.501 950.333 160.672 953.898 Q158.866 957.44 158.866 964.569 Q158.866 971.676 160.672 975.241 Q162.501 978.782 166.112 978.782 Q169.746 978.782 171.552 975.241 Q173.38 971.676 173.38 964.569 Q173.38 957.44 171.552 953.898 Q169.746 950.333 166.112 950.333 M166.112 946.63 Q171.922 946.63 174.977 951.236 Q178.056 955.819 178.056 964.569 Q178.056 973.296 174.977 977.903 Q171.922 982.486 166.112 982.486 Q160.302 982.486 157.223 977.903 Q154.167 973.296 154.167 964.569 Q154.167 955.819 157.223 951.236 Q160.302 946.63 166.112 946.63 Z" fill="#000000" fill-rule="nonzero" fill-opacity="1" /><path clip-path="url(#clip670)" d="M186.274 975.935 L191.158 975.935 L191.158 981.815 L186.274 981.815 L186.274 975.935 Z" fill="#000000" fill-rule="nonzero" fill-opacity="1" /><path clip-path="url(#clip670)" d="M205.371 977.879 L221.69 977.879 L221.69 981.815 L199.746 981.815 L199.746 977.879 Q202.408 975.125 206.991 970.495 Q211.598 965.842 212.778 964.5 Q215.024 961.977 215.903 960.241 Q216.806 958.481 216.806 956.792 Q216.806 954.037 214.861 952.301 Q212.94 950.565 209.838 950.565 Q207.639 950.565 205.186 951.329 Q202.755 952.093 199.977 953.643 L199.977 948.921 Q202.801 947.787 205.255 947.208 Q207.709 946.63 209.746 946.63 Q215.116 946.63 218.311 949.315 Q221.505 952 221.505 956.491 Q221.505 958.62 220.695 960.542 Q219.908 962.44 217.801 965.032 Q217.223 965.704 214.121 968.921 Q211.019 972.116 205.371 977.879 Z" fill="#000000" fill-rule="nonzero" fill-opacity="1" /><path clip-path="url(#clip670)" d="M164.515 721.011 Q160.903 721.011 159.075 724.575 Q157.269 728.117 157.269 735.247 Q157.269 742.353 159.075 745.918 Q160.903 749.46 164.515 749.46 Q168.149 749.46 169.954 745.918 Q171.783 742.353 171.783 735.247 Q171.783 728.117 169.954 724.575 Q168.149 721.011 164.515 721.011 M164.515 717.307 Q170.325 717.307 173.38 721.913 Q176.459 726.497 176.459 735.247 Q176.459 743.973 173.38 748.58 Q170.325 753.163 164.515 753.163 Q158.704 753.163 155.626 748.58 Q152.57 743.973 152.57 735.247 Q152.57 726.497 155.626 721.913 Q158.704 717.307 164.515 717.307 Z" fill="#000000" fill-rule="nonzero" fill-opacity="1" /><path clip-path="url(#clip670)" d="M184.676 746.612 L189.561 746.612 L189.561 752.492 L184.676 752.492 L184.676 746.612 Z" fill="#000000" fill-rule="nonzero" fill-opacity="1" /><path clip-path="url(#clip670)" d="M209.746 721.011 Q206.135 721.011 204.306 724.575 Q202.5 728.117 202.5 735.247 Q202.5 742.353 204.306 745.918 Q206.135 749.46 209.746 749.46 Q213.38 749.46 215.186 745.918 Q217.014 742.353 217.014 735.247 Q217.014 728.117 215.186 724.575 Q213.38 721.011 209.746 721.011 M209.746 717.307 Q215.556 717.307 218.611 721.913 Q221.69 726.497 221.69 735.247 Q221.69 743.973 218.611 748.58 Q215.556 753.163 209.746 753.163 Q203.936 753.163 200.857 748.58 Q197.801 743.973 197.801 735.247 Q197.801 726.497 200.857 721.913 Q203.936 717.307 209.746 717.307 Z" fill="#000000" fill-rule="nonzero" fill-opacity="1" /><path clip-path="url(#clip670)" d="M166.112 491.688 Q162.501 491.688 160.672 495.253 Q158.866 498.794 158.866 505.924 Q158.866 513.031 160.672 516.595 Q162.501 520.137 166.112 520.137 Q169.746 520.137 171.552 516.595 Q173.38 513.031 173.38 505.924 Q173.38 498.794 171.552 495.253 Q169.746 491.688 166.112 491.688 M166.112 487.984 Q171.922 487.984 174.977 492.591 Q178.056 497.174 178.056 505.924 Q178.056 514.651 174.977 519.257 Q171.922 523.841 166.112 523.841 Q160.302 523.841 157.223 519.257 Q154.167 514.651 154.167 505.924 Q154.167 497.174 157.223 492.591 Q160.302 487.984 166.112 487.984 Z" fill="#000000" fill-rule="nonzero" fill-opacity="1" /><path clip-path="url(#clip670)" d="M186.274 517.29 L191.158 517.29 L191.158 523.169 L186.274 523.169 L186.274 517.29 Z" fill="#000000" fill-rule="nonzero" fill-opacity="1" /><path clip-path="url(#clip670)" d="M205.371 519.234 L221.69 519.234 L221.69 523.169 L199.746 523.169 L199.746 519.234 Q202.408 516.48 206.991 511.85 Q211.598 507.197 212.778 505.855 Q215.024 503.331 215.903 501.595 Q216.806 499.836 216.806 498.146 Q216.806 495.392 214.861 493.656 Q212.94 491.92 209.838 491.92 Q207.639 491.92 205.186 492.683 Q202.755 493.447 199.977 494.998 L199.977 490.276 Q202.801 489.142 205.255 488.563 Q207.709 487.984 209.746 487.984 Q215.116 487.984 218.311 490.67 Q221.505 493.355 221.505 497.845 Q221.505 499.975 220.695 501.896 Q219.908 503.794 217.801 506.387 Q217.223 507.058 214.121 510.276 Q211.019 513.47 205.371 519.234 Z" fill="#000000" fill-rule="nonzero" fill-opacity="1" /><path clip-path="url(#clip670)" d="M164.028 262.365 Q160.417 262.365 158.589 265.93 Q156.783 269.472 156.783 276.601 Q156.783 283.708 158.589 287.273 Q160.417 290.814 164.028 290.814 Q167.663 290.814 169.468 287.273 Q171.297 283.708 171.297 276.601 Q171.297 269.472 169.468 265.93 Q167.663 262.365 164.028 262.365 M164.028 258.662 Q169.839 258.662 172.894 263.268 Q175.973 267.851 175.973 276.601 Q175.973 285.328 172.894 289.935 Q169.839 294.518 164.028 294.518 Q158.218 294.518 155.14 289.935 Q152.084 285.328 152.084 276.601 Q152.084 267.851 155.14 263.268 Q158.218 258.662 164.028 258.662 Z" fill="#000000" fill-rule="nonzero" fill-opacity="1" /><path clip-path="url(#clip670)" d="M184.19 287.967 L189.075 287.967 L189.075 293.847 L184.19 293.847 L184.19 287.967 Z" fill="#000000" fill-rule="nonzero" fill-opacity="1" /><path clip-path="url(#clip670)" d="M212.107 263.361 L200.301 281.81 L212.107 281.81 L212.107 263.361 M210.88 259.287 L216.76 259.287 L216.76 281.81 L221.69 281.81 L221.69 285.699 L216.76 285.699 L216.76 293.847 L212.107 293.847 L212.107 285.699 L196.505 285.699 L196.505 281.185 L210.88 259.287 Z" fill="#000000" fill-rule="nonzero" fill-opacity="1" /><path clip-path="url(#clip670)" d="M28.3562 752.559 L28.3562 746.352 L58.275 735.212 L28.3562 724.072 L28.3562 717.865 L64.0042 731.233 L64.0042 739.191 L28.3562 752.559 Z" fill="#000000" fill-rule="nonzero" fill-opacity="1" /><polyline clip-path="url(#clip672)" style="stroke:#009af9; stroke-linecap:round; stroke-linejoin:round; stroke-width:4; stroke-opacity:1; fill:none" points="592.467,1047.28 573.805,1009.92 571.876,1052.72 542.877,985.916 597.182,939.899 580.713,962.514 530.868,1083.4 545.389,1061.76 523.26,1061.46 583.534,1045.01 586.572,923.646 700.059,878.898 708.125,926.03 683.702,997.929 622.663,1097.27 593.762,1018.19 571.426,952.995 511.606,1052.51 537.26,1095.04 578.959,1057.26 567.132,1121.87 555.927,1095.67 502.043,1092.06 488.087,1109.51 447.38,1153.33 456.182,1111.69 415.106,1127.45 422.341,1097.51 419.334,1137.79 375.074,1168.77 458.518,1234.22 495.724,1098.84 539.244,1160.64 568.098,1126.6 517.873,1139.25 501.928,1138.76 551.077,1128.49 518.899,1142.73 607.776,1174.82 628.412,1139.87 586.517,1010.73 576.436,1045.88 578.072,1008.7 559.607,1034.88 582.524,1076.69 558.88,1095.31 535.823,1091.94 531.417,1145.4 566.784,1115.33 594.828,1122.03 594.391,1085.2 628.874,1111.69 646.457,1062.68 632.424,1084.32 718.076,1163.56 748.44,1115.54 816.377,1121.02 817.589,1178.63 756.574,1086.62 708.282,992.999 667.714,1050.64 642.502,1148.87 653.599,1102.3 712.476,1115.86 750.66,1099.06 758.309,1129.96 756.434,1096.62 823.574,1073.07 781.93,1007.21 752.844,983.916 670.922,772.435 674.176,656.733 676.471,848.759 628.323,906.062 614.884,917.644 532.937,900.571 570.017,1021.34 626.281,1012.34 581.687,1048.25 514.937,1135.93 480.141,1144.48 451.96,1140.27 424.774,1165.14 470.076,1184.66 466.217,1182.24 457.042,1018.83 489.601,989.163 526.273,1126.18 595.24,1110.11 636.017,1062.69 651.782,1015.13 670.932,1179.83 646.174,1212.25 767.751,1070.59 769.539,1129.02 885.229,985.352 917.929,979.274 928.408,908.573 1031.5,942.078 905.021,919.001 927.707,841.61 939.608,797.357 927.225,907.886 869.814,887.86 889.339,868.83 894.759,871.884 868.451,834.776 845.533,848.278 899.647,832.701 869.871,865.664 797.177,798.955 769.934,861.871 741.009,709.865 713.866,766.404 627.517,806.732 604.889,820.039 546.935,860.841 480.089,998.676 526.57,1003.37 459.919,1067.84 532.949,1018.94 478.82,953.817 509.411,1038.39 527.5,963.665 543.092,993.221 578.231,1009.79 594.049,1019.36 582.958,1073.94 569.751,965.041 552.991,856.375 534.115,955.943 471.416,1105.6 475.786,1105.17 532.953,1082.78 563.116,1050.37 552.297,1064.01 543.504,966.827 520.922,985.765 441.338,1017.22 482.528,992.443 504.862,1141.59 571.995,1066.94 558.954,997.383 571.281,1001.11 651.069,1034.4 564.165,1030.49 634.574,1041.19 682.534,984.959 627.073,912.243 657.015,855.046 597.225,953.3 600.311,1046.73 503.292,1066.26 487.893,1118.93 416.615,1112.71 427.835,1124.96 467.566,1178.15 554.867,1191.86 541.908,1210.35 637.546,1190.2 525.805,1144.87 489.262,1143.16 531.311,1202.72 556.822,1244.95 598.772,1188.77 702.272,1128.58 769.627,1111.57 737.365,1060.91 727.73,1117.96 706.846,1046.54 641.903,1053.07 554.93,1105.73 572.33,1059.12 546.191,1042.26 636.555,1091 675.762,1026.87 722.608,1073.47 739.477,996.138 753.736,1039.63 773.812,978.861 719.06,860.724 601.314,895.225 711.763,1093.31 683.921,1179.67 785.194,1097.34 803.338,1155.05 857.724,1174.31 857.241,1193.93 932.995,1047.87 1005.34,892.608 1106.1,987.389 1081.02,960.377 1134.32,987.294 1214.22,885.831 1296.4,954.607 1309.09,917.266 1327.84,803.534 1340.99,762.468 1427.17,703.897 1477.6,649.791 1491.64,665.893 1470.23,610.663 1523.51,577.516 1652.31,552.786 1672.35,573.827 1737.41,634.985 1813.78,612.064 1880.31,473.553 1941.16,405.245 1941.79,400.553 1997.44,405.596 2016.94,470.516 2024.56,481.631 1991.03,508.694 2083.5,522.695 2076.2,546.978 2052.97,417.226 2148.04,417.413 2263.21,336.177 2289.55,385.388 2242.77,429.056 2238.59,423.585 2327.44,394.189 2290.65,419.892 2203.38,323.623 2280.09,282.466 2229.34,336.051 2201.51,296.429 2184.72,300.48 2208.59,359.386 2233.96,354.058 2254.95,287.373 2201.61,304.534 2173.01,281.721 2216.05,268.574 2245.06,337.96 2190.84,406.604 2136.48,494.74 2184.11,536.464 2252.63,480.241 2194.66,475.549 2215.54,358.938 2187.34,261.312 2265.19,407.226 2268.14,401.539 2178.91,353.187 2172.6,290.021 2145.6,375.08 2088.55,470.217 2133.08,468.536 2150.81,472.527 2137.66,461.92 2151.5,484.877 2199.22,541.245 2217.28,528.225 2116.19,517.925 2035.5,458.412 2061.15,528.637 2147.14,557.814 2120.68,531.344 2012.21,385.666 2042.51,448.729 1982.44,425.91 1951.37,437.247 2043.53,378.351 2021.52,377.285 1919.97,378.973 1918.56,329.387 1935.94,514.672 1976.79,392.613 1998.46,397.418 2063.36,405.787 2068.88,465.074 2076.9,476.524 2062.05,383.861 2048.23,441.221 2144.21,445.814 2108.63,471.285 2062.49,486.498 1984.49,386.267 1967.48,331.895 2038.7,503.258 2143.45,551.867 2175.83,474.618 2164.96,432.051 2178.33,332.624 2137.92,248.407 2143.26,442.453 2172.41,385.928 2170.25,318.332 2134.86,351.674 2125.75,401.363 2160,379.581 2092.21,289.801 2053.23,353.183 2044.39,338.976 2006.98,283.005 1947.62,262.026 1966.14,348.169 1946.5,511.348 1856.69,536.664 1877.18,506.694 1963.95,483.318 1914.52,535.849 1922.53,514.394 2077.85,422.205 2011.62,442.84 2032.51,416.734 2049.8,302.973 2037.83,295.568 2066.19,288.74 1999.57,233.024 2035.78,289.354 2020.82,304.476 1951.31,311.56 1997.31,264.289 1913.42,363.742 1937.66,389.829 1919.42,375.219 1922.33,307.245 1904.55,270.313 1955.53,228.134 1919.93,282.006 1961.42,303.621 1977.83,349.325 1998.92,397.625 1903.8,344.097 1936.78,523.234 1932.53,610.079 1990.36,512.387 1982.42,458.131 1858.75,528.042 1845.23,587.197 1851.86,618.12 1871.18,544.592 1914.82,462.368 1924.63,426.695 1835.47,472.656 1857.53,571.653 1876.54,661.502 1939.54,668.138 1880.54,535.822 1932.64,618.03 1930.11,495.151 2037.38,587.894 2101.08,504.991 2081.17,496.477 2223.18,401.092 2173.44,324.778 2158.84,427.641 2116.66,470.081 2053.86,424.021 2032.2,350.089 1987.63,335.983 2008.26,396.46 1956.8,428.552 1921.65,503.01 2016.82,435.185 2000.11,457.04 2064.88,467.415 2066.85,462.538 2056.44,437.527 1944.82,548.179 1955.63,460.903 1972.65,402.65 2024.78,271.806 1981.86,295.172 1964.06,340.389 1876.03,408.63 1823.11,400.761 1852.28,382.618 1828.64,479.667 1932.15,588.434 1918.83,526.472 1912.26,443.039 1991.93,427.941 1899.32,388.542 1900.48,496.373 1898.21,591.075 1909.44,557.725 1872.42,573.267 1980.32,611.34 2065.71,497.698 2132.2,384.311 2222.21,266.965 2099.03,165.577 1964.63,302.508 1896.83,297.249 1890.24,440.196 1816.12,397.978 1778.32,412.474 1782.76,407.18 1806.4,427.027 1799.71,447.734 1852.25,475.333 1921.53,567.928 1943.6,500.241 1921.88,381.202 2003.81,469.608 1907.04,479.382 1918.67,440.781 1974.42,474.83 1844.99,511.993 1844.18,567.515 1867.81,558.916 1887.09,620.711 1932.38,700.712 2026.76,697.003 1899.72,649.178 1986.5,577.964 2018.98,508.57 2070.45,612.022 2104.81,645.072 2100.75,643.614 2066.99,611.332 1981.48,459.686 2079.55,441.331 2016.56,488.28 2074.09,493.274 2065.6,497.194 2093.9,545.451 2024.18,414.572 2184.08,430.28 2265.01,435.57 2236.8,510.871 2256.06,424.104 2277.13,385.431 2306.63,514.18 2265.37,469.27 2286.53,446.761 2331.08,354.774 2247.58,318.602 2174.02,367.363 2260.13,394.284 2211.19,372.416 2169.14,344.328 2193.88,361.654 2109.13,467.791 2000.89,448.509 2012.54,474.643 1984.85,481.869 1919.87,452.143 1839.72,430.89 1861.51,429.975 1885.75,407.354 1901.33,389.497 1850.88,363.572 1810.31,350.716 1834.06,364.513 1821.02,422.695 1876.98,483.37 1878.7,507.339 1901.46,482.294 1912.65,397.091 1964.21,403.778 1962.25,398.333 1975.05,383.53 2019,462.155 1972.02,453.981 1915.98,466.694 1952.12,475.858 1917.31,462.845 1870.67,427.09 1834.1,485.203 1793.72,586.144 1871.52,668.927 2076.07,644.367 2094.45,515.709 2120.21,535.813 2137.19,545.744 2111.12,531.018 2048.92,463.892 2100.02,459.472 2137.64,363.462 2112.06,355.011 2087.49,470.799 2034.12,512.611 1980.09,495.002 1872.74,555.24 1970.86,589.443 2010.27,534.667 1971.09,540.217 1948.28,457.7 2024.54,528.781 2013.26,509.426 1999.41,496.68 2043.77,537.91 2079.91,478.94 2070.58,367.868 2027.55,366.848 2046.1,351.412 1983.7,405.556 1908.95,360.94 1858.5,435.338 1917.76,525.464 1949.09,533.427 2049.34,517.629 1989.95,527.51 1933.27,566.367 1920.36,565.283 1953.99,570.154 1920.58,494.998 1951.48,471.684 1981.99,486.657 2002.39,527.399 1910.79,465.899 1941.41,333.184 1961.02,189.529 1974.87,301.134 1942.54,327.105 1931,370.95 1834.4,429.911 1780.07,493.367 1801.24,462.308 1814.94,489.279 1868.22,437.621 1807.3,325.151 1840.25,365.431 1911.59,394.33 1922.03,519.775 1963.8,520.218 1912.93,510.983 1931.23,468.603 1986.38,498.992 2007.91,344.723 2025.96,255.386 2004.45,405.207 1990.88,398.917 1972.66,385.973 2084.5,392.333 2079.76,368.674 2062.81,445.373 2062.05,361.103 2062.2,263.384 2078.75,224.894 2027.29,312.034 1953.97,265.355 1947.9,257.558 1841.09,289.146 1853.22,338.066 1833.62,354.074 1842.01,417.495 1746.1,450.238 1741.24,592.521 1773.61,626.259 1857.82,693.075 1926.41,704.229 1980.86,715.29 2027.75,716.558 2047.03,707.451 2051.52,636.316 2010.13,585.772 2030.78,572.269 2050.57,476.938 1982.16,415.972 1993.56,422.46 1966.91,462.957 1941.72,437.203 1925.84,441.635 1948.05,436.627 1864.92,419.358 1858.61,423.265 1814.42,440.25 1834.85,497.044 1822.76,547.784 1820.13,534.839 1770.98,552.429 1876.3,528.195 1956.89,402.68 1867.43,506.021 1848.36,563.167 1884.76,597.554 1908.34,586.235 1963.78,511.282 2050.21,574.682 2049.63,550.403 1962.56,497.832 2007.41,471.742 2037.4,385.398 2046.97,368.298 2054.78,430.806 2010.73,424.001 1914.5,393.581 1936.8,346.524 2053.77,372.929 2065.64,403.399 2077.73,315.49 2110.21,335.473 2080.25,426.794 2013.02,386.075 2099.36,486.764 2043.33,584.486 2059.07,532.971 2044.24,516.207 2083.98,577.252 2057.45,538.145 2015.91,470.847 2027.14,397.574 2061.56,401.593 2038.11,408.355 2060.46,338.48 2018.15,368.858 2022.65,325.165 2085.97,359.781 2076.05,361.937 2073.87,429.398 2106.04,429.212 2038.18,362.745 2080.77,464.005 2053.53,435.795 2097.05,341.218 2119.36,346.014 2108.56,442.381 2165.88,470.226 2128.2,353.897 2142.17,443.674 2206.48,426.126 2205.07,406.757 2178.41,284.811 2183.74,358.918 2257.86,356.055 2276.5,352.748 2210.33,321.699 2241.26,327.368 2202.26,338.547 2132.69,313.958 2137.55,349.771 2108.58,431.043 2180.79,583.873 2152.07,482.512 2226.67,452.537 2217.6,369.655 2149.4,343.681 2134.92,313.758 2045.87,375.632 2060.08,434.837 2105.18,415.628 2077.32,363.622 2024.36,465.252 2036.78,489.951 2024.17,507.359 2027.26,475.914 2021.98,428.228 2008.01,460.118 2061.36,457.223 2104.23,367.719 2040.39,394.014 2062.05,407.777 2118.66,341.545 2153.57,389.627 2182.36,398.33 2128.71,455.502 2177.59,449.179 2103.52,394.073 2007.37,384.136 1957.43,388.723 1954.04,332.262 1977.92,457.422 1985.57,395.976 1964.53,340.221 1972.05,248.533 2075.06,360.76 2024.92,316.62 2032.89,378.658 1991.05,434.446 1975.49,508.556 1952.18,515.624 1941.05,442.892 1903.18,364.43 1877.35,378.244 1890.07,355.074 1947.38,415.303 1942.33,327.726 1884.03,320.935 1912.31,318.755 1957.73,298.263 1999.23,230.321 1994.26,244.854 1861.58,290.857 1839.86,393.791 1815.79,459.418 1914.38,420.664 1998,484.17 2011.75,460.031 2018.96,460.804 2009.89,430.651 1980.1,489.828 2021.19,505.927 2015.53,475.315 1995.52,435.573 1977.05,396.164 2053.31,450.011 2072,493.792 2011.57,486.907 2030.47,446.087 2023.45,361.505 2011.97,384.939 1899.68,425.587 1886.4,421.909 1826.36,406.298 1836.34,417.666 1808.56,414.636 1740.11,493.753 1759.7,436.656 1730.5,371.164 1621.81,481.176 1739.65,512.522 1776.77,602.346 1805.85,637.623 1813.98,668.85 1817.82,559.66 1874.98,600.518 1975.81,648.992 2155.38,550.608 2197.39,532.567 2256.88,448.48 2250.58,360.109 2250.78,461.632 2209.14,516.582 2085.45,467.844 2033.82,488.519 1973.49,407.683 1922.4,444.848 1864.95,377.56 1877.05,515.123 1937.46,544.435 1939.15,443.562 1989.36,425.237 1997.6,478.128 1979.22,354.307 1926.33,329.551 1914.28,405.661 1935.62,336.072 1957.34,360.505 2002.97,404.372 1986.47,474.479 1969.32,518.222 1985.44,504.757 2021.25,399.562 2027.12,382.31 2006.46,333.264 1983.42,288.093 2030.97,240.39 2046.13,289.302 2030.3,392.484 2150.86,447.1 2115.53,485.898 2100.97,508.261 2028.04,549.744 2057.41,533.457 2056.4,442.341 2023.15,430.993 2043.74,475.37 2086.21,580.593 2038.1,421.897 2096.71,548.836 2122.75,445.547 2047.17,434.708 2031.19,588.618 2037.33,562.005 2114.83,431.166 2055.19,355.239 2025.49,398.476 1992.12,318.391 2031.78,340.265 2015.9,361.797 2120.72,297.5 2057.1,289.187 2082.38,254.456 2138.28,277.711 2076.24,340.261 2092.26,397.689 2105.64,384.655 2066.82,399.295 2064.81,425.646 2110.99,334.333 2056.82,196.478 2004.37,318.713 2002.46,407.115 1946.49,408.88 1991.32,345.887 2063.62,383.525 2072.6,413.529 2082.79,341.609 2008.2,394.552 2020.76,465.671 1987.56,399.55 2036.32,385.516 1954.8,348.697 1946.76,398.522 1925.64,289.25 1925.28,263.224 1865.94,325.419 1869.55,371.786 1972.19,387.337 1980.63,392.007 2060.12,401.308 2032.78,449.685 1985.59,474.661 2013.2,442.127 1958.45,434.986 1960.48,399.039 1959.85,458.393 1973.4,378.144 2006.12,350.046 2046.61,328.52 2104.41,350.86 2136.22,335.358 2208.84,336.399 2181.19,384.862 2166.18,406.911 2069.74,450.067 2001.69,460.374 1992.75,431.512 2045.49,435.717 2015.48,406.199 2058.29,366.437 2041.34,382.74 2012.09,440.529 2098.08,413.518 2073.64,286.309 2030.49,368.563 2070.23,384.082 2091.35,441.57 2117.1,475.419 2112.25,501.135 2139.88,487.799 2158.5,409.417 2239.21,352.962 2223.55,321.793 2218.43,335.24 2156.26,259.427 2183.94,287.238 2164.79,382.634 2126.8,453.385 2048.15,350.315 2006.92,277.269 1922,302.879 1862.53,358.433 1943.97,448.144 1975.49,435.259 1935.59,488.009 1930.69,448.862 1885.2,366.662 1800.24,354.323 1776.91,402.65 1797.85,425.379 1833.44,344.165 1827.3,399.281 1894.82,387.342 1815.8,474.068 1857.13,469.408 1925.61,348.729 1998.04,393.601 1977.13,358.541 1947.18,326.722 1994.69,309.127 2039.38,307.101 2000.14,194.226 2060.41,218.632 2153.2,255.633 2156.92,223.775 2169.34,250.726 2164.31,360.129 2127.21,283.08 2113.78,295.371 2043.93,289.764 2057.94,430.286 2057.98,361.186 2078,358.719 2068.71,374.9 2113.42,322.569 2133.38,295.698 2065.53,314.805 1993.57,335.778 2090.28,363.661 2052.19,450.13 2034.95,388.583 2042.43,310.609 2083.21,252.639 2125.23,385.907 2053.85,298.649 2106.48,339.108 2132.7,334.108 2070.34,332.798 2143.06,366.292 2100.7,441.474 2114.88,419.117 2093.19,378.286 2039.48,324.601 2051.37,291.686 2011.03,325.404 1951.16,325.526 1959.24,391.611 1970.04,406.826 1938.38,433.192 1965.43,457.297 2067.72,449.564 2102.95,422.999 2052.81,405.205 2041.84,457.876 2050.67,560.568 2068.3,554.786 2088.1,618.9 2075.64,577.703 2032.02,575.245 1926.91,488.874 1977.59,432.128 1960.22,335.519 2001.38,224.446 2015.65,292.052 1950.98,382.35 2102.44,316.369 2063.11,351.589 2046.26,234.219 2014.77,318.066 2001.68,367.525 2078.31,348.641 2087.35,285.143 2054.28,301.353 2016.74,316.13 2070.48,274.758 2101.23,307.006 2130.18,332.632 2151.14,345.217 2169.1,317.867 2064.02,272.107 2085.73,269.181 2104.87,293.823 2071.83,308.711 2152.28,354.775 2057.67,355.049 1993.85,405.232 2025.49,384.086 2069.84,313.537 2029.51,316.657 2050.49,335.403 2123.5,298.637 2116.95,259.468 1997.24,314.236 2011.3,350.147 2039.82,343.33 2080.97,412.635 2081.99,458.406 1951.64,536.961 2076.15,523.637 2100.88,561.776 2110.66,439.559 2169.85,386.287 2082.11,430.315 2109.9,459.081 2044.08,502.787 2079.5,412.05 2064.37,413.39 2064.52,327.023 2107.05,421.807 2034.23,471.777 2060.22,461.754 2109.27,579.476 2129.74,579.284 2115.67,535.771 2170.63,515.34 2150.59,477.095 2184.36,402.585 2115.96,281.021 2175.57,306.183 2194.65,271.906 2235.06,277.81 2148.06,319.44 2189.05,268.842 2261.22,240.511 2204.84,169.866 2163.81,149.368 2087.26,324.452 2092.41,307.226 2121.94,326.527 2104.69,381.981 2113.34,407.716 2134.41,430.075 2111.59,275.858 2113.97,332.241 2100.61,338.606 2133.05,417.151 2061.53,363.867 2055.36,428.171 2021.42,367.648 2035,395.705 2053.39,386.119 2048.29,373.279 2099.27,381.776 2085.97,328.575 2015.52,364.717 1990.56,437.574 1929.84,530.637 2030.84,494.146 1922.35,641.438 2028.82,628.501 2022.95,727.148 1951.21,547.636 1910.83,548.695 1857.66,587.612 "/>
<circle clip-path="url(#clip672)" cx="592.467" cy="1047.28" r="14.4" fill="#ff0000" fill-rule="evenodd" fill-opacity="1" stroke="#000000" stroke-opacity="1" stroke-width="3.2"/>
<circle clip-path="url(#clip672)" cx="2017.98" cy="423.143" r="14.4" fill="#ff0000" fill-rule="evenodd" fill-opacity="1" stroke="#000000" stroke-opacity="1" stroke-width="3.2"/>
</svg>
