<?xml version="1.0" encoding="utf-8"?>
<svg xmlns="http://www.w3.org/2000/svg" xmlns:xlink="http://www.w3.org/1999/xlink" width="800" height="800" viewBox="0 0 3200 3200">
<defs>
  <clipPath id="clip940">
    <rect x="0" y="0" width="3200" height="3200"/>
  </clipPath>
</defs>
<path clip-path="url(#clip940)" d="M0 3200 L3200 3200 L3200 0 L0 0  Z" fill="#ffffff" fill-rule="evenodd" fill-opacity="1"/>
<defs>
  <clipPath id="clip941">
    <rect x="640" y="320" width="2241" height="2241"/>
  </clipPath>
</defs>
<path clip-path="url(#clip940)" d="M292.584 1366.14 L3152.76 1366.14 L3152.76 47.2441 L292.584 47.2441  Z" fill="#ffffff" fill-rule="evenodd" fill-opacity="1"/>
<defs>
  <clipPath id="clip942">
    <rect x="292" y="47" width="2861" height="1320"/>
  </clipPath>
</defs>
<polyline clip-path="url(#clip942)" style="stroke:#000000; stroke-linecap:round; stroke-linejoin:round; stroke-width:2; stroke-opacity:0.1; fill:none" points="346.277,1366.14 346.277,47.2441 "/>
<polyline clip-path="url(#clip942)" style="stroke:#000000; stroke-linecap:round; stroke-linejoin:round; stroke-width:2; stroke-opacity:0.1; fill:none" points="1027.66,1366.14 1027.66,47.2441 "/>
<polyline clip-path="url(#clip942)" style="stroke:#000000; stroke-linecap:round; stroke-linejoin:round; stroke-width:2; stroke-opacity:0.1; fill:none" points="1709.04,1366.14 1709.04,47.2441 "/>
<polyline clip-path="url(#clip942)" style="stroke:#000000; stroke-linecap:round; stroke-linejoin:round; stroke-width:2; stroke-opacity:0.1; fill:none" points="2390.42,1366.14 2390.42,47.2441 "/>
<polyline clip-path="url(#clip942)" style="stroke:#000000; stroke-linecap:round; stroke-linejoin:round; stroke-width:2; stroke-opacity:0.1; fill:none" points="3071.81,1366.14 3071.81,47.2441 "/>
<polyline clip-path="url(#clip942)" style="stroke:#000000; stroke-linecap:round; stroke-linejoin:round; stroke-width:2; stroke-opacity:0.1; fill:none" points="292.584,1223.07 3152.76,1223.07 "/>
<polyline clip-path="url(#clip942)" style="stroke:#000000; stroke-linecap:round; stroke-linejoin:round; stroke-width:2; stroke-opacity:0.1; fill:none" points="292.584,966.709 3152.76,966.709 "/>
<polyline clip-path="url(#clip942)" style="stroke:#000000; stroke-linecap:round; stroke-linejoin:round; stroke-width:2; stroke-opacity:0.1; fill:none" points="292.584,710.344 3152.76,710.344 "/>
<polyline clip-path="url(#clip942)" style="stroke:#000000; stroke-linecap:round; stroke-linejoin:round; stroke-width:2; stroke-opacity:0.1; fill:none" points="292.584,453.979 3152.76,453.979 "/>
<polyline clip-path="url(#clip942)" style="stroke:#000000; stroke-linecap:round; stroke-linejoin:round; stroke-width:2; stroke-opacity:0.1; fill:none" points="292.584,197.614 3152.76,197.614 "/>
<polyline clip-path="url(#clip940)" style="stroke:#000000; stroke-linecap:round; stroke-linejoin:round; stroke-width:4; stroke-opacity:1; fill:none" points="292.584,1366.14 3152.76,1366.14 "/>
<polyline clip-path="url(#clip940)" style="stroke:#000000; stroke-linecap:round; stroke-linejoin:round; stroke-width:4; stroke-opacity:1; fill:none" points="346.277,1366.14 346.277,1347.24 "/>
<polyline clip-path="url(#clip940)" style="stroke:#000000; stroke-linecap:round; stroke-linejoin:round; stroke-width:4; stroke-opacity:1; fill:none" points="1027.66,1366.14 1027.66,1347.24 "/>
<polyline clip-path="url(#clip940)" style="stroke:#000000; stroke-linecap:round; stroke-linejoin:round; stroke-width:4; stroke-opacity:1; fill:none" points="1709.04,1366.14 1709.04,1347.24 "/>
<polyline clip-path="url(#clip940)" style="stroke:#000000; stroke-linecap:round; stroke-linejoin:round; stroke-width:4; stroke-opacity:1; fill:none" points="2390.42,1366.14 2390.42,1347.24 "/>
<polyline clip-path="url(#clip940)" style="stroke:#000000; stroke-linecap:round; stroke-linejoin:round; stroke-width:4; stroke-opacity:1; fill:none" points="3071.81,1366.14 3071.81,1347.24 "/>
<path clip-path="url(#clip940)" d="M346.277 1403.46 Q342.666 1403.46 340.837 1407.02 Q339.031 1410.56 339.031 1417.69 Q339.031 1424.8 340.837 1428.37 Q342.666 1431.91 346.277 1431.91 Q349.911 1431.91 351.716 1428.37 Q353.545 1424.8 353.545 1417.69 Q353.545 1410.56 351.716 1407.02 Q349.911 1403.46 346.277 1403.46 M346.277 1399.75 Q352.087 1399.75 355.142 1404.36 Q358.221 1408.94 358.221 1417.69 Q358.221 1426.42 355.142 1431.03 Q352.087 1435.61 346.277 1435.61 Q340.466 1435.61 337.388 1431.03 Q334.332 1426.42 334.332 1417.69 Q334.332 1408.94 337.388 1404.36 Q340.466 1399.75 346.277 1399.75 Z" fill="#000000" fill-rule="nonzero" fill-opacity="1" /><path clip-path="url(#clip940)" d="M1006.93 1431 L1023.25 1431 L1023.25 1434.94 L1001.31 1434.94 L1001.31 1431 Q1003.97 1428.25 1008.55 1423.62 Q1013.16 1418.97 1014.34 1417.63 Q1016.58 1415.1 1017.46 1413.37 Q1018.37 1411.61 1018.37 1409.92 Q1018.37 1407.16 1016.42 1405.43 Q1014.5 1403.69 1011.4 1403.69 Q1009.2 1403.69 1006.75 1404.45 Q1004.31 1405.22 1001.54 1406.77 L1001.54 1402.05 Q1004.36 1400.91 1006.81 1400.33 Q1009.27 1399.75 1011.31 1399.75 Q1016.68 1399.75 1019.87 1402.44 Q1023.06 1405.13 1023.06 1409.62 Q1023.06 1411.75 1022.25 1413.67 Q1021.47 1415.56 1019.36 1418.16 Q1018.78 1418.83 1015.68 1422.05 Q1012.58 1425.24 1006.93 1431 Z" fill="#000000" fill-rule="nonzero" fill-opacity="1" /><path clip-path="url(#clip940)" d="M1033.11 1400.38 L1051.47 1400.38 L1051.47 1404.32 L1037.39 1404.32 L1037.39 1412.79 Q1038.41 1412.44 1039.43 1412.28 Q1040.45 1412.09 1041.47 1412.09 Q1047.25 1412.09 1050.63 1415.26 Q1054.01 1418.44 1054.01 1423.85 Q1054.01 1429.43 1050.54 1432.53 Q1047.07 1435.61 1040.75 1435.61 Q1038.57 1435.61 1036.31 1435.24 Q1034.06 1434.87 1031.65 1434.13 L1031.65 1429.43 Q1033.74 1430.56 1035.96 1431.12 Q1038.18 1431.68 1040.66 1431.68 Q1044.66 1431.68 1047 1429.57 Q1049.34 1427.46 1049.34 1423.85 Q1049.34 1420.24 1047 1418.13 Q1044.66 1416.03 1040.66 1416.03 Q1038.78 1416.03 1036.91 1416.44 Q1035.06 1416.86 1033.11 1417.74 L1033.11 1400.38 Z" fill="#000000" fill-rule="nonzero" fill-opacity="1" /><path clip-path="url(#clip940)" d="M1683.74 1400.38 L1702.1 1400.38 L1702.1 1404.32 L1688.02 1404.32 L1688.02 1412.79 Q1689.04 1412.44 1690.06 1412.28 Q1691.08 1412.09 1692.1 1412.09 Q1697.88 1412.09 1701.26 1415.26 Q1704.64 1418.44 1704.64 1423.85 Q1704.64 1429.43 1701.17 1432.53 Q1697.7 1435.61 1691.38 1435.61 Q1689.2 1435.61 1686.94 1435.24 Q1684.69 1434.87 1682.28 1434.13 L1682.28 1429.43 Q1684.37 1430.56 1686.59 1431.12 Q1688.81 1431.68 1691.29 1431.68 Q1695.29 1431.68 1697.63 1429.57 Q1699.97 1427.46 1699.97 1423.85 Q1699.97 1420.24 1697.63 1418.13 Q1695.29 1416.03 1691.29 1416.03 Q1689.41 1416.03 1687.54 1416.44 Q1685.69 1416.86 1683.74 1417.74 L1683.74 1400.38 Z" fill="#000000" fill-rule="nonzero" fill-opacity="1" /><path clip-path="url(#clip940)" d="M1723.86 1403.46 Q1720.25 1403.46 1718.42 1407.02 Q1716.61 1410.56 1716.61 1417.69 Q1716.61 1424.8 1718.42 1428.37 Q1720.25 1431.91 1723.86 1431.91 Q1727.49 1431.91 1729.3 1428.37 Q1731.13 1424.8 1731.13 1417.69 Q1731.13 1410.56 1729.3 1407.02 Q1727.49 1403.46 1723.86 1403.46 M1723.86 1399.75 Q1729.67 1399.75 1732.72 1404.36 Q1735.8 1408.94 1735.8 1417.69 Q1735.8 1426.42 1732.72 1431.03 Q1729.67 1435.61 1723.86 1435.61 Q1718.05 1435.61 1714.97 1431.03 Q1711.91 1426.42 1711.91 1417.69 Q1711.91 1408.94 1714.97 1404.36 Q1718.05 1399.75 1723.86 1399.75 Z" fill="#000000" fill-rule="nonzero" fill-opacity="1" /><path clip-path="url(#clip940)" d="M2364.28 1400.38 L2386.5 1400.38 L2386.5 1402.37 L2373.96 1434.94 L2369.07 1434.94 L2380.88 1404.32 L2364.28 1404.32 L2364.28 1400.38 Z" fill="#000000" fill-rule="nonzero" fill-opacity="1" /><path clip-path="url(#clip940)" d="M2395.67 1400.38 L2414.02 1400.38 L2414.02 1404.32 L2399.95 1404.32 L2399.95 1412.79 Q2400.97 1412.44 2401.99 1412.28 Q2403.01 1412.09 2404.02 1412.09 Q2409.81 1412.09 2413.19 1415.26 Q2416.57 1418.44 2416.57 1423.85 Q2416.57 1429.43 2413.1 1432.53 Q2409.63 1435.61 2403.31 1435.61 Q2401.13 1435.61 2398.86 1435.24 Q2396.62 1434.87 2394.21 1434.13 L2394.21 1429.43 Q2396.29 1430.56 2398.52 1431.12 Q2400.74 1431.68 2403.21 1431.68 Q2407.22 1431.68 2409.56 1429.57 Q2411.89 1427.46 2411.89 1423.85 Q2411.89 1420.24 2409.56 1418.13 Q2407.22 1416.03 2403.21 1416.03 Q2401.34 1416.03 2399.46 1416.44 Q2397.61 1416.86 2395.67 1417.74 L2395.67 1400.38 Z" fill="#000000" fill-rule="nonzero" fill-opacity="1" /><path clip-path="url(#clip940)" d="M3031.41 1431 L3039.05 1431 L3039.05 1404.64 L3030.74 1406.31 L3030.74 1402.05 L3039.01 1400.38 L3043.68 1400.38 L3043.68 1431 L3051.32 1431 L3051.32 1434.94 L3031.41 1434.94 L3031.41 1431 Z" fill="#000000" fill-rule="nonzero" fill-opacity="1" /><path clip-path="url(#clip940)" d="M3070.77 1403.46 Q3067.15 1403.46 3065.33 1407.02 Q3063.52 1410.56 3063.52 1417.69 Q3063.52 1424.8 3065.33 1428.37 Q3067.15 1431.91 3070.77 1431.91 Q3074.4 1431.91 3076.21 1428.37 Q3078.03 1424.8 3078.03 1417.69 Q3078.03 1410.56 3076.21 1407.02 Q3074.4 1403.46 3070.77 1403.46 M3070.77 1399.75 Q3076.58 1399.75 3079.63 1404.36 Q3082.71 1408.94 3082.71 1417.69 Q3082.71 1426.42 3079.63 1431.03 Q3076.58 1435.61 3070.77 1435.61 Q3064.96 1435.61 3061.88 1431.03 Q3058.82 1426.42 3058.82 1417.69 Q3058.82 1408.94 3061.88 1404.36 Q3064.96 1399.75 3070.77 1399.75 Z" fill="#000000" fill-rule="nonzero" fill-opacity="1" /><path clip-path="url(#clip940)" d="M3100.93 1403.46 Q3097.32 1403.46 3095.49 1407.02 Q3093.68 1410.56 3093.68 1417.69 Q3093.68 1424.8 3095.49 1428.37 Q3097.32 1431.91 3100.93 1431.91 Q3104.56 1431.91 3106.37 1428.37 Q3108.2 1424.8 3108.2 1417.69 Q3108.2 1410.56 3106.37 1407.02 Q3104.56 1403.46 3100.93 1403.46 M3100.93 1399.75 Q3106.74 1399.75 3109.79 1404.36 Q3112.87 1408.94 3112.87 1417.69 Q3112.87 1426.42 3109.79 1431.03 Q3106.74 1435.61 3100.93 1435.61 Q3095.12 1435.61 3092.04 1431.03 Q3088.98 1426.42 3088.98 1417.69 Q3088.98 1408.94 3092.04 1404.36 Q3095.12 1399.75 3100.93 1399.75 Z" fill="#000000" fill-rule="nonzero" fill-opacity="1" /><path clip-path="url(#clip940)" d="M1644.55 1475.48 L1684.75 1475.48 L1684.75 1480.89 L1667.88 1480.89 L1667.88 1523 L1661.42 1523 L1661.42 1480.89 L1644.55 1480.89 L1644.55 1475.48 Z" fill="#000000" fill-rule="nonzero" fill-opacity="1" /><path clip-path="url(#clip940)" d="M1688.69 1487.36 L1694.55 1487.36 L1694.55 1523 L1688.69 1523 L1688.69 1487.36 M1688.69 1473.48 L1694.55 1473.48 L1694.55 1480.89 L1688.69 1480.89 L1688.69 1473.48 Z" fill="#000000" fill-rule="nonzero" fill-opacity="1" /><path clip-path="url(#clip940)" d="M1734.56 1494.2 Q1736.75 1490.25 1739.81 1488.37 Q1742.86 1486.5 1747 1486.5 Q1752.57 1486.5 1755.6 1490.41 Q1758.62 1494.29 1758.62 1501.49 L1758.62 1523 L1752.73 1523 L1752.73 1501.68 Q1752.73 1496.55 1750.92 1494.07 Q1749.1 1491.59 1745.38 1491.59 Q1740.83 1491.59 1738.19 1494.61 Q1735.54 1497.64 1735.54 1502.86 L1735.54 1523 L1729.66 1523 L1729.66 1501.68 Q1729.66 1496.52 1727.84 1494.07 Q1726.03 1491.59 1722.24 1491.59 Q1717.75 1491.59 1715.11 1494.64 Q1712.47 1497.67 1712.47 1502.86 L1712.47 1523 L1706.58 1523 L1706.58 1487.36 L1712.47 1487.36 L1712.47 1492.89 Q1714.47 1489.62 1717.27 1488.06 Q1720.08 1486.5 1723.93 1486.5 Q1727.81 1486.5 1730.52 1488.47 Q1733.25 1490.44 1734.56 1494.2 Z" fill="#000000" fill-rule="nonzero" fill-opacity="1" /><path clip-path="url(#clip940)" d="M1800.79 1503.72 L1800.79 1506.58 L1773.87 1506.58 Q1774.25 1512.63 1777.49 1515.81 Q1780.77 1518.96 1786.6 1518.96 Q1789.97 1518.96 1793.12 1518.13 Q1796.31 1517.31 1799.42 1515.65 L1799.42 1521.19 Q1796.27 1522.53 1792.96 1523.23 Q1789.65 1523.93 1786.25 1523.93 Q1777.72 1523.93 1772.72 1518.96 Q1767.75 1514 1767.75 1505.53 Q1767.75 1496.78 1772.47 1491.65 Q1777.21 1486.5 1785.23 1486.5 Q1792.42 1486.5 1796.59 1491.14 Q1800.79 1495.76 1800.79 1503.72 M1794.94 1502 Q1794.87 1497.19 1792.23 1494.33 Q1789.62 1491.46 1785.29 1491.46 Q1780.39 1491.46 1777.43 1494.23 Q1774.5 1497 1774.06 1502.03 L1794.94 1502 Z" fill="#000000" fill-rule="nonzero" fill-opacity="1" /><polyline clip-path="url(#clip940)" style="stroke:#000000; stroke-linecap:round; stroke-linejoin:round; stroke-width:4; stroke-opacity:1; fill:none" points="292.584,1366.14 292.584,47.2441 "/>
<polyline clip-path="url(#clip940)" style="stroke:#000000; stroke-linecap:round; stroke-linejoin:round; stroke-width:4; stroke-opacity:1; fill:none" points="292.584,1223.07 311.481,1223.07 "/>
<polyline clip-path="url(#clip940)" style="stroke:#000000; stroke-linecap:round; stroke-linejoin:round; stroke-width:4; stroke-opacity:1; fill:none" points="292.584,966.709 311.481,966.709 "/>
<polyline clip-path="url(#clip940)" style="stroke:#000000; stroke-linecap:round; stroke-linejoin:round; stroke-width:4; stroke-opacity:1; fill:none" points="292.584,710.344 311.481,710.344 "/>
<polyline clip-path="url(#clip940)" style="stroke:#000000; stroke-linecap:round; stroke-linejoin:round; stroke-width:4; stroke-opacity:1; fill:none" points="292.584,453.979 311.481,453.979 "/>
<polyline clip-path="url(#clip940)" style="stroke:#000000; stroke-linecap:round; stroke-linejoin:round; stroke-width:4; stroke-opacity:1; fill:none" points="292.584,197.614 311.481,197.614 "/>
<path clip-path="url(#clip940)" d="M107.478 1223.53 L137.154 1223.53 L137.154 1227.46 L107.478 1227.46 L107.478 1223.53 Z" fill="#000000" fill-rule="nonzero" fill-opacity="1" /><path clip-path="url(#clip940)" d="M157.246 1208.87 Q153.635 1208.87 151.806 1212.44 Q150.001 1215.98 150.001 1223.11 Q150.001 1230.21 151.806 1233.78 Q153.635 1237.32 157.246 1237.32 Q160.88 1237.32 162.686 1233.78 Q164.515 1230.21 164.515 1223.11 Q164.515 1215.98 162.686 1212.44 Q160.88 1208.87 157.246 1208.87 M157.246 1205.17 Q163.056 1205.17 166.112 1209.78 Q169.191 1214.36 169.191 1223.11 Q169.191 1231.84 166.112 1236.44 Q163.056 1241.03 157.246 1241.03 Q151.436 1241.03 148.357 1236.44 Q145.302 1231.84 145.302 1223.11 Q145.302 1214.36 148.357 1209.78 Q151.436 1205.17 157.246 1205.17 Z" fill="#000000" fill-rule="nonzero" fill-opacity="1" /><path clip-path="url(#clip940)" d="M177.408 1234.47 L182.292 1234.47 L182.292 1240.35 L177.408 1240.35 L177.408 1234.47 Z" fill="#000000" fill-rule="nonzero" fill-opacity="1" /><path clip-path="url(#clip940)" d="M192.524 1205.79 L210.88 1205.79 L210.88 1209.73 L196.806 1209.73 L196.806 1218.2 Q197.825 1217.85 198.843 1217.69 Q199.862 1217.51 200.88 1217.51 Q206.667 1217.51 210.047 1220.68 Q213.426 1223.85 213.426 1229.27 Q213.426 1234.84 209.954 1237.95 Q206.482 1241.03 200.163 1241.03 Q197.987 1241.03 195.718 1240.65 Q193.473 1240.28 191.065 1239.54 L191.065 1234.84 Q193.149 1235.98 195.371 1236.53 Q197.593 1237.09 200.07 1237.09 Q204.075 1237.09 206.413 1234.98 Q208.751 1232.88 208.751 1229.27 Q208.751 1225.65 206.413 1223.55 Q204.075 1221.44 200.07 1221.44 Q198.195 1221.44 196.32 1221.86 Q194.468 1222.28 192.524 1223.15 L192.524 1205.79 Z" fill="#000000" fill-rule="nonzero" fill-opacity="1" /><path clip-path="url(#clip940)" d="M232.639 1208.87 Q229.028 1208.87 227.199 1212.44 Q225.394 1215.98 225.394 1223.11 Q225.394 1230.21 227.199 1233.78 Q229.028 1237.32 232.639 1237.32 Q236.274 1237.32 238.079 1233.78 Q239.908 1230.21 239.908 1223.11 Q239.908 1215.98 238.079 1212.44 Q236.274 1208.87 232.639 1208.87 M232.639 1205.17 Q238.449 1205.17 241.505 1209.78 Q244.584 1214.36 244.584 1223.11 Q244.584 1231.84 241.505 1236.44 Q238.449 1241.03 232.639 1241.03 Q226.829 1241.03 223.75 1236.44 Q220.695 1231.84 220.695 1223.11 Q220.695 1214.36 223.75 1209.78 Q226.829 1205.17 232.639 1205.17 Z" fill="#000000" fill-rule="nonzero" fill-opacity="1" /><path clip-path="url(#clip940)" d="M108.473 967.16 L138.149 967.16 L138.149 971.095 L108.473 971.095 L108.473 967.16 Z" fill="#000000" fill-rule="nonzero" fill-opacity="1" /><path clip-path="url(#clip940)" d="M158.242 952.508 Q154.63 952.508 152.802 956.072 Q150.996 959.614 150.996 966.744 Q150.996 973.85 152.802 977.415 Q154.63 980.956 158.242 980.956 Q161.876 980.956 163.681 977.415 Q165.51 973.85 165.51 966.744 Q165.51 959.614 163.681 956.072 Q161.876 952.508 158.242 952.508 M158.242 948.804 Q164.052 948.804 167.107 953.41 Q170.186 957.994 170.186 966.744 Q170.186 975.47 167.107 980.077 Q164.052 984.66 158.242 984.66 Q152.431 984.66 149.353 980.077 Q146.297 975.47 146.297 966.744 Q146.297 957.994 149.353 953.41 Q152.431 948.804 158.242 948.804 Z" fill="#000000" fill-rule="nonzero" fill-opacity="1" /><path clip-path="url(#clip940)" d="M178.403 978.109 L183.288 978.109 L183.288 983.989 L178.403 983.989 L178.403 978.109 Z" fill="#000000" fill-rule="nonzero" fill-opacity="1" /><path clip-path="url(#clip940)" d="M197.501 980.054 L213.82 980.054 L213.82 983.989 L191.876 983.989 L191.876 980.054 Q194.538 977.299 199.121 972.669 Q203.727 968.017 204.908 966.674 Q207.153 964.151 208.033 962.415 Q208.936 960.656 208.936 958.966 Q208.936 956.211 206.991 954.475 Q205.07 952.739 201.968 952.739 Q199.769 952.739 197.315 953.503 Q194.885 954.267 192.107 955.818 L192.107 951.096 Q194.931 949.961 197.385 949.383 Q199.839 948.804 201.876 948.804 Q207.246 948.804 210.44 951.489 Q213.635 954.174 213.635 958.665 Q213.635 960.795 212.825 962.716 Q212.038 964.614 209.931 967.207 Q209.352 967.878 206.251 971.095 Q203.149 974.29 197.501 980.054 Z" fill="#000000" fill-rule="nonzero" fill-opacity="1" /><path clip-path="url(#clip940)" d="M223.681 949.429 L242.037 949.429 L242.037 953.364 L227.963 953.364 L227.963 961.836 Q228.982 961.489 230 961.327 Q231.019 961.142 232.037 961.142 Q237.824 961.142 241.204 964.313 Q244.584 967.484 244.584 972.901 Q244.584 978.48 241.111 981.581 Q237.639 984.66 231.32 984.66 Q229.144 984.66 226.875 984.29 Q224.63 983.919 222.223 983.179 L222.223 978.48 Q224.306 979.614 226.528 980.169 Q228.75 980.725 231.227 980.725 Q235.232 980.725 237.57 978.619 Q239.908 976.512 239.908 972.901 Q239.908 969.29 237.57 967.183 Q235.232 965.077 231.227 965.077 Q229.352 965.077 227.477 965.494 Q225.625 965.91 223.681 966.79 L223.681 949.429 Z" fill="#000000" fill-rule="nonzero" fill-opacity="1" /><path clip-path="url(#clip940)" d="M157.246 696.143 Q153.635 696.143 151.806 699.707 Q150.001 703.249 150.001 710.379 Q150.001 717.485 151.806 721.05 Q153.635 724.592 157.246 724.592 Q160.88 724.592 162.686 721.05 Q164.515 717.485 164.515 710.379 Q164.515 703.249 162.686 699.707 Q160.88 696.143 157.246 696.143 M157.246 692.439 Q163.056 692.439 166.112 697.045 Q169.191 701.629 169.191 710.379 Q169.191 719.106 166.112 723.712 Q163.056 728.295 157.246 728.295 Q151.436 728.295 148.357 723.712 Q145.302 719.106 145.302 710.379 Q145.302 701.629 148.357 697.045 Q151.436 692.439 157.246 692.439 Z" fill="#000000" fill-rule="nonzero" fill-opacity="1" /><path clip-path="url(#clip940)" d="M177.408 721.744 L182.292 721.744 L182.292 727.624 L177.408 727.624 L177.408 721.744 Z" fill="#000000" fill-rule="nonzero" fill-opacity="1" /><path clip-path="url(#clip940)" d="M202.477 696.143 Q198.866 696.143 197.038 699.707 Q195.232 703.249 195.232 710.379 Q195.232 717.485 197.038 721.05 Q198.866 724.592 202.477 724.592 Q206.112 724.592 207.917 721.05 Q209.746 717.485 209.746 710.379 Q209.746 703.249 207.917 699.707 Q206.112 696.143 202.477 696.143 M202.477 692.439 Q208.288 692.439 211.343 697.045 Q214.422 701.629 214.422 710.379 Q214.422 719.106 211.343 723.712 Q208.288 728.295 202.477 728.295 Q196.667 728.295 193.589 723.712 Q190.533 719.106 190.533 710.379 Q190.533 701.629 193.589 697.045 Q196.667 692.439 202.477 692.439 Z" fill="#000000" fill-rule="nonzero" fill-opacity="1" /><path clip-path="url(#clip940)" d="M232.639 696.143 Q229.028 696.143 227.199 699.707 Q225.394 703.249 225.394 710.379 Q225.394 717.485 227.199 721.05 Q229.028 724.592 232.639 724.592 Q236.274 724.592 238.079 721.05 Q239.908 717.485 239.908 710.379 Q239.908 703.249 238.079 699.707 Q236.274 696.143 232.639 696.143 M232.639 692.439 Q238.449 692.439 241.505 697.045 Q244.584 701.629 244.584 710.379 Q244.584 719.106 241.505 723.712 Q238.449 728.295 232.639 728.295 Q226.829 728.295 223.75 723.712 Q220.695 719.106 220.695 710.379 Q220.695 701.629 223.75 697.045 Q226.829 692.439 232.639 692.439 Z" fill="#000000" fill-rule="nonzero" fill-opacity="1" /><path clip-path="url(#clip940)" d="M158.242 439.778 Q154.63 439.778 152.802 443.343 Q150.996 446.884 150.996 454.014 Q150.996 461.12 152.802 464.685 Q154.63 468.227 158.242 468.227 Q161.876 468.227 163.681 464.685 Q165.51 461.12 165.51 454.014 Q165.51 446.884 163.681 443.343 Q161.876 439.778 158.242 439.778 M158.242 436.074 Q164.052 436.074 167.107 440.681 Q170.186 445.264 170.186 454.014 Q170.186 462.741 167.107 467.347 Q164.052 471.93 158.242 471.93 Q152.431 471.93 149.353 467.347 Q146.297 462.741 146.297 454.014 Q146.297 445.264 149.353 440.681 Q152.431 436.074 158.242 436.074 Z" fill="#000000" fill-rule="nonzero" fill-opacity="1" /><path clip-path="url(#clip940)" d="M178.403 465.38 L183.288 465.38 L183.288 471.259 L178.403 471.259 L178.403 465.38 Z" fill="#000000" fill-rule="nonzero" fill-opacity="1" /><path clip-path="url(#clip940)" d="M197.501 467.324 L213.82 467.324 L213.82 471.259 L191.876 471.259 L191.876 467.324 Q194.538 464.569 199.121 459.94 Q203.727 455.287 204.908 453.944 Q207.153 451.421 208.033 449.685 Q208.936 447.926 208.936 446.236 Q208.936 443.481 206.991 441.745 Q205.07 440.009 201.968 440.009 Q199.769 440.009 197.315 440.773 Q194.885 441.537 192.107 443.088 L192.107 438.366 Q194.931 437.232 197.385 436.653 Q199.839 436.074 201.876 436.074 Q207.246 436.074 210.44 438.759 Q213.635 441.444 213.635 445.935 Q213.635 448.065 212.825 449.986 Q212.038 451.884 209.931 454.477 Q209.352 455.148 206.251 458.366 Q203.149 461.56 197.501 467.324 Z" fill="#000000" fill-rule="nonzero" fill-opacity="1" /><path clip-path="url(#clip940)" d="M223.681 436.699 L242.037 436.699 L242.037 440.634 L227.963 440.634 L227.963 449.106 Q228.982 448.759 230 448.597 Q231.019 448.412 232.037 448.412 Q237.824 448.412 241.204 451.583 Q244.584 454.755 244.584 460.171 Q244.584 465.75 241.111 468.852 Q237.639 471.93 231.32 471.93 Q229.144 471.93 226.875 471.56 Q224.63 471.19 222.223 470.449 L222.223 465.75 Q224.306 466.884 226.528 467.44 Q228.75 467.995 231.227 467.995 Q235.232 467.995 237.57 465.889 Q239.908 463.782 239.908 460.171 Q239.908 456.56 237.57 454.454 Q235.232 452.347 231.227 452.347 Q229.352 452.347 227.477 452.764 Q225.625 453.181 223.681 454.06 L223.681 436.699 Z" fill="#000000" fill-rule="nonzero" fill-opacity="1" /><path clip-path="url(#clip940)" d="M157.246 183.413 Q153.635 183.413 151.806 186.978 Q150.001 190.519 150.001 197.649 Q150.001 204.755 151.806 208.32 Q153.635 211.862 157.246 211.862 Q160.88 211.862 162.686 208.32 Q164.515 204.755 164.515 197.649 Q164.515 190.519 162.686 186.978 Q160.88 183.413 157.246 183.413 M157.246 179.709 Q163.056 179.709 166.112 184.316 Q169.191 188.899 169.191 197.649 Q169.191 206.376 166.112 210.982 Q163.056 215.566 157.246 215.566 Q151.436 215.566 148.357 210.982 Q145.302 206.376 145.302 197.649 Q145.302 188.899 148.357 184.316 Q151.436 179.709 157.246 179.709 Z" fill="#000000" fill-rule="nonzero" fill-opacity="1" /><path clip-path="url(#clip940)" d="M177.408 209.015 L182.292 209.015 L182.292 214.894 L177.408 214.894 L177.408 209.015 Z" fill="#000000" fill-rule="nonzero" fill-opacity="1" /><path clip-path="url(#clip940)" d="M192.524 180.334 L210.88 180.334 L210.88 184.269 L196.806 184.269 L196.806 192.742 Q197.825 192.394 198.843 192.232 Q199.862 192.047 200.88 192.047 Q206.667 192.047 210.047 195.218 Q213.426 198.39 213.426 203.806 Q213.426 209.385 209.954 212.487 Q206.482 215.566 200.163 215.566 Q197.987 215.566 195.718 215.195 Q193.473 214.825 191.065 214.084 L191.065 209.385 Q193.149 210.519 195.371 211.075 Q197.593 211.63 200.07 211.63 Q204.075 211.63 206.413 209.524 Q208.751 207.417 208.751 203.806 Q208.751 200.195 206.413 198.089 Q204.075 195.982 200.07 195.982 Q198.195 195.982 196.32 196.399 Q194.468 196.816 192.524 197.695 L192.524 180.334 Z" fill="#000000" fill-rule="nonzero" fill-opacity="1" /><path clip-path="url(#clip940)" d="M232.639 183.413 Q229.028 183.413 227.199 186.978 Q225.394 190.519 225.394 197.649 Q225.394 204.755 227.199 208.32 Q229.028 211.862 232.639 211.862 Q236.274 211.862 238.079 208.32 Q239.908 204.755 239.908 197.649 Q239.908 190.519 238.079 186.978 Q236.274 183.413 232.639 183.413 M232.639 179.709 Q238.449 179.709 241.505 184.316 Q244.584 188.899 244.584 197.649 Q244.584 206.376 241.505 210.982 Q238.449 215.566 232.639 215.566 Q226.829 215.566 223.75 210.982 Q220.695 206.376 220.695 197.649 Q220.695 188.899 223.75 184.316 Q226.829 179.709 232.639 179.709 Z" fill="#000000" fill-rule="nonzero" fill-opacity="1" /><polyline clip-path="url(#clip942)" style="stroke:#e26f46; stroke-linecap:round; stroke-linejoin:round; stroke-width:4; stroke-opacity:1; fill:none" points="2234.41,2685.04 2234.41,-1271.65 "/>
<circle clip-path="url(#clip942)" cx="373.532" cy="84.5713" r="14.4" fill="#009af9" fill-rule="evenodd" fill-opacity="1" stroke="#000000" stroke-opacity="1" stroke-width="6.4"/>
<circle clip-path="url(#clip942)" cx="466.576" cy="988.599" r="14.4" fill="#009af9" fill-rule="evenodd" fill-opacity="1" stroke="#000000" stroke-opacity="1" stroke-width="6.4"/>
<circle clip-path="url(#clip942)" cx="559.62" cy="1242.61" r="14.4" fill="#009af9" fill-rule="evenodd" fill-opacity="1" stroke="#000000" stroke-opacity="1" stroke-width="6.4"/>
<circle clip-path="url(#clip942)" cx="652.664" cy="1304.79" r="14.4" fill="#009af9" fill-rule="evenodd" fill-opacity="1" stroke="#000000" stroke-opacity="1" stroke-width="6.4"/>
<circle clip-path="url(#clip942)" cx="745.708" cy="1320.1" r="14.4" fill="#009af9" fill-rule="evenodd" fill-opacity="1" stroke="#000000" stroke-opacity="1" stroke-width="6.4"/>
<circle clip-path="url(#clip942)" cx="838.752" cy="1324.81" r="14.4" fill="#009af9" fill-rule="evenodd" fill-opacity="1" stroke="#000000" stroke-opacity="1" stroke-width="6.4"/>
<circle clip-path="url(#clip942)" cx="931.796" cy="1326.67" r="14.4" fill="#009af9" fill-rule="evenodd" fill-opacity="1" stroke="#000000" stroke-opacity="1" stroke-width="6.4"/>
<circle clip-path="url(#clip942)" cx="1024.84" cy="1327.54" r="14.4" fill="#009af9" fill-rule="evenodd" fill-opacity="1" stroke="#000000" stroke-opacity="1" stroke-width="6.4"/>
<circle clip-path="url(#clip942)" cx="1117.88" cy="1328.01" r="14.4" fill="#009af9" fill-rule="evenodd" fill-opacity="1" stroke="#000000" stroke-opacity="1" stroke-width="6.4"/>
<circle clip-path="url(#clip942)" cx="1210.93" cy="1328.29" r="14.4" fill="#009af9" fill-rule="evenodd" fill-opacity="1" stroke="#000000" stroke-opacity="1" stroke-width="6.4"/>
<circle clip-path="url(#clip942)" cx="1303.97" cy="1328.46" r="14.4" fill="#009af9" fill-rule="evenodd" fill-opacity="1" stroke="#000000" stroke-opacity="1" stroke-width="6.4"/>
<circle clip-path="url(#clip942)" cx="1397.02" cy="1328.58" r="14.4" fill="#009af9" fill-rule="evenodd" fill-opacity="1" stroke="#000000" stroke-opacity="1" stroke-width="6.4"/>
<circle clip-path="url(#clip942)" cx="1490.06" cy="1328.65" r="14.4" fill="#009af9" fill-rule="evenodd" fill-opacity="1" stroke="#000000" stroke-opacity="1" stroke-width="6.4"/>
<circle clip-path="url(#clip942)" cx="1583.1" cy="1328.71" r="14.4" fill="#009af9" fill-rule="evenodd" fill-opacity="1" stroke="#000000" stroke-opacity="1" stroke-width="6.4"/>
<circle clip-path="url(#clip942)" cx="1676.15" cy="1328.74" r="14.4" fill="#009af9" fill-rule="evenodd" fill-opacity="1" stroke="#000000" stroke-opacity="1" stroke-width="6.4"/>
<circle clip-path="url(#clip942)" cx="1769.19" cy="1328.77" r="14.4" fill="#009af9" fill-rule="evenodd" fill-opacity="1" stroke="#000000" stroke-opacity="1" stroke-width="6.4"/>
<circle clip-path="url(#clip942)" cx="1862.24" cy="1328.79" r="14.4" fill="#009af9" fill-rule="evenodd" fill-opacity="1" stroke="#000000" stroke-opacity="1" stroke-width="6.4"/>
<circle clip-path="url(#clip942)" cx="1955.28" cy="1328.8" r="14.4" fill="#009af9" fill-rule="evenodd" fill-opacity="1" stroke="#000000" stroke-opacity="1" stroke-width="6.4"/>
<circle clip-path="url(#clip942)" cx="2048.32" cy="1328.81" r="14.4" fill="#009af9" fill-rule="evenodd" fill-opacity="1" stroke="#000000" stroke-opacity="1" stroke-width="6.4"/>
<circle clip-path="url(#clip942)" cx="2141.37" cy="1328.81" r="14.4" fill="#009af9" fill-rule="evenodd" fill-opacity="1" stroke="#000000" stroke-opacity="1" stroke-width="6.4"/>
<circle clip-path="url(#clip942)" cx="2234.41" cy="1328.81" r="14.4" fill="#009af9" fill-rule="evenodd" fill-opacity="1" stroke="#000000" stroke-opacity="1" stroke-width="6.4"/>
<circle clip-path="url(#clip942)" cx="2327.46" cy="1328.81" r="14.4" fill="#009af9" fill-rule="evenodd" fill-opacity="1" stroke="#000000" stroke-opacity="1" stroke-width="6.4"/>
<circle clip-path="url(#clip942)" cx="2420.5" cy="1328.81" r="14.4" fill="#009af9" fill-rule="evenodd" fill-opacity="1" stroke="#000000" stroke-opacity="1" stroke-width="6.4"/>
<circle clip-path="url(#clip942)" cx="2513.54" cy="1328.8" r="14.4" fill="#009af9" fill-rule="evenodd" fill-opacity="1" stroke="#000000" stroke-opacity="1" stroke-width="6.4"/>
<circle clip-path="url(#clip942)" cx="2606.59" cy="1328.79" r="14.4" fill="#009af9" fill-rule="evenodd" fill-opacity="1" stroke="#000000" stroke-opacity="1" stroke-width="6.4"/>
<circle clip-path="url(#clip942)" cx="2699.63" cy="1328.79" r="14.4" fill="#009af9" fill-rule="evenodd" fill-opacity="1" stroke="#000000" stroke-opacity="1" stroke-width="6.4"/>
<circle clip-path="url(#clip942)" cx="2792.68" cy="1328.78" r="14.4" fill="#009af9" fill-rule="evenodd" fill-opacity="1" stroke="#000000" stroke-opacity="1" stroke-width="6.4"/>
<circle clip-path="url(#clip942)" cx="2885.72" cy="1328.76" r="14.4" fill="#009af9" fill-rule="evenodd" fill-opacity="1" stroke="#000000" stroke-opacity="1" stroke-width="6.4"/>
<circle clip-path="url(#clip942)" cx="2978.76" cy="1328.75" r="14.4" fill="#009af9" fill-rule="evenodd" fill-opacity="1" stroke="#000000" stroke-opacity="1" stroke-width="6.4"/>
<circle clip-path="url(#clip942)" cx="3071.81" cy="1328.74" r="14.4" fill="#009af9" fill-rule="evenodd" fill-opacity="1" stroke="#000000" stroke-opacity="1" stroke-width="6.4"/>
<path clip-path="url(#clip940)" d="M2368.69 246.727 L3057.42 246.727 L3057.42 91.2073 L2368.69 91.2073  Z" fill="#ffffff" fill-rule="evenodd" fill-opacity="1"/>
<polyline clip-path="url(#clip940)" style="stroke:#000000; stroke-linecap:round; stroke-linejoin:round; stroke-width:4; stroke-opacity:1; fill:none" points="2368.69,246.727 3057.42,246.727 3057.42,91.2073 2368.69,91.2073 2368.69,246.727 "/>
<polyline clip-path="url(#clip940)" style="stroke:#e26f46; stroke-linecap:round; stroke-linejoin:round; stroke-width:4; stroke-opacity:1; fill:none" points="2400.47,143.047 2591.15,143.047 "/>
<path clip-path="url(#clip940)" d="M2622.93 125.767 L2629.9 125.767 L2638.72 149.286 L2647.58 125.767 L2654.55 125.767 L2654.55 160.327 L2649.99 160.327 L2649.99 129.98 L2641.08 153.684 L2636.38 153.684 L2627.47 129.98 L2627.47 160.327 L2622.93 160.327 L2622.93 125.767 Z" fill="#000000" fill-rule="nonzero" fill-opacity="1" /><path clip-path="url(#clip940)" d="M2663.65 134.401 L2667.91 134.401 L2667.91 160.327 L2663.65 160.327 L2663.65 134.401 M2663.65 124.309 L2667.91 124.309 L2667.91 129.702 L2663.65 129.702 L2663.65 124.309 Z" fill="#000000" fill-rule="nonzero" fill-opacity="1" /><path clip-path="url(#clip940)" d="M2698.37 144.679 L2698.37 160.327 L2694.11 160.327 L2694.11 144.818 Q2694.11 141.138 2692.68 139.309 Q2691.24 137.48 2688.37 137.48 Q2684.92 137.48 2682.93 139.679 Q2680.94 141.878 2680.94 145.675 L2680.94 160.327 L2676.66 160.327 L2676.66 134.401 L2680.94 134.401 L2680.94 138.429 Q2682.47 136.091 2684.53 134.934 Q2686.61 133.777 2689.32 133.777 Q2693.79 133.777 2696.08 136.554 Q2698.37 139.309 2698.37 144.679 Z" fill="#000000" fill-rule="nonzero" fill-opacity="1" /><path clip-path="url(#clip940)" d="M2706.87 134.401 L2711.12 134.401 L2711.12 160.327 L2706.87 160.327 L2706.87 134.401 M2706.87 124.309 L2711.12 124.309 L2711.12 129.702 L2706.87 129.702 L2706.87 124.309 Z" fill="#000000" fill-rule="nonzero" fill-opacity="1" /><path clip-path="url(#clip940)" d="M2740.22 139.378 Q2741.82 136.508 2744.04 135.142 Q2746.26 133.777 2749.27 133.777 Q2753.32 133.777 2755.52 136.624 Q2757.72 139.448 2757.72 144.679 L2757.72 160.327 L2753.44 160.327 L2753.44 144.818 Q2753.44 141.091 2752.12 139.286 Q2750.8 137.48 2748.09 137.48 Q2744.78 137.48 2742.86 139.679 Q2740.94 141.878 2740.94 145.675 L2740.94 160.327 L2736.66 160.327 L2736.66 144.818 Q2736.66 141.068 2735.34 139.286 Q2734.02 137.48 2731.26 137.48 Q2728 137.48 2726.08 139.702 Q2724.16 141.901 2724.16 145.675 L2724.16 160.327 L2719.87 160.327 L2719.87 134.401 L2724.16 134.401 L2724.16 138.429 Q2725.62 136.045 2727.65 134.911 Q2729.69 133.777 2732.49 133.777 Q2735.31 133.777 2737.28 135.212 Q2739.27 136.647 2740.22 139.378 Z" fill="#000000" fill-rule="nonzero" fill-opacity="1" /><path clip-path="url(#clip940)" d="M2765.78 150.096 L2765.78 134.401 L2770.04 134.401 L2770.04 149.934 Q2770.04 153.614 2771.47 155.466 Q2772.91 157.295 2775.78 157.295 Q2779.23 157.295 2781.22 155.096 Q2783.23 152.897 2783.23 149.1 L2783.23 134.401 L2787.49 134.401 L2787.49 160.327 L2783.23 160.327 L2783.23 156.346 Q2781.68 158.707 2779.62 159.864 Q2777.58 160.999 2774.87 160.999 Q2770.41 160.999 2768.09 158.221 Q2765.78 155.443 2765.78 150.096 M2776.49 133.777 L2776.49 133.777 Z" fill="#000000" fill-rule="nonzero" fill-opacity="1" /><path clip-path="url(#clip940)" d="M2816.45 139.378 Q2818.05 136.508 2820.27 135.142 Q2822.49 133.777 2825.5 133.777 Q2829.55 133.777 2831.75 136.624 Q2833.95 139.448 2833.95 144.679 L2833.95 160.327 L2829.67 160.327 L2829.67 144.818 Q2829.67 141.091 2828.35 139.286 Q2827.03 137.48 2824.32 137.48 Q2821.01 137.48 2819.09 139.679 Q2817.17 141.878 2817.17 145.675 L2817.17 160.327 L2812.88 160.327 L2812.88 144.818 Q2812.88 141.068 2811.56 139.286 Q2810.24 137.48 2807.49 137.48 Q2804.23 137.48 2802.31 139.702 Q2800.38 141.901 2800.38 145.675 L2800.38 160.327 L2796.1 160.327 L2796.1 134.401 L2800.38 134.401 L2800.38 138.429 Q2801.84 136.045 2803.88 134.911 Q2805.92 133.777 2808.72 133.777 Q2811.54 133.777 2813.51 135.212 Q2815.5 136.647 2816.45 139.378 Z" fill="#000000" fill-rule="nonzero" fill-opacity="1" /><circle clip-path="url(#clip940)" cx="2495.81" cy="194.887" r="20.48" fill="#009af9" fill-rule="evenodd" fill-opacity="1" stroke="#000000" stroke-opacity="1" stroke-width="9.10222"/>
<path clip-path="url(#clip940)" d="M2638.95 180.779 Q2633.86 180.779 2630.85 184.575 Q2627.86 188.371 2627.86 194.922 Q2627.86 201.45 2630.85 205.246 Q2633.86 209.042 2638.95 209.042 Q2644.04 209.042 2647 205.246 Q2649.99 201.45 2649.99 194.922 Q2649.99 188.371 2647 184.575 Q2644.04 180.779 2638.95 180.779 M2638.95 176.982 Q2646.22 176.982 2650.57 181.867 Q2654.92 186.728 2654.92 194.922 Q2654.92 203.093 2650.57 207.977 Q2646.22 212.839 2638.95 212.839 Q2631.66 212.839 2627.28 207.977 Q2622.93 203.116 2622.93 194.922 Q2622.93 186.728 2627.28 181.867 Q2631.66 176.982 2638.95 176.982 Z" fill="#000000" fill-rule="nonzero" fill-opacity="1" /><path clip-path="url(#clip940)" d="M2680.66 199.228 Q2680.66 194.528 2678.72 191.866 Q2676.8 189.181 2673.42 189.181 Q2670.04 189.181 2668.09 191.866 Q2666.17 194.528 2666.17 199.228 Q2666.17 203.927 2668.09 206.612 Q2670.04 209.274 2673.42 209.274 Q2676.8 209.274 2678.72 206.612 Q2680.66 203.927 2680.66 199.228 M2666.17 190.177 Q2667.51 187.862 2669.55 186.751 Q2671.61 185.617 2674.46 185.617 Q2679.18 185.617 2682.12 189.366 Q2685.08 193.116 2685.08 199.228 Q2685.08 205.339 2682.12 209.089 Q2679.18 212.839 2674.46 212.839 Q2671.61 212.839 2669.55 211.727 Q2667.51 210.593 2666.17 208.278 L2666.17 212.167 L2661.89 212.167 L2661.89 176.149 L2666.17 176.149 L2666.17 190.177 Z" fill="#000000" fill-rule="nonzero" fill-opacity="1" /><path clip-path="url(#clip940)" d="M2692.14 186.241 L2696.4 186.241 L2696.4 212.63 Q2696.4 217.584 2694.5 219.806 Q2692.63 222.028 2688.44 222.028 L2686.82 222.028 L2686.82 218.417 L2687.95 218.417 Q2690.38 218.417 2691.26 217.283 Q2692.14 216.172 2692.14 212.63 L2692.14 186.241 M2692.14 176.149 L2696.4 176.149 L2696.4 181.542 L2692.14 181.542 L2692.14 176.149 Z" fill="#000000" fill-rule="nonzero" fill-opacity="1" /><path clip-path="url(#clip940)" d="M2727.49 198.14 L2727.49 200.223 L2707.91 200.223 Q2708.19 204.621 2710.55 206.936 Q2712.93 209.227 2717.17 209.227 Q2719.62 209.227 2721.91 208.626 Q2724.23 208.024 2726.5 206.82 L2726.5 210.848 Q2724.2 211.82 2721.8 212.329 Q2719.39 212.839 2716.91 212.839 Q2710.71 212.839 2707.07 209.227 Q2703.46 205.616 2703.46 199.459 Q2703.46 193.093 2706.89 189.366 Q2710.34 185.617 2716.17 185.617 Q2721.4 185.617 2724.44 188.996 Q2727.49 192.353 2727.49 198.14 M2723.23 196.89 Q2723.19 193.394 2721.26 191.311 Q2719.37 189.228 2716.22 189.228 Q2712.65 189.228 2710.5 191.241 Q2708.37 193.255 2708.05 196.913 L2723.23 196.89 Z" fill="#000000" fill-rule="nonzero" fill-opacity="1" /><path clip-path="url(#clip940)" d="M2753.14 187.237 L2753.14 191.218 Q2751.33 190.223 2749.5 189.737 Q2747.7 189.228 2745.85 189.228 Q2741.7 189.228 2739.41 191.866 Q2737.12 194.482 2737.12 199.228 Q2737.12 203.973 2739.41 206.612 Q2741.7 209.227 2745.85 209.227 Q2747.7 209.227 2749.5 208.741 Q2751.33 208.232 2753.14 207.237 L2753.14 211.172 Q2751.36 212.005 2749.43 212.422 Q2747.54 212.839 2745.38 212.839 Q2739.53 212.839 2736.08 209.158 Q2732.63 205.478 2732.63 199.228 Q2732.63 192.885 2736.1 189.251 Q2739.6 185.617 2745.66 185.617 Q2747.63 185.617 2749.5 186.033 Q2751.38 186.427 2753.14 187.237 Z" fill="#000000" fill-rule="nonzero" fill-opacity="1" /><path clip-path="url(#clip940)" d="M2764.76 178.88 L2764.76 186.241 L2773.53 186.241 L2773.53 189.552 L2764.76 189.552 L2764.76 203.626 Q2764.76 206.797 2765.62 207.7 Q2766.5 208.602 2769.16 208.602 L2773.53 208.602 L2773.53 212.167 L2769.16 212.167 Q2764.23 212.167 2762.35 210.339 Q2760.48 208.487 2760.48 203.626 L2760.48 189.552 L2757.35 189.552 L2757.35 186.241 L2760.48 186.241 L2760.48 178.88 L2764.76 178.88 Z" fill="#000000" fill-rule="nonzero" fill-opacity="1" /><path clip-path="url(#clip940)" d="M2779.13 186.241 L2783.39 186.241 L2783.39 212.167 L2779.13 212.167 L2779.13 186.241 M2779.13 176.149 L2783.39 176.149 L2783.39 181.542 L2779.13 181.542 L2779.13 176.149 Z" fill="#000000" fill-rule="nonzero" fill-opacity="1" /><path clip-path="url(#clip940)" d="M2789.25 186.241 L2793.76 186.241 L2801.87 208.001 L2809.97 186.241 L2814.48 186.241 L2804.76 212.167 L2798.97 212.167 L2789.25 186.241 Z" fill="#000000" fill-rule="nonzero" fill-opacity="1" /><path clip-path="url(#clip940)" d="M2842.54 198.14 L2842.54 200.223 L2822.95 200.223 Q2823.23 204.621 2825.59 206.936 Q2827.98 209.227 2832.21 209.227 Q2834.67 209.227 2836.96 208.626 Q2839.27 208.024 2841.54 206.82 L2841.54 210.848 Q2839.25 211.82 2836.84 212.329 Q2834.43 212.839 2831.96 212.839 Q2825.75 212.839 2822.12 209.227 Q2818.51 205.616 2818.51 199.459 Q2818.51 193.093 2821.93 189.366 Q2825.38 185.617 2831.22 185.617 Q2836.45 185.617 2839.48 188.996 Q2842.54 192.353 2842.54 198.14 M2838.28 196.89 Q2838.23 193.394 2836.31 191.311 Q2834.41 189.228 2831.26 189.228 Q2827.7 189.228 2825.55 191.241 Q2823.42 193.255 2823.09 196.913 L2838.28 196.89 Z" fill="#000000" fill-rule="nonzero" fill-opacity="1" /><path clip-path="url(#clip940)" d="M2874.83 176.195 Q2871.73 181.519 2870.22 186.728 Q2868.72 191.936 2868.72 197.283 Q2868.72 202.63 2870.22 207.885 Q2871.75 213.116 2874.83 218.417 L2871.12 218.417 Q2867.65 212.977 2865.92 207.723 Q2864.2 202.468 2864.2 197.283 Q2864.2 192.121 2865.92 186.89 Q2867.63 181.658 2871.12 176.195 L2874.83 176.195 Z" fill="#000000" fill-rule="nonzero" fill-opacity="1" /><path clip-path="url(#clip940)" d="M2883.09 176.149 L2887.35 176.149 L2887.35 212.167 L2883.09 212.167 L2883.09 176.149 Z" fill="#000000" fill-rule="nonzero" fill-opacity="1" /><path clip-path="url(#clip940)" d="M2906.31 189.228 Q2902.88 189.228 2900.89 191.913 Q2898.9 194.575 2898.9 199.228 Q2898.9 203.88 2900.87 206.565 Q2902.86 209.227 2906.31 209.227 Q2909.71 209.227 2911.7 206.542 Q2913.69 203.857 2913.69 199.228 Q2913.69 194.621 2911.7 191.936 Q2909.71 189.228 2906.31 189.228 M2906.31 185.617 Q2911.86 185.617 2915.04 189.228 Q2918.21 192.839 2918.21 199.228 Q2918.21 205.593 2915.04 209.227 Q2911.86 212.839 2906.31 212.839 Q2900.73 212.839 2897.56 209.227 Q2894.41 205.593 2894.41 199.228 Q2894.41 192.839 2897.56 189.228 Q2900.73 185.617 2906.31 185.617 Z" fill="#000000" fill-rule="nonzero" fill-opacity="1" /><path clip-path="url(#clip940)" d="M2942.33 198.903 Q2942.33 194.274 2940.41 191.728 Q2938.51 189.181 2935.06 189.181 Q2931.63 189.181 2929.71 191.728 Q2927.81 194.274 2927.81 198.903 Q2927.81 203.51 2929.71 206.056 Q2931.63 208.602 2935.06 208.602 Q2938.51 208.602 2940.41 206.056 Q2942.33 203.51 2942.33 198.903 M2946.59 208.95 Q2946.59 215.57 2943.65 218.788 Q2940.71 222.028 2934.64 222.028 Q2932.4 222.028 2930.41 221.681 Q2928.42 221.357 2926.54 220.663 L2926.54 216.519 Q2928.42 217.538 2930.24 218.024 Q2932.07 218.51 2933.97 218.51 Q2938.16 218.51 2940.24 216.311 Q2942.33 214.135 2942.33 209.714 L2942.33 207.607 Q2941.01 209.899 2938.95 211.033 Q2936.89 212.167 2934.02 212.167 Q2929.25 212.167 2926.33 208.533 Q2923.42 204.899 2923.42 198.903 Q2923.42 192.885 2926.33 189.251 Q2929.25 185.617 2934.02 185.617 Q2936.89 185.617 2938.95 186.751 Q2941.01 187.885 2942.33 190.177 L2942.33 186.241 L2946.59 186.241 L2946.59 208.95 Z" fill="#000000" fill-rule="nonzero" fill-opacity="1" /><path clip-path="url(#clip940)" d="M2956.77 208.232 L2964.41 208.232 L2964.41 181.867 L2956.1 183.533 L2956.1 179.274 L2964.36 177.607 L2969.04 177.607 L2969.04 208.232 L2976.68 208.232 L2976.68 212.167 L2956.77 212.167 L2956.77 208.232 Z" fill="#000000" fill-rule="nonzero" fill-opacity="1" /><path clip-path="url(#clip940)" d="M2996.12 180.686 Q2992.51 180.686 2990.68 184.251 Q2988.88 187.792 2988.88 194.922 Q2988.88 202.028 2990.68 205.593 Q2992.51 209.135 2996.12 209.135 Q2999.76 209.135 3001.56 205.593 Q3003.39 202.028 3003.39 194.922 Q3003.39 187.792 3001.56 184.251 Q2999.76 180.686 2996.12 180.686 M2996.12 176.982 Q3001.93 176.982 3004.99 181.589 Q3008.07 186.172 3008.07 194.922 Q3008.07 203.649 3004.99 208.255 Q3001.93 212.839 2996.12 212.839 Q2990.31 212.839 2987.23 208.255 Q2984.18 203.649 2984.18 194.922 Q2984.18 186.172 2987.23 181.589 Q2990.31 176.982 2996.12 176.982 Z" fill="#000000" fill-rule="nonzero" fill-opacity="1" /><path clip-path="url(#clip940)" d="M3015.01 176.195 L3018.72 176.195 Q3022.19 181.658 3023.9 186.89 Q3025.64 192.121 3025.64 197.283 Q3025.64 202.468 3023.9 207.723 Q3022.19 212.977 3018.72 218.417 L3015.01 218.417 Q3018.09 213.116 3019.6 207.885 Q3021.12 202.63 3021.12 197.283 Q3021.12 191.936 3019.6 186.728 Q3018.09 181.519 3015.01 176.195 Z" fill="#000000" fill-rule="nonzero" fill-opacity="1" /><path clip-path="url(#clip940)" d="M292.584 2966.14 L3152.76 2966.14 L3152.76 1647.24 L292.584 1647.24  Z" fill="#ffffff" fill-rule="evenodd" fill-opacity="1"/>
<defs>
  <clipPath id="clip943">
    <rect x="292" y="1647" width="2861" height="1320"/>
  </clipPath>
</defs>
<polyline clip-path="url(#clip943)" style="stroke:#000000; stroke-linecap:round; stroke-linejoin:round; stroke-width:2; stroke-opacity:0.1; fill:none" points="700.596,2966.14 700.596,1647.24 "/>
<polyline clip-path="url(#clip943)" style="stroke:#000000; stroke-linecap:round; stroke-linejoin:round; stroke-width:2; stroke-opacity:0.1; fill:none" points="1491,2966.14 1491,1647.24 "/>
<polyline clip-path="url(#clip943)" style="stroke:#000000; stroke-linecap:round; stroke-linejoin:round; stroke-width:2; stroke-opacity:0.1; fill:none" points="2281.4,2966.14 2281.4,1647.24 "/>
<polyline clip-path="url(#clip943)" style="stroke:#000000; stroke-linecap:round; stroke-linejoin:round; stroke-width:2; stroke-opacity:0.1; fill:none" points="3071.81,2966.14 3071.81,1647.24 "/>
<polyline clip-path="url(#clip943)" style="stroke:#000000; stroke-linecap:round; stroke-linejoin:round; stroke-width:2; stroke-opacity:0.1; fill:none" points="292.584,2895.53 3152.76,2895.53 "/>
<polyline clip-path="url(#clip943)" style="stroke:#000000; stroke-linecap:round; stroke-linejoin:round; stroke-width:2; stroke-opacity:0.1; fill:none" points="292.584,2651.83 3152.76,2651.83 "/>
<polyline clip-path="url(#clip943)" style="stroke:#000000; stroke-linecap:round; stroke-linejoin:round; stroke-width:2; stroke-opacity:0.1; fill:none" points="292.584,2408.12 3152.76,2408.12 "/>
<polyline clip-path="url(#clip943)" style="stroke:#000000; stroke-linecap:round; stroke-linejoin:round; stroke-width:2; stroke-opacity:0.1; fill:none" points="292.584,2164.42 3152.76,2164.42 "/>
<polyline clip-path="url(#clip943)" style="stroke:#000000; stroke-linecap:round; stroke-linejoin:round; stroke-width:2; stroke-opacity:0.1; fill:none" points="292.584,1920.71 3152.76,1920.71 "/>
<polyline clip-path="url(#clip943)" style="stroke:#000000; stroke-linecap:round; stroke-linejoin:round; stroke-width:2; stroke-opacity:0.1; fill:none" points="292.584,1677.01 3152.76,1677.01 "/>
<polyline clip-path="url(#clip940)" style="stroke:#000000; stroke-linecap:round; stroke-linejoin:round; stroke-width:4; stroke-opacity:1; fill:none" points="292.584,2966.14 3152.76,2966.14 "/>
<polyline clip-path="url(#clip940)" style="stroke:#000000; stroke-linecap:round; stroke-linejoin:round; stroke-width:4; stroke-opacity:1; fill:none" points="700.596,2966.14 700.596,2947.24 "/>
<polyline clip-path="url(#clip940)" style="stroke:#000000; stroke-linecap:round; stroke-linejoin:round; stroke-width:4; stroke-opacity:1; fill:none" points="1491,2966.14 1491,2947.24 "/>
<polyline clip-path="url(#clip940)" style="stroke:#000000; stroke-linecap:round; stroke-linejoin:round; stroke-width:4; stroke-opacity:1; fill:none" points="2281.4,2966.14 2281.4,2947.24 "/>
<polyline clip-path="url(#clip940)" style="stroke:#000000; stroke-linecap:round; stroke-linejoin:round; stroke-width:4; stroke-opacity:1; fill:none" points="3071.81,2966.14 3071.81,2947.24 "/>
<path clip-path="url(#clip940)" d="M688.767 3004.45 L676.962 3022.9 L688.767 3022.9 L688.767 3004.45 M687.54 3000.38 L693.42 3000.38 L693.42 3022.9 L698.35 3022.9 L698.35 3026.79 L693.42 3026.79 L693.42 3034.94 L688.767 3034.94 L688.767 3026.79 L673.165 3026.79 L673.165 3022.28 L687.54 3000.38 Z" fill="#000000" fill-rule="nonzero" fill-opacity="1" /><path clip-path="url(#clip940)" d="M716.082 3003.46 Q712.471 3003.46 710.642 3007.02 Q708.836 3010.56 708.836 3017.69 Q708.836 3024.8 710.642 3028.37 Q712.471 3031.91 716.082 3031.91 Q719.716 3031.91 721.521 3028.37 Q723.35 3024.8 723.35 3017.69 Q723.35 3010.56 721.521 3007.02 Q719.716 3003.46 716.082 3003.46 M716.082 2999.75 Q721.892 2999.75 724.947 3004.36 Q728.026 3008.94 728.026 3017.69 Q728.026 3026.42 724.947 3031.03 Q721.892 3035.61 716.082 3035.61 Q710.272 3035.61 707.193 3031.03 Q704.137 3026.42 704.137 3017.69 Q704.137 3008.94 707.193 3004.36 Q710.272 2999.75 716.082 2999.75 Z" fill="#000000" fill-rule="nonzero" fill-opacity="1" /><path clip-path="url(#clip940)" d="M1476.4 3015.8 Q1473.26 3015.8 1471.4 3017.95 Q1469.58 3020.1 1469.58 3023.85 Q1469.58 3027.58 1471.4 3029.75 Q1473.26 3031.91 1476.4 3031.91 Q1479.55 3031.91 1481.38 3029.75 Q1483.23 3027.58 1483.23 3023.85 Q1483.23 3020.1 1481.38 3017.95 Q1479.55 3015.8 1476.4 3015.8 M1485.69 3001.14 L1485.69 3005.4 Q1483.93 3004.57 1482.12 3004.13 Q1480.34 3003.69 1478.58 3003.69 Q1473.95 3003.69 1471.5 3006.81 Q1469.07 3009.94 1468.72 3016.26 Q1470.09 3014.25 1472.15 3013.18 Q1474.21 3012.09 1476.68 3012.09 Q1481.89 3012.09 1484.9 3015.26 Q1487.93 3018.41 1487.93 3023.85 Q1487.93 3029.18 1484.78 3032.39 Q1481.64 3035.61 1476.4 3035.61 Q1470.41 3035.61 1467.24 3031.03 Q1464.07 3026.42 1464.07 3017.69 Q1464.07 3009.5 1467.96 3004.64 Q1471.84 2999.75 1478.4 2999.75 Q1480.15 2999.75 1481.94 3000.1 Q1483.74 3000.45 1485.69 3001.14 Z" fill="#000000" fill-rule="nonzero" fill-opacity="1" /><path clip-path="url(#clip940)" d="M1505.99 3003.46 Q1502.38 3003.46 1500.55 3007.02 Q1498.74 3010.56 1498.74 3017.69 Q1498.74 3024.8 1500.55 3028.37 Q1502.38 3031.91 1505.99 3031.91 Q1509.62 3031.91 1511.43 3028.37 Q1513.26 3024.8 1513.26 3017.69 Q1513.26 3010.56 1511.43 3007.02 Q1509.62 3003.46 1505.99 3003.46 M1505.99 2999.75 Q1511.8 2999.75 1514.85 3004.36 Q1517.93 3008.94 1517.93 3017.69 Q1517.93 3026.42 1514.85 3031.03 Q1511.8 3035.61 1505.99 3035.61 Q1500.18 3035.61 1497.1 3031.03 Q1494.04 3026.42 1494.04 3017.69 Q1494.04 3008.94 1497.1 3004.36 Q1500.18 2999.75 1505.99 2999.75 Z" fill="#000000" fill-rule="nonzero" fill-opacity="1" /><path clip-path="url(#clip940)" d="M2266.28 3018.53 Q2262.94 3018.53 2261.02 3020.31 Q2259.12 3022.09 2259.12 3025.22 Q2259.12 3028.34 2261.02 3030.13 Q2262.94 3031.91 2266.28 3031.91 Q2269.61 3031.91 2271.53 3030.13 Q2273.45 3028.32 2273.45 3025.22 Q2273.45 3022.09 2271.53 3020.31 Q2269.63 3018.53 2266.28 3018.53 M2261.6 3016.54 Q2258.59 3015.8 2256.9 3013.74 Q2255.23 3011.68 2255.23 3008.71 Q2255.23 3004.57 2258.17 3002.16 Q2261.14 2999.75 2266.28 2999.75 Q2271.44 2999.75 2274.38 3002.16 Q2277.32 3004.57 2277.32 3008.71 Q2277.32 3011.68 2275.63 3013.74 Q2273.96 3015.8 2270.98 3016.54 Q2274.36 3017.32 2276.23 3019.62 Q2278.13 3021.91 2278.13 3025.22 Q2278.13 3030.24 2275.05 3032.93 Q2271.99 3035.61 2266.28 3035.61 Q2260.56 3035.61 2257.48 3032.93 Q2254.42 3030.24 2254.42 3025.22 Q2254.42 3021.91 2256.32 3019.62 Q2258.22 3017.32 2261.6 3016.54 M2259.89 3009.15 Q2259.89 3011.84 2261.55 3013.34 Q2263.24 3014.85 2266.28 3014.85 Q2269.29 3014.85 2270.98 3013.34 Q2272.69 3011.84 2272.69 3009.15 Q2272.69 3006.47 2270.98 3004.96 Q2269.29 3003.46 2266.28 3003.46 Q2263.24 3003.46 2261.55 3004.96 Q2259.89 3006.47 2259.89 3009.15 Z" fill="#000000" fill-rule="nonzero" fill-opacity="1" /><path clip-path="url(#clip940)" d="M2296.44 3003.46 Q2292.83 3003.46 2291 3007.02 Q2289.19 3010.56 2289.19 3017.69 Q2289.19 3024.8 2291 3028.37 Q2292.83 3031.91 2296.44 3031.91 Q2300.07 3031.91 2301.88 3028.37 Q2303.71 3024.8 2303.71 3017.69 Q2303.71 3010.56 2301.88 3007.02 Q2300.07 3003.46 2296.44 3003.46 M2296.44 2999.75 Q2302.25 2999.75 2305.3 3004.36 Q2308.38 3008.94 2308.38 3017.69 Q2308.38 3026.42 2305.3 3031.03 Q2302.25 3035.61 2296.44 3035.61 Q2290.63 3035.61 2287.55 3031.03 Q2284.49 3026.42 2284.49 3017.69 Q2284.49 3008.94 2287.55 3004.36 Q2290.63 2999.75 2296.44 2999.75 Z" fill="#000000" fill-rule="nonzero" fill-opacity="1" /><path clip-path="url(#clip940)" d="M3031.41 3031 L3039.05 3031 L3039.05 3004.64 L3030.74 3006.31 L3030.74 3002.05 L3039.01 3000.38 L3043.68 3000.38 L3043.68 3031 L3051.32 3031 L3051.32 3034.94 L3031.41 3034.94 L3031.41 3031 Z" fill="#000000" fill-rule="nonzero" fill-opacity="1" /><path clip-path="url(#clip940)" d="M3070.77 3003.46 Q3067.15 3003.46 3065.33 3007.02 Q3063.52 3010.56 3063.52 3017.69 Q3063.52 3024.8 3065.33 3028.37 Q3067.15 3031.91 3070.77 3031.91 Q3074.4 3031.91 3076.21 3028.37 Q3078.03 3024.8 3078.03 3017.69 Q3078.03 3010.56 3076.21 3007.02 Q3074.4 3003.46 3070.77 3003.46 M3070.77 2999.75 Q3076.58 2999.75 3079.63 3004.36 Q3082.71 3008.94 3082.71 3017.69 Q3082.71 3026.42 3079.63 3031.03 Q3076.58 3035.61 3070.77 3035.61 Q3064.96 3035.61 3061.88 3031.03 Q3058.82 3026.42 3058.82 3017.69 Q3058.82 3008.94 3061.88 3004.36 Q3064.96 2999.75 3070.77 2999.75 Z" fill="#000000" fill-rule="nonzero" fill-opacity="1" /><path clip-path="url(#clip940)" d="M3100.93 3003.46 Q3097.32 3003.46 3095.49 3007.02 Q3093.68 3010.56 3093.68 3017.69 Q3093.68 3024.8 3095.49 3028.37 Q3097.32 3031.91 3100.93 3031.91 Q3104.56 3031.91 3106.37 3028.37 Q3108.2 3024.8 3108.2 3017.69 Q3108.2 3010.56 3106.37 3007.02 Q3104.56 3003.46 3100.93 3003.46 M3100.93 2999.75 Q3106.74 2999.75 3109.79 3004.36 Q3112.87 3008.94 3112.87 3017.69 Q3112.87 3026.42 3109.79 3031.03 Q3106.74 3035.61 3100.93 3035.61 Q3095.12 3035.61 3092.04 3031.03 Q3088.98 3026.42 3088.98 3017.69 Q3088.98 3008.94 3092.04 3004.36 Q3095.12 2999.75 3100.93 2999.75 Z" fill="#000000" fill-rule="nonzero" fill-opacity="1" /><path clip-path="url(#clip940)" d="M1644.55 3075.48 L1684.75 3075.48 L1684.75 3080.89 L1667.88 3080.89 L1667.88 3123 L1661.42 3123 L1661.42 3080.89 L1644.55 3080.89 L1644.55 3075.48 Z" fill="#000000" fill-rule="nonzero" fill-opacity="1" /><path clip-path="url(#clip940)" d="M1688.69 3087.36 L1694.55 3087.36 L1694.55 3123 L1688.69 3123 L1688.69 3087.36 M1688.69 3073.48 L1694.55 3073.48 L1694.55 3080.89 L1688.69 3080.89 L1688.69 3073.48 Z" fill="#000000" fill-rule="nonzero" fill-opacity="1" /><path clip-path="url(#clip940)" d="M1734.56 3094.2 Q1736.75 3090.25 1739.81 3088.37 Q1742.86 3086.5 1747 3086.5 Q1752.57 3086.5 1755.6 3090.41 Q1758.62 3094.29 1758.62 3101.49 L1758.62 3123 L1752.73 3123 L1752.73 3101.68 Q1752.73 3096.55 1750.92 3094.07 Q1749.1 3091.59 1745.38 3091.59 Q1740.83 3091.59 1738.19 3094.61 Q1735.54 3097.64 1735.54 3102.86 L1735.54 3123 L1729.66 3123 L1729.66 3101.68 Q1729.66 3096.52 1727.84 3094.07 Q1726.03 3091.59 1722.24 3091.59 Q1717.75 3091.59 1715.11 3094.64 Q1712.47 3097.67 1712.47 3102.86 L1712.47 3123 L1706.58 3123 L1706.58 3087.36 L1712.47 3087.36 L1712.47 3092.89 Q1714.47 3089.62 1717.27 3088.06 Q1720.08 3086.5 1723.93 3086.5 Q1727.81 3086.5 1730.52 3088.47 Q1733.25 3090.44 1734.56 3094.2 Z" fill="#000000" fill-rule="nonzero" fill-opacity="1" /><path clip-path="url(#clip940)" d="M1800.79 3103.72 L1800.79 3106.58 L1773.87 3106.58 Q1774.25 3112.63 1777.49 3115.81 Q1780.77 3118.96 1786.6 3118.96 Q1789.97 3118.96 1793.12 3118.13 Q1796.31 3117.31 1799.42 3115.65 L1799.42 3121.19 Q1796.27 3122.53 1792.96 3123.23 Q1789.65 3123.93 1786.25 3123.93 Q1777.72 3123.93 1772.72 3118.96 Q1767.75 3114 1767.75 3105.53 Q1767.75 3096.78 1772.47 3091.65 Q1777.21 3086.5 1785.23 3086.5 Q1792.42 3086.5 1796.59 3091.14 Q1800.79 3095.76 1800.79 3103.72 M1794.94 3102 Q1794.87 3097.19 1792.23 3094.33 Q1789.62 3091.46 1785.29 3091.46 Q1780.39 3091.46 1777.43 3094.23 Q1774.5 3097 1774.06 3102.03 L1794.94 3102 Z" fill="#000000" fill-rule="nonzero" fill-opacity="1" /><polyline clip-path="url(#clip940)" style="stroke:#000000; stroke-linecap:round; stroke-linejoin:round; stroke-width:4; stroke-opacity:1; fill:none" points="292.584,2966.14 292.584,1647.24 "/>
<polyline clip-path="url(#clip940)" style="stroke:#000000; stroke-linecap:round; stroke-linejoin:round; stroke-width:4; stroke-opacity:1; fill:none" points="292.584,2895.53 311.481,2895.53 "/>
<polyline clip-path="url(#clip940)" style="stroke:#000000; stroke-linecap:round; stroke-linejoin:round; stroke-width:4; stroke-opacity:1; fill:none" points="292.584,2651.83 311.481,2651.83 "/>
<polyline clip-path="url(#clip940)" style="stroke:#000000; stroke-linecap:round; stroke-linejoin:round; stroke-width:4; stroke-opacity:1; fill:none" points="292.584,2408.12 311.481,2408.12 "/>
<polyline clip-path="url(#clip940)" style="stroke:#000000; stroke-linecap:round; stroke-linejoin:round; stroke-width:4; stroke-opacity:1; fill:none" points="292.584,2164.42 311.481,2164.42 "/>
<polyline clip-path="url(#clip940)" style="stroke:#000000; stroke-linecap:round; stroke-linejoin:round; stroke-width:4; stroke-opacity:1; fill:none" points="292.584,1920.71 311.481,1920.71 "/>
<polyline clip-path="url(#clip940)" style="stroke:#000000; stroke-linecap:round; stroke-linejoin:round; stroke-width:4; stroke-opacity:1; fill:none" points="292.584,1677.01 311.481,1677.01 "/>
<path clip-path="url(#clip940)" d="M48.381 2895.98 L78.0568 2895.98 L78.0568 2899.92 L48.381 2899.92 L48.381 2895.98 Z" fill="#000000" fill-rule="nonzero" fill-opacity="1" /><path clip-path="url(#clip940)" d="M98.1493 2881.33 Q94.5382 2881.33 92.7095 2884.89 Q90.9039 2888.44 90.9039 2895.57 Q90.9039 2902.67 92.7095 2906.24 Q94.5382 2909.78 98.1493 2909.78 Q101.783 2909.78 103.589 2906.24 Q105.418 2902.67 105.418 2895.57 Q105.418 2888.44 103.589 2884.89 Q101.783 2881.33 98.1493 2881.33 M98.1493 2877.63 Q103.959 2877.63 107.015 2882.23 Q110.094 2886.82 110.094 2895.57 Q110.094 2904.29 107.015 2908.9 Q103.959 2913.48 98.1493 2913.48 Q92.3391 2913.48 89.2604 2908.9 Q86.2049 2904.29 86.2049 2895.57 Q86.2049 2886.82 89.2604 2882.23 Q92.3391 2877.63 98.1493 2877.63 Z" fill="#000000" fill-rule="nonzero" fill-opacity="1" /><path clip-path="url(#clip940)" d="M118.311 2906.93 L123.195 2906.93 L123.195 2912.81 L118.311 2912.81 L118.311 2906.93 Z" fill="#000000" fill-rule="nonzero" fill-opacity="1" /><path clip-path="url(#clip940)" d="M143.959 2893.67 Q140.811 2893.67 138.959 2895.82 Q137.131 2897.97 137.131 2901.72 Q137.131 2905.45 138.959 2907.63 Q140.811 2909.78 143.959 2909.78 Q147.107 2909.78 148.936 2907.63 Q150.788 2905.45 150.788 2901.72 Q150.788 2897.97 148.936 2895.82 Q147.107 2893.67 143.959 2893.67 M153.242 2879.02 L153.242 2883.27 Q151.482 2882.44 149.677 2882 Q147.894 2881.56 146.135 2881.56 Q141.506 2881.56 139.052 2884.69 Q136.621 2887.81 136.274 2894.13 Q137.64 2892.12 139.7 2891.05 Q141.76 2889.96 144.237 2889.96 Q149.445 2889.96 152.455 2893.14 Q155.487 2896.28 155.487 2901.72 Q155.487 2907.05 152.339 2910.27 Q149.191 2913.48 143.959 2913.48 Q137.964 2913.48 134.793 2908.9 Q131.621 2904.29 131.621 2895.57 Q131.621 2887.37 135.51 2882.51 Q139.399 2877.63 145.95 2877.63 Q147.709 2877.63 149.492 2877.97 Q151.297 2878.32 153.242 2879.02 Z" fill="#000000" fill-rule="nonzero" fill-opacity="1" /><path clip-path="url(#clip940)" d="M173.542 2881.33 Q169.931 2881.33 168.103 2884.89 Q166.297 2888.44 166.297 2895.57 Q166.297 2902.67 168.103 2906.24 Q169.931 2909.78 173.542 2909.78 Q177.177 2909.78 178.982 2906.24 Q180.811 2902.67 180.811 2895.57 Q180.811 2888.44 178.982 2884.89 Q177.177 2881.33 173.542 2881.33 M173.542 2877.63 Q179.353 2877.63 182.408 2882.23 Q185.487 2886.82 185.487 2895.57 Q185.487 2904.29 182.408 2908.9 Q179.353 2913.48 173.542 2913.48 Q167.732 2913.48 164.654 2908.9 Q161.598 2904.29 161.598 2895.57 Q161.598 2886.82 164.654 2882.23 Q167.732 2877.63 173.542 2877.63 Z" fill="#000000" fill-rule="nonzero" fill-opacity="1" /><path clip-path="url(#clip940)" d="M207.871 2894.18 Q211.227 2894.89 213.102 2897.16 Q215 2899.43 215 2902.77 Q215 2907.88 211.482 2910.68 Q207.963 2913.48 201.482 2913.48 Q199.306 2913.48 196.991 2913.04 Q194.7 2912.63 192.246 2911.77 L192.246 2907.26 Q194.19 2908.39 196.505 2908.97 Q198.82 2909.55 201.343 2909.55 Q205.741 2909.55 208.033 2907.81 Q210.348 2906.08 210.348 2902.77 Q210.348 2899.71 208.195 2898 Q206.065 2896.26 202.246 2896.26 L198.218 2896.26 L198.218 2892.42 L202.431 2892.42 Q205.88 2892.42 207.709 2891.05 Q209.538 2889.66 209.538 2887.07 Q209.538 2884.41 207.639 2883 Q205.764 2881.56 202.246 2881.56 Q200.325 2881.56 198.126 2881.98 Q195.927 2882.39 193.288 2883.27 L193.288 2879.11 Q195.95 2878.37 198.264 2878 Q200.602 2877.63 202.663 2877.63 Q207.987 2877.63 211.088 2880.06 Q214.19 2882.46 214.19 2886.58 Q214.19 2889.46 212.547 2891.45 Q210.903 2893.41 207.871 2894.18 Z" fill="#000000" fill-rule="nonzero" fill-opacity="1" /><path clip-path="url(#clip940)" d="M224.676 2908.88 L232.315 2908.88 L232.315 2882.51 L224.005 2884.18 L224.005 2879.92 L232.269 2878.25 L236.945 2878.25 L236.945 2908.88 L244.584 2908.88 L244.584 2912.81 L224.676 2912.81 L224.676 2908.88 Z" fill="#000000" fill-rule="nonzero" fill-opacity="1" /><path clip-path="url(#clip940)" d="M47.1542 2652.28 L76.8299 2652.28 L76.8299 2656.21 L47.1542 2656.21 L47.1542 2652.28 Z" fill="#000000" fill-rule="nonzero" fill-opacity="1" /><path clip-path="url(#clip940)" d="M96.9224 2637.63 Q93.3113 2637.63 91.4826 2641.19 Q89.6771 2644.73 89.6771 2651.86 Q89.6771 2658.97 91.4826 2662.53 Q93.3113 2666.07 96.9224 2666.07 Q100.557 2666.07 102.362 2662.53 Q104.191 2658.97 104.191 2651.86 Q104.191 2644.73 102.362 2641.19 Q100.557 2637.63 96.9224 2637.63 M96.9224 2633.92 Q102.733 2633.92 105.788 2638.53 Q108.867 2643.11 108.867 2651.86 Q108.867 2660.59 105.788 2665.2 Q102.733 2669.78 96.9224 2669.78 Q91.1123 2669.78 88.0336 2665.2 Q84.978 2660.59 84.978 2651.86 Q84.978 2643.11 88.0336 2638.53 Q91.1123 2633.92 96.9224 2633.92 Z" fill="#000000" fill-rule="nonzero" fill-opacity="1" /><path clip-path="url(#clip940)" d="M117.084 2663.23 L121.969 2663.23 L121.969 2669.11 L117.084 2669.11 L117.084 2663.23 Z" fill="#000000" fill-rule="nonzero" fill-opacity="1" /><path clip-path="url(#clip940)" d="M142.732 2649.96 Q139.584 2649.96 137.732 2652.12 Q135.904 2654.27 135.904 2658.02 Q135.904 2661.75 137.732 2663.92 Q139.584 2666.07 142.732 2666.07 Q145.88 2666.07 147.709 2663.92 Q149.561 2661.75 149.561 2658.02 Q149.561 2654.27 147.709 2652.12 Q145.88 2649.96 142.732 2649.96 M152.015 2635.31 L152.015 2639.57 Q150.255 2638.74 148.45 2638.3 Q146.668 2637.86 144.908 2637.86 Q140.279 2637.86 137.825 2640.98 Q135.394 2644.11 135.047 2650.43 Q136.413 2648.41 138.473 2647.35 Q140.533 2646.26 143.01 2646.26 Q148.218 2646.26 151.228 2649.43 Q154.26 2652.58 154.26 2658.02 Q154.26 2663.34 151.112 2666.56 Q147.964 2669.78 142.732 2669.78 Q136.737 2669.78 133.566 2665.2 Q130.394 2660.59 130.394 2651.86 Q130.394 2643.67 134.283 2638.81 Q138.172 2633.92 144.723 2633.92 Q146.482 2633.92 148.265 2634.27 Q150.07 2634.62 152.015 2635.31 Z" fill="#000000" fill-rule="nonzero" fill-opacity="1" /><path clip-path="url(#clip940)" d="M172.316 2637.63 Q168.704 2637.63 166.876 2641.19 Q165.07 2644.73 165.07 2651.86 Q165.07 2658.97 166.876 2662.53 Q168.704 2666.07 172.316 2666.07 Q175.95 2666.07 177.755 2662.53 Q179.584 2658.97 179.584 2651.86 Q179.584 2644.73 177.755 2641.19 Q175.95 2637.63 172.316 2637.63 M172.316 2633.92 Q178.126 2633.92 181.181 2638.53 Q184.26 2643.11 184.26 2651.86 Q184.26 2660.59 181.181 2665.2 Q178.126 2669.78 172.316 2669.78 Q166.505 2669.78 163.427 2665.2 Q160.371 2660.59 160.371 2651.86 Q160.371 2643.11 163.427 2638.53 Q166.505 2633.92 172.316 2633.92 Z" fill="#000000" fill-rule="nonzero" fill-opacity="1" /><path clip-path="url(#clip940)" d="M206.644 2650.47 Q210.001 2651.19 211.876 2653.46 Q213.774 2655.73 213.774 2659.06 Q213.774 2664.18 210.255 2666.98 Q206.737 2669.78 200.255 2669.78 Q198.079 2669.78 195.764 2669.34 Q193.473 2668.92 191.019 2668.07 L191.019 2663.55 Q192.964 2664.69 195.278 2665.26 Q197.593 2665.84 200.116 2665.84 Q204.514 2665.84 206.806 2664.11 Q209.121 2662.37 209.121 2659.06 Q209.121 2656.01 206.968 2654.29 Q204.839 2652.56 201.019 2652.56 L196.991 2652.56 L196.991 2648.71 L201.204 2648.71 Q204.653 2648.71 206.482 2647.35 Q208.311 2645.96 208.311 2643.37 Q208.311 2640.7 206.413 2639.29 Q204.538 2637.86 201.019 2637.86 Q199.098 2637.86 196.899 2638.27 Q194.7 2638.69 192.061 2639.57 L192.061 2635.4 Q194.723 2634.66 197.038 2634.29 Q199.376 2633.92 201.436 2633.92 Q206.76 2633.92 209.862 2636.35 Q212.963 2638.76 212.963 2642.88 Q212.963 2645.75 211.32 2647.74 Q209.676 2649.71 206.644 2650.47 Z" fill="#000000" fill-rule="nonzero" fill-opacity="1" /><path clip-path="url(#clip940)" d="M232.639 2637.63 Q229.028 2637.63 227.199 2641.19 Q225.394 2644.73 225.394 2651.86 Q225.394 2658.97 227.199 2662.53 Q229.028 2666.07 232.639 2666.07 Q236.274 2666.07 238.079 2662.53 Q239.908 2658.97 239.908 2651.86 Q239.908 2644.73 238.079 2641.19 Q236.274 2637.63 232.639 2637.63 M232.639 2633.92 Q238.449 2633.92 241.505 2638.53 Q244.584 2643.11 244.584 2651.86 Q244.584 2660.59 241.505 2665.2 Q238.449 2669.78 232.639 2669.78 Q226.829 2669.78 223.75 2665.2 Q220.695 2660.59 220.695 2651.86 Q220.695 2643.11 223.75 2638.53 Q226.829 2633.92 232.639 2633.92 Z" fill="#000000" fill-rule="nonzero" fill-opacity="1" /><path clip-path="url(#clip940)" d="M47.3393 2408.57 L77.0151 2408.57 L77.0151 2412.51 L47.3393 2412.51 L47.3393 2408.57 Z" fill="#000000" fill-rule="nonzero" fill-opacity="1" /><path clip-path="url(#clip940)" d="M97.1076 2393.92 Q93.4965 2393.92 91.6678 2397.49 Q89.8623 2401.03 89.8623 2408.16 Q89.8623 2415.26 91.6678 2418.83 Q93.4965 2422.37 97.1076 2422.37 Q100.742 2422.37 102.547 2418.83 Q104.376 2415.26 104.376 2408.16 Q104.376 2401.03 102.547 2397.49 Q100.742 2393.92 97.1076 2393.92 M97.1076 2390.22 Q102.918 2390.22 105.973 2394.82 Q109.052 2399.41 109.052 2408.16 Q109.052 2416.88 105.973 2421.49 Q102.918 2426.07 97.1076 2426.07 Q91.2974 2426.07 88.2188 2421.49 Q85.1632 2416.88 85.1632 2408.16 Q85.1632 2399.41 88.2188 2394.82 Q91.2974 2390.22 97.1076 2390.22 Z" fill="#000000" fill-rule="nonzero" fill-opacity="1" /><path clip-path="url(#clip940)" d="M117.27 2419.52 L122.154 2419.52 L122.154 2425.4 L117.27 2425.4 L117.27 2419.52 Z" fill="#000000" fill-rule="nonzero" fill-opacity="1" /><path clip-path="url(#clip940)" d="M142.918 2406.26 Q139.769 2406.26 137.918 2408.41 Q136.089 2410.57 136.089 2414.32 Q136.089 2418.04 137.918 2420.22 Q139.769 2422.37 142.918 2422.37 Q146.066 2422.37 147.894 2420.22 Q149.746 2418.04 149.746 2414.32 Q149.746 2410.57 147.894 2408.41 Q146.066 2406.26 142.918 2406.26 M152.2 2391.61 L152.2 2395.87 Q150.441 2395.03 148.635 2394.59 Q146.853 2394.15 145.093 2394.15 Q140.464 2394.15 138.01 2397.28 Q135.58 2400.4 135.232 2406.72 Q136.598 2404.71 138.658 2403.64 Q140.718 2402.56 143.195 2402.56 Q148.404 2402.56 151.413 2405.73 Q154.445 2408.88 154.445 2414.32 Q154.445 2419.64 151.297 2422.86 Q148.149 2426.07 142.918 2426.07 Q136.922 2426.07 133.751 2421.49 Q130.58 2416.88 130.58 2408.16 Q130.58 2399.96 134.469 2395.1 Q138.357 2390.22 144.908 2390.22 Q146.668 2390.22 148.45 2390.57 Q150.255 2390.91 152.2 2391.61 Z" fill="#000000" fill-rule="nonzero" fill-opacity="1" /><path clip-path="url(#clip940)" d="M172.501 2393.92 Q168.89 2393.92 167.061 2397.49 Q165.255 2401.03 165.255 2408.16 Q165.255 2415.26 167.061 2418.83 Q168.89 2422.37 172.501 2422.37 Q176.135 2422.37 177.94 2418.83 Q179.769 2415.26 179.769 2408.16 Q179.769 2401.03 177.94 2397.49 Q176.135 2393.92 172.501 2393.92 M172.501 2390.22 Q178.311 2390.22 181.366 2394.82 Q184.445 2399.41 184.445 2408.16 Q184.445 2416.88 181.366 2421.49 Q178.311 2426.07 172.501 2426.07 Q166.691 2426.07 163.612 2421.49 Q160.556 2416.88 160.556 2408.16 Q160.556 2399.41 163.612 2394.82 Q166.691 2390.22 172.501 2390.22 Z" fill="#000000" fill-rule="nonzero" fill-opacity="1" /><path clip-path="url(#clip940)" d="M196.69 2421.47 L213.01 2421.47 L213.01 2425.4 L191.065 2425.4 L191.065 2421.47 Q193.727 2418.71 198.311 2414.08 Q202.917 2409.43 204.098 2408.09 Q206.343 2405.57 207.223 2403.83 Q208.126 2402.07 208.126 2400.38 Q208.126 2397.63 206.181 2395.89 Q204.26 2394.15 201.158 2394.15 Q198.959 2394.15 196.505 2394.92 Q194.075 2395.68 191.297 2397.23 L191.297 2392.51 Q194.121 2391.38 196.575 2390.8 Q199.028 2390.22 201.065 2390.22 Q206.436 2390.22 209.63 2392.9 Q212.825 2395.59 212.825 2400.08 Q212.825 2402.21 212.014 2404.13 Q211.227 2406.03 209.121 2408.62 Q208.542 2409.29 205.44 2412.51 Q202.339 2415.7 196.69 2421.47 Z" fill="#000000" fill-rule="nonzero" fill-opacity="1" /><path clip-path="url(#clip940)" d="M222.963 2424.69 L222.963 2420.43 Q224.723 2421.26 226.528 2421.7 Q228.334 2422.14 230.07 2422.14 Q234.699 2422.14 237.13 2419.04 Q239.584 2415.91 239.931 2409.57 Q238.588 2411.56 236.528 2412.63 Q234.468 2413.69 231.968 2413.69 Q226.783 2413.69 223.75 2410.57 Q220.741 2407.42 220.741 2401.98 Q220.741 2396.65 223.889 2393.44 Q227.037 2390.22 232.269 2390.22 Q238.264 2390.22 241.412 2394.82 Q244.584 2399.41 244.584 2408.16 Q244.584 2416.33 240.695 2421.21 Q236.829 2426.07 230.278 2426.07 Q228.519 2426.07 226.713 2425.73 Q224.908 2425.38 222.963 2424.69 M232.269 2410.03 Q235.417 2410.03 237.246 2407.88 Q239.098 2405.73 239.098 2401.98 Q239.098 2398.25 237.246 2396.1 Q235.417 2393.92 232.269 2393.92 Q229.121 2393.92 227.269 2396.1 Q225.44 2398.25 225.44 2401.98 Q225.44 2405.73 227.269 2407.88 Q229.121 2410.03 232.269 2410.03 Z" fill="#000000" fill-rule="nonzero" fill-opacity="1" /><path clip-path="url(#clip940)" d="M47.2468 2164.87 L76.9225 2164.87 L76.9225 2168.81 L47.2468 2168.81 L47.2468 2164.87 Z" fill="#000000" fill-rule="nonzero" fill-opacity="1" /><path clip-path="url(#clip940)" d="M97.015 2150.22 Q93.4039 2150.22 91.5752 2153.78 Q89.7697 2157.32 89.7697 2164.45 Q89.7697 2171.56 91.5752 2175.12 Q93.4039 2178.67 97.015 2178.67 Q100.649 2178.67 102.455 2175.12 Q104.283 2171.56 104.283 2164.45 Q104.283 2157.32 102.455 2153.78 Q100.649 2150.22 97.015 2150.22 M97.015 2146.51 Q102.825 2146.51 105.881 2151.12 Q108.959 2155.7 108.959 2164.45 Q108.959 2173.18 105.881 2177.79 Q102.825 2182.37 97.015 2182.37 Q91.2049 2182.37 88.1262 2177.79 Q85.0706 2173.18 85.0706 2164.45 Q85.0706 2155.7 88.1262 2151.12 Q91.2049 2146.51 97.015 2146.51 Z" fill="#000000" fill-rule="nonzero" fill-opacity="1" /><path clip-path="url(#clip940)" d="M117.177 2175.82 L122.061 2175.82 L122.061 2181.7 L117.177 2181.7 L117.177 2175.82 Z" fill="#000000" fill-rule="nonzero" fill-opacity="1" /><path clip-path="url(#clip940)" d="M142.825 2162.56 Q139.677 2162.56 137.825 2164.71 Q135.996 2166.86 135.996 2170.61 Q135.996 2174.34 137.825 2176.51 Q139.677 2178.67 142.825 2178.67 Q145.973 2178.67 147.802 2176.51 Q149.654 2174.34 149.654 2170.61 Q149.654 2166.86 147.802 2164.71 Q145.973 2162.56 142.825 2162.56 M152.107 2147.9 L152.107 2152.16 Q150.348 2151.33 148.543 2150.89 Q146.76 2150.45 145.001 2150.45 Q140.371 2150.45 137.918 2153.57 Q135.487 2156.7 135.14 2163.02 Q136.506 2161 138.566 2159.94 Q140.626 2158.85 143.103 2158.85 Q148.311 2158.85 151.32 2162.02 Q154.353 2165.17 154.353 2170.61 Q154.353 2175.94 151.205 2179.15 Q148.056 2182.37 142.825 2182.37 Q136.83 2182.37 133.658 2177.79 Q130.487 2173.18 130.487 2164.45 Q130.487 2156.26 134.376 2151.4 Q138.265 2146.51 144.816 2146.51 Q146.575 2146.51 148.357 2146.86 Q150.163 2147.21 152.107 2147.9 Z" fill="#000000" fill-rule="nonzero" fill-opacity="1" /><path clip-path="url(#clip940)" d="M172.408 2150.22 Q168.797 2150.22 166.968 2153.78 Q165.163 2157.32 165.163 2164.45 Q165.163 2171.56 166.968 2175.12 Q168.797 2178.67 172.408 2178.67 Q176.042 2178.67 177.848 2175.12 Q179.677 2171.56 179.677 2164.45 Q179.677 2157.32 177.848 2153.78 Q176.042 2150.22 172.408 2150.22 M172.408 2146.51 Q178.218 2146.51 181.274 2151.12 Q184.353 2155.7 184.353 2164.45 Q184.353 2173.18 181.274 2177.79 Q178.218 2182.37 172.408 2182.37 Q166.598 2182.37 163.519 2177.79 Q160.464 2173.18 160.464 2164.45 Q160.464 2155.7 163.519 2151.12 Q166.598 2146.51 172.408 2146.51 Z" fill="#000000" fill-rule="nonzero" fill-opacity="1" /><path clip-path="url(#clip940)" d="M196.598 2177.76 L212.917 2177.76 L212.917 2181.7 L190.973 2181.7 L190.973 2177.76 Q193.635 2175.01 198.218 2170.38 Q202.825 2165.73 204.005 2164.38 Q206.251 2161.86 207.13 2160.13 Q208.033 2158.37 208.033 2156.68 Q208.033 2153.92 206.088 2152.19 Q204.167 2150.45 201.065 2150.45 Q198.866 2150.45 196.413 2151.21 Q193.982 2151.98 191.204 2153.53 L191.204 2148.81 Q194.028 2147.67 196.482 2147.09 Q198.936 2146.51 200.973 2146.51 Q206.343 2146.51 209.538 2149.2 Q212.732 2151.88 212.732 2156.38 Q212.732 2158.5 211.922 2160.43 Q211.135 2162.32 209.028 2164.92 Q208.45 2165.59 205.348 2168.81 Q202.246 2172 196.598 2177.76 Z" fill="#000000" fill-rule="nonzero" fill-opacity="1" /><path clip-path="url(#clip940)" d="M232.732 2165.29 Q229.399 2165.29 227.477 2167.07 Q225.579 2168.85 225.579 2171.98 Q225.579 2175.1 227.477 2176.88 Q229.399 2178.67 232.732 2178.67 Q236.065 2178.67 237.986 2176.88 Q239.908 2175.08 239.908 2171.98 Q239.908 2168.85 237.986 2167.07 Q236.088 2165.29 232.732 2165.29 M228.056 2163.3 Q225.047 2162.56 223.357 2160.5 Q221.69 2158.44 221.69 2155.47 Q221.69 2151.33 224.63 2148.92 Q227.593 2146.51 232.732 2146.51 Q237.894 2146.51 240.834 2148.92 Q243.773 2151.33 243.773 2155.47 Q243.773 2158.44 242.084 2160.5 Q240.417 2162.56 237.431 2163.3 Q240.811 2164.08 242.686 2166.37 Q244.584 2168.67 244.584 2171.98 Q244.584 2177 241.505 2179.69 Q238.449 2182.37 232.732 2182.37 Q227.014 2182.37 223.936 2179.69 Q220.88 2177 220.88 2171.98 Q220.88 2168.67 222.778 2166.37 Q224.676 2164.08 228.056 2163.3 M226.343 2155.91 Q226.343 2158.6 228.01 2160.1 Q229.699 2161.61 232.732 2161.61 Q235.741 2161.61 237.431 2160.1 Q239.144 2158.6 239.144 2155.91 Q239.144 2153.23 237.431 2151.72 Q235.741 2150.22 232.732 2150.22 Q229.699 2150.22 228.01 2151.72 Q226.343 2153.23 226.343 2155.91 Z" fill="#000000" fill-rule="nonzero" fill-opacity="1" /><path clip-path="url(#clip940)" d="M48.0569 1921.17 L77.7327 1921.17 L77.7327 1925.1 L48.0569 1925.1 L48.0569 1921.17 Z" fill="#000000" fill-rule="nonzero" fill-opacity="1" /><path clip-path="url(#clip940)" d="M97.8252 1906.51 Q94.2141 1906.51 92.3854 1910.08 Q90.5799 1913.62 90.5799 1920.75 Q90.5799 1927.86 92.3854 1931.42 Q94.2141 1934.96 97.8252 1934.96 Q101.459 1934.96 103.265 1931.42 Q105.094 1927.86 105.094 1920.75 Q105.094 1913.62 103.265 1910.08 Q101.459 1906.51 97.8252 1906.51 M97.8252 1902.81 Q103.635 1902.81 106.691 1907.42 Q109.77 1912 109.77 1920.75 Q109.77 1929.48 106.691 1934.08 Q103.635 1938.67 97.8252 1938.67 Q92.015 1938.67 88.9363 1934.08 Q85.8808 1929.48 85.8808 1920.75 Q85.8808 1912 88.9363 1907.42 Q92.015 1902.81 97.8252 1902.81 Z" fill="#000000" fill-rule="nonzero" fill-opacity="1" /><path clip-path="url(#clip940)" d="M117.987 1932.12 L122.871 1932.12 L122.871 1937.99 L117.987 1937.99 L117.987 1932.12 Z" fill="#000000" fill-rule="nonzero" fill-opacity="1" /><path clip-path="url(#clip940)" d="M143.635 1918.85 Q140.487 1918.85 138.635 1921 Q136.806 1923.16 136.806 1926.91 Q136.806 1930.63 138.635 1932.81 Q140.487 1934.96 143.635 1934.96 Q146.783 1934.96 148.612 1932.81 Q150.464 1930.63 150.464 1926.91 Q150.464 1923.16 148.612 1921 Q146.783 1918.85 143.635 1918.85 M152.917 1904.2 L152.917 1908.46 Q151.158 1907.62 149.353 1907.18 Q147.57 1906.75 145.811 1906.75 Q141.181 1906.75 138.728 1909.87 Q136.297 1912.99 135.95 1919.31 Q137.316 1917.3 139.376 1916.24 Q141.436 1915.15 143.913 1915.15 Q149.121 1915.15 152.13 1918.32 Q155.163 1921.47 155.163 1926.91 Q155.163 1932.23 152.015 1935.45 Q148.867 1938.67 143.635 1938.67 Q137.64 1938.67 134.469 1934.08 Q131.297 1929.48 131.297 1920.75 Q131.297 1912.56 135.186 1907.69 Q139.075 1902.81 145.626 1902.81 Q147.385 1902.81 149.168 1903.16 Q150.973 1903.5 152.917 1904.2 Z" fill="#000000" fill-rule="nonzero" fill-opacity="1" /><path clip-path="url(#clip940)" d="M173.218 1906.51 Q169.607 1906.51 167.779 1910.08 Q165.973 1913.62 165.973 1920.75 Q165.973 1927.86 167.779 1931.42 Q169.607 1934.96 173.218 1934.96 Q176.853 1934.96 178.658 1931.42 Q180.487 1927.86 180.487 1920.75 Q180.487 1913.62 178.658 1910.08 Q176.853 1906.51 173.218 1906.51 M173.218 1902.81 Q179.028 1902.81 182.084 1907.42 Q185.163 1912 185.163 1920.75 Q185.163 1929.48 182.084 1934.08 Q179.028 1938.67 173.218 1938.67 Q167.408 1938.67 164.329 1934.08 Q161.274 1929.48 161.274 1920.75 Q161.274 1912 164.329 1907.42 Q167.408 1902.81 173.218 1902.81 Z" fill="#000000" fill-rule="nonzero" fill-opacity="1" /><path clip-path="url(#clip940)" d="M197.408 1934.06 L213.727 1934.06 L213.727 1937.99 L191.783 1937.99 L191.783 1934.06 Q194.445 1931.31 199.028 1926.68 Q203.635 1922.02 204.815 1920.68 Q207.061 1918.16 207.94 1916.42 Q208.843 1914.66 208.843 1912.97 Q208.843 1910.22 206.899 1908.48 Q204.977 1906.75 201.876 1906.75 Q199.676 1906.75 197.223 1907.51 Q194.792 1908.27 192.014 1909.82 L192.014 1905.1 Q194.839 1903.97 197.292 1903.39 Q199.746 1902.81 201.783 1902.81 Q207.153 1902.81 210.348 1905.5 Q213.542 1908.18 213.542 1912.67 Q213.542 1914.8 212.732 1916.72 Q211.945 1918.62 209.838 1921.21 Q209.26 1921.88 206.158 1925.1 Q203.056 1928.3 197.408 1934.06 Z" fill="#000000" fill-rule="nonzero" fill-opacity="1" /><path clip-path="url(#clip940)" d="M222.362 1903.43 L244.584 1903.43 L244.584 1905.43 L232.037 1937.99 L227.153 1937.99 L238.959 1907.37 L222.362 1907.37 L222.362 1903.43 Z" fill="#000000" fill-rule="nonzero" fill-opacity="1" /><path clip-path="url(#clip940)" d="M46.9921 1677.46 L76.6679 1677.46 L76.6679 1681.4 L46.9921 1681.4 L46.9921 1677.46 Z" fill="#000000" fill-rule="nonzero" fill-opacity="1" /><path clip-path="url(#clip940)" d="M96.7604 1662.81 Q93.1493 1662.81 91.3206 1666.37 Q89.515 1669.92 89.515 1677.05 Q89.515 1684.15 91.3206 1687.72 Q93.1493 1691.26 96.7604 1691.26 Q100.395 1691.26 102.2 1687.72 Q104.029 1684.15 104.029 1677.05 Q104.029 1669.92 102.2 1666.37 Q100.395 1662.81 96.7604 1662.81 M96.7604 1659.11 Q102.571 1659.11 105.626 1663.71 Q108.705 1668.3 108.705 1677.05 Q108.705 1685.77 105.626 1690.38 Q102.571 1694.96 96.7604 1694.96 Q90.9502 1694.96 87.8715 1690.38 Q84.816 1685.77 84.816 1677.05 Q84.816 1668.3 87.8715 1663.71 Q90.9502 1659.11 96.7604 1659.11 Z" fill="#000000" fill-rule="nonzero" fill-opacity="1" /><path clip-path="url(#clip940)" d="M116.922 1688.41 L121.807 1688.41 L121.807 1694.29 L116.922 1694.29 L116.922 1688.41 Z" fill="#000000" fill-rule="nonzero" fill-opacity="1" /><path clip-path="url(#clip940)" d="M142.57 1675.15 Q139.422 1675.15 137.57 1677.3 Q135.742 1679.45 135.742 1683.2 Q135.742 1686.93 137.57 1689.11 Q139.422 1691.26 142.57 1691.26 Q145.718 1691.26 147.547 1689.11 Q149.399 1686.93 149.399 1683.2 Q149.399 1679.45 147.547 1677.3 Q145.718 1675.15 142.57 1675.15 M151.853 1660.49 L151.853 1664.75 Q150.093 1663.92 148.288 1663.48 Q146.505 1663.04 144.746 1663.04 Q140.117 1663.04 137.663 1666.17 Q135.232 1669.29 134.885 1675.61 Q136.251 1673.6 138.311 1672.53 Q140.371 1671.44 142.848 1671.44 Q148.056 1671.44 151.066 1674.61 Q154.098 1677.76 154.098 1683.2 Q154.098 1688.53 150.95 1691.74 Q147.802 1694.96 142.57 1694.96 Q136.575 1694.96 133.404 1690.38 Q130.232 1685.77 130.232 1677.05 Q130.232 1668.85 134.121 1663.99 Q138.01 1659.11 144.561 1659.11 Q146.32 1659.11 148.103 1659.45 Q149.908 1659.8 151.853 1660.49 Z" fill="#000000" fill-rule="nonzero" fill-opacity="1" /><path clip-path="url(#clip940)" d="M172.153 1662.81 Q168.542 1662.81 166.714 1666.37 Q164.908 1669.92 164.908 1677.05 Q164.908 1684.15 166.714 1687.72 Q168.542 1691.26 172.153 1691.26 Q175.788 1691.26 177.593 1687.72 Q179.422 1684.15 179.422 1677.05 Q179.422 1669.92 177.593 1666.37 Q175.788 1662.81 172.153 1662.81 M172.153 1659.11 Q177.964 1659.11 181.019 1663.71 Q184.098 1668.3 184.098 1677.05 Q184.098 1685.77 181.019 1690.38 Q177.964 1694.96 172.153 1694.96 Q166.343 1694.96 163.265 1690.38 Q160.209 1685.77 160.209 1677.05 Q160.209 1668.3 163.265 1663.71 Q166.343 1659.11 172.153 1659.11 Z" fill="#000000" fill-rule="nonzero" fill-opacity="1" /><path clip-path="url(#clip940)" d="M196.343 1690.36 L212.663 1690.36 L212.663 1694.29 L190.718 1694.29 L190.718 1690.36 Q193.38 1687.6 197.964 1682.97 Q202.57 1678.32 203.751 1676.98 Q205.996 1674.45 206.876 1672.72 Q207.778 1670.96 207.778 1669.27 Q207.778 1666.51 205.834 1664.78 Q203.913 1663.04 200.811 1663.04 Q198.612 1663.04 196.158 1663.8 Q193.727 1664.57 190.95 1666.12 L190.95 1661.4 Q193.774 1660.26 196.227 1659.68 Q198.681 1659.11 200.718 1659.11 Q206.088 1659.11 209.283 1661.79 Q212.477 1664.48 212.477 1668.97 Q212.477 1671.1 211.667 1673.02 Q210.88 1674.92 208.774 1677.51 Q208.195 1678.18 205.093 1681.4 Q201.991 1684.59 196.343 1690.36 Z" fill="#000000" fill-rule="nonzero" fill-opacity="1" /><path clip-path="url(#clip940)" d="M233.056 1675.15 Q229.908 1675.15 228.056 1677.3 Q226.227 1679.45 226.227 1683.2 Q226.227 1686.93 228.056 1689.11 Q229.908 1691.26 233.056 1691.26 Q236.204 1691.26 238.033 1689.11 Q239.885 1686.93 239.885 1683.2 Q239.885 1679.45 238.033 1677.3 Q236.204 1675.15 233.056 1675.15 M242.338 1660.49 L242.338 1664.75 Q240.579 1663.92 238.774 1663.48 Q236.991 1663.04 235.232 1663.04 Q230.602 1663.04 228.149 1666.17 Q225.718 1669.29 225.371 1675.61 Q226.737 1673.6 228.797 1672.53 Q230.857 1671.44 233.334 1671.44 Q238.542 1671.44 241.551 1674.61 Q244.584 1677.76 244.584 1683.2 Q244.584 1688.53 241.436 1691.74 Q238.287 1694.96 233.056 1694.96 Q227.061 1694.96 223.889 1690.38 Q220.718 1685.77 220.718 1677.05 Q220.718 1668.85 224.607 1663.99 Q228.496 1659.11 235.047 1659.11 Q236.806 1659.11 238.588 1659.45 Q240.394 1659.8 242.338 1660.49 Z" fill="#000000" fill-rule="nonzero" fill-opacity="1" /><polyline clip-path="url(#clip943)" style="stroke:#e26f46; stroke-linecap:round; stroke-linejoin:round; stroke-width:4; stroke-opacity:1; fill:none" points="1857.58,4285.04 1857.58,328.348 "/>
<circle clip-path="url(#clip943)" cx="373.532" cy="1684.57" r="14.4" fill="#009af9" fill-rule="evenodd" fill-opacity="1" stroke="#000000" stroke-opacity="1" stroke-width="6.4"/>
<circle clip-path="url(#clip943)" cx="508.446" cy="2096.02" r="14.4" fill="#009af9" fill-rule="evenodd" fill-opacity="1" stroke="#000000" stroke-opacity="1" stroke-width="6.4"/>
<circle clip-path="url(#clip943)" cx="643.36" cy="2366.27" r="14.4" fill="#009af9" fill-rule="evenodd" fill-opacity="1" stroke="#000000" stroke-opacity="1" stroke-width="6.4"/>
<circle clip-path="url(#clip943)" cx="778.273" cy="2549.78" r="14.4" fill="#009af9" fill-rule="evenodd" fill-opacity="1" stroke="#000000" stroke-opacity="1" stroke-width="6.4"/>
<circle clip-path="url(#clip943)" cx="913.187" cy="2677.11" r="14.4" fill="#009af9" fill-rule="evenodd" fill-opacity="1" stroke="#000000" stroke-opacity="1" stroke-width="6.4"/>
<circle clip-path="url(#clip943)" cx="1048.1" cy="2766.44" r="14.4" fill="#009af9" fill-rule="evenodd" fill-opacity="1" stroke="#000000" stroke-opacity="1" stroke-width="6.4"/>
<circle clip-path="url(#clip943)" cx="1183.01" cy="2829.06" r="14.4" fill="#009af9" fill-rule="evenodd" fill-opacity="1" stroke="#000000" stroke-opacity="1" stroke-width="6.4"/>
<circle clip-path="url(#clip943)" cx="1317.93" cy="2872.28" r="14.4" fill="#009af9" fill-rule="evenodd" fill-opacity="1" stroke="#000000" stroke-opacity="1" stroke-width="6.4"/>
<circle clip-path="url(#clip943)" cx="1452.84" cy="2900.98" r="14.4" fill="#009af9" fill-rule="evenodd" fill-opacity="1" stroke="#000000" stroke-opacity="1" stroke-width="6.4"/>
<circle clip-path="url(#clip943)" cx="1587.76" cy="2918.49" r="14.4" fill="#009af9" fill-rule="evenodd" fill-opacity="1" stroke="#000000" stroke-opacity="1" stroke-width="6.4"/>
<circle clip-path="url(#clip943)" cx="1722.67" cy="2919.33" r="14.4" fill="#009af9" fill-rule="evenodd" fill-opacity="1" stroke="#000000" stroke-opacity="1" stroke-width="6.4"/>
<circle clip-path="url(#clip943)" cx="1857.58" cy="2928.81" r="14.4" fill="#009af9" fill-rule="evenodd" fill-opacity="1" stroke="#000000" stroke-opacity="1" stroke-width="6.4"/>
<circle clip-path="url(#clip943)" cx="1992.5" cy="2924.54" r="14.4" fill="#009af9" fill-rule="evenodd" fill-opacity="1" stroke="#000000" stroke-opacity="1" stroke-width="6.4"/>
<circle clip-path="url(#clip943)" cx="2127.41" cy="2915.35" r="14.4" fill="#009af9" fill-rule="evenodd" fill-opacity="1" stroke="#000000" stroke-opacity="1" stroke-width="6.4"/>
<circle clip-path="url(#clip943)" cx="2262.32" cy="2901.93" r="14.4" fill="#009af9" fill-rule="evenodd" fill-opacity="1" stroke="#000000" stroke-opacity="1" stroke-width="6.4"/>
<circle clip-path="url(#clip943)" cx="2397.24" cy="2885.06" r="14.4" fill="#009af9" fill-rule="evenodd" fill-opacity="1" stroke="#000000" stroke-opacity="1" stroke-width="6.4"/>
<circle clip-path="url(#clip943)" cx="2532.15" cy="2864.49" r="14.4" fill="#009af9" fill-rule="evenodd" fill-opacity="1" stroke="#000000" stroke-opacity="1" stroke-width="6.4"/>
<circle clip-path="url(#clip943)" cx="2667.07" cy="2841.23" r="14.4" fill="#009af9" fill-rule="evenodd" fill-opacity="1" stroke="#000000" stroke-opacity="1" stroke-width="6.4"/>
<circle clip-path="url(#clip943)" cx="2801.98" cy="2815.3" r="14.4" fill="#009af9" fill-rule="evenodd" fill-opacity="1" stroke="#000000" stroke-opacity="1" stroke-width="6.4"/>
<circle clip-path="url(#clip943)" cx="2936.89" cy="2786.93" r="14.4" fill="#009af9" fill-rule="evenodd" fill-opacity="1" stroke="#000000" stroke-opacity="1" stroke-width="6.4"/>
<circle clip-path="url(#clip943)" cx="3071.81" cy="2756.63" r="14.4" fill="#009af9" fill-rule="evenodd" fill-opacity="1" stroke="#000000" stroke-opacity="1" stroke-width="6.4"/>
<path clip-path="url(#clip940)" d="M2368.69 1846.73 L3057.42 1846.73 L3057.42 1691.21 L2368.69 1691.21  Z" fill="#ffffff" fill-rule="evenodd" fill-opacity="1"/>
<polyline clip-path="url(#clip940)" style="stroke:#000000; stroke-linecap:round; stroke-linejoin:round; stroke-width:4; stroke-opacity:1; fill:none" points="2368.69,1846.73 3057.42,1846.73 3057.42,1691.21 2368.69,1691.21 2368.69,1846.73 "/>
<polyline clip-path="url(#clip940)" style="stroke:#e26f46; stroke-linecap:round; stroke-linejoin:round; stroke-width:4; stroke-opacity:1; fill:none" points="2400.47,1743.05 2591.15,1743.05 "/>
<path clip-path="url(#clip940)" d="M2622.93 1725.77 L2629.9 1725.77 L2638.72 1749.29 L2647.58 1725.77 L2654.55 1725.77 L2654.55 1760.33 L2649.99 1760.33 L2649.99 1729.98 L2641.08 1753.68 L2636.38 1753.68 L2627.47 1729.98 L2627.47 1760.33 L2622.93 1760.33 L2622.93 1725.77 Z" fill="#000000" fill-rule="nonzero" fill-opacity="1" /><path clip-path="url(#clip940)" d="M2663.65 1734.4 L2667.91 1734.4 L2667.91 1760.33 L2663.65 1760.33 L2663.65 1734.4 M2663.65 1724.31 L2667.91 1724.31 L2667.91 1729.7 L2663.65 1729.7 L2663.65 1724.31 Z" fill="#000000" fill-rule="nonzero" fill-opacity="1" /><path clip-path="url(#clip940)" d="M2698.37 1744.68 L2698.37 1760.33 L2694.11 1760.33 L2694.11 1744.82 Q2694.11 1741.14 2692.68 1739.31 Q2691.24 1737.48 2688.37 1737.48 Q2684.92 1737.48 2682.93 1739.68 Q2680.94 1741.88 2680.94 1745.67 L2680.94 1760.33 L2676.66 1760.33 L2676.66 1734.4 L2680.94 1734.4 L2680.94 1738.43 Q2682.47 1736.09 2684.53 1734.93 Q2686.61 1733.78 2689.32 1733.78 Q2693.79 1733.78 2696.08 1736.55 Q2698.37 1739.31 2698.37 1744.68 Z" fill="#000000" fill-rule="nonzero" fill-opacity="1" /><path clip-path="url(#clip940)" d="M2706.87 1734.4 L2711.12 1734.4 L2711.12 1760.33 L2706.87 1760.33 L2706.87 1734.4 M2706.87 1724.31 L2711.12 1724.31 L2711.12 1729.7 L2706.87 1729.7 L2706.87 1724.31 Z" fill="#000000" fill-rule="nonzero" fill-opacity="1" /><path clip-path="url(#clip940)" d="M2740.22 1739.38 Q2741.82 1736.51 2744.04 1735.14 Q2746.26 1733.78 2749.27 1733.78 Q2753.32 1733.78 2755.52 1736.62 Q2757.72 1739.45 2757.72 1744.68 L2757.72 1760.33 L2753.44 1760.33 L2753.44 1744.82 Q2753.44 1741.09 2752.12 1739.29 Q2750.8 1737.48 2748.09 1737.48 Q2744.78 1737.48 2742.86 1739.68 Q2740.94 1741.88 2740.94 1745.67 L2740.94 1760.33 L2736.66 1760.33 L2736.66 1744.82 Q2736.66 1741.07 2735.34 1739.29 Q2734.02 1737.48 2731.26 1737.48 Q2728 1737.48 2726.08 1739.7 Q2724.16 1741.9 2724.16 1745.67 L2724.16 1760.33 L2719.87 1760.33 L2719.87 1734.4 L2724.16 1734.4 L2724.16 1738.43 Q2725.62 1736.05 2727.65 1734.91 Q2729.69 1733.78 2732.49 1733.78 Q2735.31 1733.78 2737.28 1735.21 Q2739.27 1736.65 2740.22 1739.38 Z" fill="#000000" fill-rule="nonzero" fill-opacity="1" /><path clip-path="url(#clip940)" d="M2765.78 1750.1 L2765.78 1734.4 L2770.04 1734.4 L2770.04 1749.93 Q2770.04 1753.61 2771.47 1755.47 Q2772.91 1757.29 2775.78 1757.29 Q2779.23 1757.29 2781.22 1755.1 Q2783.23 1752.9 2783.23 1749.1 L2783.23 1734.4 L2787.49 1734.4 L2787.49 1760.33 L2783.23 1760.33 L2783.23 1756.35 Q2781.68 1758.71 2779.62 1759.86 Q2777.58 1761 2774.87 1761 Q2770.41 1761 2768.09 1758.22 Q2765.78 1755.44 2765.78 1750.1 M2776.49 1733.78 L2776.49 1733.78 Z" fill="#000000" fill-rule="nonzero" fill-opacity="1" /><path clip-path="url(#clip940)" d="M2816.45 1739.38 Q2818.05 1736.51 2820.27 1735.14 Q2822.49 1733.78 2825.5 1733.78 Q2829.55 1733.78 2831.75 1736.62 Q2833.95 1739.45 2833.95 1744.68 L2833.95 1760.33 L2829.67 1760.33 L2829.67 1744.82 Q2829.67 1741.09 2828.35 1739.29 Q2827.03 1737.48 2824.32 1737.48 Q2821.01 1737.48 2819.09 1739.68 Q2817.17 1741.88 2817.17 1745.67 L2817.17 1760.33 L2812.88 1760.33 L2812.88 1744.82 Q2812.88 1741.07 2811.56 1739.29 Q2810.24 1737.48 2807.49 1737.48 Q2804.23 1737.48 2802.31 1739.7 Q2800.38 1741.9 2800.38 1745.67 L2800.38 1760.33 L2796.1 1760.33 L2796.1 1734.4 L2800.38 1734.4 L2800.38 1738.43 Q2801.84 1736.05 2803.88 1734.91 Q2805.92 1733.78 2808.72 1733.78 Q2811.54 1733.78 2813.51 1735.21 Q2815.5 1736.65 2816.45 1739.38 Z" fill="#000000" fill-rule="nonzero" fill-opacity="1" /><circle clip-path="url(#clip940)" cx="2495.81" cy="1794.89" r="20.48" fill="#009af9" fill-rule="evenodd" fill-opacity="1" stroke="#000000" stroke-opacity="1" stroke-width="9.10222"/>
<path clip-path="url(#clip940)" d="M2638.95 1780.78 Q2633.86 1780.78 2630.85 1784.57 Q2627.86 1788.37 2627.86 1794.92 Q2627.86 1801.45 2630.85 1805.25 Q2633.86 1809.04 2638.95 1809.04 Q2644.04 1809.04 2647 1805.25 Q2649.99 1801.45 2649.99 1794.92 Q2649.99 1788.37 2647 1784.57 Q2644.04 1780.78 2638.95 1780.78 M2638.95 1776.98 Q2646.22 1776.98 2650.57 1781.87 Q2654.92 1786.73 2654.92 1794.92 Q2654.92 1803.09 2650.57 1807.98 Q2646.22 1812.84 2638.95 1812.84 Q2631.66 1812.84 2627.28 1807.98 Q2622.93 1803.12 2622.93 1794.92 Q2622.93 1786.73 2627.28 1781.87 Q2631.66 1776.98 2638.95 1776.98 Z" fill="#000000" fill-rule="nonzero" fill-opacity="1" /><path clip-path="url(#clip940)" d="M2680.66 1799.23 Q2680.66 1794.53 2678.72 1791.87 Q2676.8 1789.18 2673.42 1789.18 Q2670.04 1789.18 2668.09 1791.87 Q2666.17 1794.53 2666.17 1799.23 Q2666.17 1803.93 2668.09 1806.61 Q2670.04 1809.27 2673.42 1809.27 Q2676.8 1809.27 2678.72 1806.61 Q2680.66 1803.93 2680.66 1799.23 M2666.17 1790.18 Q2667.51 1787.86 2669.55 1786.75 Q2671.61 1785.62 2674.46 1785.62 Q2679.18 1785.62 2682.12 1789.37 Q2685.08 1793.12 2685.08 1799.23 Q2685.08 1805.34 2682.12 1809.09 Q2679.18 1812.84 2674.46 1812.84 Q2671.61 1812.84 2669.55 1811.73 Q2667.51 1810.59 2666.17 1808.28 L2666.17 1812.17 L2661.89 1812.17 L2661.89 1776.15 L2666.17 1776.15 L2666.17 1790.18 Z" fill="#000000" fill-rule="nonzero" fill-opacity="1" /><path clip-path="url(#clip940)" d="M2692.14 1786.24 L2696.4 1786.24 L2696.4 1812.63 Q2696.4 1817.58 2694.5 1819.81 Q2692.63 1822.03 2688.44 1822.03 L2686.82 1822.03 L2686.82 1818.42 L2687.95 1818.42 Q2690.38 1818.42 2691.26 1817.28 Q2692.14 1816.17 2692.14 1812.63 L2692.14 1786.24 M2692.14 1776.15 L2696.4 1776.15 L2696.4 1781.54 L2692.14 1781.54 L2692.14 1776.15 Z" fill="#000000" fill-rule="nonzero" fill-opacity="1" /><path clip-path="url(#clip940)" d="M2727.49 1798.14 L2727.49 1800.22 L2707.91 1800.22 Q2708.19 1804.62 2710.55 1806.94 Q2712.93 1809.23 2717.17 1809.23 Q2719.62 1809.23 2721.91 1808.63 Q2724.23 1808.02 2726.5 1806.82 L2726.5 1810.85 Q2724.2 1811.82 2721.8 1812.33 Q2719.39 1812.84 2716.91 1812.84 Q2710.71 1812.84 2707.07 1809.23 Q2703.46 1805.62 2703.46 1799.46 Q2703.46 1793.09 2706.89 1789.37 Q2710.34 1785.62 2716.17 1785.62 Q2721.4 1785.62 2724.44 1789 Q2727.49 1792.35 2727.49 1798.14 M2723.23 1796.89 Q2723.19 1793.39 2721.26 1791.31 Q2719.37 1789.23 2716.22 1789.23 Q2712.65 1789.23 2710.5 1791.24 Q2708.37 1793.26 2708.05 1796.91 L2723.23 1796.89 Z" fill="#000000" fill-rule="nonzero" fill-opacity="1" /><path clip-path="url(#clip940)" d="M2753.14 1787.24 L2753.14 1791.22 Q2751.33 1790.22 2749.5 1789.74 Q2747.7 1789.23 2745.85 1789.23 Q2741.7 1789.23 2739.41 1791.87 Q2737.12 1794.48 2737.12 1799.23 Q2737.12 1803.97 2739.41 1806.61 Q2741.7 1809.23 2745.85 1809.23 Q2747.7 1809.23 2749.5 1808.74 Q2751.33 1808.23 2753.14 1807.24 L2753.14 1811.17 Q2751.36 1812.01 2749.43 1812.42 Q2747.54 1812.84 2745.38 1812.84 Q2739.53 1812.84 2736.08 1809.16 Q2732.63 1805.48 2732.63 1799.23 Q2732.63 1792.88 2736.1 1789.25 Q2739.6 1785.62 2745.66 1785.62 Q2747.63 1785.62 2749.5 1786.03 Q2751.38 1786.43 2753.14 1787.24 Z" fill="#000000" fill-rule="nonzero" fill-opacity="1" /><path clip-path="url(#clip940)" d="M2764.76 1778.88 L2764.76 1786.24 L2773.53 1786.24 L2773.53 1789.55 L2764.76 1789.55 L2764.76 1803.63 Q2764.76 1806.8 2765.62 1807.7 Q2766.5 1808.6 2769.16 1808.6 L2773.53 1808.6 L2773.53 1812.17 L2769.16 1812.17 Q2764.23 1812.17 2762.35 1810.34 Q2760.48 1808.49 2760.48 1803.63 L2760.48 1789.55 L2757.35 1789.55 L2757.35 1786.24 L2760.48 1786.24 L2760.48 1778.88 L2764.76 1778.88 Z" fill="#000000" fill-rule="nonzero" fill-opacity="1" /><path clip-path="url(#clip940)" d="M2779.13 1786.24 L2783.39 1786.24 L2783.39 1812.17 L2779.13 1812.17 L2779.13 1786.24 M2779.13 1776.15 L2783.39 1776.15 L2783.39 1781.54 L2779.13 1781.54 L2779.13 1776.15 Z" fill="#000000" fill-rule="nonzero" fill-opacity="1" /><path clip-path="url(#clip940)" d="M2789.25 1786.24 L2793.76 1786.24 L2801.87 1808 L2809.97 1786.24 L2814.48 1786.24 L2804.76 1812.17 L2798.97 1812.17 L2789.25 1786.24 Z" fill="#000000" fill-rule="nonzero" fill-opacity="1" /><path clip-path="url(#clip940)" d="M2842.54 1798.14 L2842.54 1800.22 L2822.95 1800.22 Q2823.23 1804.62 2825.59 1806.94 Q2827.98 1809.23 2832.21 1809.23 Q2834.67 1809.23 2836.96 1808.63 Q2839.27 1808.02 2841.54 1806.82 L2841.54 1810.85 Q2839.25 1811.82 2836.84 1812.33 Q2834.43 1812.84 2831.96 1812.84 Q2825.75 1812.84 2822.12 1809.23 Q2818.51 1805.62 2818.51 1799.46 Q2818.51 1793.09 2821.93 1789.37 Q2825.38 1785.62 2831.22 1785.62 Q2836.45 1785.62 2839.48 1789 Q2842.54 1792.35 2842.54 1798.14 M2838.28 1796.89 Q2838.23 1793.39 2836.31 1791.31 Q2834.41 1789.23 2831.26 1789.23 Q2827.7 1789.23 2825.55 1791.24 Q2823.42 1793.26 2823.09 1796.91 L2838.28 1796.89 Z" fill="#000000" fill-rule="nonzero" fill-opacity="1" /><path clip-path="url(#clip940)" d="M2874.83 1776.2 Q2871.73 1781.52 2870.22 1786.73 Q2868.72 1791.94 2868.72 1797.28 Q2868.72 1802.63 2870.22 1807.88 Q2871.75 1813.12 2874.83 1818.42 L2871.12 1818.42 Q2867.65 1812.98 2865.92 1807.72 Q2864.2 1802.47 2864.2 1797.28 Q2864.2 1792.12 2865.92 1786.89 Q2867.63 1781.66 2871.12 1776.2 L2874.83 1776.2 Z" fill="#000000" fill-rule="nonzero" fill-opacity="1" /><path clip-path="url(#clip940)" d="M2883.09 1776.15 L2887.35 1776.15 L2887.35 1812.17 L2883.09 1812.17 L2883.09 1776.15 Z" fill="#000000" fill-rule="nonzero" fill-opacity="1" /><path clip-path="url(#clip940)" d="M2906.31 1789.23 Q2902.88 1789.23 2900.89 1791.91 Q2898.9 1794.57 2898.9 1799.23 Q2898.9 1803.88 2900.87 1806.57 Q2902.86 1809.23 2906.31 1809.23 Q2909.71 1809.23 2911.7 1806.54 Q2913.69 1803.86 2913.69 1799.23 Q2913.69 1794.62 2911.7 1791.94 Q2909.71 1789.23 2906.31 1789.23 M2906.31 1785.62 Q2911.86 1785.62 2915.04 1789.23 Q2918.21 1792.84 2918.21 1799.23 Q2918.21 1805.59 2915.04 1809.23 Q2911.86 1812.84 2906.31 1812.84 Q2900.73 1812.84 2897.56 1809.23 Q2894.41 1805.59 2894.41 1799.23 Q2894.41 1792.84 2897.56 1789.23 Q2900.73 1785.62 2906.31 1785.62 Z" fill="#000000" fill-rule="nonzero" fill-opacity="1" /><path clip-path="url(#clip940)" d="M2942.33 1798.9 Q2942.33 1794.27 2940.41 1791.73 Q2938.51 1789.18 2935.06 1789.18 Q2931.63 1789.18 2929.71 1791.73 Q2927.81 1794.27 2927.81 1798.9 Q2927.81 1803.51 2929.71 1806.06 Q2931.63 1808.6 2935.06 1808.6 Q2938.51 1808.6 2940.41 1806.06 Q2942.33 1803.51 2942.33 1798.9 M2946.59 1808.95 Q2946.59 1815.57 2943.65 1818.79 Q2940.71 1822.03 2934.64 1822.03 Q2932.4 1822.03 2930.41 1821.68 Q2928.42 1821.36 2926.54 1820.66 L2926.54 1816.52 Q2928.42 1817.54 2930.24 1818.02 Q2932.07 1818.51 2933.97 1818.51 Q2938.16 1818.51 2940.24 1816.31 Q2942.33 1814.13 2942.33 1809.71 L2942.33 1807.61 Q2941.01 1809.9 2938.95 1811.03 Q2936.89 1812.17 2934.02 1812.17 Q2929.25 1812.17 2926.33 1808.53 Q2923.42 1804.9 2923.42 1798.9 Q2923.42 1792.88 2926.33 1789.25 Q2929.25 1785.62 2934.02 1785.62 Q2936.89 1785.62 2938.95 1786.75 Q2941.01 1787.89 2942.33 1790.18 L2942.33 1786.24 L2946.59 1786.24 L2946.59 1808.95 Z" fill="#000000" fill-rule="nonzero" fill-opacity="1" /><path clip-path="url(#clip940)" d="M2956.77 1808.23 L2964.41 1808.23 L2964.41 1781.87 L2956.1 1783.53 L2956.1 1779.27 L2964.36 1777.61 L2969.04 1777.61 L2969.04 1808.23 L2976.68 1808.23 L2976.68 1812.17 L2956.77 1812.17 L2956.77 1808.23 Z" fill="#000000" fill-rule="nonzero" fill-opacity="1" /><path clip-path="url(#clip940)" d="M2996.12 1780.69 Q2992.51 1780.69 2990.68 1784.25 Q2988.88 1787.79 2988.88 1794.92 Q2988.88 1802.03 2990.68 1805.59 Q2992.51 1809.13 2996.12 1809.13 Q2999.76 1809.13 3001.56 1805.59 Q3003.39 1802.03 3003.39 1794.92 Q3003.39 1787.79 3001.56 1784.25 Q2999.76 1780.69 2996.12 1780.69 M2996.12 1776.98 Q3001.93 1776.98 3004.99 1781.59 Q3008.07 1786.17 3008.07 1794.92 Q3008.07 1803.65 3004.99 1808.26 Q3001.93 1812.84 2996.12 1812.84 Q2990.31 1812.84 2987.23 1808.26 Q2984.18 1803.65 2984.18 1794.92 Q2984.18 1786.17 2987.23 1781.59 Q2990.31 1776.98 2996.12 1776.98 Z" fill="#000000" fill-rule="nonzero" fill-opacity="1" /><path clip-path="url(#clip940)" d="M3015.01 1776.2 L3018.72 1776.2 Q3022.19 1781.66 3023.9 1786.89 Q3025.64 1792.12 3025.64 1797.28 Q3025.64 1802.47 3023.9 1807.72 Q3022.19 1812.98 3018.72 1818.42 L3015.01 1818.42 Q3018.09 1813.12 3019.6 1807.88 Q3021.12 1802.63 3021.12 1797.28 Q3021.12 1791.94 3019.6 1786.73 Q3018.09 1781.52 3015.01 1776.2 Z" fill="#000000" fill-rule="nonzero" fill-opacity="1" /></svg>
