<?xml version="1.0" encoding="utf-8"?>
<svg xmlns="http://www.w3.org/2000/svg" xmlns:xlink="http://www.w3.org/1999/xlink" width="600" height="400" viewBox="0 0 2400 1600">
<defs>
  <clipPath id="clip660">
    <rect x="0" y="0" width="2400" height="1600"/>
  </clipPath>
</defs>
<path clip-path="url(#clip660)" d="M0 1600 L2400 1600 L2400 0 L0 0  Z" fill="#ffffff" fill-rule="evenodd" fill-opacity="1"/>
<defs>
  <clipPath id="clip661">
    <rect x="480" y="0" width="1681" height="1600"/>
  </clipPath>
</defs>
<path clip-path="url(#clip660)" d="M257.69 1423.18 L2352.76 1423.18 L2352.76 47.2441 L257.69 47.2441  Z" fill="#ffffff" fill-rule="evenodd" fill-opacity="1"/>
<defs>
  <clipPath id="clip662">
    <rect x="257" y="47" width="2096" height="1377"/>
  </clipPath>
</defs>
<polyline clip-path="url(#clip662)" style="stroke:#000000; stroke-linecap:round; stroke-linejoin:round; stroke-width:2; stroke-opacity:0.1; fill:none" points="432.279,1423.18 432.279,47.2441 "/>
<polyline clip-path="url(#clip662)" style="stroke:#000000; stroke-linecap:round; stroke-linejoin:round; stroke-width:2; stroke-opacity:0.1; fill:none" points="868.751,1423.18 868.751,47.2441 "/>
<polyline clip-path="url(#clip662)" style="stroke:#000000; stroke-linecap:round; stroke-linejoin:round; stroke-width:2; stroke-opacity:0.1; fill:none" points="1305.22,1423.18 1305.22,47.2441 "/>
<polyline clip-path="url(#clip662)" style="stroke:#000000; stroke-linecap:round; stroke-linejoin:round; stroke-width:2; stroke-opacity:0.1; fill:none" points="1741.7,1423.18 1741.7,47.2441 "/>
<polyline clip-path="url(#clip662)" style="stroke:#000000; stroke-linecap:round; stroke-linejoin:round; stroke-width:2; stroke-opacity:0.1; fill:none" points="2178.17,1423.18 2178.17,47.2441 "/>
<polyline clip-path="url(#clip662)" style="stroke:#000000; stroke-linecap:round; stroke-linejoin:round; stroke-width:2; stroke-opacity:0.1; fill:none" points="257.69,1193.86 2352.76,1193.86 "/>
<polyline clip-path="url(#clip662)" style="stroke:#000000; stroke-linecap:round; stroke-linejoin:round; stroke-width:2; stroke-opacity:0.1; fill:none" points="257.69,964.535 2352.76,964.535 "/>
<polyline clip-path="url(#clip662)" style="stroke:#000000; stroke-linecap:round; stroke-linejoin:round; stroke-width:2; stroke-opacity:0.1; fill:none" points="257.69,735.212 2352.76,735.212 "/>
<polyline clip-path="url(#clip662)" style="stroke:#000000; stroke-linecap:round; stroke-linejoin:round; stroke-width:2; stroke-opacity:0.1; fill:none" points="257.69,505.889 2352.76,505.889 "/>
<polyline clip-path="url(#clip662)" style="stroke:#000000; stroke-linecap:round; stroke-linejoin:round; stroke-width:2; stroke-opacity:0.1; fill:none" points="257.69,276.567 2352.76,276.567 "/>
<polyline clip-path="url(#clip660)" style="stroke:#000000; stroke-linecap:round; stroke-linejoin:round; stroke-width:4; stroke-opacity:1; fill:none" points="257.69,1423.18 2352.76,1423.18 "/>
<polyline clip-path="url(#clip660)" style="stroke:#000000; stroke-linecap:round; stroke-linejoin:round; stroke-width:4; stroke-opacity:1; fill:none" points="432.279,1423.18 432.279,1404.28 "/>
<polyline clip-path="url(#clip660)" style="stroke:#000000; stroke-linecap:round; stroke-linejoin:round; stroke-width:4; stroke-opacity:1; fill:none" points="868.751,1423.18 868.751,1404.28 "/>
<polyline clip-path="url(#clip660)" style="stroke:#000000; stroke-linecap:round; stroke-linejoin:round; stroke-width:4; stroke-opacity:1; fill:none" points="1305.22,1423.18 1305.22,1404.28 "/>
<polyline clip-path="url(#clip660)" style="stroke:#000000; stroke-linecap:round; stroke-linejoin:round; stroke-width:4; stroke-opacity:1; fill:none" points="1741.7,1423.18 1741.7,1404.28 "/>
<polyline clip-path="url(#clip660)" style="stroke:#000000; stroke-linecap:round; stroke-linejoin:round; stroke-width:4; stroke-opacity:1; fill:none" points="2178.17,1423.18 2178.17,1404.28 "/>
<path clip-path="url(#clip660)" d="M378.807 1468.75 L408.483 1468.75 L408.483 1472.69 L378.807 1472.69 L378.807 1468.75 Z" fill="#000000" fill-rule="nonzero" fill-opacity="1" /><path clip-path="url(#clip660)" d="M419.386 1481.64 L427.024 1481.64 L427.024 1455.28 L418.714 1456.95 L418.714 1452.69 L426.978 1451.02 L431.654 1451.02 L431.654 1481.64 L439.293 1481.64 L439.293 1485.58 L419.386 1485.58 L419.386 1481.64 Z" fill="#000000" fill-rule="nonzero" fill-opacity="1" /><path clip-path="url(#clip660)" d="M448.737 1479.7 L453.621 1479.7 L453.621 1485.58 L448.737 1485.58 L448.737 1479.7 Z" fill="#000000" fill-rule="nonzero" fill-opacity="1" /><path clip-path="url(#clip660)" d="M473.807 1454.1 Q470.195 1454.1 468.367 1457.66 Q466.561 1461.2 466.561 1468.33 Q466.561 1475.44 468.367 1479.01 Q470.195 1482.55 473.807 1482.55 Q477.441 1482.55 479.246 1479.01 Q481.075 1475.44 481.075 1468.33 Q481.075 1461.2 479.246 1457.66 Q477.441 1454.1 473.807 1454.1 M473.807 1450.39 Q479.617 1450.39 482.672 1455 Q485.751 1459.58 485.751 1468.33 Q485.751 1477.06 482.672 1481.67 Q479.617 1486.25 473.807 1486.25 Q467.996 1486.25 464.918 1481.67 Q461.862 1477.06 461.862 1468.33 Q461.862 1459.58 464.918 1455 Q467.996 1450.39 473.807 1450.39 Z" fill="#000000" fill-rule="nonzero" fill-opacity="1" /><path clip-path="url(#clip660)" d="M815.777 1468.75 L845.453 1468.75 L845.453 1472.69 L815.777 1472.69 L815.777 1468.75 Z" fill="#000000" fill-rule="nonzero" fill-opacity="1" /><path clip-path="url(#clip660)" d="M865.545 1454.1 Q861.934 1454.1 860.105 1457.66 Q858.3 1461.2 858.3 1468.33 Q858.3 1475.44 860.105 1479.01 Q861.934 1482.55 865.545 1482.55 Q869.179 1482.55 870.985 1479.01 Q872.813 1475.44 872.813 1468.33 Q872.813 1461.2 870.985 1457.66 Q869.179 1454.1 865.545 1454.1 M865.545 1450.39 Q871.355 1450.39 874.411 1455 Q877.489 1459.58 877.489 1468.33 Q877.489 1477.06 874.411 1481.67 Q871.355 1486.25 865.545 1486.25 Q859.735 1486.25 856.656 1481.67 Q853.601 1477.06 853.601 1468.33 Q853.601 1459.58 856.656 1455 Q859.735 1450.39 865.545 1450.39 Z" fill="#000000" fill-rule="nonzero" fill-opacity="1" /><path clip-path="url(#clip660)" d="M885.707 1479.7 L890.591 1479.7 L890.591 1485.58 L885.707 1485.58 L885.707 1479.7 Z" fill="#000000" fill-rule="nonzero" fill-opacity="1" /><path clip-path="url(#clip660)" d="M900.823 1451.02 L919.179 1451.02 L919.179 1454.96 L905.105 1454.96 L905.105 1463.43 Q906.123 1463.08 907.142 1462.92 Q908.16 1462.73 909.179 1462.73 Q914.966 1462.73 918.346 1465.9 Q921.725 1469.08 921.725 1474.49 Q921.725 1480.07 918.253 1483.17 Q914.781 1486.25 908.461 1486.25 Q906.286 1486.25 904.017 1485.88 Q901.772 1485.51 899.364 1484.77 L899.364 1480.07 Q901.448 1481.2 903.67 1481.76 Q905.892 1482.32 908.369 1482.32 Q912.373 1482.32 914.711 1480.21 Q917.049 1478.1 917.049 1474.49 Q917.049 1470.88 914.711 1468.77 Q912.373 1466.67 908.369 1466.67 Q906.494 1466.67 904.619 1467.08 Q902.767 1467.5 900.823 1468.38 L900.823 1451.02 Z" fill="#000000" fill-rule="nonzero" fill-opacity="1" /><path clip-path="url(#clip660)" d="M1282.61 1454.1 Q1279 1454.1 1277.17 1457.66 Q1275.36 1461.2 1275.36 1468.33 Q1275.36 1475.44 1277.17 1479.01 Q1279 1482.55 1282.61 1482.55 Q1286.24 1482.55 1288.05 1479.01 Q1289.88 1475.44 1289.88 1468.33 Q1289.88 1461.2 1288.05 1457.66 Q1286.24 1454.1 1282.61 1454.1 M1282.61 1450.39 Q1288.42 1450.39 1291.47 1455 Q1294.55 1459.58 1294.55 1468.33 Q1294.55 1477.06 1291.47 1481.67 Q1288.42 1486.25 1282.61 1486.25 Q1276.8 1486.25 1273.72 1481.67 Q1270.66 1477.06 1270.66 1468.33 Q1270.66 1459.58 1273.72 1455 Q1276.8 1450.39 1282.61 1450.39 Z" fill="#000000" fill-rule="nonzero" fill-opacity="1" /><path clip-path="url(#clip660)" d="M1302.77 1479.7 L1307.65 1479.7 L1307.65 1485.58 L1302.77 1485.58 L1302.77 1479.7 Z" fill="#000000" fill-rule="nonzero" fill-opacity="1" /><path clip-path="url(#clip660)" d="M1327.84 1454.1 Q1324.23 1454.1 1322.4 1457.66 Q1320.59 1461.2 1320.59 1468.33 Q1320.59 1475.44 1322.4 1479.01 Q1324.23 1482.55 1327.84 1482.55 Q1331.47 1482.55 1333.28 1479.01 Q1335.11 1475.44 1335.11 1468.33 Q1335.11 1461.2 1333.28 1457.66 Q1331.47 1454.1 1327.84 1454.1 M1327.84 1450.39 Q1333.65 1450.39 1336.7 1455 Q1339.78 1459.58 1339.78 1468.33 Q1339.78 1477.06 1336.7 1481.67 Q1333.65 1486.25 1327.84 1486.25 Q1322.03 1486.25 1318.95 1481.67 Q1315.89 1477.06 1315.89 1468.33 Q1315.89 1459.58 1318.95 1455 Q1322.03 1450.39 1327.84 1450.39 Z" fill="#000000" fill-rule="nonzero" fill-opacity="1" /><path clip-path="url(#clip660)" d="M1719.58 1454.1 Q1715.97 1454.1 1714.14 1457.66 Q1712.33 1461.2 1712.33 1468.33 Q1712.33 1475.44 1714.14 1479.01 Q1715.97 1482.55 1719.58 1482.55 Q1723.21 1482.55 1725.02 1479.01 Q1726.85 1475.44 1726.85 1468.33 Q1726.85 1461.2 1725.02 1457.66 Q1723.21 1454.1 1719.58 1454.1 M1719.58 1450.39 Q1725.39 1450.39 1728.44 1455 Q1731.52 1459.58 1731.52 1468.33 Q1731.52 1477.06 1728.44 1481.67 Q1725.39 1486.25 1719.58 1486.25 Q1713.77 1486.25 1710.69 1481.67 Q1707.63 1477.06 1707.63 1468.33 Q1707.63 1459.58 1710.69 1455 Q1713.77 1450.39 1719.58 1450.39 Z" fill="#000000" fill-rule="nonzero" fill-opacity="1" /><path clip-path="url(#clip660)" d="M1739.74 1479.7 L1744.62 1479.7 L1744.62 1485.58 L1739.74 1485.58 L1739.74 1479.7 Z" fill="#000000" fill-rule="nonzero" fill-opacity="1" /><path clip-path="url(#clip660)" d="M1754.85 1451.02 L1773.21 1451.02 L1773.21 1454.96 L1759.14 1454.96 L1759.14 1463.43 Q1760.16 1463.08 1761.17 1462.92 Q1762.19 1462.73 1763.21 1462.73 Q1769 1462.73 1772.38 1465.9 Q1775.76 1469.08 1775.76 1474.49 Q1775.76 1480.07 1772.29 1483.17 Q1768.81 1486.25 1762.49 1486.25 Q1760.32 1486.25 1758.05 1485.88 Q1755.8 1485.51 1753.4 1484.77 L1753.4 1480.07 Q1755.48 1481.2 1757.7 1481.76 Q1759.92 1482.32 1762.4 1482.32 Q1766.41 1482.32 1768.74 1480.21 Q1771.08 1478.1 1771.08 1474.49 Q1771.08 1470.88 1768.74 1468.77 Q1766.41 1466.67 1762.4 1466.67 Q1760.53 1466.67 1758.65 1467.08 Q1756.8 1467.5 1754.85 1468.38 L1754.85 1451.02 Z" fill="#000000" fill-rule="nonzero" fill-opacity="1" /><path clip-path="url(#clip660)" d="M2145.32 1481.64 L2152.96 1481.64 L2152.96 1455.28 L2144.65 1456.95 L2144.65 1452.69 L2152.91 1451.02 L2157.59 1451.02 L2157.59 1481.64 L2165.23 1481.64 L2165.23 1485.58 L2145.32 1485.58 L2145.32 1481.64 Z" fill="#000000" fill-rule="nonzero" fill-opacity="1" /><path clip-path="url(#clip660)" d="M2174.67 1479.7 L2179.56 1479.7 L2179.56 1485.58 L2174.67 1485.58 L2174.67 1479.7 Z" fill="#000000" fill-rule="nonzero" fill-opacity="1" /><path clip-path="url(#clip660)" d="M2199.74 1454.1 Q2196.13 1454.1 2194.3 1457.66 Q2192.5 1461.2 2192.5 1468.33 Q2192.5 1475.44 2194.3 1479.01 Q2196.13 1482.55 2199.74 1482.55 Q2203.38 1482.55 2205.18 1479.01 Q2207.01 1475.44 2207.01 1468.33 Q2207.01 1461.2 2205.18 1457.66 Q2203.38 1454.1 2199.74 1454.1 M2199.74 1450.39 Q2205.55 1450.39 2208.61 1455 Q2211.69 1459.58 2211.69 1468.33 Q2211.69 1477.06 2208.61 1481.67 Q2205.55 1486.25 2199.74 1486.25 Q2193.93 1486.25 2190.85 1481.67 Q2187.8 1477.06 2187.8 1468.33 Q2187.8 1459.58 2190.85 1455 Q2193.93 1450.39 2199.74 1450.39 Z" fill="#000000" fill-rule="nonzero" fill-opacity="1" /><path clip-path="url(#clip660)" d="M1290.3 1553.98 L1290.3 1532.4 L1296.15 1532.4 L1296.15 1553.75 Q1296.15 1558.81 1298.13 1561.36 Q1300.1 1563.87 1304.05 1563.87 Q1308.79 1563.87 1311.53 1560.85 Q1314.29 1557.83 1314.29 1552.61 L1314.29 1532.4 L1320.15 1532.4 L1320.15 1568.04 L1314.29 1568.04 L1314.29 1562.57 Q1312.16 1565.82 1309.33 1567.41 Q1306.53 1568.97 1302.8 1568.97 Q1296.66 1568.97 1293.48 1565.15 Q1290.3 1561.33 1290.3 1553.98 M1305.03 1531.54 L1305.03 1531.54 Z" fill="#000000" fill-rule="nonzero" fill-opacity="1" /><polyline clip-path="url(#clip660)" style="stroke:#000000; stroke-linecap:round; stroke-linejoin:round; stroke-width:4; stroke-opacity:1; fill:none" points="257.69,1423.18 257.69,47.2441 "/>
<polyline clip-path="url(#clip660)" style="stroke:#000000; stroke-linecap:round; stroke-linejoin:round; stroke-width:4; stroke-opacity:1; fill:none" points="257.69,1193.86 276.588,1193.86 "/>
<polyline clip-path="url(#clip660)" style="stroke:#000000; stroke-linecap:round; stroke-linejoin:round; stroke-width:4; stroke-opacity:1; fill:none" points="257.69,964.535 276.588,964.535 "/>
<polyline clip-path="url(#clip660)" style="stroke:#000000; stroke-linecap:round; stroke-linejoin:round; stroke-width:4; stroke-opacity:1; fill:none" points="257.69,735.212 276.588,735.212 "/>
<polyline clip-path="url(#clip660)" style="stroke:#000000; stroke-linecap:round; stroke-linejoin:round; stroke-width:4; stroke-opacity:1; fill:none" points="257.69,505.889 276.588,505.889 "/>
<polyline clip-path="url(#clip660)" style="stroke:#000000; stroke-linecap:round; stroke-linejoin:round; stroke-width:4; stroke-opacity:1; fill:none" points="257.69,276.567 276.588,276.567 "/>
<path clip-path="url(#clip660)" d="M114.26 1194.31 L143.936 1194.31 L143.936 1198.24 L114.26 1198.24 L114.26 1194.31 Z" fill="#000000" fill-rule="nonzero" fill-opacity="1" /><path clip-path="url(#clip660)" d="M164.028 1179.66 Q160.417 1179.66 158.589 1183.22 Q156.783 1186.76 156.783 1193.89 Q156.783 1201 158.589 1204.56 Q160.417 1208.1 164.028 1208.1 Q167.663 1208.1 169.468 1204.56 Q171.297 1201 171.297 1193.89 Q171.297 1186.76 169.468 1183.22 Q167.663 1179.66 164.028 1179.66 M164.028 1175.95 Q169.839 1175.95 172.894 1180.56 Q175.973 1185.14 175.973 1193.89 Q175.973 1202.62 172.894 1207.23 Q169.839 1211.81 164.028 1211.81 Q158.218 1211.81 155.14 1207.23 Q152.084 1202.62 152.084 1193.89 Q152.084 1185.14 155.14 1180.56 Q158.218 1175.95 164.028 1175.95 Z" fill="#000000" fill-rule="nonzero" fill-opacity="1" /><path clip-path="url(#clip660)" d="M184.19 1205.26 L189.075 1205.26 L189.075 1211.14 L184.19 1211.14 L184.19 1205.26 Z" fill="#000000" fill-rule="nonzero" fill-opacity="1" /><path clip-path="url(#clip660)" d="M212.107 1180.65 L200.301 1199.1 L212.107 1199.1 L212.107 1180.65 M210.88 1176.58 L216.76 1176.58 L216.76 1199.1 L221.69 1199.1 L221.69 1202.99 L216.76 1202.99 L216.76 1211.14 L212.107 1211.14 L212.107 1202.99 L196.505 1202.99 L196.505 1198.48 L210.88 1176.58 Z" fill="#000000" fill-rule="nonzero" fill-opacity="1" /><path clip-path="url(#clip660)" d="M116.343 964.986 L146.019 964.986 L146.019 968.921 L116.343 968.921 L116.343 964.986 Z" fill="#000000" fill-rule="nonzero" fill-opacity="1" /><path clip-path="url(#clip660)" d="M166.112 950.333 Q162.501 950.333 160.672 953.898 Q158.866 957.44 158.866 964.569 Q158.866 971.676 160.672 975.241 Q162.501 978.782 166.112 978.782 Q169.746 978.782 171.552 975.241 Q173.38 971.676 173.38 964.569 Q173.38 957.44 171.552 953.898 Q169.746 950.333 166.112 950.333 M166.112 946.63 Q171.922 946.63 174.977 951.236 Q178.056 955.819 178.056 964.569 Q178.056 973.296 174.977 977.903 Q171.922 982.486 166.112 982.486 Q160.302 982.486 157.223 977.903 Q154.167 973.296 154.167 964.569 Q154.167 955.819 157.223 951.236 Q160.302 946.63 166.112 946.63 Z" fill="#000000" fill-rule="nonzero" fill-opacity="1" /><path clip-path="url(#clip660)" d="M186.274 975.935 L191.158 975.935 L191.158 981.815 L186.274 981.815 L186.274 975.935 Z" fill="#000000" fill-rule="nonzero" fill-opacity="1" /><path clip-path="url(#clip660)" d="M205.371 977.879 L221.69 977.879 L221.69 981.815 L199.746 981.815 L199.746 977.879 Q202.408 975.125 206.991 970.495 Q211.598 965.842 212.778 964.5 Q215.024 961.977 215.903 960.241 Q216.806 958.481 216.806 956.792 Q216.806 954.037 214.861 952.301 Q212.94 950.565 209.838 950.565 Q207.639 950.565 205.186 951.329 Q202.755 952.093 199.977 953.643 L199.977 948.921 Q202.801 947.787 205.255 947.208 Q207.709 946.63 209.746 946.63 Q215.116 946.63 218.311 949.315 Q221.505 952 221.505 956.491 Q221.505 958.62 220.695 960.542 Q219.908 962.44 217.801 965.032 Q217.223 965.704 214.121 968.921 Q211.019 972.116 205.371 977.879 Z" fill="#000000" fill-rule="nonzero" fill-opacity="1" /><path clip-path="url(#clip660)" d="M164.515 721.011 Q160.903 721.011 159.075 724.575 Q157.269 728.117 157.269 735.247 Q157.269 742.353 159.075 745.918 Q160.903 749.46 164.515 749.46 Q168.149 749.46 169.954 745.918 Q171.783 742.353 171.783 735.247 Q171.783 728.117 169.954 724.575 Q168.149 721.011 164.515 721.011 M164.515 717.307 Q170.325 717.307 173.38 721.913 Q176.459 726.497 176.459 735.247 Q176.459 743.973 173.38 748.58 Q170.325 753.163 164.515 753.163 Q158.704 753.163 155.626 748.58 Q152.57 743.973 152.57 735.247 Q152.57 726.497 155.626 721.913 Q158.704 717.307 164.515 717.307 Z" fill="#000000" fill-rule="nonzero" fill-opacity="1" /><path clip-path="url(#clip660)" d="M184.676 746.612 L189.561 746.612 L189.561 752.492 L184.676 752.492 L184.676 746.612 Z" fill="#000000" fill-rule="nonzero" fill-opacity="1" /><path clip-path="url(#clip660)" d="M209.746 721.011 Q206.135 721.011 204.306 724.575 Q202.5 728.117 202.5 735.247 Q202.5 742.353 204.306 745.918 Q206.135 749.46 209.746 749.46 Q213.38 749.46 215.186 745.918 Q217.014 742.353 217.014 735.247 Q217.014 728.117 215.186 724.575 Q213.38 721.011 209.746 721.011 M209.746 717.307 Q215.556 717.307 218.611 721.913 Q221.69 726.497 221.69 735.247 Q221.69 743.973 218.611 748.58 Q215.556 753.163 209.746 753.163 Q203.936 753.163 200.857 748.58 Q197.801 743.973 197.801 735.247 Q197.801 726.497 200.857 721.913 Q203.936 717.307 209.746 717.307 Z" fill="#000000" fill-rule="nonzero" fill-opacity="1" /><path clip-path="url(#clip660)" d="M166.112 491.688 Q162.501 491.688 160.672 495.253 Q158.866 498.794 158.866 505.924 Q158.866 513.031 160.672 516.595 Q162.501 520.137 166.112 520.137 Q169.746 520.137 171.552 516.595 Q173.38 513.031 173.38 505.924 Q173.38 498.794 171.552 495.253 Q169.746 491.688 166.112 491.688 M166.112 487.984 Q171.922 487.984 174.977 492.591 Q178.056 497.174 178.056 505.924 Q178.056 514.651 174.977 519.257 Q171.922 523.841 166.112 523.841 Q160.302 523.841 157.223 519.257 Q154.167 514.651 154.167 505.924 Q154.167 497.174 157.223 492.591 Q160.302 487.984 166.112 487.984 Z" fill="#000000" fill-rule="nonzero" fill-opacity="1" /><path clip-path="url(#clip660)" d="M186.274 517.29 L191.158 517.29 L191.158 523.169 L186.274 523.169 L186.274 517.29 Z" fill="#000000" fill-rule="nonzero" fill-opacity="1" /><path clip-path="url(#clip660)" d="M205.371 519.234 L221.69 519.234 L221.69 523.169 L199.746 523.169 L199.746 519.234 Q202.408 516.48 206.991 511.85 Q211.598 507.197 212.778 505.855 Q215.024 503.331 215.903 501.595 Q216.806 499.836 216.806 498.146 Q216.806 495.392 214.861 493.656 Q212.94 491.92 209.838 491.92 Q207.639 491.92 205.186 492.683 Q202.755 493.447 199.977 494.998 L199.977 490.276 Q202.801 489.142 205.255 488.563 Q207.709 487.984 209.746 487.984 Q215.116 487.984 218.311 490.67 Q221.505 493.355 221.505 497.845 Q221.505 499.975 220.695 501.896 Q219.908 503.794 217.801 506.387 Q217.223 507.058 214.121 510.276 Q211.019 513.47 205.371 519.234 Z" fill="#000000" fill-rule="nonzero" fill-opacity="1" /><path clip-path="url(#clip660)" d="M164.028 262.365 Q160.417 262.365 158.589 265.93 Q156.783 269.472 156.783 276.601 Q156.783 283.708 158.589 287.273 Q160.417 290.814 164.028 290.814 Q167.663 290.814 169.468 287.273 Q171.297 283.708 171.297 276.601 Q171.297 269.472 169.468 265.93 Q167.663 262.365 164.028 262.365 M164.028 258.662 Q169.839 258.662 172.894 263.268 Q175.973 267.851 175.973 276.601 Q175.973 285.328 172.894 289.935 Q169.839 294.518 164.028 294.518 Q158.218 294.518 155.14 289.935 Q152.084 285.328 152.084 276.601 Q152.084 267.851 155.14 263.268 Q158.218 258.662 164.028 258.662 Z" fill="#000000" fill-rule="nonzero" fill-opacity="1" /><path clip-path="url(#clip660)" d="M184.19 287.967 L189.075 287.967 L189.075 293.847 L184.19 293.847 L184.19 287.967 Z" fill="#000000" fill-rule="nonzero" fill-opacity="1" /><path clip-path="url(#clip660)" d="M212.107 263.361 L200.301 281.81 L212.107 281.81 L212.107 263.361 M210.88 259.287 L216.76 259.287 L216.76 281.81 L221.69 281.81 L221.69 285.699 L216.76 285.699 L216.76 293.847 L212.107 293.847 L212.107 285.699 L196.505 285.699 L196.505 281.185 L210.88 259.287 Z" fill="#000000" fill-rule="nonzero" fill-opacity="1" /><path clip-path="url(#clip660)" d="M28.3562 752.559 L28.3562 746.352 L58.275 735.212 L28.3562 724.072 L28.3562 717.865 L64.0042 731.233 L64.0042 739.191 L28.3562 752.559 Z" fill="#000000" fill-rule="nonzero" fill-opacity="1" /><polyline clip-path="url(#clip662)" style="stroke:#009af9; stroke-linecap:round; stroke-linejoin:round; stroke-width:4; stroke-opacity:1; fill:none" points="2017.98,423.143 1998.41,383.048 2002.21,427.186 1971.1,371.977 2009.82,346.561 1994.24,320.877 1905.64,378.506 2007.76,531.313 1971.66,404.602 2003.44,444.461 2038.7,361.429 2099.71,272.106 2183.79,247.525 2178.94,282.861 2135.79,362.257 2079.54,475.159 2052.23,330.213 2006.63,306.113 1946.47,418.569 1976.02,461.368 2004.81,426.939 2000.88,493.89 1992.42,477.967 1922.36,471.204 1902.03,489.175 1866.36,533.394 1870.41,489.585 1844.77,521.71 1816.85,410.661 1805.59,500.835 1777.65,506.345 1748.86,589.847 1731.75,575.662 1818.13,561.742 1833.98,561.408 1926.58,587.52 1863.63,562.422 1882.37,582.142 1861.41,522.598 1921.82,599.897 1975.46,547.313 1953.46,435.125 1965.1,488.301 1967.68,446.386 1952.3,381.43 1993.78,514.467 1990.12,455.534 1961.17,487.571 1929.3,549.039 1970.27,520.925 2000.13,490.29 2021.52,492.096 2046.23,491.795 2064.6,567.704 2122.39,520.752 2172.64,534.011 2164.96,546.73 2128.13,483.376 2066.53,441.325 2035.35,492.549 2018.04,525.495 2089.62,524.043 2120.52,541.137 2078.25,591.006 2157.15,465.761 2151.99,451.67 2113.59,402.497 2022.73,246.32 2099.05,134.341 2049.78,113.979 2027.43,271.327 2068.2,359.643 1999.77,424.34 1959.22,353.504 1933.51,435.362 1972.09,413.82 1931.73,299.126 1868.72,381.19 1933.52,487.384 2001.28,468.411 1968.35,504.113 1931.66,549.128 1896.07,574.788 1830.73,520.464 1836.41,567.514 1862.89,587.182 1864.17,483.824 1853.7,396.409 1827.35,427.987 1956.22,538.229 1994.88,513.669 2030.81,483.144 2088.54,636.766 2145.33,472.822 2157.7,543.635 2237.66,418.872 2233.26,372.858 2217.93,371.964 2206.51,279.816 2171.94,238.447 2208.55,424.014 2131.44,338.606 2107.92,334.059 2158.19,331.403 2111.26,286.964 2114.01,292.962 2052.97,321.846 2130.18,295.759 2124.35,331.969 2027.53,281.262 2017.65,324.399 2028.56,332.309 2015.81,225.001 1964.87,175.774 2027.16,249.07 1961.74,284.352 1897.47,283.615 1854.26,320.998 1900.11,304.242 1859.81,324.345 1806.21,496.118 1769.28,513.729 1800.21,525.927 1818.82,494.908 1737.87,553.942 1859.23,499.361 1837.02,440.494 1808.89,374.785 1877.72,492.034 1889.18,447.992 1956.24,451.283 1879.31,454.737 1951.63,392.37 1966.13,468.646 1990.24,407.888 1984.37,499.54 1980.82,404.034 1987.65,320.16 1929.75,352.337 1949.74,362.806 1975.69,441.794 1880.78,560.997 1860.89,532.093 1952.14,501.542 1958.55,450.119 1908.3,463.679 1922.17,484.066 1858.27,411.89 1817.26,463.42 1833.31,398.801 1886.7,473.055 1909.93,575.796 1942.74,495.815 1995.07,457.806 1963.99,404.506 2043.71,489.565 1973.86,460.619 1975.89,431.101 2072.77,456.492 2122.03,421.972 2079.74,306.262 2059.8,226.18 2004.38,306.722 2002.8,417.869 1917.76,447.579 1873.69,464.227 1781.32,488.72 1810.64,510.177 1843.63,510.667 1844.91,601.904 1929.51,627.155 1974.4,592.643 1929.36,601.275 1911.05,615.816 1937.63,689.978 2057.72,572.031 2085.58,556.55 2089.68,552.389 2034.08,507.21 1960.25,549.681 1952.8,478.661 2039.78,479.09 2089.35,433.665 2150.1,421.98 2131.75,451.609 2151.48,440.127 2109.89,265.298 1979.72,319.362 2061.11,364.726 2039.81,550.249 2138.3,561.634 2187.37,580.788 2186.84,677.958 2240.9,506.675 2271.5,432.514 2284.98,398.379 2313.2,456.729 2333.19,376.031 2302.14,411.866 2272.99,375.824 2210.41,364.631 2192.3,293.795 2218.98,268.608 2171.09,286.963 2229.62,177.323 2210.48,246.719 2239.75,297.148 2252.04,185.974 2220.02,185.09 2198.97,307.786 2214.2,326.314 2195.02,364.224 2182.47,394.863 2105.24,277.5 2217.58,345.955 2273.07,240.232 2240.43,346.709 2289.17,387.96 2175.69,325.583 2282.13,310.021 2296.99,355.467 2215.37,274.081 2269.63,277.617 2209.17,290.949 2223.3,304.093 2201.38,272.972 2219.31,385.617 2276.94,355.021 2215.23,235.457 2168.25,263.527 2171.91,289.096 2232.86,311.448 2253.16,329.448 2170.32,412.85 2136.8,490.161 2187.99,563.059 2250.51,469.916 2202,497.543 2199.69,361.232 2202.22,307.263 2256.16,440.16 2257.88,386.138 2180.03,362.039 2175.14,298.827 2135.58,406.713 2086.5,485.766 2143.03,500.794 2137.63,475.659 2147.72,461.575 2160.71,490.606 2214.24,535.728 2205.35,502.922 2146.98,483.381 2053.83,456.9 2129.95,519.866 2208.76,558.157 2115.16,516.41 1991.8,396.141 2026.38,447.408 1966.08,420.969 1960.28,429.76 2015.61,387.792 1998.79,374.322 1941.21,375.743 1915.6,388.296 1920.52,487.794 1996.26,361.898 2028.94,390.844 2049.23,426.049 2083.43,456.551 2096.31,481.619 2060.84,364.829 2062.25,451.404 2115.43,406.882 2078.41,449.427 2050.06,486.222 1989.19,356.166 1988.85,370.192 2061.5,524.953 2169.11,476.636 2155.12,507.231 2157.33,406.559 2157.13,337.836 2159.05,303.607 2154.43,436.387 2183.06,390.636 2159.46,337.854 2133.35,366.318 2126.67,408.513 2164.92,373.899 2050.35,295.885 2070.71,350.96 2050.73,338.34 1975.84,309.201 1926.97,269.627 1969.72,351.55 1948.57,537.405 1866.01,505.325 1911.68,492.676 1956.29,456.282 1907.63,513.775 1984.05,516.617 2071.6,438.464 2003.63,423.915 2032.24,411.54 2054.94,278.216 2048.24,301.793 2033.24,296.826 1980.75,266.957 2020.77,271.272 2028.44,321.229 1972.4,299.411 1972.58,330.022 1933.39,312.585 1947.3,374.212 1921.42,386.432 1901.37,296.572 1893.21,212.627 1961.51,232.375 1911.9,285.485 1951.31,329.034 1993.09,388.673 2021.97,376.375 1899.42,370.878 1930.56,552.702 1942.37,614.102 1990.19,510.514 1969.8,465.02 1831.97,532.445 1834.72,580.859 1843.88,588.655 1874.01,535.733 1913.44,467.22 1926.43,463.891 1828.84,472.332 1853.24,583.439 1878.8,676.681 1934.45,656.463 1871.5,520.744 1929.14,579.937 1959.4,487.812 2030.26,543.387 2122.86,518.753 2124.57,489.698 2245.41,385.8 2153.9,261.827 2169.29,454.893 2139.71,478.556 2060.71,401.808 2002.17,329.589 2004.97,327.702 2009.69,383.888 1943.88,418.175 1927.8,524.619 2029.15,419.437 1992.3,467.683 2093.05,460.543 2075.75,443.593 2043.8,457.688 1940.03,552.23 1973.91,470.057 1973.71,382.098 2001.97,285.707 1971.08,272.764 1960.51,412.756 1869.24,408.661 1828.9,389.92 1867.36,383.061 1836.26,493.379 1913.91,568.101 1912.24,529.825 1939.83,441.209 2014.42,391.654 1886.58,384.408 1901.05,506.817 1906.03,612.473 1890.09,551.612 1900.56,608.022 1989.91,545.73 2056.63,549.583 2175.68,355.732 2203.91,235.618 2087.79,119.734 1974.17,357.861 1861.14,280.384 1881.38,477.256 1827.69,386.472 1804.57,430.568 1824.72,382.251 1815.91,451.315 1789.68,406.739 1857.86,499.659 1922.12,598.122 1918.27,453.494 1902.27,427.239 2011.33,437.587 1916.46,494.021 1928.43,450.938 1951.97,497.552 1835.14,502.445 1853.21,562.147 1888.89,558.759 1911.34,605.965 1951.22,710.151 2011.49,691.659 1921.29,603.318 1994.23,565.15 2008.89,492.397 2094.38,626.005 2105.43,630.343 2081.07,612.293 2028.38,602.485 1977.06,471.329 2089.42,426.208 2020.21,523.314 2087.42,533.986 2083.59,512.4 2073.71,535.163 2060.3,471.01 2206.3,438.796 2269.15,478.31 2249.05,467.417 2277.79,417.396 2280.9,394.089 2327.89,515.169 2251.78,440.119 2293.29,415.371 2338.94,325.881 2245.67,320.646 2200.83,399.287 2279.23,403.449 2192.33,371.83 2178.19,370.016 2191.71,371.9 2084.78,489.872 2018.71,412.288 1999.47,497.464 1973.73,495.123 1914.7,468.917 1850.02,438.318 1873.78,386.966 1889.38,402.722 1928.52,426.127 1836.96,356.955 1818.62,325.183 1820.57,370.697 1839.39,432.154 1912.25,512.238 1868.42,499.358 1915.6,485.28 1906.7,404.565 1962.46,440.693 1973.3,387.779 1964.12,371.006 2009.75,477.251 1966.84,462.239 1914.49,466.943 1952.1,474.722 1934.78,480.871 1866.48,441.863 1832.66,506.456 1786.61,602.826 1905.46,668.213 2113.29,664.101 2066.38,513.463 2119.71,536.483 2117.66,578.998 2096.66,547.432 2070.16,445.417 2104.39,475.352 2120.79,341.68 2104.97,357.758 2074.4,466.011 2029.44,532.266 1960.64,541.974 1847.88,569.137 1981.22,583.17 2006.68,550.75 1987.21,514.049 1974.44,458.77 2032.99,535.444 1982.33,522.074 1985.85,491.97 2064.68,489.743 2089.16,448.539 2096.02,351.44 2030.19,387.054 2024.36,332.323 1946.6,437.963 1903.6,369.835 1853.95,454.67 1920.55,483.376 1984.52,535.659 2058.93,533.131 1977.01,523.55 1932.61,567.604 1928.45,594.252 1964.02,573.682 1920.44,489.514 1960.79,449.859 1955.71,514.119 1995.61,495.251 1914.02,431.916 1906.16,247.68 1960.29,182.496 1927.49,253.201 1924.91,310.094 1910.49,373.109 1856.46,447.075 1793.94,499.159 1791.43,449.963 1821.32,511.611 1883.79,414.228 1841.96,329.625 1853.56,378.294 1892.69,396.729 1947.26,495.93 1972.5,520.593 1955.16,473 1948.7,478.242 2007.79,506.945 1992.02,282.688 2023,260.196 2000.63,426.271 1998.48,380.554 1978.94,428.509 2106.89,361.165 2095.22,351.395 2060.91,458.847 2072.2,330.147 2057.55,247.549 2098.83,230.161 2019.18,312.413 1931.57,262.094 1910.4,299.062 1901.92,312.092 1875.19,356.887 1868.9,375.441 1820.81,421.844 1773.72,484.547 1763.74,552.297 1784.59,630.579 1872.3,707.255 1932.06,669.779 1999.31,702.779 2028.14,639.872 2039.41,693.324 2023.35,616.387 2005.92,551.205 2053.96,525.751 2044.37,430.192 1981.86,426.326 1980.65,413.398 1953.31,441.321 1955.91,424.486 1926.54,454.056 1969.82,433.561 1843.31,409.437 1822.19,437.605 1853.17,499.901 1869.3,500.874 1850.08,566.119 1830.67,532.868 1757.15,562.406 1893.36,515.385 1988.7,378.214 1881.6,529.101 1845.8,608.29 1922.49,600.559 1941.41,555.809 1976.26,526.357 2044.44,586.705 1995.33,522.441 2000.53,476.027 2006.84,453.371 2030.36,366.48 2067.76,379.935 2022.26,428.594 1986.18,412.362 1912.64,363.269 1947.23,344.753 2054.99,397.29 2079.73,395.254 2050.76,328.861 2105.9,358.134 2084.69,406.538 2015.1,400.248 2071.11,498.953 2041.4,569.159 2052.22,572.688 2058.27,549.038 2069.33,547.864 2065.89,529.562 1996.75,449.488 2036.78,407.108 2070.19,377.304 2010.91,404.741 2051.29,332.431 2059.27,414.774 2028.33,326.563 2105.03,389.488 2079.14,349.231 2073.29,475.622 2073.19,414.378 2007.32,370.456 2130.7,498.925 2030.2,419.653 2087.52,341.327 2123.41,345.129 2115.64,425.02 2133.24,471.266 2132.5,375.457 2151.37,464.929 2223.86,440.261 2216.96,392.286 2152.17,302.107 2175.03,361.332 2267.29,361.743 2261.69,337.363 2209.38,303.078 2213.62,313.12 2196.83,332.982 2146.94,312.859 2147.59,358.74 2107.4,423.021 2183.56,573.271 2166.56,462.089 2227.54,464.485 2220.06,317.001 2155.45,335 2135.2,346.901 2025.11,385.879 2073.99,418.43 2101.49,437.396 2063.71,372.48 1998.32,464.054 2063.75,496.02 2056.48,538.35 2010.14,436.207 2044.77,433.637 2028.87,472.737 2044.72,452.49 2102.05,365.859 2064.51,400.27 2075.38,403.066 2118.02,367.069 2153.24,405.336 2180.57,408.864 2131.55,416.726 2198,430.871 2080.48,396.882 1998.37,405.377 1966.46,379.264 1943.98,347.688 1964.45,437.195 1995.38,358.85 1958.79,324.505 1986.58,271.257 2078.04,350.678 2024.66,370.697 2035.5,377.382 1962.75,463.352 1966.56,516.145 1942.67,505.805 1931.47,416.526 1919.69,335.807 1855.2,343.073 1895.72,379.812 1952.14,433.199 1938.92,344.971 1880.44,271.27 1891,303.138 2008.5,263.045 2016.99,278.325 1978.08,259.116 1892.99,279.207 1819.06,374.941 1874.13,413.742 1903.83,425.664 2003.67,507.063 2017.68,432.823 2035.7,450.119 2005.5,414.046 1977.25,503.744 2027.38,472.302 1991.38,461.049 1987.07,440.629 2002.72,387.083 2071.33,455.55 2082.83,468.758 2007.41,478.946 2016.16,471.694 2047.11,315.035 1998.85,359.588 1877.53,365.273 1874.88,433.538 1856.73,404.006 1827.97,421.543 1791.6,425.929 1718.71,481.09 1765.91,409.735 1718.49,405.105 1645.13,439.311 1724.83,501.157 1786.8,607.041 1809.2,619.957 1835.98,645.573 1815.04,579.345 1896.41,585.772 2060.36,632.876 2147.53,520.014 2208.88,539.254 2236.21,421.843 2249.94,426.704 2203.54,488.812 2164.94,529.351 2063.23,495.963 2017.19,479.277 1947.11,407.552 1904.23,434.09 1840.6,412.864 1862.44,506.993 1904.44,500.092 1923.44,458.442 2014.19,445.522 1996.83,489.357 1952.29,359.531 1919.12,322.732 1916.03,412.682 1947.27,346.932 1986.96,343.835 2034.61,428.95 1976.24,474.802 1994.35,553.304 1992.61,509.731 1999.1,381.081 2028.03,373.432 2020.05,380.362 2006.76,258.217 2011.78,252.103 2046.79,330.767 2044.97,386.951 2160.89,489.987 2137.89,519.203 2101.66,511.185 2040.34,524.348 2046.83,531.567 2043.51,411.827 2032.43,441.318 2064.75,483.784 2078.07,542.296 2045.33,426.341 2097.55,546.005 2122.26,444.565 2044.99,443.094 2018.53,581.562 2050.69,576.322 2130.83,371.666 2047.67,409.163 2007.95,413.245 2003.67,321.882 2047.97,324.469 2030.54,344.503 2144.61,304.718 2072.67,237.702 2113.66,264.315 2157.04,280.461 2052.26,342.462 2082.28,402.872 2081.51,352.035 2067.64,369.038 2045,441.595 2087.45,295.274 2029.9,225.769 1997.42,347.827 2007.58,414.359 1971.97,420.076 2002.18,371.196 2085.76,395.142 2102.94,366.628 2074.87,348.963 2019.17,390.129 2005.38,467.177 1978.21,428.744 2022.59,374.873 1938.59,378.857 1964.18,385.807 1916.69,297.676 1953.45,239.486 1902.58,313.345 1877.68,386.685 1970.17,396.294 1970.15,359.236 2066.22,421.438 2020.51,442.992 1982.82,456.026 2012.4,394.804 1944.44,437.583 1955.97,398.567 1947.43,455.958 1987.96,381.883 2009.77,322.972 2051.83,332.212 2125.4,348.257 2141.61,305.52 2205.84,349.459 2197.5,386.134 2157.55,412.135 2062.14,420.721 1995.56,439.433 1999.19,468.768 2031.04,417.235 2016.58,424.757 2054.07,370.163 2022.66,391.513 2026.58,460.247 2080.34,397.216 2076.78,271.477 2035.48,355.525 2089.36,390.94 2100.84,449.967 2120.06,488.775 2124.91,500.286 2172.36,525.514 2152.61,445.018 2230.53,389.441 2231.6,298.562 2234.97,306.351 2154.69,291.934 2167.33,274.794 2148.82,373.392 2115.05,394.039 2047.02,368.234 1980.17,265.253 1927.75,321.533 1868.38,389.654 1946.84,440.709 1963.64,442.814 1936.37,490.573 1930.72,436.271 1884.42,378.574 1761.34,384.376 1786.71,372.918 1818.33,425.995 1850.88,349.021 1852.56,417.717 1909.73,382.708 1815.5,481.72 1845.82,452.948 1919.25,336.332 1987.77,383.468 1965.2,358.545 1938.07,287.968 1980.85,257.352 2040.94,263.58 1984.45,163.937 2089.82,231.821 2160.63,296.914 2154.67,236.035 2167.25,285.648 2159.05,359.418 2100.74,312.146 2140.14,296.45 2017.99,307.92 2071.37,409.301 2066.48,362.315 2073.63,387.709 2099.59,380.528 2091.29,314.262 2134.23,315.852 2051.8,300.371 2020.59,327.96 2068.56,408.578 2030.9,484.826 2050.12,390.423 2037.28,309.136 2085.55,257.758 2121.49,369.65 2071.02,345.118 2115.7,308.186 2118.21,304.196 2087.73,340.024 2149.72,406.357 2094.04,422.993 2119.02,418.888 2076.87,410.467 2015.07,323.992 2016.13,310.724 2019.05,307.267 1932.41,321.174 1949.13,365.268 1977.39,408.323 1922.12,427.643 1974.78,464.817 2073.17,465.324 2120.87,479.868 2061.67,425.53 2040.97,461.502 2041.44,540.898 2094.05,582.028 2109.79,648.826 2062.26,588.022 2013.27,539.186 1889.24,489.875 2001.88,432.535 1986.07,291.694 2009.27,228.206 2013,278.574 1973.2,369.039 2100.57,333.324 2095.2,334.501 2020.31,248.329 2029.8,339.382 1999.78,351.196 2068.95,354.705 2082.62,337.855 2088.18,316.523 2031.65,272.46 2058.36,287.599 2104.19,312.106 2144.46,364.122 2142.2,316.41 2142.04,305.515 2091.92,317.005 2063.72,234.96 2075.2,285.78 2054.25,350.56 2142.44,357.646 2075.5,351.532 1967.86,416.69 2054.69,389.413 2063.89,282.794 2036.67,364.278 2035.63,308.729 2100.97,285.566 2078.72,258.747 1994.19,310.245 2021.58,326.497 2042.01,340.608 2091.37,406.287 2085.57,485.462 1958.58,493.804 2044.31,477.335 2134.34,530.305 2140.8,409.068 2150.7,343.262 2097.63,436.222 2102.22,500.546 2033.71,491.956 2081.37,375.578 2064.98,401.632 2043.12,346.454 2090.96,437.38 2045.84,469.73 2043.67,466.387 2116.84,562.9 2105.19,519.682 2138.86,558.827 2204.03,558.017 2145.72,426.778 2149.47,348.826 2107.53,241.201 2181.26,298.099 2219.34,300.773 2235.08,292.789 2158.47,340.705 2210.09,241.065 2261.88,232.853 2180.96,171.597 2151.99,164.751 2114.86,313.321 2090.13,265.041 2119,288.821 2109.51,412.171 2138.33,443.098 2119.36,458.518 2134.95,277.459 2107.51,335.677 2102.7,333.93 2124.73,419.576 2065.05,384.852 2050.5,421.117 2028.79,341.739 2027.71,406.118 2038.61,378.571 2074.11,382.152 2094.13,374.817 2039.87,330.267 2005.46,403.053 1979.83,440.73 1963.35,496.708 1999.54,521.169 1978.65,648.144 2035.83,664.049 2053.89,669.973 1964.56,545.698 1935.37,544.175 1891.68,601.056 1849.22,518.375 1836.16,500.059 1888.08,488.391 "/>
<circle clip-path="url(#clip662)" cx="2017.98" cy="423.143" r="14.4" fill="#ff0000" fill-rule="evenodd" fill-opacity="1" stroke="#000000" stroke-opacity="1" stroke-width="3.2"/>
<circle clip-path="url(#clip662)" cx="592.467" cy="1047.28" r="14.4" fill="#ff0000" fill-rule="evenodd" fill-opacity="1" stroke="#000000" stroke-opacity="1" stroke-width="3.2"/>
</svg>
