<?xml version="1.0" encoding="utf-8"?>
<svg xmlns="http://www.w3.org/2000/svg" xmlns:xlink="http://www.w3.org/1999/xlink" width="600" height="400" viewBox="0 0 2400 1600">
<defs>
  <clipPath id="clip910">
    <rect x="0" y="0" width="2400" height="1600"/>
  </clipPath>
</defs>
<path clip-path="url(#clip910)" d="M0 1600 L2400 1600 L2400 0 L0 0  Z" fill="#ffffff" fill-rule="evenodd" fill-opacity="1"/>
<defs>
  <clipPath id="clip911">
    <rect x="480" y="0" width="1681" height="1600"/>
  </clipPath>
</defs>
<path clip-path="url(#clip910)" d="M257.69 1423.18 L2352.76 1423.18 L2352.76 47.2441 L257.69 47.2441  Z" fill="#ffffff" fill-rule="evenodd" fill-opacity="1"/>
<defs>
  <clipPath id="clip912">
    <rect x="257" y="47" width="2096" height="1377"/>
  </clipPath>
</defs>
<polyline clip-path="url(#clip912)" style="stroke:#000000; stroke-linecap:round; stroke-linejoin:round; stroke-width:2; stroke-opacity:0.1; fill:none" points="432.279,1423.18 432.279,47.2441 "/>
<polyline clip-path="url(#clip912)" style="stroke:#000000; stroke-linecap:round; stroke-linejoin:round; stroke-width:2; stroke-opacity:0.1; fill:none" points="868.751,1423.18 868.751,47.2441 "/>
<polyline clip-path="url(#clip912)" style="stroke:#000000; stroke-linecap:round; stroke-linejoin:round; stroke-width:2; stroke-opacity:0.1; fill:none" points="1305.22,1423.18 1305.22,47.2441 "/>
<polyline clip-path="url(#clip912)" style="stroke:#000000; stroke-linecap:round; stroke-linejoin:round; stroke-width:2; stroke-opacity:0.1; fill:none" points="1741.7,1423.18 1741.7,47.2441 "/>
<polyline clip-path="url(#clip912)" style="stroke:#000000; stroke-linecap:round; stroke-linejoin:round; stroke-width:2; stroke-opacity:0.1; fill:none" points="2178.17,1423.18 2178.17,47.2441 "/>
<polyline clip-path="url(#clip912)" style="stroke:#000000; stroke-linecap:round; stroke-linejoin:round; stroke-width:2; stroke-opacity:0.1; fill:none" points="257.69,1193.86 2352.76,1193.86 "/>
<polyline clip-path="url(#clip912)" style="stroke:#000000; stroke-linecap:round; stroke-linejoin:round; stroke-width:2; stroke-opacity:0.1; fill:none" points="257.69,964.535 2352.76,964.535 "/>
<polyline clip-path="url(#clip912)" style="stroke:#000000; stroke-linecap:round; stroke-linejoin:round; stroke-width:2; stroke-opacity:0.1; fill:none" points="257.69,735.212 2352.76,735.212 "/>
<polyline clip-path="url(#clip912)" style="stroke:#000000; stroke-linecap:round; stroke-linejoin:round; stroke-width:2; stroke-opacity:0.1; fill:none" points="257.69,505.889 2352.76,505.889 "/>
<polyline clip-path="url(#clip912)" style="stroke:#000000; stroke-linecap:round; stroke-linejoin:round; stroke-width:2; stroke-opacity:0.1; fill:none" points="257.69,276.567 2352.76,276.567 "/>
<polyline clip-path="url(#clip910)" style="stroke:#000000; stroke-linecap:round; stroke-linejoin:round; stroke-width:4; stroke-opacity:1; fill:none" points="257.69,1423.18 2352.76,1423.18 "/>
<polyline clip-path="url(#clip910)" style="stroke:#000000; stroke-linecap:round; stroke-linejoin:round; stroke-width:4; stroke-opacity:1; fill:none" points="432.279,1423.18 432.279,1404.28 "/>
<polyline clip-path="url(#clip910)" style="stroke:#000000; stroke-linecap:round; stroke-linejoin:round; stroke-width:4; stroke-opacity:1; fill:none" points="868.751,1423.18 868.751,1404.28 "/>
<polyline clip-path="url(#clip910)" style="stroke:#000000; stroke-linecap:round; stroke-linejoin:round; stroke-width:4; stroke-opacity:1; fill:none" points="1305.22,1423.18 1305.22,1404.28 "/>
<polyline clip-path="url(#clip910)" style="stroke:#000000; stroke-linecap:round; stroke-linejoin:round; stroke-width:4; stroke-opacity:1; fill:none" points="1741.7,1423.18 1741.7,1404.28 "/>
<polyline clip-path="url(#clip910)" style="stroke:#000000; stroke-linecap:round; stroke-linejoin:round; stroke-width:4; stroke-opacity:1; fill:none" points="2178.17,1423.18 2178.17,1404.28 "/>
<path clip-path="url(#clip910)" d="M378.807 1468.75 L408.483 1468.75 L408.483 1472.69 L378.807 1472.69 L378.807 1468.75 Z" fill="#000000" fill-rule="nonzero" fill-opacity="1" /><path clip-path="url(#clip910)" d="M419.386 1481.64 L427.024 1481.64 L427.024 1455.28 L418.714 1456.95 L418.714 1452.69 L426.978 1451.02 L431.654 1451.02 L431.654 1481.64 L439.293 1481.64 L439.293 1485.58 L419.386 1485.58 L419.386 1481.64 Z" fill="#000000" fill-rule="nonzero" fill-opacity="1" /><path clip-path="url(#clip910)" d="M448.737 1479.7 L453.621 1479.7 L453.621 1485.58 L448.737 1485.58 L448.737 1479.7 Z" fill="#000000" fill-rule="nonzero" fill-opacity="1" /><path clip-path="url(#clip910)" d="M473.807 1454.1 Q470.195 1454.1 468.367 1457.66 Q466.561 1461.2 466.561 1468.33 Q466.561 1475.44 468.367 1479.01 Q470.195 1482.55 473.807 1482.55 Q477.441 1482.55 479.246 1479.01 Q481.075 1475.44 481.075 1468.33 Q481.075 1461.2 479.246 1457.66 Q477.441 1454.1 473.807 1454.1 M473.807 1450.39 Q479.617 1450.39 482.672 1455 Q485.751 1459.58 485.751 1468.33 Q485.751 1477.06 482.672 1481.67 Q479.617 1486.25 473.807 1486.25 Q467.996 1486.25 464.918 1481.67 Q461.862 1477.06 461.862 1468.33 Q461.862 1459.58 464.918 1455 Q467.996 1450.39 473.807 1450.39 Z" fill="#000000" fill-rule="nonzero" fill-opacity="1" /><path clip-path="url(#clip910)" d="M815.777 1468.75 L845.453 1468.75 L845.453 1472.69 L815.777 1472.69 L815.777 1468.75 Z" fill="#000000" fill-rule="nonzero" fill-opacity="1" /><path clip-path="url(#clip910)" d="M865.545 1454.1 Q861.934 1454.1 860.105 1457.66 Q858.3 1461.2 858.3 1468.33 Q858.3 1475.44 860.105 1479.01 Q861.934 1482.55 865.545 1482.55 Q869.179 1482.55 870.985 1479.01 Q872.813 1475.44 872.813 1468.33 Q872.813 1461.2 870.985 1457.66 Q869.179 1454.1 865.545 1454.1 M865.545 1450.39 Q871.355 1450.39 874.411 1455 Q877.489 1459.58 877.489 1468.33 Q877.489 1477.06 874.411 1481.67 Q871.355 1486.25 865.545 1486.25 Q859.735 1486.25 856.656 1481.67 Q853.601 1477.06 853.601 1468.33 Q853.601 1459.58 856.656 1455 Q859.735 1450.39 865.545 1450.39 Z" fill="#000000" fill-rule="nonzero" fill-opacity="1" /><path clip-path="url(#clip910)" d="M885.707 1479.7 L890.591 1479.7 L890.591 1485.58 L885.707 1485.58 L885.707 1479.7 Z" fill="#000000" fill-rule="nonzero" fill-opacity="1" /><path clip-path="url(#clip910)" d="M900.823 1451.02 L919.179 1451.02 L919.179 1454.96 L905.105 1454.96 L905.105 1463.43 Q906.123 1463.08 907.142 1462.92 Q908.16 1462.73 909.179 1462.73 Q914.966 1462.73 918.346 1465.9 Q921.725 1469.08 921.725 1474.49 Q921.725 1480.07 918.253 1483.17 Q914.781 1486.25 908.461 1486.25 Q906.286 1486.25 904.017 1485.88 Q901.772 1485.51 899.364 1484.77 L899.364 1480.07 Q901.448 1481.2 903.67 1481.76 Q905.892 1482.32 908.369 1482.32 Q912.373 1482.32 914.711 1480.21 Q917.049 1478.1 917.049 1474.49 Q917.049 1470.88 914.711 1468.77 Q912.373 1466.67 908.369 1466.67 Q906.494 1466.67 904.619 1467.08 Q902.767 1467.5 900.823 1468.38 L900.823 1451.02 Z" fill="#000000" fill-rule="nonzero" fill-opacity="1" /><path clip-path="url(#clip910)" d="M1282.61 1454.1 Q1279 1454.1 1277.17 1457.66 Q1275.36 1461.2 1275.36 1468.33 Q1275.36 1475.44 1277.17 1479.01 Q1279 1482.55 1282.61 1482.55 Q1286.24 1482.55 1288.05 1479.01 Q1289.88 1475.44 1289.88 1468.33 Q1289.88 1461.2 1288.05 1457.66 Q1286.24 1454.1 1282.61 1454.1 M1282.61 1450.39 Q1288.42 1450.39 1291.47 1455 Q1294.55 1459.58 1294.55 1468.33 Q1294.55 1477.06 1291.47 1481.67 Q1288.42 1486.25 1282.61 1486.25 Q1276.8 1486.25 1273.72 1481.67 Q1270.66 1477.06 1270.66 1468.33 Q1270.66 1459.58 1273.72 1455 Q1276.8 1450.39 1282.61 1450.39 Z" fill="#000000" fill-rule="nonzero" fill-opacity="1" /><path clip-path="url(#clip910)" d="M1302.77 1479.7 L1307.65 1479.7 L1307.65 1485.58 L1302.77 1485.58 L1302.77 1479.7 Z" fill="#000000" fill-rule="nonzero" fill-opacity="1" /><path clip-path="url(#clip910)" d="M1327.84 1454.1 Q1324.23 1454.1 1322.4 1457.66 Q1320.59 1461.2 1320.59 1468.33 Q1320.59 1475.44 1322.4 1479.01 Q1324.23 1482.55 1327.84 1482.55 Q1331.47 1482.55 1333.28 1479.01 Q1335.11 1475.44 1335.11 1468.33 Q1335.11 1461.2 1333.28 1457.66 Q1331.47 1454.1 1327.84 1454.1 M1327.84 1450.39 Q1333.65 1450.39 1336.7 1455 Q1339.78 1459.58 1339.78 1468.33 Q1339.78 1477.06 1336.7 1481.67 Q1333.65 1486.25 1327.84 1486.25 Q1322.03 1486.25 1318.95 1481.67 Q1315.89 1477.06 1315.89 1468.33 Q1315.89 1459.58 1318.95 1455 Q1322.03 1450.39 1327.84 1450.39 Z" fill="#000000" fill-rule="nonzero" fill-opacity="1" /><path clip-path="url(#clip910)" d="M1719.58 1454.1 Q1715.97 1454.1 1714.14 1457.66 Q1712.33 1461.2 1712.33 1468.33 Q1712.33 1475.44 1714.14 1479.01 Q1715.97 1482.55 1719.58 1482.55 Q1723.21 1482.55 1725.02 1479.01 Q1726.85 1475.44 1726.85 1468.33 Q1726.85 1461.2 1725.02 1457.66 Q1723.21 1454.1 1719.58 1454.1 M1719.58 1450.39 Q1725.39 1450.39 1728.44 1455 Q1731.52 1459.58 1731.52 1468.33 Q1731.52 1477.06 1728.44 1481.67 Q1725.39 1486.25 1719.58 1486.25 Q1713.77 1486.25 1710.69 1481.67 Q1707.63 1477.06 1707.63 1468.33 Q1707.63 1459.58 1710.69 1455 Q1713.77 1450.39 1719.58 1450.39 Z" fill="#000000" fill-rule="nonzero" fill-opacity="1" /><path clip-path="url(#clip910)" d="M1739.74 1479.7 L1744.62 1479.7 L1744.62 1485.58 L1739.74 1485.58 L1739.74 1479.7 Z" fill="#000000" fill-rule="nonzero" fill-opacity="1" /><path clip-path="url(#clip910)" d="M1754.85 1451.02 L1773.21 1451.02 L1773.21 1454.96 L1759.14 1454.96 L1759.14 1463.43 Q1760.16 1463.08 1761.17 1462.92 Q1762.19 1462.73 1763.21 1462.73 Q1769 1462.73 1772.38 1465.9 Q1775.76 1469.08 1775.76 1474.49 Q1775.76 1480.07 1772.29 1483.17 Q1768.81 1486.25 1762.49 1486.25 Q1760.32 1486.25 1758.05 1485.88 Q1755.8 1485.51 1753.4 1484.77 L1753.4 1480.07 Q1755.48 1481.2 1757.7 1481.76 Q1759.92 1482.32 1762.4 1482.32 Q1766.41 1482.32 1768.74 1480.21 Q1771.08 1478.1 1771.08 1474.49 Q1771.08 1470.88 1768.74 1468.77 Q1766.41 1466.67 1762.4 1466.67 Q1760.53 1466.67 1758.65 1467.08 Q1756.8 1467.5 1754.85 1468.38 L1754.85 1451.02 Z" fill="#000000" fill-rule="nonzero" fill-opacity="1" /><path clip-path="url(#clip910)" d="M2145.32 1481.64 L2152.96 1481.64 L2152.96 1455.28 L2144.65 1456.95 L2144.65 1452.69 L2152.91 1451.02 L2157.59 1451.02 L2157.59 1481.64 L2165.23 1481.64 L2165.23 1485.58 L2145.32 1485.58 L2145.32 1481.64 Z" fill="#000000" fill-rule="nonzero" fill-opacity="1" /><path clip-path="url(#clip910)" d="M2174.67 1479.7 L2179.56 1479.7 L2179.56 1485.58 L2174.67 1485.58 L2174.67 1479.7 Z" fill="#000000" fill-rule="nonzero" fill-opacity="1" /><path clip-path="url(#clip910)" d="M2199.74 1454.1 Q2196.13 1454.1 2194.3 1457.66 Q2192.5 1461.2 2192.5 1468.33 Q2192.5 1475.44 2194.3 1479.01 Q2196.13 1482.55 2199.74 1482.55 Q2203.38 1482.55 2205.18 1479.01 Q2207.01 1475.44 2207.01 1468.33 Q2207.01 1461.2 2205.18 1457.66 Q2203.38 1454.1 2199.74 1454.1 M2199.74 1450.39 Q2205.55 1450.39 2208.61 1455 Q2211.69 1459.58 2211.69 1468.33 Q2211.69 1477.06 2208.61 1481.67 Q2205.55 1486.25 2199.74 1486.25 Q2193.93 1486.25 2190.85 1481.67 Q2187.8 1477.06 2187.8 1468.33 Q2187.8 1459.58 2190.85 1455 Q2193.93 1450.39 2199.74 1450.39 Z" fill="#000000" fill-rule="nonzero" fill-opacity="1" /><path clip-path="url(#clip910)" d="M1290.3 1553.98 L1290.3 1532.4 L1296.15 1532.4 L1296.15 1553.75 Q1296.15 1558.81 1298.13 1561.36 Q1300.1 1563.87 1304.05 1563.87 Q1308.79 1563.87 1311.53 1560.85 Q1314.29 1557.83 1314.29 1552.61 L1314.29 1532.4 L1320.15 1532.4 L1320.15 1568.04 L1314.29 1568.04 L1314.29 1562.57 Q1312.16 1565.82 1309.33 1567.41 Q1306.53 1568.97 1302.8 1568.97 Q1296.66 1568.97 1293.48 1565.15 Q1290.3 1561.33 1290.3 1553.98 M1305.03 1531.54 L1305.03 1531.54 Z" fill="#000000" fill-rule="nonzero" fill-opacity="1" /><polyline clip-path="url(#clip910)" style="stroke:#000000; stroke-linecap:round; stroke-linejoin:round; stroke-width:4; stroke-opacity:1; fill:none" points="257.69,1423.18 257.69,47.2441 "/>
<polyline clip-path="url(#clip910)" style="stroke:#000000; stroke-linecap:round; stroke-linejoin:round; stroke-width:4; stroke-opacity:1; fill:none" points="257.69,1193.86 276.588,1193.86 "/>
<polyline clip-path="url(#clip910)" style="stroke:#000000; stroke-linecap:round; stroke-linejoin:round; stroke-width:4; stroke-opacity:1; fill:none" points="257.69,964.535 276.588,964.535 "/>
<polyline clip-path="url(#clip910)" style="stroke:#000000; stroke-linecap:round; stroke-linejoin:round; stroke-width:4; stroke-opacity:1; fill:none" points="257.69,735.212 276.588,735.212 "/>
<polyline clip-path="url(#clip910)" style="stroke:#000000; stroke-linecap:round; stroke-linejoin:round; stroke-width:4; stroke-opacity:1; fill:none" points="257.69,505.889 276.588,505.889 "/>
<polyline clip-path="url(#clip910)" style="stroke:#000000; stroke-linecap:round; stroke-linejoin:round; stroke-width:4; stroke-opacity:1; fill:none" points="257.69,276.567 276.588,276.567 "/>
<path clip-path="url(#clip910)" d="M114.26 1194.31 L143.936 1194.31 L143.936 1198.24 L114.26 1198.24 L114.26 1194.31 Z" fill="#000000" fill-rule="nonzero" fill-opacity="1" /><path clip-path="url(#clip910)" d="M164.028 1179.66 Q160.417 1179.66 158.589 1183.22 Q156.783 1186.76 156.783 1193.89 Q156.783 1201 158.589 1204.56 Q160.417 1208.1 164.028 1208.1 Q167.663 1208.1 169.468 1204.56 Q171.297 1201 171.297 1193.89 Q171.297 1186.76 169.468 1183.22 Q167.663 1179.66 164.028 1179.66 M164.028 1175.95 Q169.839 1175.95 172.894 1180.56 Q175.973 1185.14 175.973 1193.89 Q175.973 1202.62 172.894 1207.23 Q169.839 1211.81 164.028 1211.81 Q158.218 1211.81 155.14 1207.23 Q152.084 1202.62 152.084 1193.89 Q152.084 1185.14 155.14 1180.56 Q158.218 1175.95 164.028 1175.95 Z" fill="#000000" fill-rule="nonzero" fill-opacity="1" /><path clip-path="url(#clip910)" d="M184.19 1205.26 L189.075 1205.26 L189.075 1211.14 L184.19 1211.14 L184.19 1205.26 Z" fill="#000000" fill-rule="nonzero" fill-opacity="1" /><path clip-path="url(#clip910)" d="M212.107 1180.65 L200.301 1199.1 L212.107 1199.1 L212.107 1180.65 M210.88 1176.58 L216.76 1176.58 L216.76 1199.1 L221.69 1199.1 L221.69 1202.99 L216.76 1202.99 L216.76 1211.14 L212.107 1211.14 L212.107 1202.99 L196.505 1202.99 L196.505 1198.48 L210.88 1176.58 Z" fill="#000000" fill-rule="nonzero" fill-opacity="1" /><path clip-path="url(#clip910)" d="M116.343 964.986 L146.019 964.986 L146.019 968.921 L116.343 968.921 L116.343 964.986 Z" fill="#000000" fill-rule="nonzero" fill-opacity="1" /><path clip-path="url(#clip910)" d="M166.112 950.333 Q162.501 950.333 160.672 953.898 Q158.866 957.44 158.866 964.569 Q158.866 971.676 160.672 975.241 Q162.501 978.782 166.112 978.782 Q169.746 978.782 171.552 975.241 Q173.38 971.676 173.38 964.569 Q173.38 957.44 171.552 953.898 Q169.746 950.333 166.112 950.333 M166.112 946.63 Q171.922 946.63 174.977 951.236 Q178.056 955.819 178.056 964.569 Q178.056 973.296 174.977 977.903 Q171.922 982.486 166.112 982.486 Q160.302 982.486 157.223 977.903 Q154.167 973.296 154.167 964.569 Q154.167 955.819 157.223 951.236 Q160.302 946.63 166.112 946.63 Z" fill="#000000" fill-rule="nonzero" fill-opacity="1" /><path clip-path="url(#clip910)" d="M186.274 975.935 L191.158 975.935 L191.158 981.815 L186.274 981.815 L186.274 975.935 Z" fill="#000000" fill-rule="nonzero" fill-opacity="1" /><path clip-path="url(#clip910)" d="M205.371 977.879 L221.69 977.879 L221.69 981.815 L199.746 981.815 L199.746 977.879 Q202.408 975.125 206.991 970.495 Q211.598 965.842 212.778 964.5 Q215.024 961.977 215.903 960.241 Q216.806 958.481 216.806 956.792 Q216.806 954.037 214.861 952.301 Q212.94 950.565 209.838 950.565 Q207.639 950.565 205.186 951.329 Q202.755 952.093 199.977 953.643 L199.977 948.921 Q202.801 947.787 205.255 947.208 Q207.709 946.63 209.746 946.63 Q215.116 946.63 218.311 949.315 Q221.505 952 221.505 956.491 Q221.505 958.62 220.695 960.542 Q219.908 962.44 217.801 965.032 Q217.223 965.704 214.121 968.921 Q211.019 972.116 205.371 977.879 Z" fill="#000000" fill-rule="nonzero" fill-opacity="1" /><path clip-path="url(#clip910)" d="M164.515 721.011 Q160.903 721.011 159.075 724.575 Q157.269 728.117 157.269 735.247 Q157.269 742.353 159.075 745.918 Q160.903 749.46 164.515 749.46 Q168.149 749.46 169.954 745.918 Q171.783 742.353 171.783 735.247 Q171.783 728.117 169.954 724.575 Q168.149 721.011 164.515 721.011 M164.515 717.307 Q170.325 717.307 173.38 721.913 Q176.459 726.497 176.459 735.247 Q176.459 743.973 173.38 748.58 Q170.325 753.163 164.515 753.163 Q158.704 753.163 155.626 748.58 Q152.57 743.973 152.57 735.247 Q152.57 726.497 155.626 721.913 Q158.704 717.307 164.515 717.307 Z" fill="#000000" fill-rule="nonzero" fill-opacity="1" /><path clip-path="url(#clip910)" d="M184.676 746.612 L189.561 746.612 L189.561 752.492 L184.676 752.492 L184.676 746.612 Z" fill="#000000" fill-rule="nonzero" fill-opacity="1" /><path clip-path="url(#clip910)" d="M209.746 721.011 Q206.135 721.011 204.306 724.575 Q202.5 728.117 202.5 735.247 Q202.5 742.353 204.306 745.918 Q206.135 749.46 209.746 749.46 Q213.38 749.46 215.186 745.918 Q217.014 742.353 217.014 735.247 Q217.014 728.117 215.186 724.575 Q213.38 721.011 209.746 721.011 M209.746 717.307 Q215.556 717.307 218.611 721.913 Q221.69 726.497 221.69 735.247 Q221.69 743.973 218.611 748.58 Q215.556 753.163 209.746 753.163 Q203.936 753.163 200.857 748.58 Q197.801 743.973 197.801 735.247 Q197.801 726.497 200.857 721.913 Q203.936 717.307 209.746 717.307 Z" fill="#000000" fill-rule="nonzero" fill-opacity="1" /><path clip-path="url(#clip910)" d="M166.112 491.688 Q162.501 491.688 160.672 495.253 Q158.866 498.794 158.866 505.924 Q158.866 513.031 160.672 516.595 Q162.501 520.137 166.112 520.137 Q169.746 520.137 171.552 516.595 Q173.38 513.031 173.38 505.924 Q173.38 498.794 171.552 495.253 Q169.746 491.688 166.112 491.688 M166.112 487.984 Q171.922 487.984 174.977 492.591 Q178.056 497.174 178.056 505.924 Q178.056 514.651 174.977 519.257 Q171.922 523.841 166.112 523.841 Q160.302 523.841 157.223 519.257 Q154.167 514.651 154.167 505.924 Q154.167 497.174 157.223 492.591 Q160.302 487.984 166.112 487.984 Z" fill="#000000" fill-rule="nonzero" fill-opacity="1" /><path clip-path="url(#clip910)" d="M186.274 517.29 L191.158 517.29 L191.158 523.169 L186.274 523.169 L186.274 517.29 Z" fill="#000000" fill-rule="nonzero" fill-opacity="1" /><path clip-path="url(#clip910)" d="M205.371 519.234 L221.69 519.234 L221.69 523.169 L199.746 523.169 L199.746 519.234 Q202.408 516.48 206.991 511.85 Q211.598 507.197 212.778 505.855 Q215.024 503.331 215.903 501.595 Q216.806 499.836 216.806 498.146 Q216.806 495.392 214.861 493.656 Q212.94 491.92 209.838 491.92 Q207.639 491.92 205.186 492.683 Q202.755 493.447 199.977 494.998 L199.977 490.276 Q202.801 489.142 205.255 488.563 Q207.709 487.984 209.746 487.984 Q215.116 487.984 218.311 490.67 Q221.505 493.355 221.505 497.845 Q221.505 499.975 220.695 501.896 Q219.908 503.794 217.801 506.387 Q217.223 507.058 214.121 510.276 Q211.019 513.47 205.371 519.234 Z" fill="#000000" fill-rule="nonzero" fill-opacity="1" /><path clip-path="url(#clip910)" d="M164.028 262.365 Q160.417 262.365 158.589 265.93 Q156.783 269.472 156.783 276.601 Q156.783 283.708 158.589 287.273 Q160.417 290.814 164.028 290.814 Q167.663 290.814 169.468 287.273 Q171.297 283.708 171.297 276.601 Q171.297 269.472 169.468 265.93 Q167.663 262.365 164.028 262.365 M164.028 258.662 Q169.839 258.662 172.894 263.268 Q175.973 267.851 175.973 276.601 Q175.973 285.328 172.894 289.935 Q169.839 294.518 164.028 294.518 Q158.218 294.518 155.14 289.935 Q152.084 285.328 152.084 276.601 Q152.084 267.851 155.14 263.268 Q158.218 258.662 164.028 258.662 Z" fill="#000000" fill-rule="nonzero" fill-opacity="1" /><path clip-path="url(#clip910)" d="M184.19 287.967 L189.075 287.967 L189.075 293.847 L184.19 293.847 L184.19 287.967 Z" fill="#000000" fill-rule="nonzero" fill-opacity="1" /><path clip-path="url(#clip910)" d="M212.107 263.361 L200.301 281.81 L212.107 281.81 L212.107 263.361 M210.88 259.287 L216.76 259.287 L216.76 281.81 L221.69 281.81 L221.69 285.699 L216.76 285.699 L216.76 293.847 L212.107 293.847 L212.107 285.699 L196.505 285.699 L196.505 281.185 L210.88 259.287 Z" fill="#000000" fill-rule="nonzero" fill-opacity="1" /><path clip-path="url(#clip910)" d="M28.3562 752.559 L28.3562 746.352 L58.275 735.212 L28.3562 724.072 L28.3562 717.865 L64.0042 731.233 L64.0042 739.191 L28.3562 752.559 Z" fill="#000000" fill-rule="nonzero" fill-opacity="1" /><polyline clip-path="url(#clip912)" style="stroke:#009af9; stroke-linecap:round; stroke-linejoin:round; stroke-width:4; stroke-opacity:1; fill:none" points="592.467,1047.28 564.092,998.856 608.288,1136.9 583.533,1057.11 607.333,1002.91 618.057,1075.67 644.385,1019.59 587.768,1000.46 609.212,975.971 597.716,935.192 511.007,1006.85 613.583,1129.07 537.775,1038.79 598.758,1036.92 597.055,927.233 703.509,880.114 718.064,919 689.237,995.448 631.12,1099.92 600.567,1004.06 577.241,947.306 516.699,1046.99 540.126,1086.18 581.188,1056.23 561.011,1115.42 563.635,1102.98 495.09,1093.7 484.248,1108.96 449.708,1155.35 449.045,1116.56 415.995,1120.02 425.102,1095.85 419.287,1133.78 373.024,1164.18 460.665,1227.87 496.106,1099.91 539.12,1161.55 568.09,1125.79 519.36,1138.14 502.878,1139.39 551.068,1128.23 519.24,1142.91 607.969,1174.66 628.526,1139.69 586.628,1010.66 576.169,1045.45 577.831,1009.53 559.466,1033.15 582.827,1076.87 558.845,1094.35 536.557,1090.77 531.701,1144.87 565.51,1116.14 593.457,1124.42 595.511,1084.22 629.191,1112.66 645.618,1062.25 632.473,1085.19 717.365,1163.14 747.96,1117.87 817.349,1118.35 815.29,1180 758.199,1084.54 709.9,992.037 667.852,1050.13 642.802,1148.47 652.617,1101.92 712.214,1116 748.897,1097.07 756.991,1128.75 755.872,1094.39 823.634,1074.89 782.698,1010.52 753.094,984.766 671.884,773.67 666.905,652.805 679.574,852.412 628.052,907.098 614.803,918.082 532.768,899.775 567.353,1020.49 626.399,1014.17 581.193,1046.6 514.884,1135.18 481.244,1145.32 450.646,1140.98 424.759,1164.8 470.149,1183.99 465.617,1181.36 457.02,1022.56 491.173,991.669 524.79,1124.5 594.923,1110.29 636.662,1064.74 652.243,1011.02 672.683,1180.82 642.804,1213 768.49,1068.16 769.005,1128.24 885.592,987.252 918.057,979.615 927.705,910.75 1030.79,942.384 903.588,918.192 928.715,839.783 940.751,800.479 927.859,905.05 869.623,887.589 891.092,868.67 893.704,871.282 869.72,835.136 845.771,847.836 899.166,830.69 870.027,867.399 799.241,799.456 769.919,862.406 745.825,708.946 715.005,774.172 630.492,804.394 604.862,822.746 546.345,859.818 481.07,995.498 526.536,1004.51 458.272,1067.26 534.989,1018.77 478.603,955.605 510.507,1036.7 525.66,966.474 546.021,991.174 576.982,1006.61 593.638,1020.34 582.879,1074.79 570.119,968.463 554.715,857 531.781,954.778 473.398,1104.94 476.331,1106.62 532.268,1081.57 564.521,1050.11 550.566,1063.05 545.193,968.827 521.308,986.553 441.764,1014.38 481.231,992.033 505.454,1141.7 571.541,1066.58 557.463,997.028 571.208,1002.85 651.448,1034.37 563.453,1031.9 635.337,1041.85 682.634,983.331 626.767,914.062 658.175,852.599 597.091,948.89 599.508,1046.25 503.802,1065.07 488.484,1118.28 416.704,1113.07 424.862,1125.58 468.592,1178.71 553.879,1190.5 540.785,1211.08 635.443,1187.69 523.903,1142.34 487.537,1144.16 529.421,1200.47 556.761,1244.39 598.692,1188.2 701.171,1129.5 770.241,1112.27 735.917,1063.9 727.379,1117.66 707.47,1047.95 642.831,1053.75 555.475,1103.66 573.423,1059.68 544.992,1042.89 635.822,1090.61 676.25,1027.79 721.758,1075.31 740.432,994.737 752.878,1037.27 773.326,980.253 719.247,862.217 600.501,898.731 712.736,1092.3 686.82,1182.76 783.312,1097.96 803.304,1152.62 856.356,1172.44 858.193,1193.82 933.36,1051.32 1006.32,893.032 1105.53,990.164 1081.63,960.464 1132.08,988.118 1213.48,885.537 1296.79,956.391 1307.97,917.044 1328.67,806.914 1339.82,763.13 1425.45,703.743 1477.04,652.21 1490.97,666.455 1470.32,609.586 1521.95,577.073 1651.79,554.004 1671.32,572.751 1737.34,633.399 1811.99,610.974 1877.2,473.497 1939.97,406.867 1943.59,402.05 1998.72,406.399 2016.04,471.482 2023.66,480.165 1991.08,509.182 2083.47,523.872 2075.76,547.34 2053.79,416.791 2148.76,417.655 2263.49,340.132 2293.05,383.626 2240.84,428.819 2241.27,422.211 2324.19,392.769 2290.33,419.079 2202.46,326.322 2279.48,278.628 2229.44,336.511 2199.03,299.322 2183.58,302.992 2206.76,359.09 2233.62,356.019 2255.28,288.54 2203.18,306.508 2172.93,277.547 2215.22,268.751 2243.68,334.559 2189.5,406.564 2137.23,492.055 2183.25,536.566 2252.1,482.82 2194.41,475.568 2213.22,360.113 2187.31,260.798 2267.18,406.029 2267.58,404.082 2179.11,351.908 2174.37,289.936 2147,374.825 2088.04,469.887 2132.32,466.582 2150.83,474.087 2137.76,461.675 2151.95,484.733 2199.13,540.267 2218.39,529.327 2115.83,519.005 2037.28,462.07 2060.1,528.518 2146.73,555.699 2118.59,532.882 2013.48,387.121 2042.93,450.114 1983.55,426.317 1949.78,437.478 2045.02,377.849 2022.28,375.367 1918.84,379.168 1917.55,326.211 1937.08,515.947 1975.54,393.64 1998.61,395.183 2062.44,405.047 2068.1,465.526 2076.76,475.713 2062.35,384.107 2049.48,440.002 2144.97,449.598 2110.83,473.163 2062.88,487.827 1983.89,387.424 1966.04,328.375 2037.66,501.762 2143.68,555.149 2176.09,472.11 2165.13,433.891 2177.51,332.595 2137.76,251.269 2142.69,442.781 2171.13,387.206 2170.75,316.793 2133.9,350.161 2125.55,400.642 2161.66,379.278 2094.76,290.16 2052.43,350.96 2043.5,339.624 2010.3,286.262 1948.93,265.13 1968.08,348.166 1946.74,507.197 1856.3,537.711 1875.58,507.302 1963.12,483.393 1915.12,535.969 1922.73,512.827 2078.14,420.628 2012.05,443.848 2033.17,416.933 2049.52,304.322 2037.56,294.605 2068.81,291.08 1999.93,233.834 2039.24,290.208 2019.91,301.522 1948.65,310.755 1999.44,260.788 1912.57,367.004 1940.47,389.328 1919.42,375.313 1921.9,309.303 1906.61,268.865 1954.55,227.45 1920.21,280.621 1961,305.964 1976.98,346.407 1998.1,397.17 1905.81,340.835 1936.3,520.737 1932.66,612.372 1990.66,512.701 1983.13,457.663 1860.59,527.808 1845.46,584.315 1852.72,617.531 1870.23,546.195 1915.13,461.627 1924.73,426.492 1835.99,473.69 1857.92,571.387 1877.51,660.031 1945.19,670.844 1880.98,537.581 1935.42,617.897 1929.02,495.199 2038.7,588.379 2097.12,505.525 2082.78,497.16 2222.58,402.17 2174.91,323.883 2158.83,424.754 2116.42,468.404 2053.44,425.329 2033.9,351.456 1988.07,338.053 2008.34,396.737 1957.65,429.96 1921.11,499.945 2016.21,436.269 2000.53,456.474 2063.33,467.799 2066.37,463.553 2055.71,437.511 1944.86,546.826 1955.36,459.263 1971.6,403.511 2025.24,274.709 1982.06,297.398 1964.95,337.491 1875.44,409.217 1822.97,401.289 1851.63,382.479 1828.31,478.787 1933.58,589.272 1921.73,529.534 1910.97,444.687 1990.16,430.301 1900.03,389.008 1900.45,495.817 1898.77,590.578 1910.37,558.986 1873.23,571.5 1980.39,613.951 2065.52,497.503 2128.45,385.629 2224.05,268.382 2099.69,165.441 1964.4,302.862 1898.24,295.791 1890.69,437.94 1815.5,395.67 1778.91,409.851 1779.73,407.747 1806.23,425.188 1796.92,446.507 1851.74,473.249 1921.59,567.017 1947.09,502.47 1921.31,381.809 2002.45,471.431 1906.54,478.603 1918.15,440.241 1974.49,474.477 1845.98,512.017 1843.47,566.361 1866.53,558.326 1885.39,621.179 1932.26,701.503 2028.06,693.264 1897.57,648.186 1988.65,579.499 2020.09,509.761 2070.01,612.243 2107.85,645.89 2101.2,646.026 2067.71,612.822 1982.4,459.969 2079.05,443.267 2016.64,485.186 2071.69,493.349 2065.44,498.67 2093.66,542.383 2022.02,411.54 2185.71,432.275 2264.96,434.318 2235.66,512.008 2253.76,429.202 2278.12,386.08 2306.66,514.379 2267.38,471.757 2285.4,447.473 2334.89,353.419 2249.3,317.936 2173.26,365.333 2258.23,395.94 2212.61,374.812 2168.04,345.173 2193.55,361.487 2110.81,464.756 1999.94,450.44 2013.24,473.428 1985.37,481.213 1920.66,453.321 1839.17,430.495 1861.23,432.726 1885.65,406.558 1901.15,387.919 1852.18,365.053 1812.18,347.803 1835.06,362.603 1822.79,422.461 1873.92,481.708 1879.57,508.12 1900.55,481.843 1913.22,396.699 1963.08,404.711 1963.07,398.329 1975.63,384.197 2019.49,461.352 1972.28,453.561 1917.41,466.362 1952.35,474.873 1916.38,461.885 1870.26,425.657 1834.87,484.285 1794.87,585.632 1869.83,669.188 2076.38,644.916 2095.89,516.71 2120.97,535.188 2139.51,546.567 2111.08,528.631 2048.64,466.907 2099.67,457.73 2138.34,365.548 2113.17,355.334 2088.04,470.525 2034.33,512.663 1980.95,491.563 1874.18,551.657 1970.94,588.422 2009.24,534.401 1970.86,537.969 1947.28,457.457 2023.86,526.578 2015.53,508.296 2000.31,497.056 2041.53,542.208 2081.02,480.423 2068.86,368.368 2027.55,365.223 2045.15,350.905 1984.43,406.881 1908.5,362.128 1858.78,434.077 1916.38,526.535 1948,533.132 2050,516.558 1988.44,529.077 1932.86,566.61 1918.76,566.461 1952.93,568.918 1920.79,495.987 1950.99,472.846 1981.92,487.607 2002.4,527.855 1911.1,464.758 1941.56,334.931 1961.18,192.223 1972.93,301.868 1945.33,325.484 1930.75,367.116 1835.56,428.419 1779.23,492.726 1801.65,463.167 1814.69,487.888 1867.35,438.805 1805.14,323.636 1842.55,360.678 1912.72,394.448 1919.45,520.78 1962.59,520.721 1909.73,512.728 1931.29,468.079 1985.18,498.341 2008.7,347.511 2024.45,252.653 2005.73,404.191 1990.89,399.313 1972.27,383.578 2082.52,394.155 2078.93,369.593 2062.91,444.655 2061.15,363.716 2062.88,264.497 2079.21,226.27 2025.46,310.381 1955.41,265.087 1949.43,258.196 1835.86,287.865 1854.99,337.768 1829.95,352.075 1845.34,417.689 1745.96,449.778 1741.7,591.917 1772.11,627.16 1855.17,694.17 1922.69,702.225 1976.15,713.995 2025.15,715.079 2047.57,704.256 2053.57,635.384 2009.66,585.729 2029.96,572.258 2050.82,478.802 1983.41,416.816 1994.42,422.624 1967.63,464.109 1940.52,438.651 1927.15,442.161 1946.9,436.79 1866.07,419.886 1859.38,422.719 1814.53,438.753 1835.14,499.562 1820.88,546.588 1820.71,533.689 1772.15,551.583 1875.67,528.845 1954.58,404.525 1868.41,504.349 1847.57,561.909 1882.56,598.209 1906.55,588.241 1964.47,511.867 2051.36,574.641 2047.63,550.45 1963.14,497.462 2007.45,473.564 2037.14,386.759 2044.71,370.351 2056.61,431.028 2011.58,423.537 1914.8,395.992 1937.07,346.956 2052.63,373.251 2066.59,403.678 2079.16,314.778 2107.93,334.818 2081,426.538 2013.04,385.329 2101,486.289 2041.28,587.029 2058.73,531.124 2042.27,515.603 2084.47,575.949 2057.73,536.41 2017.09,470.71 2026.6,396.184 2062.05,401.844 2040.77,407.382 2059.45,339.575 2018.24,368.097 2022.76,324.332 2084.7,358.045 2077.85,363.361 2074.14,431.182 2106.46,430.064 2039.53,364.357 2079.93,462.371 2055.45,437.094 2097.62,342.064 2119.36,346.557 2107.59,442.787 2165.55,467.644 2127.56,352.784 2142.89,441.567 2205.24,426.308 2204.47,409.209 2178.8,285.778 2183.6,357.557 2257.22,356.379 2281.05,352.08 2212.45,322.091 2241.61,327.451 2204.85,341.57 2132.78,315.209 2137.04,349.326 2108.71,431.705 2180.06,584.206 2148.03,483.547 2226.54,453.012 2219,368.84 2150.93,343.551 2135.13,312.446 2047.42,374.767 2059.05,436.484 2105.44,413.218 2077.57,363.735 2026.59,465.04 2036.54,491.03 2021.48,505.162 2028.35,478.045 2022.04,427.127 2006.9,459.446 2062.25,457.475 2102.86,369.136 2040.28,392.457 2061.34,408.028 2119.15,339.944 2152.68,389.2 2182.4,397.793 2126.75,456.236 2176.04,450.006 2104.65,393.895 2007.84,383.006 1956.87,388.488 1952.67,331.919 1978.64,458.499 1985.1,398.115 1964.96,342.495 1973.02,246.812 2074.85,361.311 2023.98,313.447 2032.24,379.73 1993.23,432.596 1975.97,508.13 1952.11,514.352 1941.5,442.242 1902.39,365.954 1877.04,378.236 1890.74,354.541 1946.89,411.763 1942.06,327.796 1886.5,320.441 1914.29,317.875 1956.41,300.051 1998.83,228.423 1997.42,241.661 1862.24,290.31 1839.69,395.671 1814.03,461.047 1914.84,420.655 1997.68,482.867 2011.64,461.259 2018.35,459.557 2010.13,431.655 1981.33,489.307 2020.42,507.178 2015.58,473.371 1995.88,435.273 1975.67,396.912 2051.18,449.797 2072.2,493.473 2013.93,484.794 2032.29,449.549 2023.77,363.896 2013.33,386.555 1900.85,428.856 1886.8,421.138 1827.55,407.975 1836.91,417.354 1807.6,413.832 1742.44,495.703 1760.97,435.937 1727.9,367.417 1621.03,482.85 1739.06,509.826 1776.31,601.635 1804.94,638.248 1813.78,671.175 1819.43,559.552 1875.79,600.031 1974.42,651.561 2154.85,554.917 2195.71,529.877 2256.86,449.025 2246.74,360.908 2252.37,459.214 2206.68,513.495 2085.41,465.223 2033.99,491.242 1974.39,407.529 1923.37,445.421 1863.48,376.091 1877.03,514.595 1939.21,546.791 1940.1,442.723 1988.04,424.157 1997.64,477.53 1980.25,355.142 1925.14,332.063 1914.62,403.731 1934.5,336.492 1956.95,360.397 1999.45,403.737 1986.92,474.056 1967.68,515.955 1984.83,505.036 2022.43,400.546 2027.88,382.023 2006.7,333.048 1982.65,288.591 2029.88,238.344 2044.17,289.783 2029.26,392.414 2149.86,444.651 2116.51,486.326 2101.24,505.712 2028.16,553.878 2058.2,532.31 2056.05,444.016 2022.68,429.485 2043.83,474.054 2087.25,579.381 2038.3,422.238 2095.75,549.204 2122.79,447.183 2045.72,434.756 2032.8,591.503 2037.63,563.396 2113.44,432.842 2055.56,352.108 2026.79,397.619 1992.92,317.481 2031.58,339.942 2015.04,363.516 2120.25,295.847 2056.32,292.638 2082.06,254.403 2137.7,277.047 2076.8,338.48 2091.86,396.8 2108.42,385.572 2066.66,399.462 2065.9,424.377 2112.25,336.412 2057.6,200.31 2003.55,318.344 2002.26,407.224 1946.55,408.401 1991.7,347.257 2062.21,382.912 2070.72,416.042 2084.6,341.139 2008.44,393.438 2020.96,466.207 1988.33,397.509 2037.33,386.594 1955.82,347.062 1945.88,399.26 1925.98,290.964 1922.08,265.443 1863.62,326.417 1871.41,368.675 1972.57,385.995 1981.44,394.522 2059.91,400.991 2033.03,448.935 1985.83,476.214 2013.25,444.743 1959.68,435.458 1961.57,398.905 1960.51,458.523 1973.98,380.443 2007.32,350.907 2046.98,328.826 2103.02,350.957 2135.41,333.064 2210.88,335.746 2178.89,386.321 2168.2,407.133 2071.12,449.171 2004.24,462.799 1992.4,429.529 2047.52,435.198 2015.72,403.489 2058.57,366.089 2042.6,383.222 2011.32,439.48 2098.97,414.349 2073.61,287.833 2030.16,369.089 2069.23,383.608 2090.85,441.364 2117.69,478.244 2111.62,502.093 2137.71,483.816 2160.49,408.008 2239.22,352.891 2222.32,323.161 2217.31,334.519 2158.19,257.627 2184.05,286.562 2165.24,382.84 2127.56,457.007 2048.69,349.695 2009.36,278.772 1922.5,305.902 1862.19,358.418 1943.99,450.37 1976.12,434.857 1935.46,487.814 1930.58,449.733 1885.01,365.71 1802.13,354.966 1778.07,404.027 1796.58,426.107 1832.85,342.688 1825.84,400.671 1894.01,387.792 1815.56,474.722 1859.19,468.973 1926.83,349.196 1998.94,394.595 1976.78,360.387 1947.09,328.852 1995.57,311.918 2038.98,306.056 1999.09,194.91 2060.17,218.568 2153.52,255.175 2153.55,224.296 2171.4,251.923 2164.64,359.342 2128.96,283.531 2112.18,295.102 2044.56,288.89 2055.95,427.713 2057.5,361.223 2078.02,356.741 2067.07,374.6 2113.27,323.921 2133.81,295.375 2065.7,315.856 1992.41,335.784 2089.99,362.827 2051.84,447.185 2034.85,389.61 2042.51,310.639 2081.72,254.373 2125.17,386.605 2056.2,294.745 2105.18,340.804 2132.93,334.193 2070.89,332.828 2142.5,364.179 2100.75,443.023 2113.65,419.221 2094.06,376.573 2042.25,323.603 2053.32,291.178 2010.65,324.773 1953.12,325.026 1958.97,392.83 1969.07,406.909 1938.91,433.433 1964.93,456.897 2066.94,448.781 2101.99,419.972 2052.58,404.418 2042.31,455.786 2051.35,562.197 2068.18,552.01 2087.13,616.064 2075.22,578.18 2030.54,573.728 1929.16,488.326 1974.9,433.248 1959.2,336.477 2002.14,225.05 2016.07,290.519 1951.41,382.317 2100.74,316.959 2061.4,352.498 2046.62,234.729 2014.02,319.221 2001.94,368.679 2079.94,349.393 2086.39,287.434 2054.33,302.155 2018.27,316.199 2071.07,273.747 2098.99,309.975 2129.92,334.547 2151.15,345.243 2169.78,319.315 2064.05,270.749 2087.46,272.124 2106.77,294.06 2072.31,305.113 2153.37,353.512 2059.07,354.676 1995.23,404.622 2023.62,384.334 2069.36,314.717 2030.9,314.361 2051.35,336.798 2125.25,297.778 2116.64,261.11 1996.19,315.217 2011.88,351.558 2040.91,341.125 2079.99,413.493 2082.3,456.6 1951.44,539.759 2078.52,525.12 2100.82,559.065 2108.65,441.988 2169,389.205 2081.28,430.001 2109.95,457.516 2045.57,503.31 2079.08,414.002 2064.34,414.016 2065.95,326.979 2108.17,421.287 2033.61,471.886 2060.83,462.574 2105.91,580.252 2130.11,581.399 2115.78,537.243 2170.26,514.853 2150.08,479.984 2182.35,403.453 2116.57,283.356 2175.93,305.638 2192.29,271.575 2236.07,280.39 2147.47,316.901 2188.38,269.593 2260.84,239.308 2204.34,172.072 2166.02,149.198 2086.09,325.935 2092.12,309.132 2122.1,328.732 2103.43,379.708 2112.64,407.221 2135.92,430.25 2110.57,275.975 2114.75,330.276 2102.42,339.078 2132.69,418.037 2061.82,365.356 2055.61,428.541 2021.77,368.422 2036,395.401 2054.23,387.711 2046.91,372.807 2099.79,382.32 2086.47,330.485 2016.05,362.677 1991.13,437.406 1927.84,532.772 2030.76,494.627 1919.59,641.108 2026.88,629.447 "/>
<circle clip-path="url(#clip912)" cx="592.467" cy="1047.28" r="14.4" fill="#ff0000" fill-rule="evenodd" fill-opacity="1" stroke="#000000" stroke-opacity="1" stroke-width="3.2"/>
<circle clip-path="url(#clip912)" cx="2017.98" cy="423.143" r="14.4" fill="#ff0000" fill-rule="evenodd" fill-opacity="1" stroke="#000000" stroke-opacity="1" stroke-width="3.2"/>
</svg>
