<?xml version="1.0" encoding="utf-8"?>
<svg xmlns="http://www.w3.org/2000/svg" xmlns:xlink="http://www.w3.org/1999/xlink" width="600" height="400" viewBox="0 0 2400 1600">
<defs>
  <clipPath id="clip910">
    <rect x="0" y="0" width="2400" height="1600"/>
  </clipPath>
</defs>
<path clip-path="url(#clip910)" d="M0 1600 L2400 1600 L2400 0 L0 0  Z" fill="#ffffff" fill-rule="evenodd" fill-opacity="1"/>
<defs>
  <clipPath id="clip911">
    <rect x="480" y="0" width="1681" height="1600"/>
  </clipPath>
</defs>
<path clip-path="url(#clip910)" d="M192.709 1423.18 L2352.76 1423.18 L2352.76 47.2441 L192.709 47.2441  Z" fill="#ffffff" fill-rule="evenodd" fill-opacity="1"/>
<defs>
  <clipPath id="clip912">
    <rect x="192" y="47" width="2161" height="1377"/>
  </clipPath>
</defs>
<polyline clip-path="url(#clip912)" style="stroke:#000000; stroke-linecap:round; stroke-linejoin:round; stroke-width:2; stroke-opacity:0.1; fill:none" points="192.709,1423.18 192.709,47.2441 "/>
<polyline clip-path="url(#clip912)" style="stroke:#000000; stroke-linecap:round; stroke-linejoin:round; stroke-width:2; stroke-opacity:0.1; fill:none" points="624.719,1423.18 624.719,47.2441 "/>
<polyline clip-path="url(#clip912)" style="stroke:#000000; stroke-linecap:round; stroke-linejoin:round; stroke-width:2; stroke-opacity:0.1; fill:none" points="1056.73,1423.18 1056.73,47.2441 "/>
<polyline clip-path="url(#clip912)" style="stroke:#000000; stroke-linecap:round; stroke-linejoin:round; stroke-width:2; stroke-opacity:0.1; fill:none" points="1488.74,1423.18 1488.74,47.2441 "/>
<polyline clip-path="url(#clip912)" style="stroke:#000000; stroke-linecap:round; stroke-linejoin:round; stroke-width:2; stroke-opacity:0.1; fill:none" points="1920.75,1423.18 1920.75,47.2441 "/>
<polyline clip-path="url(#clip912)" style="stroke:#000000; stroke-linecap:round; stroke-linejoin:round; stroke-width:2; stroke-opacity:0.1; fill:none" points="2352.76,1423.18 2352.76,47.2441 "/>
<polyline clip-path="url(#clip910)" style="stroke:#000000; stroke-linecap:round; stroke-linejoin:round; stroke-width:4; stroke-opacity:1; fill:none" points="192.709,1423.18 2352.76,1423.18 "/>
<polyline clip-path="url(#clip910)" style="stroke:#000000; stroke-linecap:round; stroke-linejoin:round; stroke-width:4; stroke-opacity:1; fill:none" points="192.709,1423.18 192.709,1404.28 "/>
<polyline clip-path="url(#clip910)" style="stroke:#000000; stroke-linecap:round; stroke-linejoin:round; stroke-width:4; stroke-opacity:1; fill:none" points="624.719,1423.18 624.719,1404.28 "/>
<polyline clip-path="url(#clip910)" style="stroke:#000000; stroke-linecap:round; stroke-linejoin:round; stroke-width:4; stroke-opacity:1; fill:none" points="1056.73,1423.18 1056.73,1404.28 "/>
<polyline clip-path="url(#clip910)" style="stroke:#000000; stroke-linecap:round; stroke-linejoin:round; stroke-width:4; stroke-opacity:1; fill:none" points="1488.74,1423.18 1488.74,1404.28 "/>
<polyline clip-path="url(#clip910)" style="stroke:#000000; stroke-linecap:round; stroke-linejoin:round; stroke-width:4; stroke-opacity:1; fill:none" points="1920.75,1423.18 1920.75,1404.28 "/>
<polyline clip-path="url(#clip910)" style="stroke:#000000; stroke-linecap:round; stroke-linejoin:round; stroke-width:4; stroke-opacity:1; fill:none" points="2352.76,1423.18 2352.76,1404.28 "/>
<path clip-path="url(#clip910)" d="M170.094 1454.1 Q166.482 1454.1 164.654 1457.66 Q162.848 1461.2 162.848 1468.33 Q162.848 1475.44 164.654 1479.01 Q166.482 1482.55 170.094 1482.55 Q173.728 1482.55 175.533 1479.01 Q177.362 1475.44 177.362 1468.33 Q177.362 1461.2 175.533 1457.66 Q173.728 1454.1 170.094 1454.1 M170.094 1450.39 Q175.904 1450.39 178.959 1455 Q182.038 1459.58 182.038 1468.33 Q182.038 1477.06 178.959 1481.67 Q175.904 1486.25 170.094 1486.25 Q164.283 1486.25 161.205 1481.67 Q158.149 1477.06 158.149 1468.33 Q158.149 1459.58 161.205 1455 Q164.283 1450.39 170.094 1450.39 Z" fill="#000000" fill-rule="nonzero" fill-opacity="1" /><path clip-path="url(#clip910)" d="M190.255 1479.7 L195.14 1479.7 L195.14 1485.58 L190.255 1485.58 L190.255 1479.7 Z" fill="#000000" fill-rule="nonzero" fill-opacity="1" /><path clip-path="url(#clip910)" d="M215.325 1454.1 Q211.714 1454.1 209.885 1457.66 Q208.079 1461.2 208.079 1468.33 Q208.079 1475.44 209.885 1479.01 Q211.714 1482.55 215.325 1482.55 Q218.959 1482.55 220.765 1479.01 Q222.593 1475.44 222.593 1468.33 Q222.593 1461.2 220.765 1457.66 Q218.959 1454.1 215.325 1454.1 M215.325 1450.39 Q221.135 1450.39 224.19 1455 Q227.269 1459.58 227.269 1468.33 Q227.269 1477.06 224.19 1481.67 Q221.135 1486.25 215.325 1486.25 Q209.515 1486.25 206.436 1481.67 Q203.38 1477.06 203.38 1468.33 Q203.38 1459.58 206.436 1455 Q209.515 1450.39 215.325 1450.39 Z" fill="#000000" fill-rule="nonzero" fill-opacity="1" /><path clip-path="url(#clip910)" d="M602.901 1454.1 Q599.29 1454.1 597.462 1457.66 Q595.656 1461.2 595.656 1468.33 Q595.656 1475.44 597.462 1479.01 Q599.29 1482.55 602.901 1482.55 Q606.536 1482.55 608.341 1479.01 Q610.17 1475.44 610.17 1468.33 Q610.17 1461.2 608.341 1457.66 Q606.536 1454.1 602.901 1454.1 M602.901 1450.39 Q608.712 1450.39 611.767 1455 Q614.846 1459.58 614.846 1468.33 Q614.846 1477.06 611.767 1481.67 Q608.712 1486.25 602.901 1486.25 Q597.091 1486.25 594.013 1481.67 Q590.957 1477.06 590.957 1468.33 Q590.957 1459.58 594.013 1455 Q597.091 1450.39 602.901 1450.39 Z" fill="#000000" fill-rule="nonzero" fill-opacity="1" /><path clip-path="url(#clip910)" d="M623.063 1479.7 L627.948 1479.7 L627.948 1485.58 L623.063 1485.58 L623.063 1479.7 Z" fill="#000000" fill-rule="nonzero" fill-opacity="1" /><path clip-path="url(#clip910)" d="M642.161 1481.64 L658.48 1481.64 L658.48 1485.58 L636.536 1485.58 L636.536 1481.64 Q639.198 1478.89 643.781 1474.26 Q648.387 1469.61 649.568 1468.27 Q651.813 1465.74 652.693 1464.01 Q653.596 1462.25 653.596 1460.56 Q653.596 1457.8 651.651 1456.07 Q649.73 1454.33 646.628 1454.33 Q644.429 1454.33 641.975 1455.09 Q639.545 1455.86 636.767 1457.41 L636.767 1452.69 Q639.591 1451.55 642.045 1450.97 Q644.498 1450.39 646.536 1450.39 Q651.906 1450.39 655.1 1453.08 Q658.295 1455.77 658.295 1460.26 Q658.295 1462.39 657.485 1464.31 Q656.697 1466.2 654.591 1468.8 Q654.012 1469.47 650.91 1472.69 Q647.809 1475.88 642.161 1481.64 Z" fill="#000000" fill-rule="nonzero" fill-opacity="1" /><path clip-path="url(#clip910)" d="M1033.87 1454.1 Q1030.26 1454.1 1028.43 1457.66 Q1026.62 1461.2 1026.62 1468.33 Q1026.62 1475.44 1028.43 1479.01 Q1030.26 1482.55 1033.87 1482.55 Q1037.5 1482.55 1039.31 1479.01 Q1041.14 1475.44 1041.14 1468.33 Q1041.14 1461.2 1039.31 1457.66 Q1037.5 1454.1 1033.87 1454.1 M1033.87 1450.39 Q1039.68 1450.39 1042.73 1455 Q1045.81 1459.58 1045.81 1468.33 Q1045.81 1477.06 1042.73 1481.67 Q1039.68 1486.25 1033.87 1486.25 Q1028.06 1486.25 1024.98 1481.67 Q1021.92 1477.06 1021.92 1468.33 Q1021.92 1459.58 1024.98 1455 Q1028.06 1450.39 1033.87 1450.39 Z" fill="#000000" fill-rule="nonzero" fill-opacity="1" /><path clip-path="url(#clip910)" d="M1054.03 1479.7 L1058.92 1479.7 L1058.92 1485.58 L1054.03 1485.58 L1054.03 1479.7 Z" fill="#000000" fill-rule="nonzero" fill-opacity="1" /><path clip-path="url(#clip910)" d="M1081.95 1455.09 L1070.14 1473.54 L1081.95 1473.54 L1081.95 1455.09 M1080.72 1451.02 L1086.6 1451.02 L1086.6 1473.54 L1091.53 1473.54 L1091.53 1477.43 L1086.6 1477.43 L1086.6 1485.58 L1081.95 1485.58 L1081.95 1477.43 L1066.35 1477.43 L1066.35 1472.92 L1080.72 1451.02 Z" fill="#000000" fill-rule="nonzero" fill-opacity="1" /><path clip-path="url(#clip910)" d="M1466.04 1454.1 Q1462.43 1454.1 1460.6 1457.66 Q1458.8 1461.2 1458.8 1468.33 Q1458.8 1475.44 1460.6 1479.01 Q1462.43 1482.55 1466.04 1482.55 Q1469.67 1482.55 1471.48 1479.01 Q1473.31 1475.44 1473.31 1468.33 Q1473.31 1461.2 1471.48 1457.66 Q1469.67 1454.1 1466.04 1454.1 M1466.04 1450.39 Q1471.85 1450.39 1474.91 1455 Q1477.98 1459.58 1477.98 1468.33 Q1477.98 1477.06 1474.91 1481.67 Q1471.85 1486.25 1466.04 1486.25 Q1460.23 1486.25 1457.15 1481.67 Q1454.1 1477.06 1454.1 1468.33 Q1454.1 1459.58 1457.15 1455 Q1460.23 1450.39 1466.04 1450.39 Z" fill="#000000" fill-rule="nonzero" fill-opacity="1" /><path clip-path="url(#clip910)" d="M1486.2 1479.7 L1491.09 1479.7 L1491.09 1485.58 L1486.2 1485.58 L1486.2 1479.7 Z" fill="#000000" fill-rule="nonzero" fill-opacity="1" /><path clip-path="url(#clip910)" d="M1511.85 1466.44 Q1508.7 1466.44 1506.85 1468.59 Q1505.02 1470.74 1505.02 1474.49 Q1505.02 1478.22 1506.85 1480.39 Q1508.7 1482.55 1511.85 1482.55 Q1515 1482.55 1516.83 1480.39 Q1518.68 1478.22 1518.68 1474.49 Q1518.68 1470.74 1516.83 1468.59 Q1515 1466.44 1511.85 1466.44 M1521.13 1451.78 L1521.13 1456.04 Q1519.37 1455.21 1517.57 1454.77 Q1515.79 1454.33 1514.03 1454.33 Q1509.4 1454.33 1506.94 1457.45 Q1504.51 1460.58 1504.17 1466.9 Q1505.53 1464.89 1507.59 1463.82 Q1509.65 1462.73 1512.13 1462.73 Q1517.34 1462.73 1520.35 1465.9 Q1523.38 1469.05 1523.38 1474.49 Q1523.38 1479.82 1520.23 1483.03 Q1517.08 1486.25 1511.85 1486.25 Q1505.86 1486.25 1502.68 1481.67 Q1499.51 1477.06 1499.51 1468.33 Q1499.51 1460.14 1503.4 1455.28 Q1507.29 1450.39 1513.84 1450.39 Q1515.6 1450.39 1517.38 1450.74 Q1519.19 1451.09 1521.13 1451.78 Z" fill="#000000" fill-rule="nonzero" fill-opacity="1" /><path clip-path="url(#clip910)" d="M1898.18 1454.1 Q1894.57 1454.1 1892.74 1457.66 Q1890.93 1461.2 1890.93 1468.33 Q1890.93 1475.44 1892.74 1479.01 Q1894.57 1482.55 1898.18 1482.55 Q1901.81 1482.55 1903.62 1479.01 Q1905.45 1475.44 1905.45 1468.33 Q1905.45 1461.2 1903.62 1457.66 Q1901.81 1454.1 1898.18 1454.1 M1898.18 1450.39 Q1903.99 1450.39 1907.04 1455 Q1910.12 1459.58 1910.12 1468.33 Q1910.12 1477.06 1907.04 1481.67 Q1903.99 1486.25 1898.18 1486.25 Q1892.37 1486.25 1889.29 1481.67 Q1886.23 1477.06 1886.23 1468.33 Q1886.23 1459.58 1889.29 1455 Q1892.37 1450.39 1898.18 1450.39 Z" fill="#000000" fill-rule="nonzero" fill-opacity="1" /><path clip-path="url(#clip910)" d="M1918.34 1479.7 L1923.22 1479.7 L1923.22 1485.58 L1918.34 1485.58 L1918.34 1479.7 Z" fill="#000000" fill-rule="nonzero" fill-opacity="1" /><path clip-path="url(#clip910)" d="M1943.41 1469.17 Q1940.08 1469.17 1938.15 1470.95 Q1936.26 1472.73 1936.26 1475.86 Q1936.26 1478.98 1938.15 1480.77 Q1940.08 1482.55 1943.41 1482.55 Q1946.74 1482.55 1948.66 1480.77 Q1950.58 1478.96 1950.58 1475.86 Q1950.58 1472.73 1948.66 1470.95 Q1946.76 1469.17 1943.41 1469.17 M1938.73 1467.18 Q1935.72 1466.44 1934.03 1464.38 Q1932.37 1462.32 1932.37 1459.35 Q1932.37 1455.21 1935.31 1452.8 Q1938.27 1450.39 1943.41 1450.39 Q1948.57 1450.39 1951.51 1452.8 Q1954.45 1455.21 1954.45 1459.35 Q1954.45 1462.32 1952.76 1464.38 Q1951.09 1466.44 1948.11 1467.18 Q1951.49 1467.96 1953.36 1470.26 Q1955.26 1472.55 1955.26 1475.86 Q1955.26 1480.88 1952.18 1483.57 Q1949.13 1486.25 1943.41 1486.25 Q1937.69 1486.25 1934.61 1483.57 Q1931.56 1480.88 1931.56 1475.86 Q1931.56 1472.55 1933.45 1470.26 Q1935.35 1467.96 1938.73 1467.18 M1937.02 1459.79 Q1937.02 1462.48 1938.69 1463.98 Q1940.38 1465.49 1943.41 1465.49 Q1946.42 1465.49 1948.11 1463.98 Q1949.82 1462.48 1949.82 1459.79 Q1949.82 1457.11 1948.11 1455.6 Q1946.42 1454.1 1943.41 1454.1 Q1940.38 1454.1 1938.69 1455.6 Q1937.02 1457.11 1937.02 1459.79 Z" fill="#000000" fill-rule="nonzero" fill-opacity="1" /><path clip-path="url(#clip910)" d="M2319.91 1481.64 L2327.55 1481.64 L2327.55 1455.28 L2319.24 1456.95 L2319.24 1452.69 L2327.5 1451.02 L2332.18 1451.02 L2332.18 1481.64 L2339.82 1481.64 L2339.82 1485.58 L2319.91 1485.58 L2319.91 1481.64 Z" fill="#000000" fill-rule="nonzero" fill-opacity="1" /><path clip-path="url(#clip910)" d="M2349.26 1479.7 L2354.14 1479.7 L2354.14 1485.58 L2349.26 1485.58 L2349.26 1479.7 Z" fill="#000000" fill-rule="nonzero" fill-opacity="1" /><path clip-path="url(#clip910)" d="M2374.33 1454.1 Q2370.72 1454.1 2368.89 1457.66 Q2367.08 1461.2 2367.08 1468.33 Q2367.08 1475.44 2368.89 1479.01 Q2370.72 1482.55 2374.33 1482.55 Q2377.96 1482.55 2379.77 1479.01 Q2381.6 1475.44 2381.6 1468.33 Q2381.6 1461.2 2379.77 1457.66 Q2377.96 1454.1 2374.33 1454.1 M2374.33 1450.39 Q2380.14 1450.39 2383.2 1455 Q2386.27 1459.58 2386.27 1468.33 Q2386.27 1477.06 2383.2 1481.67 Q2380.14 1486.25 2374.33 1486.25 Q2368.52 1486.25 2365.44 1481.67 Q2362.39 1477.06 2362.39 1468.33 Q2362.39 1459.58 2365.44 1455 Q2368.52 1450.39 2374.33 1450.39 Z" fill="#000000" fill-rule="nonzero" fill-opacity="1" /><path clip-path="url(#clip910)" d="M1271.79 1522.27 L1271.79 1532.4 L1283.86 1532.4 L1283.86 1536.95 L1271.79 1536.95 L1271.79 1556.3 Q1271.79 1560.66 1272.97 1561.9 Q1274.18 1563.14 1277.84 1563.14 L1283.86 1563.14 L1283.86 1568.04 L1277.84 1568.04 Q1271.06 1568.04 1268.48 1565.53 Q1265.91 1562.98 1265.91 1556.3 L1265.91 1536.95 L1261.61 1536.95 L1261.61 1532.4 L1265.91 1532.4 L1265.91 1522.27 L1271.79 1522.27 Z" fill="#000000" fill-rule="nonzero" fill-opacity="1" /><polyline clip-path="url(#clip912)" style="stroke:#000000; stroke-linecap:round; stroke-linejoin:round; stroke-width:2; stroke-opacity:0.1; fill:none" points="192.709,1401.15 2352.76,1401.15 "/>
<polyline clip-path="url(#clip912)" style="stroke:#000000; stroke-linecap:round; stroke-linejoin:round; stroke-width:2; stroke-opacity:0.1; fill:none" points="192.709,1196.64 2352.76,1196.64 "/>
<polyline clip-path="url(#clip912)" style="stroke:#000000; stroke-linecap:round; stroke-linejoin:round; stroke-width:2; stroke-opacity:0.1; fill:none" points="192.709,992.143 2352.76,992.143 "/>
<polyline clip-path="url(#clip912)" style="stroke:#000000; stroke-linecap:round; stroke-linejoin:round; stroke-width:2; stroke-opacity:0.1; fill:none" points="192.709,787.642 2352.76,787.642 "/>
<polyline clip-path="url(#clip912)" style="stroke:#000000; stroke-linecap:round; stroke-linejoin:round; stroke-width:2; stroke-opacity:0.1; fill:none" points="192.709,583.14 2352.76,583.14 "/>
<polyline clip-path="url(#clip912)" style="stroke:#000000; stroke-linecap:round; stroke-linejoin:round; stroke-width:2; stroke-opacity:0.1; fill:none" points="192.709,378.639 2352.76,378.639 "/>
<polyline clip-path="url(#clip912)" style="stroke:#000000; stroke-linecap:round; stroke-linejoin:round; stroke-width:2; stroke-opacity:0.1; fill:none" points="192.709,174.138 2352.76,174.138 "/>
<polyline clip-path="url(#clip910)" style="stroke:#000000; stroke-linecap:round; stroke-linejoin:round; stroke-width:4; stroke-opacity:1; fill:none" points="192.709,1423.18 192.709,47.2441 "/>
<polyline clip-path="url(#clip910)" style="stroke:#000000; stroke-linecap:round; stroke-linejoin:round; stroke-width:4; stroke-opacity:1; fill:none" points="192.709,1401.15 211.607,1401.15 "/>
<polyline clip-path="url(#clip910)" style="stroke:#000000; stroke-linecap:round; stroke-linejoin:round; stroke-width:4; stroke-opacity:1; fill:none" points="192.709,1196.64 211.607,1196.64 "/>
<polyline clip-path="url(#clip910)" style="stroke:#000000; stroke-linecap:round; stroke-linejoin:round; stroke-width:4; stroke-opacity:1; fill:none" points="192.709,992.143 211.607,992.143 "/>
<polyline clip-path="url(#clip910)" style="stroke:#000000; stroke-linecap:round; stroke-linejoin:round; stroke-width:4; stroke-opacity:1; fill:none" points="192.709,787.642 211.607,787.642 "/>
<polyline clip-path="url(#clip910)" style="stroke:#000000; stroke-linecap:round; stroke-linejoin:round; stroke-width:4; stroke-opacity:1; fill:none" points="192.709,583.14 211.607,583.14 "/>
<polyline clip-path="url(#clip910)" style="stroke:#000000; stroke-linecap:round; stroke-linejoin:round; stroke-width:4; stroke-opacity:1; fill:none" points="192.709,378.639 211.607,378.639 "/>
<polyline clip-path="url(#clip910)" style="stroke:#000000; stroke-linecap:round; stroke-linejoin:round; stroke-width:4; stroke-opacity:1; fill:none" points="192.709,174.138 211.607,174.138 "/>
<path clip-path="url(#clip910)" d="M51.3625 1401.6 L81.0383 1401.6 L81.0383 1405.53 L51.3625 1405.53 L51.3625 1401.6 Z" fill="#000000" fill-rule="nonzero" fill-opacity="1" /><path clip-path="url(#clip910)" d="M101.131 1386.94 Q97.5197 1386.94 95.691 1390.51 Q93.8854 1394.05 93.8854 1401.18 Q93.8854 1408.29 95.691 1411.85 Q97.5197 1415.39 101.131 1415.39 Q104.765 1415.39 106.571 1411.85 Q108.399 1408.29 108.399 1401.18 Q108.399 1394.05 106.571 1390.51 Q104.765 1386.94 101.131 1386.94 M101.131 1383.24 Q106.941 1383.24 109.996 1387.85 Q113.075 1392.43 113.075 1401.18 Q113.075 1409.91 109.996 1414.51 Q106.941 1419.1 101.131 1419.1 Q95.3206 1419.1 92.2419 1414.51 Q89.1864 1409.91 89.1864 1401.18 Q89.1864 1392.43 92.2419 1387.85 Q95.3206 1383.24 101.131 1383.24 Z" fill="#000000" fill-rule="nonzero" fill-opacity="1" /><path clip-path="url(#clip910)" d="M121.293 1412.55 L126.177 1412.55 L126.177 1418.43 L121.293 1418.43 L121.293 1412.55 Z" fill="#000000" fill-rule="nonzero" fill-opacity="1" /><path clip-path="url(#clip910)" d="M140.39 1414.49 L156.709 1414.49 L156.709 1418.43 L134.765 1418.43 L134.765 1414.49 Q137.427 1411.74 142.01 1407.11 Q146.617 1402.45 147.797 1401.11 Q150.043 1398.59 150.922 1396.85 Q151.825 1395.09 151.825 1393.4 Q151.825 1390.65 149.88 1388.91 Q147.959 1387.18 144.857 1387.18 Q142.658 1387.18 140.205 1387.94 Q137.774 1388.7 134.996 1390.25 L134.996 1385.53 Q137.82 1384.4 140.274 1383.82 Q142.728 1383.24 144.765 1383.24 Q150.135 1383.24 153.33 1385.93 Q156.524 1388.61 156.524 1393.1 Q156.524 1395.23 155.714 1397.15 Q154.927 1399.05 152.82 1401.64 Q152.242 1402.31 149.14 1405.53 Q146.038 1408.73 140.39 1414.49 Z" fill="#000000" fill-rule="nonzero" fill-opacity="1" /><path clip-path="url(#clip910)" d="M50.9921 1197.1 L80.6679 1197.1 L80.6679 1201.03 L50.9921 1201.03 L50.9921 1197.1 Z" fill="#000000" fill-rule="nonzero" fill-opacity="1" /><path clip-path="url(#clip910)" d="M100.76 1182.44 Q97.1493 1182.44 95.3206 1186.01 Q93.515 1189.55 93.515 1196.68 Q93.515 1203.79 95.3206 1207.35 Q97.1493 1210.89 100.76 1210.89 Q104.395 1210.89 106.2 1207.35 Q108.029 1203.79 108.029 1196.68 Q108.029 1189.55 106.2 1186.01 Q104.395 1182.44 100.76 1182.44 M100.76 1178.74 Q106.571 1178.74 109.626 1183.35 Q112.705 1187.93 112.705 1196.68 Q112.705 1205.41 109.626 1210.01 Q106.571 1214.6 100.76 1214.6 Q94.9502 1214.6 91.8715 1210.01 Q88.816 1205.41 88.816 1196.68 Q88.816 1187.93 91.8715 1183.35 Q94.9502 1178.74 100.76 1178.74 Z" fill="#000000" fill-rule="nonzero" fill-opacity="1" /><path clip-path="url(#clip910)" d="M120.922 1208.04 L125.807 1208.04 L125.807 1213.92 L120.922 1213.92 L120.922 1208.04 Z" fill="#000000" fill-rule="nonzero" fill-opacity="1" /><path clip-path="url(#clip910)" d="M136.802 1209.99 L144.441 1209.99 L144.441 1183.62 L136.131 1185.29 L136.131 1181.03 L144.394 1179.36 L149.07 1179.36 L149.07 1209.99 L156.709 1209.99 L156.709 1213.92 L136.802 1213.92 L136.802 1209.99 Z" fill="#000000" fill-rule="nonzero" fill-opacity="1" /><path clip-path="url(#clip910)" d="M99.5335 977.941 Q95.9224 977.941 94.0937 981.506 Q92.2882 985.048 92.2882 992.177 Q92.2882 999.284 94.0937 1002.85 Q95.9224 1006.39 99.5335 1006.39 Q103.168 1006.39 104.973 1002.85 Q106.802 999.284 106.802 992.177 Q106.802 985.048 104.973 981.506 Q103.168 977.941 99.5335 977.941 M99.5335 974.238 Q105.344 974.238 108.399 978.844 Q111.478 983.427 111.478 992.177 Q111.478 1000.9 108.399 1005.51 Q105.344 1010.09 99.5335 1010.09 Q93.7234 1010.09 90.6447 1005.51 Q87.5892 1000.9 87.5892 992.177 Q87.5892 983.427 90.6447 978.844 Q93.7234 974.238 99.5335 974.238 Z" fill="#000000" fill-rule="nonzero" fill-opacity="1" /><path clip-path="url(#clip910)" d="M119.695 1003.54 L124.58 1003.54 L124.58 1009.42 L119.695 1009.42 L119.695 1003.54 Z" fill="#000000" fill-rule="nonzero" fill-opacity="1" /><path clip-path="url(#clip910)" d="M144.765 977.941 Q141.154 977.941 139.325 981.506 Q137.519 985.048 137.519 992.177 Q137.519 999.284 139.325 1002.85 Q141.154 1006.39 144.765 1006.39 Q148.399 1006.39 150.205 1002.85 Q152.033 999.284 152.033 992.177 Q152.033 985.048 150.205 981.506 Q148.399 977.941 144.765 977.941 M144.765 974.238 Q150.575 974.238 153.63 978.844 Q156.709 983.427 156.709 992.177 Q156.709 1000.9 153.63 1005.51 Q150.575 1010.09 144.765 1010.09 Q138.955 1010.09 135.876 1005.51 Q132.82 1000.9 132.82 992.177 Q132.82 983.427 135.876 978.844 Q138.955 974.238 144.765 974.238 Z" fill="#000000" fill-rule="nonzero" fill-opacity="1" /><path clip-path="url(#clip910)" d="M100.76 773.44 Q97.1493 773.44 95.3206 777.005 Q93.515 780.547 93.515 787.676 Q93.515 794.783 95.3206 798.347 Q97.1493 801.889 100.76 801.889 Q104.395 801.889 106.2 798.347 Q108.029 794.783 108.029 787.676 Q108.029 780.547 106.2 777.005 Q104.395 773.44 100.76 773.44 M100.76 769.737 Q106.571 769.737 109.626 774.343 Q112.705 778.926 112.705 787.676 Q112.705 796.403 109.626 801.009 Q106.571 805.593 100.76 805.593 Q94.9502 805.593 91.8715 801.009 Q88.816 796.403 88.816 787.676 Q88.816 778.926 91.8715 774.343 Q94.9502 769.737 100.76 769.737 Z" fill="#000000" fill-rule="nonzero" fill-opacity="1" /><path clip-path="url(#clip910)" d="M120.922 799.042 L125.807 799.042 L125.807 804.922 L120.922 804.922 L120.922 799.042 Z" fill="#000000" fill-rule="nonzero" fill-opacity="1" /><path clip-path="url(#clip910)" d="M136.802 800.986 L144.441 800.986 L144.441 774.621 L136.131 776.287 L136.131 772.028 L144.394 770.362 L149.07 770.362 L149.07 800.986 L156.709 800.986 L156.709 804.922 L136.802 804.922 L136.802 800.986 Z" fill="#000000" fill-rule="nonzero" fill-opacity="1" /><path clip-path="url(#clip910)" d="M101.131 568.939 Q97.5197 568.939 95.691 572.504 Q93.8854 576.045 93.8854 583.175 Q93.8854 590.282 95.691 593.846 Q97.5197 597.388 101.131 597.388 Q104.765 597.388 106.571 593.846 Q108.399 590.282 108.399 583.175 Q108.399 576.045 106.571 572.504 Q104.765 568.939 101.131 568.939 M101.131 565.235 Q106.941 565.235 109.996 569.842 Q113.075 574.425 113.075 583.175 Q113.075 591.902 109.996 596.508 Q106.941 601.092 101.131 601.092 Q95.3206 601.092 92.2419 596.508 Q89.1864 591.902 89.1864 583.175 Q89.1864 574.425 92.2419 569.842 Q95.3206 565.235 101.131 565.235 Z" fill="#000000" fill-rule="nonzero" fill-opacity="1" /><path clip-path="url(#clip910)" d="M121.293 594.541 L126.177 594.541 L126.177 600.42 L121.293 600.42 L121.293 594.541 Z" fill="#000000" fill-rule="nonzero" fill-opacity="1" /><path clip-path="url(#clip910)" d="M140.39 596.485 L156.709 596.485 L156.709 600.42 L134.765 600.42 L134.765 596.485 Q137.427 593.731 142.01 589.101 Q146.617 584.448 147.797 583.106 Q150.043 580.582 150.922 578.846 Q151.825 577.087 151.825 575.397 Q151.825 572.643 149.88 570.907 Q147.959 569.171 144.857 569.171 Q142.658 569.171 140.205 569.934 Q137.774 570.698 134.996 572.249 L134.996 567.527 Q137.82 566.393 140.274 565.814 Q142.728 565.235 144.765 565.235 Q150.135 565.235 153.33 567.921 Q156.524 570.606 156.524 575.096 Q156.524 577.226 155.714 579.147 Q154.927 581.045 152.82 583.638 Q152.242 584.309 149.14 587.527 Q146.038 590.721 140.39 596.485 Z" fill="#000000" fill-rule="nonzero" fill-opacity="1" /><path clip-path="url(#clip910)" d="M100.182 364.438 Q96.5706 364.438 94.7419 368.003 Q92.9363 371.544 92.9363 378.674 Q92.9363 385.78 94.7419 389.345 Q96.5706 392.887 100.182 392.887 Q103.816 392.887 105.621 389.345 Q107.45 385.78 107.45 378.674 Q107.45 371.544 105.621 368.003 Q103.816 364.438 100.182 364.438 M100.182 360.734 Q105.992 360.734 109.047 365.341 Q112.126 369.924 112.126 378.674 Q112.126 387.401 109.047 392.007 Q105.992 396.59 100.182 396.59 Q94.3715 396.59 91.2928 392.007 Q88.2373 387.401 88.2373 378.674 Q88.2373 369.924 91.2928 365.341 Q94.3715 360.734 100.182 360.734 Z" fill="#000000" fill-rule="nonzero" fill-opacity="1" /><path clip-path="url(#clip910)" d="M120.344 390.04 L125.228 390.04 L125.228 395.919 L120.344 395.919 L120.344 390.04 Z" fill="#000000" fill-rule="nonzero" fill-opacity="1" /><path clip-path="url(#clip910)" d="M149.58 377.285 Q152.936 378.003 154.811 380.271 Q156.709 382.54 156.709 385.873 Q156.709 390.989 153.191 393.79 Q149.672 396.59 143.191 396.59 Q141.015 396.59 138.7 396.151 Q136.408 395.734 133.955 394.878 L133.955 390.364 Q135.899 391.498 138.214 392.077 Q140.529 392.655 143.052 392.655 Q147.45 392.655 149.742 390.919 Q152.056 389.183 152.056 385.873 Q152.056 382.817 149.904 381.104 Q147.774 379.368 143.955 379.368 L139.927 379.368 L139.927 375.526 L144.14 375.526 Q147.589 375.526 149.418 374.16 Q151.246 372.771 151.246 370.179 Q151.246 367.517 149.348 366.105 Q147.473 364.669 143.955 364.669 Q142.033 364.669 139.834 365.086 Q137.635 365.503 134.996 366.382 L134.996 362.216 Q137.658 361.475 139.973 361.105 Q142.311 360.734 144.371 360.734 Q149.695 360.734 152.797 363.165 Q155.899 365.572 155.899 369.692 Q155.899 372.563 154.255 374.554 Q152.612 376.521 149.58 377.285 Z" fill="#000000" fill-rule="nonzero" fill-opacity="1" /><path clip-path="url(#clip910)" d="M99.0474 159.937 Q95.4363 159.937 93.6076 163.501 Q91.8021 167.043 91.8021 174.173 Q91.8021 181.279 93.6076 184.844 Q95.4363 188.386 99.0474 188.386 Q102.682 188.386 104.487 184.844 Q106.316 181.279 106.316 174.173 Q106.316 167.043 104.487 163.501 Q102.682 159.937 99.0474 159.937 M99.0474 156.233 Q104.858 156.233 107.913 160.839 Q110.992 165.423 110.992 174.173 Q110.992 182.9 107.913 187.506 Q104.858 192.089 99.0474 192.089 Q93.2373 192.089 90.1586 187.506 Q87.103 182.9 87.103 174.173 Q87.103 165.423 90.1586 160.839 Q93.2373 156.233 99.0474 156.233 Z" fill="#000000" fill-rule="nonzero" fill-opacity="1" /><path clip-path="url(#clip910)" d="M119.209 185.538 L124.094 185.538 L124.094 191.418 L119.209 191.418 L119.209 185.538 Z" fill="#000000" fill-rule="nonzero" fill-opacity="1" /><path clip-path="url(#clip910)" d="M147.126 160.932 L135.32 179.381 L147.126 179.381 L147.126 160.932 M145.899 156.858 L151.779 156.858 L151.779 179.381 L156.709 179.381 L156.709 183.27 L151.779 183.27 L151.779 191.418 L147.126 191.418 L147.126 183.27 L131.524 183.27 L131.524 178.756 L145.899 156.858 Z" fill="#000000" fill-rule="nonzero" fill-opacity="1" /><polyline clip-path="url(#clip912)" style="stroke:#009af9; stroke-linecap:round; stroke-linejoin:round; stroke-width:4; stroke-opacity:1; fill:none" points="192.709,882.372 214.31,898.437 219.71,896.279 225.786,913.23 232.622,899.511 240.312,909.004 248.963,953.541 258.695,1018.93 269.644,965.2 281.962,1035.5 295.819,1026.66 311.409,1047.54 328.947,992.628 348.678,1024.16 370.875,970.089 395.846,1003.05 423.939,851.1 451.182,854.097 481.83,949.144 516.009,977.851 554.46,1063.21 597.718,1054.64 646.127,1059.1 700.588,974.819 761.855,973.027 830.782,929.986 890.625,1082.23 957.948,1050.19 1033.69,987.39 1095.86,1147.71 1153.9,1253.95 1199.87,1384.24 1241.28,1245.68 1287.87,1163.83 1340.28,1092.12 1399.25,1131.01 1445.78,1099.85 1498.14,1144.43 1549.66,1144.71 1607.17,1101.63 1671.86,1119.03 1730.97,1124.77 1797.46,1248.18 1842.79,1242.24 1892.46,1171.63 1948.34,1266.39 1991.76,1093.86 2040.61,1021.88 2088.31,785.766 2130.86,659.973 2166.5,552.379 2198.8,608.916 2229.72,547.893 2258.3,512.563 2284.17,416.959 2307.47,304.466 2329.25,285.413 2349.52,235.335 2352.76,225.62 "/>
<polyline clip-path="url(#clip912)" style="stroke:#e26f46; stroke-linecap:round; stroke-linejoin:round; stroke-width:4; stroke-opacity:1; fill:none" points="192.709,831.584 214.31,847.134 219.71,844.847 225.786,861.651 232.622,847.767 240.312,857.073 248.963,901.4 258.695,966.555 269.644,912.553 281.962,982.544 295.819,973.364 311.409,993.852 328.947,938.5 348.678,969.531 370.875,914.89 395.846,947.207 423.939,794.513 451.182,796.785 481.83,891.005 516.009,918.776 554.46,1003.07 597.718,993.265 646.127,996.317 700.588,910.419 761.855,906.756 830.782,861.544 890.625,1011.85 957.948,977.552 1033.69,912.138 1095.86,1070.23 1153.9,1174.35 1199.87,1302.91 1241.28,1162.75 1287.87,1079.08 1340.28,1005.27 1399.25,1041.73 1445.78,1008.61 1498.14,1050.92 1549.66,1048.93 1607.17,1003.23 1671.86,1017.62 1730.97,1020.51 1797.46,1140.63 1842.79,1132.39 1892.46,1059.2 1948.34,1150.97 1991.76,976.083 2040.61,901.386 2088.31,662.549 2130.86,534.281 2166.5,424.574 2198.8,479.166 2229.72,416.254 2258.3,379.153 2284.17,281.926 2307.47,167.954 2329.25,147.503 2349.52,96.1121 2352.76,86.1857 "/>
<path clip-path="url(#clip910)" d="M264.711 248.629 L569.812 248.629 L569.812 93.1086 L264.711 93.1086  Z" fill="#ffffff" fill-rule="evenodd" fill-opacity="1"/>
<polyline clip-path="url(#clip910)" style="stroke:#000000; stroke-linecap:round; stroke-linejoin:round; stroke-width:4; stroke-opacity:1; fill:none" points="264.711,248.629 569.812,248.629 569.812,93.1086 264.711,93.1086 264.711,248.629 "/>
<polyline clip-path="url(#clip910)" style="stroke:#009af9; stroke-linecap:round; stroke-linejoin:round; stroke-width:4; stroke-opacity:1; fill:none" points="288.711,144.949 432.714,144.949 "/>
<path clip-path="url(#clip910)" d="M456.715 151.997 L456.715 136.303 L460.974 136.303 L460.974 151.835 Q460.974 155.516 462.409 157.368 Q463.844 159.196 466.715 159.196 Q470.164 159.196 472.155 156.997 Q474.168 154.798 474.168 151.002 L474.168 136.303 L478.428 136.303 L478.428 162.229 L474.168 162.229 L474.168 158.247 Q472.618 160.608 470.557 161.766 Q468.52 162.9 465.812 162.9 Q461.344 162.9 459.03 160.122 Q456.715 157.344 456.715 151.997 M467.432 135.678 L467.432 135.678 Z" fill="#000000" fill-rule="nonzero" fill-opacity="1" /><path clip-path="url(#clip910)" d="M486.807 126.21 L496.622 126.21 L496.622 129.52 L491.067 129.52 L491.067 165.168 L496.622 165.168 L496.622 168.479 L486.807 168.479 L486.807 126.21 Z" fill="#000000" fill-rule="nonzero" fill-opacity="1" /><path clip-path="url(#clip910)" d="M507.108 158.293 L514.747 158.293 L514.747 131.928 L506.437 133.595 L506.437 129.335 L514.701 127.669 L519.377 127.669 L519.377 158.293 L527.015 158.293 L527.015 162.229 L507.108 162.229 L507.108 158.293 Z" fill="#000000" fill-rule="nonzero" fill-opacity="1" /><path clip-path="url(#clip910)" d="M545.812 126.21 L545.812 168.479 L535.997 168.479 L535.997 165.168 L541.529 165.168 L541.529 129.52 L535.997 129.52 L535.997 126.21 L545.812 126.21 Z" fill="#000000" fill-rule="nonzero" fill-opacity="1" /><polyline clip-path="url(#clip910)" style="stroke:#e26f46; stroke-linecap:round; stroke-linejoin:round; stroke-width:4; stroke-opacity:1; fill:none" points="288.711,196.789 432.714,196.789 "/>
<path clip-path="url(#clip910)" d="M456.715 203.837 L456.715 188.143 L460.974 188.143 L460.974 203.675 Q460.974 207.356 462.409 209.208 Q463.844 211.036 466.715 211.036 Q470.164 211.036 472.155 208.837 Q474.168 206.638 474.168 202.842 L474.168 188.143 L478.428 188.143 L478.428 214.069 L474.168 214.069 L474.168 210.087 Q472.618 212.448 470.557 213.606 Q468.52 214.74 465.812 214.74 Q461.344 214.74 459.03 211.962 Q456.715 209.184 456.715 203.837 M467.432 187.518 L467.432 187.518 Z" fill="#000000" fill-rule="nonzero" fill-opacity="1" /><path clip-path="url(#clip910)" d="M486.807 178.05 L496.622 178.05 L496.622 181.36 L491.067 181.36 L491.067 217.008 L496.622 217.008 L496.622 220.319 L486.807 220.319 L486.807 178.05 Z" fill="#000000" fill-rule="nonzero" fill-opacity="1" /><path clip-path="url(#clip910)" d="M510.326 210.133 L526.645 210.133 L526.645 214.069 L504.701 214.069 L504.701 210.133 Q507.363 207.379 511.946 202.749 Q516.553 198.096 517.733 196.754 Q519.978 194.231 520.858 192.495 Q521.761 190.735 521.761 189.046 Q521.761 186.291 519.816 184.555 Q517.895 182.819 514.793 182.819 Q512.594 182.819 510.141 183.583 Q507.71 184.347 504.932 185.897 L504.932 181.175 Q507.756 180.041 510.21 179.462 Q512.664 178.884 514.701 178.884 Q520.071 178.884 523.265 181.569 Q526.46 184.254 526.46 188.745 Q526.46 190.874 525.65 192.796 Q524.863 194.694 522.756 197.286 Q522.177 197.958 519.076 201.175 Q515.974 204.37 510.326 210.133 Z" fill="#000000" fill-rule="nonzero" fill-opacity="1" /><path clip-path="url(#clip910)" d="M545.812 178.05 L545.812 220.319 L535.997 220.319 L535.997 217.008 L541.529 217.008 L541.529 181.36 L535.997 181.36 L535.997 178.05 L545.812 178.05 Z" fill="#000000" fill-rule="nonzero" fill-opacity="1" /></svg>
