<?xml version="1.0" encoding="utf-8"?>
<svg xmlns="http://www.w3.org/2000/svg" xmlns:xlink="http://www.w3.org/1999/xlink" width="600" height="400" viewBox="0 0 2400 1600">
<defs>
  <clipPath id="clip030">
    <rect x="0" y="0" width="2400" height="1600"/>
  </clipPath>
</defs>
<path clip-path="url(#clip030)" d="M0 1600 L2400 1600 L2400 0 L0 0  Z" fill="#ffffff" fill-rule="evenodd" fill-opacity="1"/>
<defs>
  <clipPath id="clip031">
    <rect x="480" y="0" width="1681" height="1600"/>
  </clipPath>
</defs>
<path clip-path="url(#clip030)" d="M156.112 1423.18 L2352.76 1423.18 L2352.76 47.2441 L156.112 47.2441  Z" fill="#ffffff" fill-rule="evenodd" fill-opacity="1"/>
<defs>
  <clipPath id="clip032">
    <rect x="156" y="47" width="2198" height="1377"/>
  </clipPath>
</defs>
<polyline clip-path="url(#clip032)" style="stroke:#000000; stroke-linecap:round; stroke-linejoin:round; stroke-width:2; stroke-opacity:0.1; fill:none" points="156.112,1423.18 156.112,47.2441 "/>
<polyline clip-path="url(#clip032)" style="stroke:#000000; stroke-linecap:round; stroke-linejoin:round; stroke-width:2; stroke-opacity:0.1; fill:none" points="595.441,1423.18 595.441,47.2441 "/>
<polyline clip-path="url(#clip032)" style="stroke:#000000; stroke-linecap:round; stroke-linejoin:round; stroke-width:2; stroke-opacity:0.1; fill:none" points="1034.77,1423.18 1034.77,47.2441 "/>
<polyline clip-path="url(#clip032)" style="stroke:#000000; stroke-linecap:round; stroke-linejoin:round; stroke-width:2; stroke-opacity:0.1; fill:none" points="1474.1,1423.18 1474.1,47.2441 "/>
<polyline clip-path="url(#clip032)" style="stroke:#000000; stroke-linecap:round; stroke-linejoin:round; stroke-width:2; stroke-opacity:0.1; fill:none" points="1913.43,1423.18 1913.43,47.2441 "/>
<polyline clip-path="url(#clip032)" style="stroke:#000000; stroke-linecap:round; stroke-linejoin:round; stroke-width:2; stroke-opacity:0.1; fill:none" points="2352.76,1423.18 2352.76,47.2441 "/>
<polyline clip-path="url(#clip030)" style="stroke:#000000; stroke-linecap:round; stroke-linejoin:round; stroke-width:4; stroke-opacity:1; fill:none" points="156.112,1423.18 2352.76,1423.18 "/>
<polyline clip-path="url(#clip030)" style="stroke:#000000; stroke-linecap:round; stroke-linejoin:round; stroke-width:4; stroke-opacity:1; fill:none" points="156.112,1423.18 156.112,1404.28 "/>
<polyline clip-path="url(#clip030)" style="stroke:#000000; stroke-linecap:round; stroke-linejoin:round; stroke-width:4; stroke-opacity:1; fill:none" points="595.441,1423.18 595.441,1404.28 "/>
<polyline clip-path="url(#clip030)" style="stroke:#000000; stroke-linecap:round; stroke-linejoin:round; stroke-width:4; stroke-opacity:1; fill:none" points="1034.77,1423.18 1034.77,1404.28 "/>
<polyline clip-path="url(#clip030)" style="stroke:#000000; stroke-linecap:round; stroke-linejoin:round; stroke-width:4; stroke-opacity:1; fill:none" points="1474.1,1423.18 1474.1,1404.28 "/>
<polyline clip-path="url(#clip030)" style="stroke:#000000; stroke-linecap:round; stroke-linejoin:round; stroke-width:4; stroke-opacity:1; fill:none" points="1913.43,1423.18 1913.43,1404.28 "/>
<polyline clip-path="url(#clip030)" style="stroke:#000000; stroke-linecap:round; stroke-linejoin:round; stroke-width:4; stroke-opacity:1; fill:none" points="2352.76,1423.18 2352.76,1404.28 "/>
<path clip-path="url(#clip030)" d="M133.497 1454.1 Q129.885 1454.1 128.057 1457.66 Q126.251 1461.2 126.251 1468.33 Q126.251 1475.44 128.057 1479.01 Q129.885 1482.55 133.497 1482.55 Q137.131 1482.55 138.936 1479.01 Q140.765 1475.44 140.765 1468.33 Q140.765 1461.2 138.936 1457.66 Q137.131 1454.1 133.497 1454.1 M133.497 1450.39 Q139.307 1450.39 142.362 1455 Q145.441 1459.58 145.441 1468.33 Q145.441 1477.06 142.362 1481.67 Q139.307 1486.25 133.497 1486.25 Q127.686 1486.25 124.608 1481.67 Q121.552 1477.06 121.552 1468.33 Q121.552 1459.58 124.608 1455 Q127.686 1450.39 133.497 1450.39 Z" fill="#000000" fill-rule="nonzero" fill-opacity="1" /><path clip-path="url(#clip030)" d="M153.658 1479.7 L158.543 1479.7 L158.543 1485.58 L153.658 1485.58 L153.658 1479.7 Z" fill="#000000" fill-rule="nonzero" fill-opacity="1" /><path clip-path="url(#clip030)" d="M178.728 1454.1 Q175.117 1454.1 173.288 1457.66 Q171.482 1461.2 171.482 1468.33 Q171.482 1475.44 173.288 1479.01 Q175.117 1482.55 178.728 1482.55 Q182.362 1482.55 184.168 1479.01 Q185.996 1475.44 185.996 1468.33 Q185.996 1461.2 184.168 1457.66 Q182.362 1454.1 178.728 1454.1 M178.728 1450.39 Q184.538 1450.39 187.593 1455 Q190.672 1459.58 190.672 1468.33 Q190.672 1477.06 187.593 1481.67 Q184.538 1486.25 178.728 1486.25 Q172.918 1486.25 169.839 1481.67 Q166.783 1477.06 166.783 1468.33 Q166.783 1459.58 169.839 1455 Q172.918 1450.39 178.728 1450.39 Z" fill="#000000" fill-rule="nonzero" fill-opacity="1" /><path clip-path="url(#clip030)" d="M573.624 1454.1 Q570.013 1454.1 568.184 1457.66 Q566.379 1461.2 566.379 1468.33 Q566.379 1475.44 568.184 1479.01 Q570.013 1482.55 573.624 1482.55 Q577.258 1482.55 579.064 1479.01 Q580.892 1475.44 580.892 1468.33 Q580.892 1461.2 579.064 1457.66 Q577.258 1454.1 573.624 1454.1 M573.624 1450.39 Q579.434 1450.39 582.49 1455 Q585.568 1459.58 585.568 1468.33 Q585.568 1477.06 582.49 1481.67 Q579.434 1486.25 573.624 1486.25 Q567.814 1486.25 564.735 1481.67 Q561.679 1477.06 561.679 1468.33 Q561.679 1459.58 564.735 1455 Q567.814 1450.39 573.624 1450.39 Z" fill="#000000" fill-rule="nonzero" fill-opacity="1" /><path clip-path="url(#clip030)" d="M593.786 1479.7 L598.67 1479.7 L598.67 1485.58 L593.786 1485.58 L593.786 1479.7 Z" fill="#000000" fill-rule="nonzero" fill-opacity="1" /><path clip-path="url(#clip030)" d="M612.883 1481.64 L629.202 1481.64 L629.202 1485.58 L607.258 1485.58 L607.258 1481.64 Q609.92 1478.89 614.503 1474.26 Q619.11 1469.61 620.29 1468.27 Q622.536 1465.74 623.415 1464.01 Q624.318 1462.25 624.318 1460.56 Q624.318 1457.8 622.374 1456.07 Q620.452 1454.33 617.35 1454.33 Q615.151 1454.33 612.698 1455.09 Q610.267 1455.86 607.489 1457.41 L607.489 1452.69 Q610.313 1451.55 612.767 1450.97 Q615.221 1450.39 617.258 1450.39 Q622.628 1450.39 625.823 1453.08 Q629.017 1455.77 629.017 1460.26 Q629.017 1462.39 628.207 1464.31 Q627.42 1466.2 625.313 1468.8 Q624.735 1469.47 621.633 1472.69 Q618.531 1475.88 612.883 1481.64 Z" fill="#000000" fill-rule="nonzero" fill-opacity="1" /><path clip-path="url(#clip030)" d="M1011.91 1454.1 Q1008.3 1454.1 1006.47 1457.66 Q1004.67 1461.2 1004.67 1468.33 Q1004.67 1475.44 1006.47 1479.01 Q1008.3 1482.55 1011.91 1482.55 Q1015.55 1482.55 1017.35 1479.01 Q1019.18 1475.44 1019.18 1468.33 Q1019.18 1461.2 1017.35 1457.66 Q1015.55 1454.1 1011.91 1454.1 M1011.91 1450.39 Q1017.72 1450.39 1020.78 1455 Q1023.86 1459.58 1023.86 1468.33 Q1023.86 1477.06 1020.78 1481.67 Q1017.72 1486.25 1011.91 1486.25 Q1006.1 1486.25 1003.02 1481.67 Q999.967 1477.06 999.967 1468.33 Q999.967 1459.58 1003.02 1455 Q1006.1 1450.39 1011.91 1450.39 Z" fill="#000000" fill-rule="nonzero" fill-opacity="1" /><path clip-path="url(#clip030)" d="M1032.07 1479.7 L1036.96 1479.7 L1036.96 1485.58 L1032.07 1485.58 L1032.07 1479.7 Z" fill="#000000" fill-rule="nonzero" fill-opacity="1" /><path clip-path="url(#clip030)" d="M1059.99 1455.09 L1048.18 1473.54 L1059.99 1473.54 L1059.99 1455.09 M1058.76 1451.02 L1064.64 1451.02 L1064.64 1473.54 L1069.57 1473.54 L1069.57 1477.43 L1064.64 1477.43 L1064.64 1485.58 L1059.99 1485.58 L1059.99 1477.43 L1044.39 1477.43 L1044.39 1472.92 L1058.76 1451.02 Z" fill="#000000" fill-rule="nonzero" fill-opacity="1" /><path clip-path="url(#clip030)" d="M1451.4 1454.1 Q1447.79 1454.1 1445.96 1457.66 Q1444.16 1461.2 1444.16 1468.33 Q1444.16 1475.44 1445.96 1479.01 Q1447.79 1482.55 1451.4 1482.55 Q1455.04 1482.55 1456.84 1479.01 Q1458.67 1475.44 1458.67 1468.33 Q1458.67 1461.2 1456.84 1457.66 Q1455.04 1454.1 1451.4 1454.1 M1451.4 1450.39 Q1457.21 1450.39 1460.27 1455 Q1463.35 1459.58 1463.35 1468.33 Q1463.35 1477.06 1460.27 1481.67 Q1457.21 1486.25 1451.4 1486.25 Q1445.59 1486.25 1442.51 1481.67 Q1439.46 1477.06 1439.46 1468.33 Q1439.46 1459.58 1442.51 1455 Q1445.59 1450.39 1451.4 1450.39 Z" fill="#000000" fill-rule="nonzero" fill-opacity="1" /><path clip-path="url(#clip030)" d="M1471.56 1479.7 L1476.45 1479.7 L1476.45 1485.58 L1471.56 1485.58 L1471.56 1479.7 Z" fill="#000000" fill-rule="nonzero" fill-opacity="1" /><path clip-path="url(#clip030)" d="M1497.21 1466.44 Q1494.06 1466.44 1492.21 1468.59 Q1490.38 1470.74 1490.38 1474.49 Q1490.38 1478.22 1492.21 1480.39 Q1494.06 1482.55 1497.21 1482.55 Q1500.36 1482.55 1502.19 1480.39 Q1504.04 1478.22 1504.04 1474.49 Q1504.04 1470.74 1502.19 1468.59 Q1500.36 1466.44 1497.21 1466.44 M1506.49 1451.78 L1506.49 1456.04 Q1504.73 1455.21 1502.93 1454.77 Q1501.15 1454.33 1499.39 1454.33 Q1494.76 1454.33 1492.3 1457.45 Q1489.87 1460.58 1489.53 1466.9 Q1490.89 1464.89 1492.95 1463.82 Q1495.01 1462.73 1497.49 1462.73 Q1502.7 1462.73 1505.71 1465.9 Q1508.74 1469.05 1508.74 1474.49 Q1508.74 1479.82 1505.59 1483.03 Q1502.44 1486.25 1497.21 1486.25 Q1491.22 1486.25 1488.05 1481.67 Q1484.87 1477.06 1484.87 1468.33 Q1484.87 1460.14 1488.76 1455.28 Q1492.65 1450.39 1499.2 1450.39 Q1500.96 1450.39 1502.74 1450.74 Q1504.55 1451.09 1506.49 1451.78 Z" fill="#000000" fill-rule="nonzero" fill-opacity="1" /><path clip-path="url(#clip030)" d="M1890.86 1454.1 Q1887.25 1454.1 1885.42 1457.66 Q1883.61 1461.2 1883.61 1468.33 Q1883.61 1475.44 1885.42 1479.01 Q1887.25 1482.55 1890.86 1482.55 Q1894.49 1482.55 1896.3 1479.01 Q1898.13 1475.44 1898.13 1468.33 Q1898.13 1461.2 1896.3 1457.66 Q1894.49 1454.1 1890.86 1454.1 M1890.86 1450.39 Q1896.67 1450.39 1899.72 1455 Q1902.8 1459.58 1902.8 1468.33 Q1902.8 1477.06 1899.72 1481.67 Q1896.67 1486.25 1890.86 1486.25 Q1885.05 1486.25 1881.97 1481.67 Q1878.91 1477.06 1878.91 1468.33 Q1878.91 1459.58 1881.97 1455 Q1885.05 1450.39 1890.86 1450.39 Z" fill="#000000" fill-rule="nonzero" fill-opacity="1" /><path clip-path="url(#clip030)" d="M1911.02 1479.7 L1915.9 1479.7 L1915.9 1485.58 L1911.02 1485.58 L1911.02 1479.7 Z" fill="#000000" fill-rule="nonzero" fill-opacity="1" /><path clip-path="url(#clip030)" d="M1936.09 1469.17 Q1932.76 1469.17 1930.83 1470.95 Q1928.94 1472.73 1928.94 1475.86 Q1928.94 1478.98 1930.83 1480.77 Q1932.76 1482.55 1936.09 1482.55 Q1939.42 1482.55 1941.34 1480.77 Q1943.26 1478.96 1943.26 1475.86 Q1943.26 1472.73 1941.34 1470.95 Q1939.45 1469.17 1936.09 1469.17 M1931.41 1467.18 Q1928.4 1466.44 1926.71 1464.38 Q1925.05 1462.32 1925.05 1459.35 Q1925.05 1455.21 1927.99 1452.8 Q1930.95 1450.39 1936.09 1450.39 Q1941.25 1450.39 1944.19 1452.8 Q1947.13 1455.21 1947.13 1459.35 Q1947.13 1462.32 1945.44 1464.38 Q1943.77 1466.44 1940.79 1467.18 Q1944.17 1467.96 1946.04 1470.26 Q1947.94 1472.55 1947.94 1475.86 Q1947.94 1480.88 1944.86 1483.57 Q1941.81 1486.25 1936.09 1486.25 Q1930.37 1486.25 1927.29 1483.57 Q1924.24 1480.88 1924.24 1475.86 Q1924.24 1472.55 1926.14 1470.26 Q1928.03 1467.96 1931.41 1467.18 M1929.7 1459.79 Q1929.7 1462.48 1931.37 1463.98 Q1933.06 1465.49 1936.09 1465.49 Q1939.1 1465.49 1940.79 1463.98 Q1942.5 1462.48 1942.5 1459.79 Q1942.5 1457.11 1940.79 1455.6 Q1939.1 1454.1 1936.09 1454.1 Q1933.06 1454.1 1931.37 1455.6 Q1929.7 1457.11 1929.7 1459.79 Z" fill="#000000" fill-rule="nonzero" fill-opacity="1" /><path clip-path="url(#clip030)" d="M2319.91 1481.64 L2327.55 1481.64 L2327.55 1455.28 L2319.24 1456.95 L2319.24 1452.69 L2327.5 1451.02 L2332.18 1451.02 L2332.18 1481.64 L2339.82 1481.64 L2339.82 1485.58 L2319.91 1485.58 L2319.91 1481.64 Z" fill="#000000" fill-rule="nonzero" fill-opacity="1" /><path clip-path="url(#clip030)" d="M2349.26 1479.7 L2354.14 1479.7 L2354.14 1485.58 L2349.26 1485.58 L2349.26 1479.7 Z" fill="#000000" fill-rule="nonzero" fill-opacity="1" /><path clip-path="url(#clip030)" d="M2374.33 1454.1 Q2370.72 1454.1 2368.89 1457.66 Q2367.08 1461.2 2367.08 1468.33 Q2367.08 1475.44 2368.89 1479.01 Q2370.72 1482.55 2374.33 1482.55 Q2377.96 1482.55 2379.77 1479.01 Q2381.6 1475.44 2381.6 1468.33 Q2381.6 1461.2 2379.77 1457.66 Q2377.96 1454.1 2374.33 1454.1 M2374.33 1450.39 Q2380.14 1450.39 2383.2 1455 Q2386.27 1459.58 2386.27 1468.33 Q2386.27 1477.06 2383.2 1481.67 Q2380.14 1486.25 2374.33 1486.25 Q2368.52 1486.25 2365.44 1481.67 Q2362.39 1477.06 2362.39 1468.33 Q2362.39 1459.58 2365.44 1455 Q2368.52 1450.39 2374.33 1450.39 Z" fill="#000000" fill-rule="nonzero" fill-opacity="1" /><path clip-path="url(#clip030)" d="M1253.5 1522.27 L1253.5 1532.4 L1265.56 1532.4 L1265.56 1536.95 L1253.5 1536.95 L1253.5 1556.3 Q1253.5 1560.66 1254.67 1561.9 Q1255.88 1563.14 1259.54 1563.14 L1265.56 1563.14 L1265.56 1568.04 L1259.54 1568.04 Q1252.76 1568.04 1250.18 1565.53 Q1247.61 1562.98 1247.61 1556.3 L1247.61 1536.95 L1243.31 1536.95 L1243.31 1532.4 L1247.61 1532.4 L1247.61 1522.27 L1253.5 1522.27 Z" fill="#000000" fill-rule="nonzero" fill-opacity="1" /><polyline clip-path="url(#clip032)" style="stroke:#000000; stroke-linecap:round; stroke-linejoin:round; stroke-width:2; stroke-opacity:0.1; fill:none" points="156.112,1391.35 2352.76,1391.35 "/>
<polyline clip-path="url(#clip032)" style="stroke:#000000; stroke-linecap:round; stroke-linejoin:round; stroke-width:2; stroke-opacity:0.1; fill:none" points="156.112,995.195 2352.76,995.195 "/>
<polyline clip-path="url(#clip032)" style="stroke:#000000; stroke-linecap:round; stroke-linejoin:round; stroke-width:2; stroke-opacity:0.1; fill:none" points="156.112,599.041 2352.76,599.041 "/>
<polyline clip-path="url(#clip032)" style="stroke:#000000; stroke-linecap:round; stroke-linejoin:round; stroke-width:2; stroke-opacity:0.1; fill:none" points="156.112,202.887 2352.76,202.887 "/>
<polyline clip-path="url(#clip030)" style="stroke:#000000; stroke-linecap:round; stroke-linejoin:round; stroke-width:4; stroke-opacity:1; fill:none" points="156.112,1423.18 156.112,47.2441 "/>
<polyline clip-path="url(#clip030)" style="stroke:#000000; stroke-linecap:round; stroke-linejoin:round; stroke-width:4; stroke-opacity:1; fill:none" points="156.112,1391.35 175.01,1391.35 "/>
<polyline clip-path="url(#clip030)" style="stroke:#000000; stroke-linecap:round; stroke-linejoin:round; stroke-width:4; stroke-opacity:1; fill:none" points="156.112,995.195 175.01,995.195 "/>
<polyline clip-path="url(#clip030)" style="stroke:#000000; stroke-linecap:round; stroke-linejoin:round; stroke-width:4; stroke-opacity:1; fill:none" points="156.112,599.041 175.01,599.041 "/>
<polyline clip-path="url(#clip030)" style="stroke:#000000; stroke-linecap:round; stroke-linejoin:round; stroke-width:4; stroke-opacity:1; fill:none" points="156.112,202.887 175.01,202.887 "/>
<path clip-path="url(#clip030)" d="M62.9365 1377.15 Q59.3254 1377.15 57.4967 1380.71 Q55.6912 1384.25 55.6912 1391.38 Q55.6912 1398.49 57.4967 1402.06 Q59.3254 1405.6 62.9365 1405.6 Q66.5707 1405.6 68.3763 1402.06 Q70.205 1398.49 70.205 1391.38 Q70.205 1384.25 68.3763 1380.71 Q66.5707 1377.15 62.9365 1377.15 M62.9365 1373.44 Q68.7467 1373.44 71.8022 1378.05 Q74.8809 1382.63 74.8809 1391.38 Q74.8809 1400.11 71.8022 1404.72 Q68.7467 1409.3 62.9365 1409.3 Q57.1264 1409.3 54.0477 1404.72 Q50.9921 1400.11 50.9921 1391.38 Q50.9921 1382.63 54.0477 1378.05 Q57.1264 1373.44 62.9365 1373.44 Z" fill="#000000" fill-rule="nonzero" fill-opacity="1" /><path clip-path="url(#clip030)" d="M83.0984 1402.75 L87.9827 1402.75 L87.9827 1408.63 L83.0984 1408.63 L83.0984 1402.75 Z" fill="#000000" fill-rule="nonzero" fill-opacity="1" /><path clip-path="url(#clip030)" d="M108.168 1377.15 Q104.557 1377.15 102.728 1380.71 Q100.922 1384.25 100.922 1391.38 Q100.922 1398.49 102.728 1402.06 Q104.557 1405.6 108.168 1405.6 Q111.802 1405.6 113.608 1402.06 Q115.436 1398.49 115.436 1391.38 Q115.436 1384.25 113.608 1380.71 Q111.802 1377.15 108.168 1377.15 M108.168 1373.44 Q113.978 1373.44 117.033 1378.05 Q120.112 1382.63 120.112 1391.38 Q120.112 1400.11 117.033 1404.72 Q113.978 1409.3 108.168 1409.3 Q102.358 1409.3 99.2789 1404.72 Q96.2234 1400.11 96.2234 1391.38 Q96.2234 1382.63 99.2789 1378.05 Q102.358 1373.44 108.168 1373.44 Z" fill="#000000" fill-rule="nonzero" fill-opacity="1" /><path clip-path="url(#clip030)" d="M64.1634 980.994 Q60.5523 980.994 58.7236 984.559 Q56.918 988.1 56.918 995.23 Q56.918 1002.34 58.7236 1005.9 Q60.5523 1009.44 64.1634 1009.44 Q67.7976 1009.44 69.6031 1005.9 Q71.4318 1002.34 71.4318 995.23 Q71.4318 988.1 69.6031 984.559 Q67.7976 980.994 64.1634 980.994 M64.1634 977.29 Q69.9735 977.29 73.029 981.897 Q76.1077 986.48 76.1077 995.23 Q76.1077 1003.96 73.029 1008.56 Q69.9735 1013.15 64.1634 1013.15 Q58.3532 1013.15 55.2745 1008.56 Q52.219 1003.96 52.219 995.23 Q52.219 986.48 55.2745 981.897 Q58.3532 977.29 64.1634 977.29 Z" fill="#000000" fill-rule="nonzero" fill-opacity="1" /><path clip-path="url(#clip030)" d="M84.3253 1006.6 L89.2095 1006.6 L89.2095 1012.48 L84.3253 1012.48 L84.3253 1006.6 Z" fill="#000000" fill-rule="nonzero" fill-opacity="1" /><path clip-path="url(#clip030)" d="M100.205 1008.54 L107.844 1008.54 L107.844 982.174 L99.5335 983.841 L99.5335 979.582 L107.797 977.915 L112.473 977.915 L112.473 1008.54 L120.112 1008.54 L120.112 1012.48 L100.205 1012.48 L100.205 1008.54 Z" fill="#000000" fill-rule="nonzero" fill-opacity="1" /><path clip-path="url(#clip030)" d="M64.5337 584.84 Q60.9226 584.84 59.0939 588.405 Q57.2884 591.946 57.2884 599.076 Q57.2884 606.182 59.0939 609.747 Q60.9226 613.289 64.5337 613.289 Q68.168 613.289 69.9735 609.747 Q71.8022 606.182 71.8022 599.076 Q71.8022 591.946 69.9735 588.405 Q68.168 584.84 64.5337 584.84 M64.5337 581.136 Q70.3439 581.136 73.3994 585.743 Q76.4781 590.326 76.4781 599.076 Q76.4781 607.803 73.3994 612.409 Q70.3439 616.993 64.5337 616.993 Q58.7236 616.993 55.6449 612.409 Q52.5893 607.803 52.5893 599.076 Q52.5893 590.326 55.6449 585.743 Q58.7236 581.136 64.5337 581.136 Z" fill="#000000" fill-rule="nonzero" fill-opacity="1" /><path clip-path="url(#clip030)" d="M84.6956 610.442 L89.5799 610.442 L89.5799 616.321 L84.6956 616.321 L84.6956 610.442 Z" fill="#000000" fill-rule="nonzero" fill-opacity="1" /><path clip-path="url(#clip030)" d="M103.793 612.386 L120.112 612.386 L120.112 616.321 L98.1678 616.321 L98.1678 612.386 Q100.83 609.632 105.413 605.002 Q110.02 600.349 111.2 599.007 Q113.445 596.483 114.325 594.747 Q115.228 592.988 115.228 591.298 Q115.228 588.544 113.283 586.808 Q111.362 585.071 108.26 585.071 Q106.061 585.071 103.608 585.835 Q101.177 586.599 98.3993 588.15 L98.3993 583.428 Q101.223 582.294 103.677 581.715 Q106.131 581.136 108.168 581.136 Q113.538 581.136 116.733 583.821 Q119.927 586.507 119.927 590.997 Q119.927 593.127 119.117 595.048 Q118.33 596.946 116.223 599.539 Q115.645 600.21 112.543 603.428 Q109.441 606.622 103.793 612.386 Z" fill="#000000" fill-rule="nonzero" fill-opacity="1" /><path clip-path="url(#clip030)" d="M63.5847 188.686 Q59.9736 188.686 58.1449 192.251 Q56.3393 195.793 56.3393 202.922 Q56.3393 210.029 58.1449 213.593 Q59.9736 217.135 63.5847 217.135 Q67.2189 217.135 69.0244 213.593 Q70.8531 210.029 70.8531 202.922 Q70.8531 195.793 69.0244 192.251 Q67.2189 188.686 63.5847 188.686 M63.5847 184.982 Q69.3948 184.982 72.4503 189.589 Q75.529 194.172 75.529 202.922 Q75.529 211.649 72.4503 216.255 Q69.3948 220.839 63.5847 220.839 Q57.7745 220.839 54.6958 216.255 Q51.6403 211.649 51.6403 202.922 Q51.6403 194.172 54.6958 189.589 Q57.7745 184.982 63.5847 184.982 Z" fill="#000000" fill-rule="nonzero" fill-opacity="1" /><path clip-path="url(#clip030)" d="M83.7466 214.288 L88.6308 214.288 L88.6308 220.167 L83.7466 220.167 L83.7466 214.288 Z" fill="#000000" fill-rule="nonzero" fill-opacity="1" /><path clip-path="url(#clip030)" d="M112.983 201.533 Q116.339 202.251 118.214 204.519 Q120.112 206.788 120.112 210.121 Q120.112 215.237 116.594 218.038 Q113.075 220.839 106.594 220.839 Q104.418 220.839 102.103 220.399 Q99.8113 219.982 97.3576 219.126 L97.3576 214.612 Q99.3021 215.746 101.617 216.325 Q103.932 216.904 106.455 216.904 Q110.853 216.904 113.145 215.167 Q115.459 213.431 115.459 210.121 Q115.459 207.066 113.307 205.353 Q111.177 203.617 107.358 203.617 L103.33 203.617 L103.33 199.774 L107.543 199.774 Q110.992 199.774 112.82 198.408 Q114.649 197.019 114.649 194.427 Q114.649 191.765 112.751 190.353 Q110.876 188.918 107.358 188.918 Q105.436 188.918 103.237 189.334 Q101.038 189.751 98.3993 190.631 L98.3993 186.464 Q101.061 185.723 103.376 185.353 Q105.714 184.982 107.774 184.982 Q113.098 184.982 116.2 187.413 Q119.302 189.82 119.302 193.941 Q119.302 196.811 117.658 198.802 Q116.015 200.769 112.983 201.533 Z" fill="#000000" fill-rule="nonzero" fill-opacity="1" /><polyline clip-path="url(#clip032)" style="stroke:#009af9; stroke-linecap:round; stroke-linejoin:round; stroke-width:4; stroke-opacity:1; fill:none" points="156.112,1384.24 178.079,1383.73 202.791,1383.74 230.592,1383.74 261.869,1383.89 297.054,1383.75 336.639,1383.44 381.171,1383.05 431.27,1382.8 487.631,1382.79 551.037,1382.65 622.369,1380.6 702.618,1380.76 792.898,1380.01 894.462,1379.83 1008.72,1380.62 1137.27,1380.06 1281.88,1379.55 1444.56,1373.97 1627.59,1373.84 1833.49,1370.2 2065.12,1368.41 2325.72,1363.41 2352.76,1363.27 "/>
<polyline clip-path="url(#clip032)" style="stroke:#e26f46; stroke-linecap:round; stroke-linejoin:round; stroke-width:4; stroke-opacity:1; fill:none" points="156.112,1060.8 178.079,1037.13 202.791,1037.74 230.592,1037.5 261.869,1044.74 297.054,1038.29 336.639,1023.75 381.171,1005.56 431.27,994.122 487.631,993.565 551.037,986.959 622.369,891.456 702.618,899.106 792.898,864.287 894.462,855.93 1008.72,892.445 1137.27,866.594 1281.88,842.765 1444.56,583.672 1627.59,577.196 1833.49,408.183 2065.12,324.856 2325.72,92.5995 2352.76,86.1857 "/>
<path clip-path="url(#clip030)" d="M229.334 248.629 L538.095 248.629 L538.095 93.1086 L229.334 93.1086  Z" fill="#ffffff" fill-rule="evenodd" fill-opacity="1"/>
<polyline clip-path="url(#clip030)" style="stroke:#000000; stroke-linecap:round; stroke-linejoin:round; stroke-width:4; stroke-opacity:1; fill:none" points="229.334,248.629 538.095,248.629 538.095,93.1086 229.334,93.1086 229.334,248.629 "/>
<polyline clip-path="url(#clip030)" style="stroke:#009af9; stroke-linecap:round; stroke-linejoin:round; stroke-width:4; stroke-opacity:1; fill:none" points="253.741,144.949 400.184,144.949 "/>
<path clip-path="url(#clip030)" d="M424.591 151.997 L424.591 136.303 L428.85 136.303 L428.85 151.835 Q428.85 155.516 430.285 157.368 Q431.72 159.196 434.591 159.196 Q438.04 159.196 440.031 156.997 Q442.044 154.798 442.044 151.002 L442.044 136.303 L446.304 136.303 L446.304 162.229 L442.044 162.229 L442.044 158.247 Q440.494 160.608 438.433 161.766 Q436.396 162.9 433.688 162.9 Q429.22 162.9 426.906 160.122 Q424.591 157.344 424.591 151.997 M435.308 135.678 L435.308 135.678 Z" fill="#000000" fill-rule="nonzero" fill-opacity="1" /><path clip-path="url(#clip030)" d="M454.683 126.21 L464.498 126.21 L464.498 129.52 L458.942 129.52 L458.942 165.168 L464.498 165.168 L464.498 168.479 L454.683 168.479 L454.683 126.21 Z" fill="#000000" fill-rule="nonzero" fill-opacity="1" /><path clip-path="url(#clip030)" d="M474.984 158.293 L482.623 158.293 L482.623 131.928 L474.313 133.595 L474.313 129.335 L482.577 127.669 L487.253 127.669 L487.253 158.293 L494.891 158.293 L494.891 162.229 L474.984 162.229 L474.984 158.293 Z" fill="#000000" fill-rule="nonzero" fill-opacity="1" /><path clip-path="url(#clip030)" d="M513.688 126.21 L513.688 168.479 L503.873 168.479 L503.873 165.168 L509.405 165.168 L509.405 129.52 L503.873 129.52 L503.873 126.21 L513.688 126.21 Z" fill="#000000" fill-rule="nonzero" fill-opacity="1" /><polyline clip-path="url(#clip030)" style="stroke:#e26f46; stroke-linecap:round; stroke-linejoin:round; stroke-width:4; stroke-opacity:1; fill:none" points="253.741,196.789 400.184,196.789 "/>
<path clip-path="url(#clip030)" d="M424.591 203.837 L424.591 188.143 L428.85 188.143 L428.85 203.675 Q428.85 207.356 430.285 209.208 Q431.72 211.036 434.591 211.036 Q438.04 211.036 440.031 208.837 Q442.044 206.638 442.044 202.842 L442.044 188.143 L446.304 188.143 L446.304 214.069 L442.044 214.069 L442.044 210.087 Q440.494 212.448 438.433 213.606 Q436.396 214.74 433.688 214.74 Q429.22 214.74 426.906 211.962 Q424.591 209.184 424.591 203.837 M435.308 187.518 L435.308 187.518 Z" fill="#000000" fill-rule="nonzero" fill-opacity="1" /><path clip-path="url(#clip030)" d="M454.683 178.05 L464.498 178.05 L464.498 181.36 L458.942 181.36 L458.942 217.008 L464.498 217.008 L464.498 220.319 L454.683 220.319 L454.683 178.05 Z" fill="#000000" fill-rule="nonzero" fill-opacity="1" /><path clip-path="url(#clip030)" d="M478.202 210.133 L494.521 210.133 L494.521 214.069 L472.577 214.069 L472.577 210.133 Q475.239 207.379 479.822 202.749 Q484.428 198.096 485.609 196.754 Q487.854 194.231 488.734 192.495 Q489.637 190.735 489.637 189.046 Q489.637 186.291 487.692 184.555 Q485.771 182.819 482.669 182.819 Q480.47 182.819 478.016 183.583 Q475.586 184.347 472.808 185.897 L472.808 181.175 Q475.632 180.041 478.086 179.462 Q480.54 178.884 482.577 178.884 Q487.947 178.884 491.141 181.569 Q494.336 184.254 494.336 188.745 Q494.336 190.874 493.526 192.796 Q492.739 194.694 490.632 197.286 Q490.053 197.958 486.952 201.175 Q483.85 204.37 478.202 210.133 Z" fill="#000000" fill-rule="nonzero" fill-opacity="1" /><path clip-path="url(#clip030)" d="M513.688 178.05 L513.688 220.319 L503.873 220.319 L503.873 217.008 L509.405 217.008 L509.405 181.36 L503.873 181.36 L503.873 178.05 L513.688 178.05 Z" fill="#000000" fill-rule="nonzero" fill-opacity="1" /></svg>
