<?xml version="1.0" encoding="utf-8"?>
<svg xmlns="http://www.w3.org/2000/svg" xmlns:xlink="http://www.w3.org/1999/xlink" width="600" height="400" viewBox="0 0 2400 1600">
<defs>
  <clipPath id="clip850">
    <rect x="0" y="0" width="2400" height="1600"/>
  </clipPath>
</defs>
<path clip-path="url(#clip850)" d="M0 1600 L2400 1600 L2400 0 L0 0  Z" fill="#ffffff" fill-rule="evenodd" fill-opacity="1"/>
<defs>
  <clipPath id="clip851">
    <rect x="480" y="0" width="1681" height="1600"/>
  </clipPath>
</defs>
<path clip-path="url(#clip850)" d="M194.422 1423.18 L2352.76 1423.18 L2352.76 47.2441 L194.422 47.2441  Z" fill="#ffffff" fill-rule="evenodd" fill-opacity="1"/>
<defs>
  <clipPath id="clip852">
    <rect x="194" y="47" width="2159" height="1377"/>
  </clipPath>
</defs>
<polyline clip-path="url(#clip852)" style="stroke:#000000; stroke-linecap:round; stroke-linejoin:round; stroke-width:2; stroke-opacity:0.1; fill:none" points="194.422,1423.18 194.422,47.2441 "/>
<polyline clip-path="url(#clip852)" style="stroke:#000000; stroke-linecap:round; stroke-linejoin:round; stroke-width:2; stroke-opacity:0.1; fill:none" points="626.089,1423.18 626.089,47.2441 "/>
<polyline clip-path="url(#clip852)" style="stroke:#000000; stroke-linecap:round; stroke-linejoin:round; stroke-width:2; stroke-opacity:0.1; fill:none" points="1057.76,1423.18 1057.76,47.2441 "/>
<polyline clip-path="url(#clip852)" style="stroke:#000000; stroke-linecap:round; stroke-linejoin:round; stroke-width:2; stroke-opacity:0.1; fill:none" points="1489.42,1423.18 1489.42,47.2441 "/>
<polyline clip-path="url(#clip852)" style="stroke:#000000; stroke-linecap:round; stroke-linejoin:round; stroke-width:2; stroke-opacity:0.1; fill:none" points="1921.09,1423.18 1921.09,47.2441 "/>
<polyline clip-path="url(#clip852)" style="stroke:#000000; stroke-linecap:round; stroke-linejoin:round; stroke-width:2; stroke-opacity:0.1; fill:none" points="2352.76,1423.18 2352.76,47.2441 "/>
<polyline clip-path="url(#clip850)" style="stroke:#000000; stroke-linecap:round; stroke-linejoin:round; stroke-width:4; stroke-opacity:1; fill:none" points="194.422,1423.18 2352.76,1423.18 "/>
<polyline clip-path="url(#clip850)" style="stroke:#000000; stroke-linecap:round; stroke-linejoin:round; stroke-width:4; stroke-opacity:1; fill:none" points="194.422,1423.18 194.422,1404.28 "/>
<polyline clip-path="url(#clip850)" style="stroke:#000000; stroke-linecap:round; stroke-linejoin:round; stroke-width:4; stroke-opacity:1; fill:none" points="626.089,1423.18 626.089,1404.28 "/>
<polyline clip-path="url(#clip850)" style="stroke:#000000; stroke-linecap:round; stroke-linejoin:round; stroke-width:4; stroke-opacity:1; fill:none" points="1057.76,1423.18 1057.76,1404.28 "/>
<polyline clip-path="url(#clip850)" style="stroke:#000000; stroke-linecap:round; stroke-linejoin:round; stroke-width:4; stroke-opacity:1; fill:none" points="1489.42,1423.18 1489.42,1404.28 "/>
<polyline clip-path="url(#clip850)" style="stroke:#000000; stroke-linecap:round; stroke-linejoin:round; stroke-width:4; stroke-opacity:1; fill:none" points="1921.09,1423.18 1921.09,1404.28 "/>
<polyline clip-path="url(#clip850)" style="stroke:#000000; stroke-linecap:round; stroke-linejoin:round; stroke-width:4; stroke-opacity:1; fill:none" points="2352.76,1423.18 2352.76,1404.28 "/>
<path clip-path="url(#clip850)" d="M171.806 1454.1 Q168.195 1454.1 166.367 1457.66 Q164.561 1461.2 164.561 1468.33 Q164.561 1475.44 166.367 1479.01 Q168.195 1482.55 171.806 1482.55 Q175.441 1482.55 177.246 1479.01 Q179.075 1475.44 179.075 1468.33 Q179.075 1461.2 177.246 1457.66 Q175.441 1454.1 171.806 1454.1 M171.806 1450.39 Q177.617 1450.39 180.672 1455 Q183.751 1459.58 183.751 1468.33 Q183.751 1477.06 180.672 1481.67 Q177.617 1486.25 171.806 1486.25 Q165.996 1486.25 162.918 1481.67 Q159.862 1477.06 159.862 1468.33 Q159.862 1459.58 162.918 1455 Q165.996 1450.39 171.806 1450.39 Z" fill="#000000" fill-rule="nonzero" fill-opacity="1" /><path clip-path="url(#clip850)" d="M191.968 1479.7 L196.853 1479.7 L196.853 1485.58 L191.968 1485.58 L191.968 1479.7 Z" fill="#000000" fill-rule="nonzero" fill-opacity="1" /><path clip-path="url(#clip850)" d="M217.038 1454.1 Q213.427 1454.1 211.598 1457.66 Q209.792 1461.2 209.792 1468.33 Q209.792 1475.44 211.598 1479.01 Q213.427 1482.55 217.038 1482.55 Q220.672 1482.55 222.478 1479.01 Q224.306 1475.44 224.306 1468.33 Q224.306 1461.2 222.478 1457.66 Q220.672 1454.1 217.038 1454.1 M217.038 1450.39 Q222.848 1450.39 225.903 1455 Q228.982 1459.58 228.982 1468.33 Q228.982 1477.06 225.903 1481.67 Q222.848 1486.25 217.038 1486.25 Q211.228 1486.25 208.149 1481.67 Q205.093 1477.06 205.093 1468.33 Q205.093 1459.58 208.149 1455 Q211.228 1450.39 217.038 1450.39 Z" fill="#000000" fill-rule="nonzero" fill-opacity="1" /><path clip-path="url(#clip850)" d="M604.272 1454.1 Q600.661 1454.1 598.832 1457.66 Q597.027 1461.2 597.027 1468.33 Q597.027 1475.44 598.832 1479.01 Q600.661 1482.55 604.272 1482.55 Q607.906 1482.55 609.712 1479.01 Q611.54 1475.44 611.54 1468.33 Q611.54 1461.2 609.712 1457.66 Q607.906 1454.1 604.272 1454.1 M604.272 1450.39 Q610.082 1450.39 613.138 1455 Q616.216 1459.58 616.216 1468.33 Q616.216 1477.06 613.138 1481.67 Q610.082 1486.25 604.272 1486.25 Q598.462 1486.25 595.383 1481.67 Q592.327 1477.06 592.327 1468.33 Q592.327 1459.58 595.383 1455 Q598.462 1450.39 604.272 1450.39 Z" fill="#000000" fill-rule="nonzero" fill-opacity="1" /><path clip-path="url(#clip850)" d="M624.434 1479.7 L629.318 1479.7 L629.318 1485.58 L624.434 1485.58 L624.434 1479.7 Z" fill="#000000" fill-rule="nonzero" fill-opacity="1" /><path clip-path="url(#clip850)" d="M643.531 1481.64 L659.85 1481.64 L659.85 1485.58 L637.906 1485.58 L637.906 1481.64 Q640.568 1478.89 645.151 1474.26 Q649.758 1469.61 650.938 1468.27 Q653.184 1465.74 654.063 1464.01 Q654.966 1462.25 654.966 1460.56 Q654.966 1457.8 653.022 1456.07 Q651.1 1454.33 647.998 1454.33 Q645.799 1454.33 643.346 1455.09 Q640.915 1455.86 638.137 1457.41 L638.137 1452.69 Q640.961 1451.55 643.415 1450.97 Q645.869 1450.39 647.906 1450.39 Q653.276 1450.39 656.471 1453.08 Q659.665 1455.77 659.665 1460.26 Q659.665 1462.39 658.855 1464.31 Q658.068 1466.2 655.961 1468.8 Q655.383 1469.47 652.281 1472.69 Q649.179 1475.88 643.531 1481.64 Z" fill="#000000" fill-rule="nonzero" fill-opacity="1" /><path clip-path="url(#clip850)" d="M1034.9 1454.1 Q1031.29 1454.1 1029.46 1457.66 Q1027.65 1461.2 1027.65 1468.33 Q1027.65 1475.44 1029.46 1479.01 Q1031.29 1482.55 1034.9 1482.55 Q1038.53 1482.55 1040.34 1479.01 Q1042.17 1475.44 1042.17 1468.33 Q1042.17 1461.2 1040.34 1457.66 Q1038.53 1454.1 1034.9 1454.1 M1034.9 1450.39 Q1040.71 1450.39 1043.76 1455 Q1046.84 1459.58 1046.84 1468.33 Q1046.84 1477.06 1043.76 1481.67 Q1040.71 1486.25 1034.9 1486.25 Q1029.09 1486.25 1026.01 1481.67 Q1022.95 1477.06 1022.95 1468.33 Q1022.95 1459.58 1026.01 1455 Q1029.09 1450.39 1034.9 1450.39 Z" fill="#000000" fill-rule="nonzero" fill-opacity="1" /><path clip-path="url(#clip850)" d="M1055.06 1479.7 L1059.94 1479.7 L1059.94 1485.58 L1055.06 1485.58 L1055.06 1479.7 Z" fill="#000000" fill-rule="nonzero" fill-opacity="1" /><path clip-path="url(#clip850)" d="M1082.98 1455.09 L1071.17 1473.54 L1082.98 1473.54 L1082.98 1455.09 M1081.75 1451.02 L1087.63 1451.02 L1087.63 1473.54 L1092.56 1473.54 L1092.56 1477.43 L1087.63 1477.43 L1087.63 1485.58 L1082.98 1485.58 L1082.98 1477.43 L1067.37 1477.43 L1067.37 1472.92 L1081.75 1451.02 Z" fill="#000000" fill-rule="nonzero" fill-opacity="1" /><path clip-path="url(#clip850)" d="M1466.73 1454.1 Q1463.11 1454.1 1461.29 1457.66 Q1459.48 1461.2 1459.48 1468.33 Q1459.48 1475.44 1461.29 1479.01 Q1463.11 1482.55 1466.73 1482.55 Q1470.36 1482.55 1472.17 1479.01 Q1473.99 1475.44 1473.99 1468.33 Q1473.99 1461.2 1472.17 1457.66 Q1470.36 1454.1 1466.73 1454.1 M1466.73 1450.39 Q1472.54 1450.39 1475.59 1455 Q1478.67 1459.58 1478.67 1468.33 Q1478.67 1477.06 1475.59 1481.67 Q1472.54 1486.25 1466.73 1486.25 Q1460.92 1486.25 1457.84 1481.67 Q1454.78 1477.06 1454.78 1468.33 Q1454.78 1459.58 1457.84 1455 Q1460.92 1450.39 1466.73 1450.39 Z" fill="#000000" fill-rule="nonzero" fill-opacity="1" /><path clip-path="url(#clip850)" d="M1486.89 1479.7 L1491.77 1479.7 L1491.77 1485.58 L1486.89 1485.58 L1486.89 1479.7 Z" fill="#000000" fill-rule="nonzero" fill-opacity="1" /><path clip-path="url(#clip850)" d="M1512.54 1466.44 Q1509.39 1466.44 1507.54 1468.59 Q1505.71 1470.74 1505.71 1474.49 Q1505.71 1478.22 1507.54 1480.39 Q1509.39 1482.55 1512.54 1482.55 Q1515.68 1482.55 1517.51 1480.39 Q1519.36 1478.22 1519.36 1474.49 Q1519.36 1470.74 1517.51 1468.59 Q1515.68 1466.44 1512.54 1466.44 M1521.82 1451.78 L1521.82 1456.04 Q1520.06 1455.21 1518.25 1454.77 Q1516.47 1454.33 1514.71 1454.33 Q1510.08 1454.33 1507.63 1457.45 Q1505.2 1460.58 1504.85 1466.9 Q1506.22 1464.89 1508.28 1463.82 Q1510.34 1462.73 1512.81 1462.73 Q1518.02 1462.73 1521.03 1465.9 Q1524.06 1469.05 1524.06 1474.49 Q1524.06 1479.82 1520.92 1483.03 Q1517.77 1486.25 1512.54 1486.25 Q1506.54 1486.25 1503.37 1481.67 Q1500.2 1477.06 1500.2 1468.33 Q1500.2 1460.14 1504.09 1455.28 Q1507.98 1450.39 1514.53 1450.39 Q1516.29 1450.39 1518.07 1450.74 Q1519.87 1451.09 1521.82 1451.78 Z" fill="#000000" fill-rule="nonzero" fill-opacity="1" /><path clip-path="url(#clip850)" d="M1898.52 1454.1 Q1894.91 1454.1 1893.08 1457.66 Q1891.27 1461.2 1891.27 1468.33 Q1891.27 1475.44 1893.08 1479.01 Q1894.91 1482.55 1898.52 1482.55 Q1902.15 1482.55 1903.96 1479.01 Q1905.79 1475.44 1905.79 1468.33 Q1905.79 1461.2 1903.96 1457.66 Q1902.15 1454.1 1898.52 1454.1 M1898.52 1450.39 Q1904.33 1450.39 1907.39 1455 Q1910.46 1459.58 1910.46 1468.33 Q1910.46 1477.06 1907.39 1481.67 Q1904.33 1486.25 1898.52 1486.25 Q1892.71 1486.25 1889.63 1481.67 Q1886.58 1477.06 1886.58 1468.33 Q1886.58 1459.58 1889.63 1455 Q1892.71 1450.39 1898.52 1450.39 Z" fill="#000000" fill-rule="nonzero" fill-opacity="1" /><path clip-path="url(#clip850)" d="M1918.68 1479.7 L1923.57 1479.7 L1923.57 1485.58 L1918.68 1485.58 L1918.68 1479.7 Z" fill="#000000" fill-rule="nonzero" fill-opacity="1" /><path clip-path="url(#clip850)" d="M1943.75 1469.17 Q1940.42 1469.17 1938.5 1470.95 Q1936.6 1472.73 1936.6 1475.86 Q1936.6 1478.98 1938.5 1480.77 Q1940.42 1482.55 1943.75 1482.55 Q1947.08 1482.55 1949.01 1480.77 Q1950.93 1478.96 1950.93 1475.86 Q1950.93 1472.73 1949.01 1470.95 Q1947.11 1469.17 1943.75 1469.17 M1939.08 1467.18 Q1936.07 1466.44 1934.38 1464.38 Q1932.71 1462.32 1932.71 1459.35 Q1932.71 1455.21 1935.65 1452.8 Q1938.61 1450.39 1943.75 1450.39 Q1948.91 1450.39 1951.85 1452.8 Q1954.79 1455.21 1954.79 1459.35 Q1954.79 1462.32 1953.1 1464.38 Q1951.44 1466.44 1948.45 1467.18 Q1951.83 1467.96 1953.7 1470.26 Q1955.6 1472.55 1955.6 1475.86 Q1955.6 1480.88 1952.52 1483.57 Q1949.47 1486.25 1943.75 1486.25 Q1938.03 1486.25 1934.95 1483.57 Q1931.9 1480.88 1931.9 1475.86 Q1931.9 1472.55 1933.8 1470.26 Q1935.7 1467.96 1939.08 1467.18 M1937.36 1459.79 Q1937.36 1462.48 1939.03 1463.98 Q1940.72 1465.49 1943.75 1465.49 Q1946.76 1465.49 1948.45 1463.98 Q1950.16 1462.48 1950.16 1459.79 Q1950.16 1457.11 1948.45 1455.6 Q1946.76 1454.1 1943.75 1454.1 Q1940.72 1454.1 1939.03 1455.6 Q1937.36 1457.11 1937.36 1459.79 Z" fill="#000000" fill-rule="nonzero" fill-opacity="1" /><path clip-path="url(#clip850)" d="M2319.91 1481.64 L2327.55 1481.64 L2327.55 1455.28 L2319.24 1456.95 L2319.24 1452.69 L2327.5 1451.02 L2332.18 1451.02 L2332.18 1481.64 L2339.82 1481.64 L2339.82 1485.58 L2319.91 1485.58 L2319.91 1481.64 Z" fill="#000000" fill-rule="nonzero" fill-opacity="1" /><path clip-path="url(#clip850)" d="M2349.26 1479.7 L2354.14 1479.7 L2354.14 1485.58 L2349.26 1485.58 L2349.26 1479.7 Z" fill="#000000" fill-rule="nonzero" fill-opacity="1" /><path clip-path="url(#clip850)" d="M2374.33 1454.1 Q2370.72 1454.1 2368.89 1457.66 Q2367.08 1461.2 2367.08 1468.33 Q2367.08 1475.44 2368.89 1479.01 Q2370.72 1482.55 2374.33 1482.55 Q2377.96 1482.55 2379.77 1479.01 Q2381.6 1475.44 2381.6 1468.33 Q2381.6 1461.2 2379.77 1457.66 Q2377.96 1454.1 2374.33 1454.1 M2374.33 1450.39 Q2380.14 1450.39 2383.2 1455 Q2386.27 1459.58 2386.27 1468.33 Q2386.27 1477.06 2383.2 1481.67 Q2380.14 1486.25 2374.33 1486.25 Q2368.52 1486.25 2365.44 1481.67 Q2362.39 1477.06 2362.39 1468.33 Q2362.39 1459.58 2365.44 1455 Q2368.52 1450.39 2374.33 1450.39 Z" fill="#000000" fill-rule="nonzero" fill-opacity="1" /><path clip-path="url(#clip850)" d="M1272.65 1522.27 L1272.65 1532.4 L1284.71 1532.4 L1284.71 1536.95 L1272.65 1536.95 L1272.65 1556.3 Q1272.65 1560.66 1273.83 1561.9 Q1275.04 1563.14 1278.7 1563.14 L1284.71 1563.14 L1284.71 1568.04 L1278.7 1568.04 Q1271.92 1568.04 1269.34 1565.53 Q1266.76 1562.98 1266.76 1556.3 L1266.76 1536.95 L1262.46 1536.95 L1262.46 1532.4 L1266.76 1532.4 L1266.76 1522.27 L1272.65 1522.27 Z" fill="#000000" fill-rule="nonzero" fill-opacity="1" /><polyline clip-path="url(#clip852)" style="stroke:#000000; stroke-linecap:round; stroke-linejoin:round; stroke-width:2; stroke-opacity:0.1; fill:none" points="194.422,1351.1 2352.76,1351.1 "/>
<polyline clip-path="url(#clip852)" style="stroke:#000000; stroke-linecap:round; stroke-linejoin:round; stroke-width:2; stroke-opacity:0.1; fill:none" points="194.422,1142.14 2352.76,1142.14 "/>
<polyline clip-path="url(#clip852)" style="stroke:#000000; stroke-linecap:round; stroke-linejoin:round; stroke-width:2; stroke-opacity:0.1; fill:none" points="194.422,933.177 2352.76,933.177 "/>
<polyline clip-path="url(#clip852)" style="stroke:#000000; stroke-linecap:round; stroke-linejoin:round; stroke-width:2; stroke-opacity:0.1; fill:none" points="194.422,724.217 2352.76,724.217 "/>
<polyline clip-path="url(#clip852)" style="stroke:#000000; stroke-linecap:round; stroke-linejoin:round; stroke-width:2; stroke-opacity:0.1; fill:none" points="194.422,515.257 2352.76,515.257 "/>
<polyline clip-path="url(#clip852)" style="stroke:#000000; stroke-linecap:round; stroke-linejoin:round; stroke-width:2; stroke-opacity:0.1; fill:none" points="194.422,306.297 2352.76,306.297 "/>
<polyline clip-path="url(#clip852)" style="stroke:#000000; stroke-linecap:round; stroke-linejoin:round; stroke-width:2; stroke-opacity:0.1; fill:none" points="194.422,97.3371 2352.76,97.3371 "/>
<polyline clip-path="url(#clip850)" style="stroke:#000000; stroke-linecap:round; stroke-linejoin:round; stroke-width:4; stroke-opacity:1; fill:none" points="194.422,1423.18 194.422,47.2441 "/>
<polyline clip-path="url(#clip850)" style="stroke:#000000; stroke-linecap:round; stroke-linejoin:round; stroke-width:4; stroke-opacity:1; fill:none" points="194.422,1351.1 213.32,1351.1 "/>
<polyline clip-path="url(#clip850)" style="stroke:#000000; stroke-linecap:round; stroke-linejoin:round; stroke-width:4; stroke-opacity:1; fill:none" points="194.422,1142.14 213.32,1142.14 "/>
<polyline clip-path="url(#clip850)" style="stroke:#000000; stroke-linecap:round; stroke-linejoin:round; stroke-width:4; stroke-opacity:1; fill:none" points="194.422,933.177 213.32,933.177 "/>
<polyline clip-path="url(#clip850)" style="stroke:#000000; stroke-linecap:round; stroke-linejoin:round; stroke-width:4; stroke-opacity:1; fill:none" points="194.422,724.217 213.32,724.217 "/>
<polyline clip-path="url(#clip850)" style="stroke:#000000; stroke-linecap:round; stroke-linejoin:round; stroke-width:4; stroke-opacity:1; fill:none" points="194.422,515.257 213.32,515.257 "/>
<polyline clip-path="url(#clip850)" style="stroke:#000000; stroke-linecap:round; stroke-linejoin:round; stroke-width:4; stroke-opacity:1; fill:none" points="194.422,306.297 213.32,306.297 "/>
<polyline clip-path="url(#clip850)" style="stroke:#000000; stroke-linecap:round; stroke-linejoin:round; stroke-width:4; stroke-opacity:1; fill:none" points="194.422,97.3371 213.32,97.3371 "/>
<path clip-path="url(#clip850)" d="M52.4736 1351.55 L82.1494 1351.55 L82.1494 1355.48 L52.4736 1355.48 L52.4736 1351.55 Z" fill="#000000" fill-rule="nonzero" fill-opacity="1" /><path clip-path="url(#clip850)" d="M102.242 1336.9 Q98.6308 1336.9 96.8021 1340.46 Q94.9965 1344 94.9965 1351.13 Q94.9965 1358.24 96.8021 1361.8 Q98.6308 1365.35 102.242 1365.35 Q105.876 1365.35 107.682 1361.8 Q109.51 1358.24 109.51 1351.13 Q109.51 1344 107.682 1340.46 Q105.876 1336.9 102.242 1336.9 M102.242 1333.19 Q108.052 1333.19 111.108 1337.8 Q114.186 1342.38 114.186 1351.13 Q114.186 1359.86 111.108 1364.47 Q108.052 1369.05 102.242 1369.05 Q96.4317 1369.05 93.353 1364.47 Q90.2975 1359.86 90.2975 1351.13 Q90.2975 1342.38 93.353 1337.8 Q96.4317 1333.19 102.242 1333.19 Z" fill="#000000" fill-rule="nonzero" fill-opacity="1" /><path clip-path="url(#clip850)" d="M122.404 1362.5 L127.288 1362.5 L127.288 1368.38 L122.404 1368.38 L122.404 1362.5 Z" fill="#000000" fill-rule="nonzero" fill-opacity="1" /><path clip-path="url(#clip850)" d="M137.519 1333.82 L155.876 1333.82 L155.876 1337.75 L141.802 1337.75 L141.802 1346.22 Q142.82 1345.88 143.839 1345.72 Q144.857 1345.53 145.876 1345.53 Q151.663 1345.53 155.042 1348.7 Q158.422 1351.87 158.422 1357.29 Q158.422 1362.87 154.95 1365.97 Q151.478 1369.05 145.158 1369.05 Q142.982 1369.05 140.714 1368.68 Q138.469 1368.31 136.061 1367.57 L136.061 1362.87 Q138.144 1364 140.367 1364.56 Q142.589 1365.11 145.066 1365.11 Q149.07 1365.11 151.408 1363.01 Q153.746 1360.9 153.746 1357.29 Q153.746 1353.68 151.408 1351.57 Q149.07 1349.47 145.066 1349.47 Q143.191 1349.47 141.316 1349.88 Q139.464 1350.3 137.519 1351.18 L137.519 1333.82 Z" fill="#000000" fill-rule="nonzero" fill-opacity="1" /><path clip-path="url(#clip850)" d="M50.9921 1142.59 L80.6679 1142.59 L80.6679 1146.52 L50.9921 1146.52 L50.9921 1142.59 Z" fill="#000000" fill-rule="nonzero" fill-opacity="1" /><path clip-path="url(#clip850)" d="M100.76 1127.94 Q97.1493 1127.94 95.3206 1131.5 Q93.515 1135.04 93.515 1142.17 Q93.515 1149.28 95.3206 1152.84 Q97.1493 1156.38 100.76 1156.38 Q104.395 1156.38 106.2 1152.84 Q108.029 1149.28 108.029 1142.17 Q108.029 1135.04 106.2 1131.5 Q104.395 1127.94 100.76 1127.94 M100.76 1124.23 Q106.571 1124.23 109.626 1128.84 Q112.705 1133.42 112.705 1142.17 Q112.705 1150.9 109.626 1155.51 Q106.571 1160.09 100.76 1160.09 Q94.9502 1160.09 91.8715 1155.51 Q88.816 1150.9 88.816 1142.17 Q88.816 1133.42 91.8715 1128.84 Q94.9502 1124.23 100.76 1124.23 Z" fill="#000000" fill-rule="nonzero" fill-opacity="1" /><path clip-path="url(#clip850)" d="M120.922 1153.54 L125.807 1153.54 L125.807 1159.42 L120.922 1159.42 L120.922 1153.54 Z" fill="#000000" fill-rule="nonzero" fill-opacity="1" /><path clip-path="url(#clip850)" d="M148.839 1128.93 L137.033 1147.38 L148.839 1147.38 L148.839 1128.93 M147.612 1124.86 L153.492 1124.86 L153.492 1147.38 L158.422 1147.38 L158.422 1151.27 L153.492 1151.27 L153.492 1159.42 L148.839 1159.42 L148.839 1151.27 L133.237 1151.27 L133.237 1146.76 L147.612 1124.86 Z" fill="#000000" fill-rule="nonzero" fill-opacity="1" /><path clip-path="url(#clip850)" d="M52.1264 933.629 L81.8021 933.629 L81.8021 937.564 L52.1264 937.564 L52.1264 933.629 Z" fill="#000000" fill-rule="nonzero" fill-opacity="1" /><path clip-path="url(#clip850)" d="M101.895 918.976 Q98.2835 918.976 96.4548 922.541 Q94.6493 926.082 94.6493 933.212 Q94.6493 940.318 96.4548 943.883 Q98.2835 947.425 101.895 947.425 Q105.529 947.425 107.334 943.883 Q109.163 940.318 109.163 933.212 Q109.163 926.082 107.334 922.541 Q105.529 918.976 101.895 918.976 M101.895 915.272 Q107.705 915.272 110.76 919.879 Q113.839 924.462 113.839 933.212 Q113.839 941.939 110.76 946.545 Q107.705 951.129 101.895 951.129 Q96.0845 951.129 93.0058 946.545 Q89.9503 941.939 89.9503 933.212 Q89.9503 924.462 93.0058 919.879 Q96.0845 915.272 101.895 915.272 Z" fill="#000000" fill-rule="nonzero" fill-opacity="1" /><path clip-path="url(#clip850)" d="M122.057 944.578 L126.941 944.578 L126.941 950.457 L122.057 950.457 L122.057 944.578 Z" fill="#000000" fill-rule="nonzero" fill-opacity="1" /><path clip-path="url(#clip850)" d="M151.293 931.823 Q154.649 932.541 156.524 934.809 Q158.422 937.078 158.422 940.411 Q158.422 945.527 154.904 948.328 Q151.385 951.129 144.904 951.129 Q142.728 951.129 140.413 950.689 Q138.121 950.272 135.668 949.416 L135.668 944.902 Q137.612 946.036 139.927 946.615 Q142.242 947.193 144.765 947.193 Q149.163 947.193 151.455 945.457 Q153.769 943.721 153.769 940.411 Q153.769 937.356 151.617 935.643 Q149.487 933.906 145.668 933.906 L141.64 933.906 L141.64 930.064 L145.853 930.064 Q149.302 930.064 151.13 928.698 Q152.959 927.309 152.959 924.717 Q152.959 922.055 151.061 920.643 Q149.186 919.207 145.668 919.207 Q143.746 919.207 141.547 919.624 Q139.348 920.041 136.709 920.92 L136.709 916.754 Q139.371 916.013 141.686 915.643 Q144.024 915.272 146.084 915.272 Q151.408 915.272 154.51 917.703 Q157.612 920.11 157.612 924.231 Q157.612 927.101 155.968 929.092 Q154.325 931.059 151.293 931.823 Z" fill="#000000" fill-rule="nonzero" fill-opacity="1" /><path clip-path="url(#clip850)" d="M53.0754 724.669 L82.7512 724.669 L82.7512 728.604 L53.0754 728.604 L53.0754 724.669 Z" fill="#000000" fill-rule="nonzero" fill-opacity="1" /><path clip-path="url(#clip850)" d="M102.844 710.016 Q99.2326 710.016 97.4039 713.581 Q95.5984 717.122 95.5984 724.252 Q95.5984 731.358 97.4039 734.923 Q99.2326 738.465 102.844 738.465 Q106.478 738.465 108.283 734.923 Q110.112 731.358 110.112 724.252 Q110.112 717.122 108.283 713.581 Q106.478 710.016 102.844 710.016 M102.844 706.312 Q108.654 706.312 111.709 710.919 Q114.788 715.502 114.788 724.252 Q114.788 732.979 111.709 737.585 Q108.654 742.169 102.844 742.169 Q97.0335 742.169 93.9549 737.585 Q90.8993 732.979 90.8993 724.252 Q90.8993 715.502 93.9549 710.919 Q97.0335 706.312 102.844 706.312 Z" fill="#000000" fill-rule="nonzero" fill-opacity="1" /><path clip-path="url(#clip850)" d="M123.006 735.618 L127.89 735.618 L127.89 741.497 L123.006 741.497 L123.006 735.618 Z" fill="#000000" fill-rule="nonzero" fill-opacity="1" /><path clip-path="url(#clip850)" d="M142.103 737.562 L158.422 737.562 L158.422 741.497 L136.478 741.497 L136.478 737.562 Q139.14 734.807 143.723 730.178 Q148.33 725.525 149.51 724.183 Q151.755 721.659 152.635 719.923 Q153.538 718.164 153.538 716.474 Q153.538 713.72 151.593 711.984 Q149.672 710.247 146.57 710.247 Q144.371 710.247 141.918 711.011 Q139.487 711.775 136.709 713.326 L136.709 708.604 Q139.533 707.47 141.987 706.891 Q144.441 706.312 146.478 706.312 Q151.848 706.312 155.042 708.997 Q158.237 711.683 158.237 716.173 Q158.237 718.303 157.427 720.224 Q156.64 722.122 154.533 724.715 Q153.955 725.386 150.853 728.604 Q147.751 731.798 142.103 737.562 Z" fill="#000000" fill-rule="nonzero" fill-opacity="1" /><path clip-path="url(#clip850)" d="M52.7051 515.709 L82.3808 515.709 L82.3808 519.644 L52.7051 519.644 L52.7051 515.709 Z" fill="#000000" fill-rule="nonzero" fill-opacity="1" /><path clip-path="url(#clip850)" d="M102.473 501.056 Q98.8622 501.056 97.0335 504.621 Q95.228 508.162 95.228 515.292 Q95.228 522.398 97.0335 525.963 Q98.8622 529.505 102.473 529.505 Q106.108 529.505 107.913 525.963 Q109.742 522.398 109.742 515.292 Q109.742 508.162 107.913 504.621 Q106.108 501.056 102.473 501.056 M102.473 497.352 Q108.283 497.352 111.339 501.959 Q114.418 506.542 114.418 515.292 Q114.418 524.019 111.339 528.625 Q108.283 533.209 102.473 533.209 Q96.6632 533.209 93.5845 528.625 Q90.529 524.019 90.529 515.292 Q90.529 506.542 93.5845 501.959 Q96.6632 497.352 102.473 497.352 Z" fill="#000000" fill-rule="nonzero" fill-opacity="1" /><path clip-path="url(#clip850)" d="M122.635 526.658 L127.519 526.658 L127.519 532.537 L122.635 532.537 L122.635 526.658 Z" fill="#000000" fill-rule="nonzero" fill-opacity="1" /><path clip-path="url(#clip850)" d="M138.515 528.602 L146.154 528.602 L146.154 502.236 L137.844 503.903 L137.844 499.644 L146.107 497.977 L150.783 497.977 L150.783 528.602 L158.422 528.602 L158.422 532.537 L138.515 532.537 L138.515 528.602 Z" fill="#000000" fill-rule="nonzero" fill-opacity="1" /><path clip-path="url(#clip850)" d="M101.246 292.096 Q97.6354 292.096 95.8067 295.661 Q94.0012 299.202 94.0012 306.332 Q94.0012 313.438 95.8067 317.003 Q97.6354 320.545 101.246 320.545 Q104.881 320.545 106.686 317.003 Q108.515 313.438 108.515 306.332 Q108.515 299.202 106.686 295.661 Q104.881 292.096 101.246 292.096 M101.246 288.392 Q107.057 288.392 110.112 292.999 Q113.191 297.582 113.191 306.332 Q113.191 315.059 110.112 319.665 Q107.057 324.248 101.246 324.248 Q95.4363 324.248 92.3576 319.665 Q89.3021 315.059 89.3021 306.332 Q89.3021 297.582 92.3576 292.999 Q95.4363 288.392 101.246 288.392 Z" fill="#000000" fill-rule="nonzero" fill-opacity="1" /><path clip-path="url(#clip850)" d="M121.408 317.698 L126.293 317.698 L126.293 323.577 L121.408 323.577 L121.408 317.698 Z" fill="#000000" fill-rule="nonzero" fill-opacity="1" /><path clip-path="url(#clip850)" d="M146.478 292.096 Q142.867 292.096 141.038 295.661 Q139.232 299.202 139.232 306.332 Q139.232 313.438 141.038 317.003 Q142.867 320.545 146.478 320.545 Q150.112 320.545 151.918 317.003 Q153.746 313.438 153.746 306.332 Q153.746 299.202 151.918 295.661 Q150.112 292.096 146.478 292.096 M146.478 288.392 Q152.288 288.392 155.343 292.999 Q158.422 297.582 158.422 306.332 Q158.422 315.059 155.343 319.665 Q152.288 324.248 146.478 324.248 Q140.668 324.248 137.589 319.665 Q134.533 315.059 134.533 306.332 Q134.533 297.582 137.589 292.999 Q140.668 288.392 146.478 288.392 Z" fill="#000000" fill-rule="nonzero" fill-opacity="1" /><path clip-path="url(#clip850)" d="M102.473 83.1358 Q98.8622 83.1358 97.0335 86.7006 Q95.228 90.2423 95.228 97.3719 Q95.228 104.478 97.0335 108.043 Q98.8622 111.585 102.473 111.585 Q106.108 111.585 107.913 108.043 Q109.742 104.478 109.742 97.3719 Q109.742 90.2423 107.913 86.7006 Q106.108 83.1358 102.473 83.1358 M102.473 79.4321 Q108.283 79.4321 111.339 84.0386 Q114.418 88.6219 114.418 97.3719 Q114.418 106.099 111.339 110.705 Q108.283 115.288 102.473 115.288 Q96.6632 115.288 93.5845 110.705 Q90.529 106.099 90.529 97.3719 Q90.529 88.6219 93.5845 84.0386 Q96.6632 79.4321 102.473 79.4321 Z" fill="#000000" fill-rule="nonzero" fill-opacity="1" /><path clip-path="url(#clip850)" d="M122.635 108.738 L127.519 108.738 L127.519 114.617 L122.635 114.617 L122.635 108.738 Z" fill="#000000" fill-rule="nonzero" fill-opacity="1" /><path clip-path="url(#clip850)" d="M138.515 110.682 L146.154 110.682 L146.154 84.3164 L137.844 85.983 L137.844 81.7238 L146.107 80.0571 L150.783 80.0571 L150.783 110.682 L158.422 110.682 L158.422 114.617 L138.515 114.617 L138.515 110.682 Z" fill="#000000" fill-rule="nonzero" fill-opacity="1" /><polyline clip-path="url(#clip852)" style="stroke:#009af9; stroke-linecap:round; stroke-linejoin:round; stroke-width:4; stroke-opacity:1; fill:none" points="194.422,306.297 216.005,289.274 225.993,258.567 237.228,306.931 249.868,366.562 264.088,333.593 280.086,331.1 298.083,352.299 318.33,423.654 341.108,397.654 364.155,462.393 387.083,400.481 412.877,350.315 441.895,404.653 473.641,272.807 507.983,278.161 542.778,303.188 581.923,254.312 621.742,280.792 666.539,377.176 715.567,526.222 759.451,552.682 801.689,641.225 840.256,543.368 882.236,412.122 929.463,443.128 976.746,554.051 1026.19,514.027 1074.21,641.868 1117.53,701.842 1154.3,641.867 1190.71,643.414 1226.71,706.471 1259.23,849.843 1288.26,855.245 1315.23,942.827 1340.35,974.074 1363.71,1070.09 1385.67,1053.01 1406.07,1055.82 1425.77,1020.86 1444.85,1003.66 1463.02,914.405 1481.04,909.568 1498.74,938.258 1516.43,939.613 1533.69,1001.65 1550.4,1064.73 1566.63,1024.35 1582.59,1066.49 1598.18,1029.33 1613.74,1067.76 1628.95,1049.75 1643.87,1072.85 1658.69,1093.11 1673.19,1110.65 1687.49,1152.72 1701.49,1142.14 1715.26,1133.99 1728.75,1200.24 1742.02,1145.21 1755.32,1156.93 1768.31,1144.88 1781.34,1134.85 1794.26,1123.5 1807.14,1057.25 1820.17,1099.49 1833.18,1079.43 1845.99,1070.83 1858.87,1123.81 1871.96,1161.73 1884.95,1107.2 1898.07,1106.16 1911.02,1172.58 1923.84,1162.06 1936.71,1158.87 1949.53,1169.2 1962.53,1179.03 1975.65,1185.68 1988.68,1238.31 2001.7,1171.47 2014.75,1162.88 2027.9,1133.49 2040.98,1132.48 2054.14,1099.34 2067.39,1082.7 2080.48,1045.26 2093.5,1047.66 2106.61,1024.68 2119.65,1012.73 2132.7,1028.58 2145.72,1056.72 2158.43,1077.52 2171.16,1002.4 2184.02,988.719 2196.82,1059.83 2209.55,1097.47 2222.36,1162.91 2234.79,1187.19 2247.17,1242.01 2259.4,1249 2271.48,1283.14 2283.43,1272.79 2295.35,1311.95 2307.06,1321.72 2318.74,1384.24 2330.2,1361.78 2341.52,1366.38 2352.76,1353.17 "/>
<polyline clip-path="url(#clip852)" style="stroke:#e26f46; stroke-linecap:round; stroke-linejoin:round; stroke-width:4; stroke-opacity:1; fill:none" points="194.422,306.297 216.005,293.566 225.993,285.7 237.228,243.94 249.868,243.326 264.088,221.836 280.086,244.616 298.083,169.561 318.33,243.628 341.108,131.982 364.155,110.542 387.083,123.419 412.877,170.964 441.895,128.495 473.641,86.1857 507.983,143.286 542.778,204.218 581.923,188.833 621.742,225.077 666.539,261.856 715.567,287.962 759.451,283.538 801.689,279.541 840.256,417.165 882.236,407.662 929.463,434.647 976.746,364.492 1026.19,321.796 1074.21,497.671 1117.53,687.899 1154.3,668.614 1190.71,632.598 1226.71,738.353 1259.23,857.102 1288.26,856.95 1315.23,879.896 1340.35,924.313 1363.71,900.277 1385.67,924.015 1406.07,1005.69 1425.77,975.846 1444.85,954.747 1463.02,1032.82 1481.04,946.188 1498.74,890.945 1516.43,940.967 1533.69,951.995 1550.4,1003.89 1566.63,987.3 1582.59,992.029 1598.18,1024.1 1613.74,1008.51 1628.95,1000.94 1643.87,979.9 1658.69,1089.69 1673.19,1110.81 1687.49,1128.62 1701.49,1157.91 1715.26,1194.13 1728.75,1156.18 1742.02,1192.64 1755.32,1195.59 1768.31,1167.33 1781.34,1128.71 1794.26,1156.86 1807.14,1181.97 1820.17,1108.25 1833.18,1122.03 1845.99,1085.4 1858.87,1103.93 1871.96,1006.16 1884.95,1027.23 1898.07,1060.85 1911.02,1118.98 1923.84,1073.89 1936.71,1038.28 1949.53,1023.47 1962.53,962.075 1975.65,938.776 1988.68,974.677 2001.7,1041.96 2014.75,999.212 2027.9,1061.05 2040.98,1013.1 2054.14,1046.68 2067.39,1090.4 2080.48,1099.18 2093.5,1170.37 2106.61,1130.56 2119.65,1118.7 2132.7,1216.28 2145.72,1289.36 2158.43,1245.78 2171.16,1215.74 2184.02,1212.34 2196.82,1225.57 2209.55,1197 2222.36,1240.92 2234.79,1229.8 2247.17,1272.46 2259.4,1279.42 2271.48,1256.11 2283.43,1253.37 2295.35,1266.18 2307.06,1278.63 2318.74,1295.73 2330.2,1334.42 2341.52,1315.14 2352.76,1307.48 "/>
<path clip-path="url(#clip850)" d="M1975.88 248.629 L2280.81 248.629 L2280.81 93.1086 L1975.88 93.1086  Z" fill="#ffffff" fill-rule="evenodd" fill-opacity="1"/>
<polyline clip-path="url(#clip850)" style="stroke:#000000; stroke-linecap:round; stroke-linejoin:round; stroke-width:4; stroke-opacity:1; fill:none" points="1975.88,248.629 2280.81,248.629 2280.81,93.1086 1975.88,93.1086 1975.88,248.629 "/>
<polyline clip-path="url(#clip850)" style="stroke:#009af9; stroke-linecap:round; stroke-linejoin:round; stroke-width:4; stroke-opacity:1; fill:none" points="1999.86,144.949 2143.75,144.949 "/>
<path clip-path="url(#clip850)" d="M2167.73 151.997 L2167.73 136.303 L2171.99 136.303 L2171.99 151.835 Q2171.99 155.516 2173.43 157.368 Q2174.86 159.196 2177.73 159.196 Q2181.18 159.196 2183.17 156.997 Q2185.19 154.798 2185.19 151.002 L2185.19 136.303 L2189.45 136.303 L2189.45 162.229 L2185.19 162.229 L2185.19 158.247 Q2183.64 160.608 2181.58 161.766 Q2179.54 162.9 2176.83 162.9 Q2172.36 162.9 2170.05 160.122 Q2167.73 157.344 2167.73 151.997 M2178.45 135.678 L2178.45 135.678 Z" fill="#000000" fill-rule="nonzero" fill-opacity="1" /><path clip-path="url(#clip850)" d="M2197.83 126.21 L2207.64 126.21 L2207.64 129.52 L2202.08 129.52 L2202.08 165.168 L2207.64 165.168 L2207.64 168.479 L2197.83 168.479 L2197.83 126.21 Z" fill="#000000" fill-rule="nonzero" fill-opacity="1" /><path clip-path="url(#clip850)" d="M2218.13 158.293 L2225.77 158.293 L2225.77 131.928 L2217.46 133.595 L2217.46 129.335 L2225.72 127.669 L2230.39 127.669 L2230.39 158.293 L2238.03 158.293 L2238.03 162.229 L2218.13 162.229 L2218.13 158.293 Z" fill="#000000" fill-rule="nonzero" fill-opacity="1" /><path clip-path="url(#clip850)" d="M2256.83 126.21 L2256.83 168.479 L2247.02 168.479 L2247.02 165.168 L2252.55 165.168 L2252.55 129.52 L2247.02 129.52 L2247.02 126.21 L2256.83 126.21 Z" fill="#000000" fill-rule="nonzero" fill-opacity="1" /><polyline clip-path="url(#clip850)" style="stroke:#e26f46; stroke-linecap:round; stroke-linejoin:round; stroke-width:4; stroke-opacity:1; fill:none" points="1999.86,196.789 2143.75,196.789 "/>
<path clip-path="url(#clip850)" d="M2167.73 203.837 L2167.73 188.143 L2171.99 188.143 L2171.99 203.675 Q2171.99 207.356 2173.43 209.208 Q2174.86 211.036 2177.73 211.036 Q2181.18 211.036 2183.17 208.837 Q2185.19 206.638 2185.19 202.842 L2185.19 188.143 L2189.45 188.143 L2189.45 214.069 L2185.19 214.069 L2185.19 210.087 Q2183.64 212.448 2181.58 213.606 Q2179.54 214.74 2176.83 214.74 Q2172.36 214.74 2170.05 211.962 Q2167.73 209.184 2167.73 203.837 M2178.45 187.518 L2178.45 187.518 Z" fill="#000000" fill-rule="nonzero" fill-opacity="1" /><path clip-path="url(#clip850)" d="M2197.83 178.05 L2207.64 178.05 L2207.64 181.36 L2202.08 181.36 L2202.08 217.008 L2207.64 217.008 L2207.64 220.319 L2197.83 220.319 L2197.83 178.05 Z" fill="#000000" fill-rule="nonzero" fill-opacity="1" /><path clip-path="url(#clip850)" d="M2221.34 210.133 L2237.66 210.133 L2237.66 214.069 L2215.72 214.069 L2215.72 210.133 Q2218.38 207.379 2222.96 202.749 Q2227.57 198.096 2228.75 196.754 Q2231 194.231 2231.88 192.495 Q2232.78 190.735 2232.78 189.046 Q2232.78 186.291 2230.83 184.555 Q2228.91 182.819 2225.81 182.819 Q2223.61 182.819 2221.16 183.583 Q2218.73 184.347 2215.95 185.897 L2215.95 181.175 Q2218.77 180.041 2221.23 179.462 Q2223.68 178.884 2225.72 178.884 Q2231.09 178.884 2234.28 181.569 Q2237.48 184.254 2237.48 188.745 Q2237.48 190.874 2236.67 192.796 Q2235.88 194.694 2233.77 197.286 Q2233.2 197.958 2230.09 201.175 Q2226.99 204.37 2221.34 210.133 Z" fill="#000000" fill-rule="nonzero" fill-opacity="1" /><path clip-path="url(#clip850)" d="M2256.83 178.05 L2256.83 220.319 L2247.02 220.319 L2247.02 217.008 L2252.55 217.008 L2252.55 181.36 L2247.02 181.36 L2247.02 178.05 L2256.83 178.05 Z" fill="#000000" fill-rule="nonzero" fill-opacity="1" /></svg>
