<?xml version="1.0" encoding="utf-8"?>
<svg xmlns="http://www.w3.org/2000/svg" xmlns:xlink="http://www.w3.org/1999/xlink" width="600" height="400" viewBox="0 0 2400 1600">
<defs>
  <clipPath id="clip090">
    <rect x="0" y="0" width="2400" height="1600"/>
  </clipPath>
</defs>
<path clip-path="url(#clip090)" d="M0 1600 L2400 1600 L2400 0 L0 0  Z" fill="#ffffff" fill-rule="evenodd" fill-opacity="1"/>
<defs>
  <clipPath id="clip091">
    <rect x="480" y="0" width="1681" height="1600"/>
  </clipPath>
</defs>
<path clip-path="url(#clip090)" d="M224.098 1423.18 L2352.76 1423.18 L2352.76 47.2441 L224.098 47.2441  Z" fill="#ffffff" fill-rule="evenodd" fill-opacity="1"/>
<defs>
  <clipPath id="clip092">
    <rect x="224" y="47" width="2130" height="1377"/>
  </clipPath>
</defs>
<polyline clip-path="url(#clip092)" style="stroke:#000000; stroke-linecap:round; stroke-linejoin:round; stroke-width:2; stroke-opacity:0.1; fill:none" points="224.098,1423.18 224.098,47.2441 "/>
<polyline clip-path="url(#clip092)" style="stroke:#000000; stroke-linecap:round; stroke-linejoin:round; stroke-width:2; stroke-opacity:0.1; fill:none" points="649.829,1423.18 649.829,47.2441 "/>
<polyline clip-path="url(#clip092)" style="stroke:#000000; stroke-linecap:round; stroke-linejoin:round; stroke-width:2; stroke-opacity:0.1; fill:none" points="1075.56,1423.18 1075.56,47.2441 "/>
<polyline clip-path="url(#clip092)" style="stroke:#000000; stroke-linecap:round; stroke-linejoin:round; stroke-width:2; stroke-opacity:0.1; fill:none" points="1501.29,1423.18 1501.29,47.2441 "/>
<polyline clip-path="url(#clip092)" style="stroke:#000000; stroke-linecap:round; stroke-linejoin:round; stroke-width:2; stroke-opacity:0.1; fill:none" points="1927.02,1423.18 1927.02,47.2441 "/>
<polyline clip-path="url(#clip092)" style="stroke:#000000; stroke-linecap:round; stroke-linejoin:round; stroke-width:2; stroke-opacity:0.1; fill:none" points="2352.76,1423.18 2352.76,47.2441 "/>
<polyline clip-path="url(#clip090)" style="stroke:#000000; stroke-linecap:round; stroke-linejoin:round; stroke-width:4; stroke-opacity:1; fill:none" points="224.098,1423.18 2352.76,1423.18 "/>
<polyline clip-path="url(#clip090)" style="stroke:#000000; stroke-linecap:round; stroke-linejoin:round; stroke-width:4; stroke-opacity:1; fill:none" points="224.098,1423.18 224.098,1404.28 "/>
<polyline clip-path="url(#clip090)" style="stroke:#000000; stroke-linecap:round; stroke-linejoin:round; stroke-width:4; stroke-opacity:1; fill:none" points="649.829,1423.18 649.829,1404.28 "/>
<polyline clip-path="url(#clip090)" style="stroke:#000000; stroke-linecap:round; stroke-linejoin:round; stroke-width:4; stroke-opacity:1; fill:none" points="1075.56,1423.18 1075.56,1404.28 "/>
<polyline clip-path="url(#clip090)" style="stroke:#000000; stroke-linecap:round; stroke-linejoin:round; stroke-width:4; stroke-opacity:1; fill:none" points="1501.29,1423.18 1501.29,1404.28 "/>
<polyline clip-path="url(#clip090)" style="stroke:#000000; stroke-linecap:round; stroke-linejoin:round; stroke-width:4; stroke-opacity:1; fill:none" points="1927.02,1423.18 1927.02,1404.28 "/>
<polyline clip-path="url(#clip090)" style="stroke:#000000; stroke-linecap:round; stroke-linejoin:round; stroke-width:4; stroke-opacity:1; fill:none" points="2352.76,1423.18 2352.76,1404.28 "/>
<path clip-path="url(#clip090)" d="M201.482 1454.1 Q197.871 1454.1 196.042 1457.66 Q194.237 1461.2 194.237 1468.33 Q194.237 1475.44 196.042 1479.01 Q197.871 1482.55 201.482 1482.55 Q205.116 1482.55 206.922 1479.01 Q208.751 1475.44 208.751 1468.33 Q208.751 1461.2 206.922 1457.66 Q205.116 1454.1 201.482 1454.1 M201.482 1450.39 Q207.292 1450.39 210.348 1455 Q213.427 1459.58 213.427 1468.33 Q213.427 1477.06 210.348 1481.67 Q207.292 1486.25 201.482 1486.25 Q195.672 1486.25 192.593 1481.67 Q189.538 1477.06 189.538 1468.33 Q189.538 1459.58 192.593 1455 Q195.672 1450.39 201.482 1450.39 Z" fill="#000000" fill-rule="nonzero" fill-opacity="1" /><path clip-path="url(#clip090)" d="M221.644 1479.7 L226.528 1479.7 L226.528 1485.58 L221.644 1485.58 L221.644 1479.7 Z" fill="#000000" fill-rule="nonzero" fill-opacity="1" /><path clip-path="url(#clip090)" d="M246.713 1454.1 Q243.102 1454.1 241.274 1457.66 Q239.468 1461.2 239.468 1468.33 Q239.468 1475.44 241.274 1479.01 Q243.102 1482.55 246.713 1482.55 Q250.348 1482.55 252.153 1479.01 Q253.982 1475.44 253.982 1468.33 Q253.982 1461.2 252.153 1457.66 Q250.348 1454.1 246.713 1454.1 M246.713 1450.39 Q252.524 1450.39 255.579 1455 Q258.658 1459.58 258.658 1468.33 Q258.658 1477.06 255.579 1481.67 Q252.524 1486.25 246.713 1486.25 Q240.903 1486.25 237.825 1481.67 Q234.769 1477.06 234.769 1468.33 Q234.769 1459.58 237.825 1455 Q240.903 1450.39 246.713 1450.39 Z" fill="#000000" fill-rule="nonzero" fill-opacity="1" /><path clip-path="url(#clip090)" d="M628.012 1454.1 Q624.401 1454.1 622.573 1457.66 Q620.767 1461.2 620.767 1468.33 Q620.767 1475.44 622.573 1479.01 Q624.401 1482.55 628.012 1482.55 Q631.647 1482.55 633.452 1479.01 Q635.281 1475.44 635.281 1468.33 Q635.281 1461.2 633.452 1457.66 Q631.647 1454.1 628.012 1454.1 M628.012 1450.39 Q633.823 1450.39 636.878 1455 Q639.957 1459.58 639.957 1468.33 Q639.957 1477.06 636.878 1481.67 Q633.823 1486.25 628.012 1486.25 Q622.202 1486.25 619.124 1481.67 Q616.068 1477.06 616.068 1468.33 Q616.068 1459.58 619.124 1455 Q622.202 1450.39 628.012 1450.39 Z" fill="#000000" fill-rule="nonzero" fill-opacity="1" /><path clip-path="url(#clip090)" d="M648.174 1479.7 L653.059 1479.7 L653.059 1485.58 L648.174 1485.58 L648.174 1479.7 Z" fill="#000000" fill-rule="nonzero" fill-opacity="1" /><path clip-path="url(#clip090)" d="M667.272 1481.64 L683.591 1481.64 L683.591 1485.58 L661.647 1485.58 L661.647 1481.64 Q664.309 1478.89 668.892 1474.26 Q673.498 1469.61 674.679 1468.27 Q676.924 1465.74 677.804 1464.01 Q678.707 1462.25 678.707 1460.56 Q678.707 1457.8 676.762 1456.07 Q674.841 1454.33 671.739 1454.33 Q669.54 1454.33 667.086 1455.09 Q664.656 1455.86 661.878 1457.41 L661.878 1452.69 Q664.702 1451.55 667.156 1450.97 Q669.609 1450.39 671.646 1450.39 Q677.017 1450.39 680.211 1453.08 Q683.406 1455.77 683.406 1460.26 Q683.406 1462.39 682.596 1464.31 Q681.808 1466.2 679.702 1468.8 Q679.123 1469.47 676.021 1472.69 Q672.92 1475.88 667.272 1481.64 Z" fill="#000000" fill-rule="nonzero" fill-opacity="1" /><path clip-path="url(#clip090)" d="M1052.7 1454.1 Q1049.09 1454.1 1047.26 1457.66 Q1045.46 1461.2 1045.46 1468.33 Q1045.46 1475.44 1047.26 1479.01 Q1049.09 1482.55 1052.7 1482.55 Q1056.34 1482.55 1058.14 1479.01 Q1059.97 1475.44 1059.97 1468.33 Q1059.97 1461.2 1058.14 1457.66 Q1056.34 1454.1 1052.7 1454.1 M1052.7 1450.39 Q1058.51 1450.39 1061.57 1455 Q1064.65 1459.58 1064.65 1468.33 Q1064.65 1477.06 1061.57 1481.67 Q1058.51 1486.25 1052.7 1486.25 Q1046.89 1486.25 1043.81 1481.67 Q1040.76 1477.06 1040.76 1468.33 Q1040.76 1459.58 1043.81 1455 Q1046.89 1450.39 1052.7 1450.39 Z" fill="#000000" fill-rule="nonzero" fill-opacity="1" /><path clip-path="url(#clip090)" d="M1072.86 1479.7 L1077.75 1479.7 L1077.75 1485.58 L1072.86 1485.58 L1072.86 1479.7 Z" fill="#000000" fill-rule="nonzero" fill-opacity="1" /><path clip-path="url(#clip090)" d="M1100.78 1455.09 L1088.98 1473.54 L1100.78 1473.54 L1100.78 1455.09 M1099.55 1451.02 L1105.43 1451.02 L1105.43 1473.54 L1110.36 1473.54 L1110.36 1477.43 L1105.43 1477.43 L1105.43 1485.58 L1100.78 1485.58 L1100.78 1477.43 L1085.18 1477.43 L1085.18 1472.92 L1099.55 1451.02 Z" fill="#000000" fill-rule="nonzero" fill-opacity="1" /><path clip-path="url(#clip090)" d="M1478.6 1454.1 Q1474.98 1454.1 1473.16 1457.66 Q1471.35 1461.2 1471.35 1468.33 Q1471.35 1475.44 1473.16 1479.01 Q1474.98 1482.55 1478.6 1482.55 Q1482.23 1482.55 1484.04 1479.01 Q1485.86 1475.44 1485.86 1468.33 Q1485.86 1461.2 1484.04 1457.66 Q1482.23 1454.1 1478.6 1454.1 M1478.6 1450.39 Q1484.41 1450.39 1487.46 1455 Q1490.54 1459.58 1490.54 1468.33 Q1490.54 1477.06 1487.46 1481.67 Q1484.41 1486.25 1478.6 1486.25 Q1472.79 1486.25 1469.71 1481.67 Q1466.65 1477.06 1466.65 1468.33 Q1466.65 1459.58 1469.71 1455 Q1472.79 1450.39 1478.6 1450.39 Z" fill="#000000" fill-rule="nonzero" fill-opacity="1" /><path clip-path="url(#clip090)" d="M1498.76 1479.7 L1503.64 1479.7 L1503.64 1485.58 L1498.76 1485.58 L1498.76 1479.7 Z" fill="#000000" fill-rule="nonzero" fill-opacity="1" /><path clip-path="url(#clip090)" d="M1524.41 1466.44 Q1521.26 1466.44 1519.41 1468.59 Q1517.58 1470.74 1517.58 1474.49 Q1517.58 1478.22 1519.41 1480.39 Q1521.26 1482.55 1524.41 1482.55 Q1527.55 1482.55 1529.38 1480.39 Q1531.23 1478.22 1531.23 1474.49 Q1531.23 1470.74 1529.38 1468.59 Q1527.55 1466.44 1524.41 1466.44 M1533.69 1451.78 L1533.69 1456.04 Q1531.93 1455.21 1530.12 1454.77 Q1528.34 1454.33 1526.58 1454.33 Q1521.95 1454.33 1519.5 1457.45 Q1517.07 1460.58 1516.72 1466.9 Q1518.09 1464.89 1520.15 1463.82 Q1522.21 1462.73 1524.68 1462.73 Q1529.89 1462.73 1532.9 1465.9 Q1535.93 1469.05 1535.93 1474.49 Q1535.93 1479.82 1532.79 1483.03 Q1529.64 1486.25 1524.41 1486.25 Q1518.41 1486.25 1515.24 1481.67 Q1512.07 1477.06 1512.07 1468.33 Q1512.07 1460.14 1515.96 1455.28 Q1519.85 1450.39 1526.4 1450.39 Q1528.16 1450.39 1529.94 1450.74 Q1531.74 1451.09 1533.69 1451.78 Z" fill="#000000" fill-rule="nonzero" fill-opacity="1" /><path clip-path="url(#clip090)" d="M1904.45 1454.1 Q1900.84 1454.1 1899.02 1457.66 Q1897.21 1461.2 1897.21 1468.33 Q1897.21 1475.44 1899.02 1479.01 Q1900.84 1482.55 1904.45 1482.55 Q1908.09 1482.55 1909.89 1479.01 Q1911.72 1475.44 1911.72 1468.33 Q1911.72 1461.2 1909.89 1457.66 Q1908.09 1454.1 1904.45 1454.1 M1904.45 1450.39 Q1910.27 1450.39 1913.32 1455 Q1916.4 1459.58 1916.4 1468.33 Q1916.4 1477.06 1913.32 1481.67 Q1910.27 1486.25 1904.45 1486.25 Q1898.64 1486.25 1895.57 1481.67 Q1892.51 1477.06 1892.51 1468.33 Q1892.51 1459.58 1895.57 1455 Q1898.64 1450.39 1904.45 1450.39 Z" fill="#000000" fill-rule="nonzero" fill-opacity="1" /><path clip-path="url(#clip090)" d="M1924.62 1479.7 L1929.5 1479.7 L1929.5 1485.58 L1924.62 1485.58 L1924.62 1479.7 Z" fill="#000000" fill-rule="nonzero" fill-opacity="1" /><path clip-path="url(#clip090)" d="M1949.69 1469.17 Q1946.35 1469.17 1944.43 1470.95 Q1942.53 1472.73 1942.53 1475.86 Q1942.53 1478.98 1944.43 1480.77 Q1946.35 1482.55 1949.69 1482.55 Q1953.02 1482.55 1954.94 1480.77 Q1956.86 1478.96 1956.86 1475.86 Q1956.86 1472.73 1954.94 1470.95 Q1953.04 1469.17 1949.69 1469.17 M1945.01 1467.18 Q1942 1466.44 1940.31 1464.38 Q1938.64 1462.32 1938.64 1459.35 Q1938.64 1455.21 1941.58 1452.8 Q1944.55 1450.39 1949.69 1450.39 Q1954.85 1450.39 1957.79 1452.8 Q1960.73 1455.21 1960.73 1459.35 Q1960.73 1462.32 1959.04 1464.38 Q1957.37 1466.44 1954.39 1467.18 Q1957.76 1467.96 1959.64 1470.26 Q1961.54 1472.55 1961.54 1475.86 Q1961.54 1480.88 1958.46 1483.57 Q1955.4 1486.25 1949.69 1486.25 Q1943.97 1486.25 1940.89 1483.57 Q1937.83 1480.88 1937.83 1475.86 Q1937.83 1472.55 1939.73 1470.26 Q1941.63 1467.96 1945.01 1467.18 M1943.3 1459.79 Q1943.3 1462.48 1944.96 1463.98 Q1946.65 1465.49 1949.69 1465.49 Q1952.7 1465.49 1954.39 1463.98 Q1956.1 1462.48 1956.1 1459.79 Q1956.1 1457.11 1954.39 1455.6 Q1952.7 1454.1 1949.69 1454.1 Q1946.65 1454.1 1944.96 1455.6 Q1943.3 1457.11 1943.3 1459.79 Z" fill="#000000" fill-rule="nonzero" fill-opacity="1" /><path clip-path="url(#clip090)" d="M2319.91 1481.64 L2327.55 1481.64 L2327.55 1455.28 L2319.24 1456.95 L2319.24 1452.69 L2327.5 1451.02 L2332.18 1451.02 L2332.18 1481.64 L2339.82 1481.64 L2339.82 1485.58 L2319.91 1485.58 L2319.91 1481.64 Z" fill="#000000" fill-rule="nonzero" fill-opacity="1" /><path clip-path="url(#clip090)" d="M2349.26 1479.7 L2354.14 1479.7 L2354.14 1485.58 L2349.26 1485.58 L2349.26 1479.7 Z" fill="#000000" fill-rule="nonzero" fill-opacity="1" /><path clip-path="url(#clip090)" d="M2374.33 1454.1 Q2370.72 1454.1 2368.89 1457.66 Q2367.08 1461.2 2367.08 1468.33 Q2367.08 1475.44 2368.89 1479.01 Q2370.72 1482.55 2374.33 1482.55 Q2377.96 1482.55 2379.77 1479.01 Q2381.6 1475.44 2381.6 1468.33 Q2381.6 1461.2 2379.77 1457.66 Q2377.96 1454.1 2374.33 1454.1 M2374.33 1450.39 Q2380.14 1450.39 2383.2 1455 Q2386.27 1459.58 2386.27 1468.33 Q2386.27 1477.06 2383.2 1481.67 Q2380.14 1486.25 2374.33 1486.25 Q2368.52 1486.25 2365.44 1481.67 Q2362.39 1477.06 2362.39 1468.33 Q2362.39 1459.58 2365.44 1455 Q2368.52 1450.39 2374.33 1450.39 Z" fill="#000000" fill-rule="nonzero" fill-opacity="1" /><path clip-path="url(#clip090)" d="M1287.49 1522.27 L1287.49 1532.4 L1299.55 1532.4 L1299.55 1536.95 L1287.49 1536.95 L1287.49 1556.3 Q1287.49 1560.66 1288.67 1561.9 Q1289.88 1563.14 1293.54 1563.14 L1299.55 1563.14 L1299.55 1568.04 L1293.54 1568.04 Q1286.76 1568.04 1284.18 1565.53 Q1281.6 1562.98 1281.6 1556.3 L1281.6 1536.95 L1277.3 1536.95 L1277.3 1532.4 L1281.6 1532.4 L1281.6 1522.27 L1287.49 1522.27 Z" fill="#000000" fill-rule="nonzero" fill-opacity="1" /><polyline clip-path="url(#clip092)" style="stroke:#000000; stroke-linecap:round; stroke-linejoin:round; stroke-width:2; stroke-opacity:0.1; fill:none" points="224.098,1413.55 2352.76,1413.55 "/>
<polyline clip-path="url(#clip092)" style="stroke:#000000; stroke-linecap:round; stroke-linejoin:round; stroke-width:2; stroke-opacity:0.1; fill:none" points="224.098,1104.66 2352.76,1104.66 "/>
<polyline clip-path="url(#clip092)" style="stroke:#000000; stroke-linecap:round; stroke-linejoin:round; stroke-width:2; stroke-opacity:0.1; fill:none" points="224.098,795.761 2352.76,795.761 "/>
<polyline clip-path="url(#clip092)" style="stroke:#000000; stroke-linecap:round; stroke-linejoin:round; stroke-width:2; stroke-opacity:0.1; fill:none" points="224.098,486.865 2352.76,486.865 "/>
<polyline clip-path="url(#clip092)" style="stroke:#000000; stroke-linecap:round; stroke-linejoin:round; stroke-width:2; stroke-opacity:0.1; fill:none" points="224.098,177.969 2352.76,177.969 "/>
<polyline clip-path="url(#clip090)" style="stroke:#000000; stroke-linecap:round; stroke-linejoin:round; stroke-width:4; stroke-opacity:1; fill:none" points="224.098,1423.18 224.098,47.2441 "/>
<polyline clip-path="url(#clip090)" style="stroke:#000000; stroke-linecap:round; stroke-linejoin:round; stroke-width:4; stroke-opacity:1; fill:none" points="224.098,1413.55 242.996,1413.55 "/>
<polyline clip-path="url(#clip090)" style="stroke:#000000; stroke-linecap:round; stroke-linejoin:round; stroke-width:4; stroke-opacity:1; fill:none" points="224.098,1104.66 242.996,1104.66 "/>
<polyline clip-path="url(#clip090)" style="stroke:#000000; stroke-linecap:round; stroke-linejoin:round; stroke-width:4; stroke-opacity:1; fill:none" points="224.098,795.761 242.996,795.761 "/>
<polyline clip-path="url(#clip090)" style="stroke:#000000; stroke-linecap:round; stroke-linejoin:round; stroke-width:4; stroke-opacity:1; fill:none" points="224.098,486.865 242.996,486.865 "/>
<polyline clip-path="url(#clip090)" style="stroke:#000000; stroke-linecap:round; stroke-linejoin:round; stroke-width:4; stroke-opacity:1; fill:none" points="224.098,177.969 242.996,177.969 "/>
<path clip-path="url(#clip090)" d="M50.9921 1414 L80.6679 1414 L80.6679 1417.94 L50.9921 1417.94 L50.9921 1414 Z" fill="#000000" fill-rule="nonzero" fill-opacity="1" /><path clip-path="url(#clip090)" d="M100.76 1399.35 Q97.1493 1399.35 95.3206 1402.92 Q93.515 1406.46 93.515 1413.59 Q93.515 1420.69 95.3206 1424.26 Q97.1493 1427.8 100.76 1427.8 Q104.395 1427.8 106.2 1424.26 Q108.029 1420.69 108.029 1413.59 Q108.029 1406.46 106.2 1402.92 Q104.395 1399.35 100.76 1399.35 M100.76 1395.65 Q106.571 1395.65 109.626 1400.25 Q112.705 1404.84 112.705 1413.59 Q112.705 1422.31 109.626 1426.92 Q106.571 1431.5 100.76 1431.5 Q94.9502 1431.5 91.8715 1426.92 Q88.816 1422.31 88.816 1413.59 Q88.816 1404.84 91.8715 1400.25 Q94.9502 1395.65 100.76 1395.65 Z" fill="#000000" fill-rule="nonzero" fill-opacity="1" /><path clip-path="url(#clip090)" d="M120.922 1424.95 L125.807 1424.95 L125.807 1430.83 L120.922 1430.83 L120.922 1424.95 Z" fill="#000000" fill-rule="nonzero" fill-opacity="1" /><path clip-path="url(#clip090)" d="M136.038 1396.27 L154.394 1396.27 L154.394 1400.21 L140.32 1400.21 L140.32 1408.68 Q141.339 1408.33 142.357 1408.17 Q143.376 1407.98 144.394 1407.98 Q150.181 1407.98 153.561 1411.16 Q156.941 1414.33 156.941 1419.74 Q156.941 1425.32 153.468 1428.42 Q149.996 1431.5 143.677 1431.5 Q141.501 1431.5 139.232 1431.13 Q136.987 1430.76 134.58 1430.02 L134.58 1425.32 Q136.663 1426.46 138.885 1427.01 Q141.107 1427.57 143.584 1427.57 Q147.589 1427.57 149.927 1425.46 Q152.265 1423.36 152.265 1419.74 Q152.265 1416.13 149.927 1414.03 Q147.589 1411.92 143.584 1411.92 Q141.709 1411.92 139.834 1412.34 Q137.982 1412.75 136.038 1413.63 L136.038 1396.27 Z" fill="#000000" fill-rule="nonzero" fill-opacity="1" /><path clip-path="url(#clip090)" d="M176.153 1399.35 Q172.542 1399.35 170.714 1402.92 Q168.908 1406.46 168.908 1413.59 Q168.908 1420.69 170.714 1424.26 Q172.542 1427.8 176.153 1427.8 Q179.788 1427.8 181.593 1424.26 Q183.422 1420.69 183.422 1413.59 Q183.422 1406.46 181.593 1402.92 Q179.788 1399.35 176.153 1399.35 M176.153 1395.65 Q181.964 1395.65 185.019 1400.25 Q188.098 1404.84 188.098 1413.59 Q188.098 1422.31 185.019 1426.92 Q181.964 1431.5 176.153 1431.5 Q170.343 1431.5 167.265 1426.92 Q164.209 1422.31 164.209 1413.59 Q164.209 1404.84 167.265 1400.25 Q170.343 1395.65 176.153 1395.65 Z" fill="#000000" fill-rule="nonzero" fill-opacity="1" /><path clip-path="url(#clip090)" d="M51.9875 1105.11 L81.6633 1105.11 L81.6633 1109.04 L51.9875 1109.04 L51.9875 1105.11 Z" fill="#000000" fill-rule="nonzero" fill-opacity="1" /><path clip-path="url(#clip090)" d="M101.756 1090.45 Q98.1447 1090.45 96.316 1094.02 Q94.5104 1097.56 94.5104 1104.69 Q94.5104 1111.8 96.316 1115.36 Q98.1447 1118.9 101.756 1118.9 Q105.39 1118.9 107.196 1115.36 Q109.024 1111.8 109.024 1104.69 Q109.024 1097.56 107.196 1094.02 Q105.39 1090.45 101.756 1090.45 M101.756 1086.75 Q107.566 1086.75 110.621 1091.36 Q113.7 1095.94 113.7 1104.69 Q113.7 1113.42 110.621 1118.02 Q107.566 1122.61 101.756 1122.61 Q95.9456 1122.61 92.8669 1118.02 Q89.8114 1113.42 89.8114 1104.69 Q89.8114 1095.94 92.8669 1091.36 Q95.9456 1086.75 101.756 1086.75 Z" fill="#000000" fill-rule="nonzero" fill-opacity="1" /><path clip-path="url(#clip090)" d="M121.918 1116.06 L126.802 1116.06 L126.802 1121.94 L121.918 1121.94 L121.918 1116.06 Z" fill="#000000" fill-rule="nonzero" fill-opacity="1" /><path clip-path="url(#clip090)" d="M141.015 1118 L157.334 1118 L157.334 1121.94 L135.39 1121.94 L135.39 1118 Q138.052 1115.25 142.635 1110.62 Q147.242 1105.96 148.422 1104.62 Q150.668 1102.1 151.547 1100.36 Q152.45 1098.6 152.45 1096.91 Q152.45 1094.16 150.505 1092.42 Q148.584 1090.69 145.482 1090.69 Q143.283 1090.69 140.83 1091.45 Q138.399 1092.21 135.621 1093.77 L135.621 1089.04 Q138.445 1087.91 140.899 1087.33 Q143.353 1086.75 145.39 1086.75 Q150.76 1086.75 153.955 1089.44 Q157.149 1092.12 157.149 1096.61 Q157.149 1098.74 156.339 1100.66 Q155.552 1102.56 153.445 1105.15 Q152.867 1105.83 149.765 1109.04 Q146.663 1112.24 141.015 1118 Z" fill="#000000" fill-rule="nonzero" fill-opacity="1" /><path clip-path="url(#clip090)" d="M167.195 1087.38 L185.552 1087.38 L185.552 1091.31 L171.478 1091.31 L171.478 1099.78 Q172.496 1099.44 173.515 1099.27 Q174.533 1099.09 175.552 1099.09 Q181.339 1099.09 184.718 1102.26 Q188.098 1105.43 188.098 1110.85 Q188.098 1116.43 184.626 1119.53 Q181.153 1122.61 174.834 1122.61 Q172.658 1122.61 170.39 1122.24 Q168.144 1121.87 165.737 1121.13 L165.737 1116.43 Q167.82 1117.56 170.042 1118.12 Q172.265 1118.67 174.741 1118.67 Q178.746 1118.67 181.084 1116.57 Q183.422 1114.46 183.422 1110.85 Q183.422 1107.24 181.084 1105.13 Q178.746 1103.02 174.741 1103.02 Q172.866 1103.02 170.991 1103.44 Q169.14 1103.86 167.195 1104.74 L167.195 1087.38 Z" fill="#000000" fill-rule="nonzero" fill-opacity="1" /><path clip-path="url(#clip090)" d="M100.76 781.559 Q97.1493 781.559 95.3206 785.124 Q93.515 788.666 93.515 795.795 Q93.515 802.902 95.3206 806.466 Q97.1493 810.008 100.76 810.008 Q104.395 810.008 106.2 806.466 Q108.029 802.902 108.029 795.795 Q108.029 788.666 106.2 785.124 Q104.395 781.559 100.76 781.559 M100.76 777.856 Q106.571 777.856 109.626 782.462 Q112.705 787.045 112.705 795.795 Q112.705 804.522 109.626 809.129 Q106.571 813.712 100.76 813.712 Q94.9502 813.712 91.8715 809.129 Q88.816 804.522 88.816 795.795 Q88.816 787.045 91.8715 782.462 Q94.9502 777.856 100.76 777.856 Z" fill="#000000" fill-rule="nonzero" fill-opacity="1" /><path clip-path="url(#clip090)" d="M120.922 807.161 L125.807 807.161 L125.807 813.041 L120.922 813.041 L120.922 807.161 Z" fill="#000000" fill-rule="nonzero" fill-opacity="1" /><path clip-path="url(#clip090)" d="M145.992 781.559 Q142.381 781.559 140.552 785.124 Q138.746 788.666 138.746 795.795 Q138.746 802.902 140.552 806.466 Q142.381 810.008 145.992 810.008 Q149.626 810.008 151.431 806.466 Q153.26 802.902 153.26 795.795 Q153.26 788.666 151.431 785.124 Q149.626 781.559 145.992 781.559 M145.992 777.856 Q151.802 777.856 154.857 782.462 Q157.936 787.045 157.936 795.795 Q157.936 804.522 154.857 809.129 Q151.802 813.712 145.992 813.712 Q140.181 813.712 137.103 809.129 Q134.047 804.522 134.047 795.795 Q134.047 787.045 137.103 782.462 Q140.181 777.856 145.992 777.856 Z" fill="#000000" fill-rule="nonzero" fill-opacity="1" /><path clip-path="url(#clip090)" d="M176.153 781.559 Q172.542 781.559 170.714 785.124 Q168.908 788.666 168.908 795.795 Q168.908 802.902 170.714 806.466 Q172.542 810.008 176.153 810.008 Q179.788 810.008 181.593 806.466 Q183.422 802.902 183.422 795.795 Q183.422 788.666 181.593 785.124 Q179.788 781.559 176.153 781.559 M176.153 777.856 Q181.964 777.856 185.019 782.462 Q188.098 787.045 188.098 795.795 Q188.098 804.522 185.019 809.129 Q181.964 813.712 176.153 813.712 Q170.343 813.712 167.265 809.129 Q164.209 804.522 164.209 795.795 Q164.209 787.045 167.265 782.462 Q170.343 777.856 176.153 777.856 Z" fill="#000000" fill-rule="nonzero" fill-opacity="1" /><path clip-path="url(#clip090)" d="M101.756 472.663 Q98.1447 472.663 96.316 476.228 Q94.5104 479.77 94.5104 486.9 Q94.5104 494.006 96.316 497.571 Q98.1447 501.112 101.756 501.112 Q105.39 501.112 107.196 497.571 Q109.024 494.006 109.024 486.9 Q109.024 479.77 107.196 476.228 Q105.39 472.663 101.756 472.663 M101.756 468.96 Q107.566 468.96 110.621 473.566 Q113.7 478.15 113.7 486.9 Q113.7 495.626 110.621 500.233 Q107.566 504.816 101.756 504.816 Q95.9456 504.816 92.8669 500.233 Q89.8114 495.626 89.8114 486.9 Q89.8114 478.15 92.8669 473.566 Q95.9456 468.96 101.756 468.96 Z" fill="#000000" fill-rule="nonzero" fill-opacity="1" /><path clip-path="url(#clip090)" d="M121.918 498.265 L126.802 498.265 L126.802 504.145 L121.918 504.145 L121.918 498.265 Z" fill="#000000" fill-rule="nonzero" fill-opacity="1" /><path clip-path="url(#clip090)" d="M141.015 500.21 L157.334 500.21 L157.334 504.145 L135.39 504.145 L135.39 500.21 Q138.052 497.455 142.635 492.825 Q147.242 488.173 148.422 486.83 Q150.668 484.307 151.547 482.571 Q152.45 480.812 152.45 479.122 Q152.45 476.367 150.505 474.631 Q148.584 472.895 145.482 472.895 Q143.283 472.895 140.83 473.659 Q138.399 474.423 135.621 475.974 L135.621 471.251 Q138.445 470.117 140.899 469.539 Q143.353 468.96 145.39 468.96 Q150.76 468.96 153.955 471.645 Q157.149 474.33 157.149 478.821 Q157.149 480.95 156.339 482.872 Q155.552 484.77 153.445 487.362 Q152.867 488.034 149.765 491.251 Q146.663 494.446 141.015 500.21 Z" fill="#000000" fill-rule="nonzero" fill-opacity="1" /><path clip-path="url(#clip090)" d="M167.195 469.585 L185.552 469.585 L185.552 473.52 L171.478 473.52 L171.478 481.992 Q172.496 481.645 173.515 481.483 Q174.533 481.298 175.552 481.298 Q181.339 481.298 184.718 484.469 Q188.098 487.64 188.098 493.057 Q188.098 498.636 184.626 501.737 Q181.153 504.816 174.834 504.816 Q172.658 504.816 170.39 504.446 Q168.144 504.075 165.737 503.335 L165.737 498.636 Q167.82 499.77 170.042 500.325 Q172.265 500.881 174.741 500.881 Q178.746 500.881 181.084 498.774 Q183.422 496.668 183.422 493.057 Q183.422 489.446 181.084 487.339 Q178.746 485.233 174.741 485.233 Q172.866 485.233 170.991 485.65 Q169.14 486.066 167.195 486.946 L167.195 469.585 Z" fill="#000000" fill-rule="nonzero" fill-opacity="1" /><path clip-path="url(#clip090)" d="M100.76 163.768 Q97.1493 163.768 95.3206 167.333 Q93.515 170.874 93.515 178.004 Q93.515 185.11 95.3206 188.675 Q97.1493 192.217 100.76 192.217 Q104.395 192.217 106.2 188.675 Q108.029 185.11 108.029 178.004 Q108.029 170.874 106.2 167.333 Q104.395 163.768 100.76 163.768 M100.76 160.064 Q106.571 160.064 109.626 164.671 Q112.705 169.254 112.705 178.004 Q112.705 186.731 109.626 191.337 Q106.571 195.92 100.76 195.92 Q94.9502 195.92 91.8715 191.337 Q88.816 186.731 88.816 178.004 Q88.816 169.254 91.8715 164.671 Q94.9502 160.064 100.76 160.064 Z" fill="#000000" fill-rule="nonzero" fill-opacity="1" /><path clip-path="url(#clip090)" d="M120.922 189.369 L125.807 189.369 L125.807 195.249 L120.922 195.249 L120.922 189.369 Z" fill="#000000" fill-rule="nonzero" fill-opacity="1" /><path clip-path="url(#clip090)" d="M136.038 160.689 L154.394 160.689 L154.394 164.624 L140.32 164.624 L140.32 173.096 Q141.339 172.749 142.357 172.587 Q143.376 172.402 144.394 172.402 Q150.181 172.402 153.561 175.573 Q156.941 178.745 156.941 184.161 Q156.941 189.74 153.468 192.842 Q149.996 195.92 143.677 195.92 Q141.501 195.92 139.232 195.55 Q136.987 195.18 134.58 194.439 L134.58 189.74 Q136.663 190.874 138.885 191.43 Q141.107 191.985 143.584 191.985 Q147.589 191.985 149.927 189.879 Q152.265 187.772 152.265 184.161 Q152.265 180.55 149.927 178.444 Q147.589 176.337 143.584 176.337 Q141.709 176.337 139.834 176.754 Q137.982 177.17 136.038 178.05 L136.038 160.689 Z" fill="#000000" fill-rule="nonzero" fill-opacity="1" /><path clip-path="url(#clip090)" d="M176.153 163.768 Q172.542 163.768 170.714 167.333 Q168.908 170.874 168.908 178.004 Q168.908 185.11 170.714 188.675 Q172.542 192.217 176.153 192.217 Q179.788 192.217 181.593 188.675 Q183.422 185.11 183.422 178.004 Q183.422 170.874 181.593 167.333 Q179.788 163.768 176.153 163.768 M176.153 160.064 Q181.964 160.064 185.019 164.671 Q188.098 169.254 188.098 178.004 Q188.098 186.731 185.019 191.337 Q181.964 195.92 176.153 195.92 Q170.343 195.92 167.265 191.337 Q164.209 186.731 164.209 178.004 Q164.209 169.254 167.265 164.671 Q170.343 160.064 176.153 160.064 Z" fill="#000000" fill-rule="nonzero" fill-opacity="1" /><polyline clip-path="url(#clip092)" style="stroke:#009af9; stroke-linecap:round; stroke-linejoin:round; stroke-width:4; stroke-opacity:1; fill:none" points="224.098,795.761 245.384,722.802 252.804,720.77 261.152,713.001 270.543,713.505 281.108,694.594 292.993,716.001 306.365,709.948 321.407,727.607 338.33,715.307 357.368,720.504 378.45,718.595 402.167,709.643 427.408,737.359 454.355,741.81 480.475,696.776 506.134,682.419 533.369,672.324 560.277,666.781 586.28,629.072 612.743,579.528 638.083,524.493 662.944,495.926 686.719,532.447 710.065,517.739 732.756,476.791 754.466,483.728 775.806,459.79 796.281,485.206 817.181,532.885 838.056,512.447 858.992,530.98 880.234,564.16 901.196,592.882 922.5,626.725 944.185,616.657 966.208,600.706 987.529,562.491 1008.32,580.428 1029.32,578.628 1050.06,640.755 1071.63,659.797 1092.96,682.163 1114.66,679.146 1136.52,635.868 1159.01,604.614 1181.2,562.533 1202.79,596.195 1224.18,561.544 1244.86,537.264 1265.29,492.455 1285.11,490.574 1304.43,506.509 1323.29,509.564 1342.93,461.243 1361.7,442.579 1380.46,461.499 1399.41,470.785 1418.28,464.881 1437.24,498.337 1456.29,463.405 1474.59,439.705 1492.52,454.271 1510.26,421.92 1527.51,424.671 1544.5,339.479 1560.92,289.03 1576.48,287.74 1591.81,323.144 1606.8,329.192 1621.62,338.834 1636.17,363.313 1650.54,337.766 1664.78,339.189 1678.96,349.813 1693.03,344.334 1707.03,291.081 1721.02,337.68 1735.13,348.579 1748.95,360.226 1762.91,385.287 1776.74,387.892 1790.41,369.585 1804.21,365.431 1817.9,375.911 1831.53,372.043 1844.99,395.625 1858.41,393.321 1871.86,387.097 1885.25,399.119 1898.68,402.723 1912.05,386.788 1925.5,370.169 1938.9,360.579 1952.25,362.027 1965.76,326.526 1979.06,342.832 1992.39,298.188 2005.72,264.793 2018.69,249.081 2031.67,219.088 2044.26,224.811 2056.86,231.044 2069.36,220.197 2081.62,183.512 2093.71,208.808 2105.7,193.603 2117.54,166.43 2129.27,164.753 2140.82,158.838 2152.2,149.77 2163.44,132.498 2174.68,140.108 2185.8,124.53 2196.85,127.387 2207.82,130.992 2218.74,121.187 2229.56,110.148 2240.33,97.4173 2251.13,97.8476 2261.9,113.49 2272.66,107.737 2283.36,106.864 2294.08,124.809 2304.86,102.332 2315.58,94.7768 2326.29,86.1857 2336.88,101.198 2347.51,118.542 2352.76,122.973 "/>
<polyline clip-path="url(#clip092)" style="stroke:#e26f46; stroke-linecap:round; stroke-linejoin:round; stroke-width:4; stroke-opacity:1; fill:none" points="224.098,795.761 245.384,795.029 252.804,790.509 261.152,785.404 270.543,818.175 281.108,786.015 292.993,843.474 306.365,819.042 321.407,809.689 338.33,814.277 357.368,848.332 378.45,859.156 402.167,885.99 427.408,965.389 454.355,1008.88 480.475,987.296 506.134,975.514 533.369,1007.44 560.277,1072.68 586.28,1039.78 612.743,1042.92 638.083,989.984 662.944,1039 686.719,1068.01 710.065,1048.15 732.756,1048.62 754.466,1097.22 775.806,1084.75 796.281,1021.59 817.181,1052.49 838.056,1024.79 858.992,1023.51 880.234,1074.92 901.196,1066.57 922.5,1062.86 944.185,1071.79 966.208,1092.97 987.529,1086.58 1008.32,1102.81 1029.32,1082.79 1050.06,1087.18 1071.63,1123.03 1092.96,1113.37 1114.66,1106.75 1136.52,1074.79 1159.01,1064.51 1181.2,1046.86 1202.79,1127.68 1224.18,1137.46 1244.86,1115.65 1265.29,1104.76 1285.11,1123.05 1304.43,1140.09 1323.29,1064.27 1342.93,1087.72 1361.7,1098.52 1380.46,1076.14 1399.41,1032.25 1418.28,1034.43 1437.24,1058.38 1456.29,1094.66 1474.59,1096.9 1492.52,1134.44 1510.26,1149.98 1527.51,1198.86 1544.5,1206.75 1560.92,1218.69 1576.48,1200.13 1591.81,1212.78 1606.8,1224.47 1621.62,1255.43 1636.17,1263.41 1650.54,1241.06 1664.78,1253.06 1678.96,1222.87 1693.03,1223.61 1707.03,1174.33 1721.02,1208.35 1735.13,1211.96 1748.95,1226.81 1762.91,1252.02 1776.74,1244.33 1790.41,1239.6 1804.21,1241.46 1817.9,1261.08 1831.53,1285.95 1844.99,1285.88 1858.41,1269.11 1871.86,1259.9 1885.25,1259.77 1898.68,1264.56 1912.05,1259.73 1925.5,1227.38 1938.9,1223.13 1952.25,1226.9 1965.76,1224.77 1979.06,1207.24 1992.39,1221.23 2005.72,1254.78 2018.69,1240.01 2031.67,1246.1 2044.26,1250.27 2056.86,1265.67 2069.36,1291.34 2081.62,1301.62 2093.71,1318.68 2105.7,1343.1 2117.54,1344.77 2129.27,1329.08 2140.82,1375.76 2152.2,1355.95 2163.44,1351.79 2174.68,1358.28 2185.8,1359.91 2196.85,1358.54 2207.82,1352.95 2218.74,1384.24 2229.56,1383.21 2240.33,1308.81 2251.13,1310.38 2261.9,1337.78 2272.66,1341.19 2283.36,1334.43 2294.08,1298.72 2304.86,1314.17 2315.58,1322.26 2326.29,1327.95 2336.88,1370.08 2347.51,1355.29 2352.76,1351.6 "/>
<path clip-path="url(#clip090)" d="M295.053 248.629 L597.016 248.629 L597.016 93.1086 L295.053 93.1086  Z" fill="#ffffff" fill-rule="evenodd" fill-opacity="1"/>
<polyline clip-path="url(#clip090)" style="stroke:#000000; stroke-linecap:round; stroke-linejoin:round; stroke-width:4; stroke-opacity:1; fill:none" points="295.053,248.629 597.016,248.629 597.016,93.1086 295.053,93.1086 295.053,248.629 "/>
<polyline clip-path="url(#clip090)" style="stroke:#009af9; stroke-linecap:round; stroke-linejoin:round; stroke-width:4; stroke-opacity:1; fill:none" points="318.705,144.949 460.615,144.949 "/>
<path clip-path="url(#clip090)" d="M484.267 151.997 L484.267 136.303 L488.526 136.303 L488.526 151.835 Q488.526 155.516 489.962 157.368 Q491.397 159.196 494.267 159.196 Q497.716 159.196 499.707 156.997 Q501.721 154.798 501.721 151.002 L501.721 136.303 L505.98 136.303 L505.98 162.229 L501.721 162.229 L501.721 158.247 Q500.17 160.608 498.11 161.766 Q496.073 162.9 493.364 162.9 Q488.897 162.9 486.582 160.122 Q484.267 157.344 484.267 151.997 M494.985 135.678 L494.985 135.678 Z" fill="#000000" fill-rule="nonzero" fill-opacity="1" /><path clip-path="url(#clip090)" d="M514.36 126.21 L524.174 126.21 L524.174 129.52 L518.619 129.52 L518.619 165.168 L524.174 165.168 L524.174 168.479 L514.36 168.479 L514.36 126.21 Z" fill="#000000" fill-rule="nonzero" fill-opacity="1" /><path clip-path="url(#clip090)" d="M534.66 158.293 L542.299 158.293 L542.299 131.928 L533.989 133.595 L533.989 129.335 L542.253 127.669 L546.929 127.669 L546.929 158.293 L554.568 158.293 L554.568 162.229 L534.66 162.229 L534.66 158.293 Z" fill="#000000" fill-rule="nonzero" fill-opacity="1" /><path clip-path="url(#clip090)" d="M573.364 126.21 L573.364 168.479 L563.549 168.479 L563.549 165.168 L569.082 165.168 L569.082 129.52 L563.549 129.52 L563.549 126.21 L573.364 126.21 Z" fill="#000000" fill-rule="nonzero" fill-opacity="1" /><polyline clip-path="url(#clip090)" style="stroke:#e26f46; stroke-linecap:round; stroke-linejoin:round; stroke-width:4; stroke-opacity:1; fill:none" points="318.705,196.789 460.615,196.789 "/>
<path clip-path="url(#clip090)" d="M484.267 203.837 L484.267 188.143 L488.526 188.143 L488.526 203.675 Q488.526 207.356 489.962 209.208 Q491.397 211.036 494.267 211.036 Q497.716 211.036 499.707 208.837 Q501.721 206.638 501.721 202.842 L501.721 188.143 L505.98 188.143 L505.98 214.069 L501.721 214.069 L501.721 210.087 Q500.17 212.448 498.11 213.606 Q496.073 214.74 493.364 214.74 Q488.897 214.74 486.582 211.962 Q484.267 209.184 484.267 203.837 M494.985 187.518 L494.985 187.518 Z" fill="#000000" fill-rule="nonzero" fill-opacity="1" /><path clip-path="url(#clip090)" d="M514.36 178.05 L524.174 178.05 L524.174 181.36 L518.619 181.36 L518.619 217.008 L524.174 217.008 L524.174 220.319 L514.36 220.319 L514.36 178.05 Z" fill="#000000" fill-rule="nonzero" fill-opacity="1" /><path clip-path="url(#clip090)" d="M537.878 210.133 L554.197 210.133 L554.197 214.069 L532.253 214.069 L532.253 210.133 Q534.915 207.379 539.498 202.749 Q544.105 198.096 545.285 196.754 Q547.531 194.231 548.41 192.495 Q549.313 190.735 549.313 189.046 Q549.313 186.291 547.369 184.555 Q545.447 182.819 542.346 182.819 Q540.147 182.819 537.693 183.583 Q535.262 184.347 532.485 185.897 L532.485 181.175 Q535.309 180.041 537.762 179.462 Q540.216 178.884 542.253 178.884 Q547.623 178.884 550.818 181.569 Q554.012 184.254 554.012 188.745 Q554.012 190.874 553.202 192.796 Q552.415 194.694 550.309 197.286 Q549.73 197.958 546.628 201.175 Q543.526 204.37 537.878 210.133 Z" fill="#000000" fill-rule="nonzero" fill-opacity="1" /><path clip-path="url(#clip090)" d="M573.364 178.05 L573.364 220.319 L563.549 220.319 L563.549 217.008 L569.082 217.008 L569.082 181.36 L563.549 181.36 L563.549 178.05 L573.364 178.05 Z" fill="#000000" fill-rule="nonzero" fill-opacity="1" /></svg>
