<?xml version="1.0" encoding="utf-8"?>
<svg xmlns="http://www.w3.org/2000/svg" xmlns:xlink="http://www.w3.org/1999/xlink" width="600" height="400" viewBox="0 0 2400 1600">
<defs>
  <clipPath id="clip970">
    <rect x="0" y="0" width="2400" height="1600"/>
  </clipPath>
</defs>
<path clip-path="url(#clip970)" d="M0 1600 L2400 1600 L2400 0 L0 0  Z" fill="#ffffff" fill-rule="evenodd" fill-opacity="1"/>
<defs>
  <clipPath id="clip971">
    <rect x="480" y="0" width="1681" height="1600"/>
  </clipPath>
</defs>
<path clip-path="url(#clip970)" d="M186.436 1423.18 L2352.76 1423.18 L2352.76 47.2441 L186.436 47.2441  Z" fill="#ffffff" fill-rule="evenodd" fill-opacity="1"/>
<defs>
  <clipPath id="clip972">
    <rect x="186" y="47" width="2167" height="1377"/>
  </clipPath>
</defs>
<polyline clip-path="url(#clip972)" style="stroke:#000000; stroke-linecap:round; stroke-linejoin:round; stroke-width:2; stroke-opacity:0.1; fill:none" points="186.436,1423.18 186.436,47.2441 "/>
<polyline clip-path="url(#clip972)" style="stroke:#000000; stroke-linecap:round; stroke-linejoin:round; stroke-width:2; stroke-opacity:0.1; fill:none" points="619.7,1423.18 619.7,47.2441 "/>
<polyline clip-path="url(#clip972)" style="stroke:#000000; stroke-linecap:round; stroke-linejoin:round; stroke-width:2; stroke-opacity:0.1; fill:none" points="1052.96,1423.18 1052.96,47.2441 "/>
<polyline clip-path="url(#clip972)" style="stroke:#000000; stroke-linecap:round; stroke-linejoin:round; stroke-width:2; stroke-opacity:0.1; fill:none" points="1486.23,1423.18 1486.23,47.2441 "/>
<polyline clip-path="url(#clip972)" style="stroke:#000000; stroke-linecap:round; stroke-linejoin:round; stroke-width:2; stroke-opacity:0.1; fill:none" points="1919.49,1423.18 1919.49,47.2441 "/>
<polyline clip-path="url(#clip972)" style="stroke:#000000; stroke-linecap:round; stroke-linejoin:round; stroke-width:2; stroke-opacity:0.1; fill:none" points="2352.76,1423.18 2352.76,47.2441 "/>
<polyline clip-path="url(#clip970)" style="stroke:#000000; stroke-linecap:round; stroke-linejoin:round; stroke-width:4; stroke-opacity:1; fill:none" points="186.436,1423.18 2352.76,1423.18 "/>
<polyline clip-path="url(#clip970)" style="stroke:#000000; stroke-linecap:round; stroke-linejoin:round; stroke-width:4; stroke-opacity:1; fill:none" points="186.436,1423.18 186.436,1404.28 "/>
<polyline clip-path="url(#clip970)" style="stroke:#000000; stroke-linecap:round; stroke-linejoin:round; stroke-width:4; stroke-opacity:1; fill:none" points="619.7,1423.18 619.7,1404.28 "/>
<polyline clip-path="url(#clip970)" style="stroke:#000000; stroke-linecap:round; stroke-linejoin:round; stroke-width:4; stroke-opacity:1; fill:none" points="1052.96,1423.18 1052.96,1404.28 "/>
<polyline clip-path="url(#clip970)" style="stroke:#000000; stroke-linecap:round; stroke-linejoin:round; stroke-width:4; stroke-opacity:1; fill:none" points="1486.23,1423.18 1486.23,1404.28 "/>
<polyline clip-path="url(#clip970)" style="stroke:#000000; stroke-linecap:round; stroke-linejoin:round; stroke-width:4; stroke-opacity:1; fill:none" points="1919.49,1423.18 1919.49,1404.28 "/>
<polyline clip-path="url(#clip970)" style="stroke:#000000; stroke-linecap:round; stroke-linejoin:round; stroke-width:4; stroke-opacity:1; fill:none" points="2352.76,1423.18 2352.76,1404.28 "/>
<path clip-path="url(#clip970)" d="M163.82 1454.1 Q160.209 1454.1 158.381 1457.66 Q156.575 1461.2 156.575 1468.33 Q156.575 1475.44 158.381 1479.01 Q160.209 1482.55 163.82 1482.55 Q167.455 1482.55 169.26 1479.01 Q171.089 1475.44 171.089 1468.33 Q171.089 1461.2 169.26 1457.66 Q167.455 1454.1 163.82 1454.1 M163.82 1450.39 Q169.631 1450.39 172.686 1455 Q175.765 1459.58 175.765 1468.33 Q175.765 1477.06 172.686 1481.67 Q169.631 1486.25 163.82 1486.25 Q158.01 1486.25 154.932 1481.67 Q151.876 1477.06 151.876 1468.33 Q151.876 1459.58 154.932 1455 Q158.01 1450.39 163.82 1450.39 Z" fill="#000000" fill-rule="nonzero" fill-opacity="1" /><path clip-path="url(#clip970)" d="M183.982 1479.7 L188.867 1479.7 L188.867 1485.58 L183.982 1485.58 L183.982 1479.7 Z" fill="#000000" fill-rule="nonzero" fill-opacity="1" /><path clip-path="url(#clip970)" d="M209.052 1454.1 Q205.441 1454.1 203.612 1457.66 Q201.806 1461.2 201.806 1468.33 Q201.806 1475.44 203.612 1479.01 Q205.441 1482.55 209.052 1482.55 Q212.686 1482.55 214.491 1479.01 Q216.32 1475.44 216.32 1468.33 Q216.32 1461.2 214.491 1457.66 Q212.686 1454.1 209.052 1454.1 M209.052 1450.39 Q214.862 1450.39 217.917 1455 Q220.996 1459.58 220.996 1468.33 Q220.996 1477.06 217.917 1481.67 Q214.862 1486.25 209.052 1486.25 Q203.242 1486.25 200.163 1481.67 Q197.107 1477.06 197.107 1468.33 Q197.107 1459.58 200.163 1455 Q203.242 1450.39 209.052 1450.39 Z" fill="#000000" fill-rule="nonzero" fill-opacity="1" /><path clip-path="url(#clip970)" d="M597.883 1454.1 Q594.272 1454.1 592.443 1457.66 Q590.638 1461.2 590.638 1468.33 Q590.638 1475.44 592.443 1479.01 Q594.272 1482.55 597.883 1482.55 Q601.517 1482.55 603.323 1479.01 Q605.151 1475.44 605.151 1468.33 Q605.151 1461.2 603.323 1457.66 Q601.517 1454.1 597.883 1454.1 M597.883 1450.39 Q603.693 1450.39 606.749 1455 Q609.827 1459.58 609.827 1468.33 Q609.827 1477.06 606.749 1481.67 Q603.693 1486.25 597.883 1486.25 Q592.073 1486.25 588.994 1481.67 Q585.939 1477.06 585.939 1468.33 Q585.939 1459.58 588.994 1455 Q592.073 1450.39 597.883 1450.39 Z" fill="#000000" fill-rule="nonzero" fill-opacity="1" /><path clip-path="url(#clip970)" d="M618.045 1479.7 L622.929 1479.7 L622.929 1485.58 L618.045 1485.58 L618.045 1479.7 Z" fill="#000000" fill-rule="nonzero" fill-opacity="1" /><path clip-path="url(#clip970)" d="M637.142 1481.64 L653.461 1481.64 L653.461 1485.58 L631.517 1485.58 L631.517 1481.64 Q634.179 1478.89 638.762 1474.26 Q643.369 1469.61 644.549 1468.27 Q646.795 1465.74 647.674 1464.01 Q648.577 1462.25 648.577 1460.56 Q648.577 1457.8 646.633 1456.07 Q644.711 1454.33 641.61 1454.33 Q639.411 1454.33 636.957 1455.09 Q634.526 1455.86 631.749 1457.41 L631.749 1452.69 Q634.573 1451.55 637.026 1450.97 Q639.48 1450.39 641.517 1450.39 Q646.887 1450.39 650.082 1453.08 Q653.276 1455.77 653.276 1460.26 Q653.276 1462.39 652.466 1464.31 Q651.679 1466.2 649.573 1468.8 Q648.994 1469.47 645.892 1472.69 Q642.79 1475.88 637.142 1481.64 Z" fill="#000000" fill-rule="nonzero" fill-opacity="1" /><path clip-path="url(#clip970)" d="M1030.11 1454.1 Q1026.49 1454.1 1024.67 1457.66 Q1022.86 1461.2 1022.86 1468.33 Q1022.86 1475.44 1024.67 1479.01 Q1026.49 1482.55 1030.11 1482.55 Q1033.74 1482.55 1035.55 1479.01 Q1037.37 1475.44 1037.37 1468.33 Q1037.37 1461.2 1035.55 1457.66 Q1033.74 1454.1 1030.11 1454.1 M1030.11 1450.39 Q1035.92 1450.39 1038.97 1455 Q1042.05 1459.58 1042.05 1468.33 Q1042.05 1477.06 1038.97 1481.67 Q1035.92 1486.25 1030.11 1486.25 Q1024.3 1486.25 1021.22 1481.67 Q1018.16 1477.06 1018.16 1468.33 Q1018.16 1459.58 1021.22 1455 Q1024.3 1450.39 1030.11 1450.39 Z" fill="#000000" fill-rule="nonzero" fill-opacity="1" /><path clip-path="url(#clip970)" d="M1050.27 1479.7 L1055.15 1479.7 L1055.15 1485.58 L1050.27 1485.58 L1050.27 1479.7 Z" fill="#000000" fill-rule="nonzero" fill-opacity="1" /><path clip-path="url(#clip970)" d="M1078.18 1455.09 L1066.38 1473.54 L1078.18 1473.54 L1078.18 1455.09 M1076.96 1451.02 L1082.84 1451.02 L1082.84 1473.54 L1087.77 1473.54 L1087.77 1477.43 L1082.84 1477.43 L1082.84 1485.58 L1078.18 1485.58 L1078.18 1477.43 L1062.58 1477.43 L1062.58 1472.92 L1076.96 1451.02 Z" fill="#000000" fill-rule="nonzero" fill-opacity="1" /><path clip-path="url(#clip970)" d="M1463.53 1454.1 Q1459.92 1454.1 1458.09 1457.66 Q1456.29 1461.2 1456.29 1468.33 Q1456.29 1475.44 1458.09 1479.01 Q1459.92 1482.55 1463.53 1482.55 Q1467.17 1482.55 1468.97 1479.01 Q1470.8 1475.44 1470.8 1468.33 Q1470.8 1461.2 1468.97 1457.66 Q1467.17 1454.1 1463.53 1454.1 M1463.53 1450.39 Q1469.34 1450.39 1472.4 1455 Q1475.48 1459.58 1475.48 1468.33 Q1475.48 1477.06 1472.4 1481.67 Q1469.34 1486.25 1463.53 1486.25 Q1457.72 1486.25 1454.64 1481.67 Q1451.59 1477.06 1451.59 1468.33 Q1451.59 1459.58 1454.64 1455 Q1457.72 1450.39 1463.53 1450.39 Z" fill="#000000" fill-rule="nonzero" fill-opacity="1" /><path clip-path="url(#clip970)" d="M1483.69 1479.7 L1488.58 1479.7 L1488.58 1485.58 L1483.69 1485.58 L1483.69 1479.7 Z" fill="#000000" fill-rule="nonzero" fill-opacity="1" /><path clip-path="url(#clip970)" d="M1509.34 1466.44 Q1506.19 1466.44 1504.34 1468.59 Q1502.51 1470.74 1502.51 1474.49 Q1502.51 1478.22 1504.34 1480.39 Q1506.19 1482.55 1509.34 1482.55 Q1512.49 1482.55 1514.32 1480.39 Q1516.17 1478.22 1516.17 1474.49 Q1516.17 1470.74 1514.32 1468.59 Q1512.49 1466.44 1509.34 1466.44 M1518.62 1451.78 L1518.62 1456.04 Q1516.86 1455.21 1515.06 1454.77 Q1513.28 1454.33 1511.52 1454.33 Q1506.89 1454.33 1504.43 1457.45 Q1502 1460.58 1501.66 1466.9 Q1503.02 1464.89 1505.08 1463.82 Q1507.14 1462.73 1509.62 1462.73 Q1514.83 1462.73 1517.84 1465.9 Q1520.87 1469.05 1520.87 1474.49 Q1520.87 1479.82 1517.72 1483.03 Q1514.57 1486.25 1509.34 1486.25 Q1503.35 1486.25 1500.17 1481.67 Q1497 1477.06 1497 1468.33 Q1497 1460.14 1500.89 1455.28 Q1504.78 1450.39 1511.33 1450.39 Q1513.09 1450.39 1514.87 1450.74 Q1516.68 1451.09 1518.62 1451.78 Z" fill="#000000" fill-rule="nonzero" fill-opacity="1" /><path clip-path="url(#clip970)" d="M1896.92 1454.1 Q1893.31 1454.1 1891.48 1457.66 Q1889.68 1461.2 1889.68 1468.33 Q1889.68 1475.44 1891.48 1479.01 Q1893.31 1482.55 1896.92 1482.55 Q1900.56 1482.55 1902.36 1479.01 Q1904.19 1475.44 1904.19 1468.33 Q1904.19 1461.2 1902.36 1457.66 Q1900.56 1454.1 1896.92 1454.1 M1896.92 1450.39 Q1902.73 1450.39 1905.79 1455 Q1908.87 1459.58 1908.87 1468.33 Q1908.87 1477.06 1905.79 1481.67 Q1902.73 1486.25 1896.92 1486.25 Q1891.11 1486.25 1888.03 1481.67 Q1884.98 1477.06 1884.98 1468.33 Q1884.98 1459.58 1888.03 1455 Q1891.11 1450.39 1896.92 1450.39 Z" fill="#000000" fill-rule="nonzero" fill-opacity="1" /><path clip-path="url(#clip970)" d="M1917.08 1479.7 L1921.97 1479.7 L1921.97 1485.58 L1917.08 1485.58 L1917.08 1479.7 Z" fill="#000000" fill-rule="nonzero" fill-opacity="1" /><path clip-path="url(#clip970)" d="M1942.15 1469.17 Q1938.82 1469.17 1936.9 1470.95 Q1935 1472.73 1935 1475.86 Q1935 1478.98 1936.9 1480.77 Q1938.82 1482.55 1942.15 1482.55 Q1945.49 1482.55 1947.41 1480.77 Q1949.33 1478.96 1949.33 1475.86 Q1949.33 1472.73 1947.41 1470.95 Q1945.51 1469.17 1942.15 1469.17 M1937.48 1467.18 Q1934.47 1466.44 1932.78 1464.38 Q1931.11 1462.32 1931.11 1459.35 Q1931.11 1455.21 1934.05 1452.8 Q1937.01 1450.39 1942.15 1450.39 Q1947.32 1450.39 1950.26 1452.8 Q1953.2 1455.21 1953.2 1459.35 Q1953.2 1462.32 1951.51 1464.38 Q1949.84 1466.44 1946.85 1467.18 Q1950.23 1467.96 1952.11 1470.26 Q1954.01 1472.55 1954.01 1475.86 Q1954.01 1480.88 1950.93 1483.57 Q1947.87 1486.25 1942.15 1486.25 Q1936.44 1486.25 1933.36 1483.57 Q1930.3 1480.88 1930.3 1475.86 Q1930.3 1472.55 1932.2 1470.26 Q1934.1 1467.96 1937.48 1467.18 M1935.76 1459.79 Q1935.76 1462.48 1937.43 1463.98 Q1939.12 1465.49 1942.15 1465.49 Q1945.16 1465.49 1946.85 1463.98 Q1948.57 1462.48 1948.57 1459.79 Q1948.57 1457.11 1946.85 1455.6 Q1945.16 1454.1 1942.15 1454.1 Q1939.12 1454.1 1937.43 1455.6 Q1935.76 1457.11 1935.76 1459.79 Z" fill="#000000" fill-rule="nonzero" fill-opacity="1" /><path clip-path="url(#clip970)" d="M2319.91 1481.64 L2327.55 1481.64 L2327.55 1455.28 L2319.24 1456.95 L2319.24 1452.69 L2327.5 1451.02 L2332.18 1451.02 L2332.18 1481.64 L2339.82 1481.64 L2339.82 1485.58 L2319.91 1485.58 L2319.91 1481.64 Z" fill="#000000" fill-rule="nonzero" fill-opacity="1" /><path clip-path="url(#clip970)" d="M2349.26 1479.7 L2354.14 1479.7 L2354.14 1485.58 L2349.26 1485.58 L2349.26 1479.7 Z" fill="#000000" fill-rule="nonzero" fill-opacity="1" /><path clip-path="url(#clip970)" d="M2374.33 1454.1 Q2370.72 1454.1 2368.89 1457.66 Q2367.08 1461.2 2367.08 1468.33 Q2367.08 1475.44 2368.89 1479.01 Q2370.72 1482.55 2374.33 1482.55 Q2377.96 1482.55 2379.77 1479.01 Q2381.6 1475.44 2381.6 1468.33 Q2381.6 1461.2 2379.77 1457.66 Q2377.96 1454.1 2374.33 1454.1 M2374.33 1450.39 Q2380.14 1450.39 2383.2 1455 Q2386.27 1459.58 2386.27 1468.33 Q2386.27 1477.06 2383.2 1481.67 Q2380.14 1486.25 2374.33 1486.25 Q2368.52 1486.25 2365.44 1481.67 Q2362.39 1477.06 2362.39 1468.33 Q2362.39 1459.58 2365.44 1455 Q2368.52 1450.39 2374.33 1450.39 Z" fill="#000000" fill-rule="nonzero" fill-opacity="1" /><path clip-path="url(#clip970)" d="M1268.66 1522.27 L1268.66 1532.4 L1280.72 1532.4 L1280.72 1536.95 L1268.66 1536.95 L1268.66 1556.3 Q1268.66 1560.66 1269.83 1561.9 Q1271.04 1563.14 1274.7 1563.14 L1280.72 1563.14 L1280.72 1568.04 L1274.7 1568.04 Q1267.92 1568.04 1265.35 1565.53 Q1262.77 1562.98 1262.77 1556.3 L1262.77 1536.95 L1258.47 1536.95 L1258.47 1532.4 L1262.77 1532.4 L1262.77 1522.27 L1268.66 1522.27 Z" fill="#000000" fill-rule="nonzero" fill-opacity="1" /><polyline clip-path="url(#clip972)" style="stroke:#000000; stroke-linecap:round; stroke-linejoin:round; stroke-width:2; stroke-opacity:0.1; fill:none" points="186.436,1362.03 2352.76,1362.03 "/>
<polyline clip-path="url(#clip972)" style="stroke:#000000; stroke-linecap:round; stroke-linejoin:round; stroke-width:2; stroke-opacity:0.1; fill:none" points="186.436,1095.97 2352.76,1095.97 "/>
<polyline clip-path="url(#clip972)" style="stroke:#000000; stroke-linecap:round; stroke-linejoin:round; stroke-width:2; stroke-opacity:0.1; fill:none" points="186.436,829.908 2352.76,829.908 "/>
<polyline clip-path="url(#clip972)" style="stroke:#000000; stroke-linecap:round; stroke-linejoin:round; stroke-width:2; stroke-opacity:0.1; fill:none" points="186.436,563.847 2352.76,563.847 "/>
<polyline clip-path="url(#clip972)" style="stroke:#000000; stroke-linecap:round; stroke-linejoin:round; stroke-width:2; stroke-opacity:0.1; fill:none" points="186.436,297.787 2352.76,297.787 "/>
<polyline clip-path="url(#clip970)" style="stroke:#000000; stroke-linecap:round; stroke-linejoin:round; stroke-width:4; stroke-opacity:1; fill:none" points="186.436,1423.18 186.436,47.2441 "/>
<polyline clip-path="url(#clip970)" style="stroke:#000000; stroke-linecap:round; stroke-linejoin:round; stroke-width:4; stroke-opacity:1; fill:none" points="186.436,1362.03 205.334,1362.03 "/>
<polyline clip-path="url(#clip970)" style="stroke:#000000; stroke-linecap:round; stroke-linejoin:round; stroke-width:4; stroke-opacity:1; fill:none" points="186.436,1095.97 205.334,1095.97 "/>
<polyline clip-path="url(#clip970)" style="stroke:#000000; stroke-linecap:round; stroke-linejoin:round; stroke-width:4; stroke-opacity:1; fill:none" points="186.436,829.908 205.334,829.908 "/>
<polyline clip-path="url(#clip970)" style="stroke:#000000; stroke-linecap:round; stroke-linejoin:round; stroke-width:4; stroke-opacity:1; fill:none" points="186.436,563.847 205.334,563.847 "/>
<polyline clip-path="url(#clip970)" style="stroke:#000000; stroke-linecap:round; stroke-linejoin:round; stroke-width:4; stroke-opacity:1; fill:none" points="186.436,297.787 205.334,297.787 "/>
<path clip-path="url(#clip970)" d="M62.9365 1347.83 Q59.3254 1347.83 57.4967 1351.39 Q55.6912 1354.93 55.6912 1362.06 Q55.6912 1369.17 57.4967 1372.73 Q59.3254 1376.28 62.9365 1376.28 Q66.5707 1376.28 68.3763 1372.73 Q70.205 1369.17 70.205 1362.06 Q70.205 1354.93 68.3763 1351.39 Q66.5707 1347.83 62.9365 1347.83 M62.9365 1344.12 Q68.7467 1344.12 71.8022 1348.73 Q74.8809 1353.31 74.8809 1362.06 Q74.8809 1370.79 71.8022 1375.4 Q68.7467 1379.98 62.9365 1379.98 Q57.1264 1379.98 54.0477 1375.4 Q50.9921 1370.79 50.9921 1362.06 Q50.9921 1353.31 54.0477 1348.73 Q57.1264 1344.12 62.9365 1344.12 Z" fill="#000000" fill-rule="nonzero" fill-opacity="1" /><path clip-path="url(#clip970)" d="M83.0984 1373.43 L87.9827 1373.43 L87.9827 1379.31 L83.0984 1379.31 L83.0984 1373.43 Z" fill="#000000" fill-rule="nonzero" fill-opacity="1" /><path clip-path="url(#clip970)" d="M108.168 1347.83 Q104.557 1347.83 102.728 1351.39 Q100.922 1354.93 100.922 1362.06 Q100.922 1369.17 102.728 1372.73 Q104.557 1376.28 108.168 1376.28 Q111.802 1376.28 113.608 1372.73 Q115.436 1369.17 115.436 1362.06 Q115.436 1354.93 113.608 1351.39 Q111.802 1347.83 108.168 1347.83 M108.168 1344.12 Q113.978 1344.12 117.033 1348.73 Q120.112 1353.31 120.112 1362.06 Q120.112 1370.79 117.033 1375.4 Q113.978 1379.98 108.168 1379.98 Q102.358 1379.98 99.2789 1375.4 Q96.2234 1370.79 96.2234 1362.06 Q96.2234 1353.31 99.2789 1348.73 Q102.358 1344.12 108.168 1344.12 Z" fill="#000000" fill-rule="nonzero" fill-opacity="1" /><path clip-path="url(#clip970)" d="M138.908 1360.17 Q135.76 1360.17 133.908 1362.32 Q132.08 1364.47 132.08 1368.22 Q132.08 1371.95 133.908 1374.12 Q135.76 1376.28 138.908 1376.28 Q142.056 1376.28 143.885 1374.12 Q145.737 1371.95 145.737 1368.22 Q145.737 1364.47 143.885 1362.32 Q142.056 1360.17 138.908 1360.17 M148.191 1345.51 L148.191 1349.77 Q146.431 1348.94 144.626 1348.5 Q142.843 1348.06 141.084 1348.06 Q136.455 1348.06 134.001 1351.18 Q131.57 1354.31 131.223 1360.63 Q132.589 1358.61 134.649 1357.55 Q136.709 1356.46 139.186 1356.46 Q144.394 1356.46 147.404 1359.63 Q150.436 1362.78 150.436 1368.22 Q150.436 1373.55 147.288 1376.76 Q144.14 1379.98 138.908 1379.98 Q132.913 1379.98 129.742 1375.4 Q126.57 1370.79 126.57 1362.06 Q126.57 1353.87 130.459 1349.01 Q134.348 1344.12 140.899 1344.12 Q142.658 1344.12 144.441 1344.47 Q146.246 1344.82 148.191 1345.51 Z" fill="#000000" fill-rule="nonzero" fill-opacity="1" /><path clip-path="url(#clip970)" d="M63.2837 1081.77 Q59.6726 1081.77 57.8439 1085.33 Q56.0384 1088.87 56.0384 1096 Q56.0384 1103.11 57.8439 1106.67 Q59.6726 1110.22 63.2837 1110.22 Q66.918 1110.22 68.7235 1106.67 Q70.5522 1103.11 70.5522 1096 Q70.5522 1088.87 68.7235 1085.33 Q66.918 1081.77 63.2837 1081.77 M63.2837 1078.06 Q69.0939 1078.06 72.1494 1082.67 Q75.2281 1087.25 75.2281 1096 Q75.2281 1104.73 72.1494 1109.34 Q69.0939 1113.92 63.2837 1113.92 Q57.4736 1113.92 54.3949 1109.34 Q51.3393 1104.73 51.3393 1096 Q51.3393 1087.25 54.3949 1082.67 Q57.4736 1078.06 63.2837 1078.06 Z" fill="#000000" fill-rule="nonzero" fill-opacity="1" /><path clip-path="url(#clip970)" d="M83.4457 1107.37 L88.3299 1107.37 L88.3299 1113.25 L83.4457 1113.25 L83.4457 1107.37 Z" fill="#000000" fill-rule="nonzero" fill-opacity="1" /><path clip-path="url(#clip970)" d="M108.515 1081.77 Q104.904 1081.77 103.075 1085.33 Q101.27 1088.87 101.27 1096 Q101.27 1103.11 103.075 1106.67 Q104.904 1110.22 108.515 1110.22 Q112.149 1110.22 113.955 1106.67 Q115.783 1103.11 115.783 1096 Q115.783 1088.87 113.955 1085.33 Q112.149 1081.77 108.515 1081.77 M108.515 1078.06 Q114.325 1078.06 117.381 1082.67 Q120.459 1087.25 120.459 1096 Q120.459 1104.73 117.381 1109.34 Q114.325 1113.92 108.515 1113.92 Q102.705 1113.92 99.6261 1109.34 Q96.5706 1104.73 96.5706 1096 Q96.5706 1087.25 99.6261 1082.67 Q102.705 1078.06 108.515 1078.06 Z" fill="#000000" fill-rule="nonzero" fill-opacity="1" /><path clip-path="url(#clip970)" d="M128.816 1112.53 L128.816 1108.27 Q130.575 1109.1 132.381 1109.54 Q134.186 1109.98 135.922 1109.98 Q140.552 1109.98 142.982 1106.88 Q145.436 1103.76 145.783 1097.42 Q144.441 1099.41 142.381 1100.47 Q140.32 1101.54 137.82 1101.54 Q132.635 1101.54 129.603 1098.41 Q126.594 1095.26 126.594 1089.82 Q126.594 1084.5 129.742 1081.28 Q132.89 1078.06 138.121 1078.06 Q144.117 1078.06 147.265 1082.67 Q150.436 1087.25 150.436 1096 Q150.436 1104.17 146.547 1109.06 Q142.681 1113.92 136.131 1113.92 Q134.371 1113.92 132.566 1113.57 Q130.76 1113.23 128.816 1112.53 M138.121 1097.88 Q141.269 1097.88 143.098 1095.73 Q144.95 1093.57 144.95 1089.82 Q144.95 1086.1 143.098 1083.94 Q141.269 1081.77 138.121 1081.77 Q134.973 1081.77 133.121 1083.94 Q131.293 1086.1 131.293 1089.82 Q131.293 1093.57 133.121 1095.73 Q134.973 1097.88 138.121 1097.88 Z" fill="#000000" fill-rule="nonzero" fill-opacity="1" /><path clip-path="url(#clip970)" d="M64.6958 815.707 Q61.0847 815.707 59.256 819.271 Q57.4504 822.813 57.4504 829.943 Q57.4504 837.049 59.256 840.614 Q61.0847 844.156 64.6958 844.156 Q68.33 844.156 70.1355 840.614 Q71.9642 837.049 71.9642 829.943 Q71.9642 822.813 70.1355 819.271 Q68.33 815.707 64.6958 815.707 M64.6958 812.003 Q70.5059 812.003 73.5614 816.609 Q76.6401 821.193 76.6401 829.943 Q76.6401 838.669 73.5614 843.276 Q70.5059 847.859 64.6958 847.859 Q58.8856 847.859 55.8069 843.276 Q52.7514 838.669 52.7514 829.943 Q52.7514 821.193 55.8069 816.609 Q58.8856 812.003 64.6958 812.003 Z" fill="#000000" fill-rule="nonzero" fill-opacity="1" /><path clip-path="url(#clip970)" d="M84.8577 841.308 L89.7419 841.308 L89.7419 847.188 L84.8577 847.188 L84.8577 841.308 Z" fill="#000000" fill-rule="nonzero" fill-opacity="1" /><path clip-path="url(#clip970)" d="M100.737 843.253 L108.376 843.253 L108.376 816.887 L100.066 818.554 L100.066 814.295 L108.33 812.628 L113.006 812.628 L113.006 843.253 L120.645 843.253 L120.645 847.188 L100.737 847.188 L100.737 843.253 Z" fill="#000000" fill-rule="nonzero" fill-opacity="1" /><path clip-path="url(#clip970)" d="M134.117 843.253 L150.436 843.253 L150.436 847.188 L128.492 847.188 L128.492 843.253 Q131.154 840.498 135.737 835.869 Q140.343 831.216 141.524 829.873 Q143.769 827.35 144.649 825.614 Q145.552 823.855 145.552 822.165 Q145.552 819.41 143.607 817.674 Q141.686 815.938 138.584 815.938 Q136.385 815.938 133.931 816.702 Q131.501 817.466 128.723 819.017 L128.723 814.295 Q131.547 813.16 134.001 812.582 Q136.455 812.003 138.492 812.003 Q143.862 812.003 147.056 814.688 Q150.251 817.373 150.251 821.864 Q150.251 823.994 149.441 825.915 Q148.654 827.813 146.547 830.406 Q145.968 831.077 142.867 834.294 Q139.765 837.489 134.117 843.253 Z" fill="#000000" fill-rule="nonzero" fill-opacity="1" /><path clip-path="url(#clip970)" d="M64.0939 549.646 Q60.4828 549.646 58.6541 553.211 Q56.8486 556.752 56.8486 563.882 Q56.8486 570.989 58.6541 574.553 Q60.4828 578.095 64.0939 578.095 Q67.7281 578.095 69.5337 574.553 Q71.3624 570.989 71.3624 563.882 Q71.3624 556.752 69.5337 553.211 Q67.7281 549.646 64.0939 549.646 M64.0939 545.942 Q69.9041 545.942 72.9596 550.549 Q76.0383 555.132 76.0383 563.882 Q76.0383 572.609 72.9596 577.215 Q69.9041 581.799 64.0939 581.799 Q58.2838 581.799 55.2051 577.215 Q52.1495 572.609 52.1495 563.882 Q52.1495 555.132 55.2051 550.549 Q58.2838 545.942 64.0939 545.942 Z" fill="#000000" fill-rule="nonzero" fill-opacity="1" /><path clip-path="url(#clip970)" d="M84.2558 575.248 L89.1401 575.248 L89.1401 581.127 L84.2558 581.127 L84.2558 575.248 Z" fill="#000000" fill-rule="nonzero" fill-opacity="1" /><path clip-path="url(#clip970)" d="M100.135 577.192 L107.774 577.192 L107.774 550.827 L99.4641 552.493 L99.4641 548.234 L107.728 546.567 L112.404 546.567 L112.404 577.192 L120.043 577.192 L120.043 581.127 L100.135 581.127 L100.135 577.192 Z" fill="#000000" fill-rule="nonzero" fill-opacity="1" /><path clip-path="url(#clip970)" d="M129.533 546.567 L147.89 546.567 L147.89 550.503 L133.816 550.503 L133.816 558.975 Q134.834 558.627 135.853 558.465 Q136.871 558.28 137.89 558.28 Q143.677 558.28 147.056 561.452 Q150.436 564.623 150.436 570.039 Q150.436 575.618 146.964 578.72 Q143.492 581.799 137.172 581.799 Q134.996 581.799 132.728 581.428 Q130.482 581.058 128.075 580.317 L128.075 575.618 Q130.158 576.752 132.381 577.308 Q134.603 577.863 137.08 577.863 Q141.084 577.863 143.422 575.757 Q145.76 573.651 145.76 570.039 Q145.76 566.428 143.422 564.322 Q141.084 562.215 137.08 562.215 Q135.205 562.215 133.33 562.632 Q131.478 563.049 129.533 563.928 L129.533 546.567 Z" fill="#000000" fill-rule="nonzero" fill-opacity="1" /><path clip-path="url(#clip970)" d="M63.1911 283.585 Q59.58 283.585 57.7513 287.15 Q55.9458 290.692 55.9458 297.822 Q55.9458 304.928 57.7513 308.493 Q59.58 312.034 63.1911 312.034 Q66.8254 312.034 68.6309 308.493 Q70.4596 304.928 70.4596 297.822 Q70.4596 290.692 68.6309 287.15 Q66.8254 283.585 63.1911 283.585 M63.1911 279.882 Q69.0013 279.882 72.0568 284.488 Q75.1355 289.072 75.1355 297.822 Q75.1355 306.548 72.0568 311.155 Q69.0013 315.738 63.1911 315.738 Q57.381 315.738 54.3023 311.155 Q51.2468 306.548 51.2468 297.822 Q51.2468 289.072 54.3023 284.488 Q57.381 279.882 63.1911 279.882 Z" fill="#000000" fill-rule="nonzero" fill-opacity="1" /><path clip-path="url(#clip970)" d="M83.3531 309.187 L88.2373 309.187 L88.2373 315.067 L83.3531 315.067 L83.3531 309.187 Z" fill="#000000" fill-rule="nonzero" fill-opacity="1" /><path clip-path="url(#clip970)" d="M99.2326 311.132 L106.871 311.132 L106.871 284.766 L98.5613 286.433 L98.5613 282.173 L106.825 280.507 L111.501 280.507 L111.501 311.132 L119.14 311.132 L119.14 315.067 L99.2326 315.067 L99.2326 311.132 Z" fill="#000000" fill-rule="nonzero" fill-opacity="1" /><path clip-path="url(#clip970)" d="M138.584 298.655 Q135.251 298.655 133.33 300.437 Q131.432 302.22 131.432 305.345 Q131.432 308.47 133.33 310.252 Q135.251 312.034 138.584 312.034 Q141.918 312.034 143.839 310.252 Q145.76 308.446 145.76 305.345 Q145.76 302.22 143.839 300.437 Q141.941 298.655 138.584 298.655 M133.908 296.664 Q130.899 295.923 129.209 293.863 Q127.543 291.803 127.543 288.84 Q127.543 284.697 130.482 282.289 Q133.445 279.882 138.584 279.882 Q143.746 279.882 146.686 282.289 Q149.626 284.697 149.626 288.84 Q149.626 291.803 147.936 293.863 Q146.269 295.923 143.283 296.664 Q146.663 297.451 148.538 299.743 Q150.436 302.034 150.436 305.345 Q150.436 310.368 147.357 313.053 Q144.302 315.738 138.584 315.738 Q132.867 315.738 129.788 313.053 Q126.732 310.368 126.732 305.345 Q126.732 302.034 128.631 299.743 Q130.529 297.451 133.908 296.664 M132.195 289.28 Q132.195 291.965 133.862 293.47 Q135.552 294.974 138.584 294.974 Q141.593 294.974 143.283 293.47 Q144.996 291.965 144.996 289.28 Q144.996 286.595 143.283 285.09 Q141.593 283.585 138.584 283.585 Q135.552 283.585 133.862 285.09 Q132.195 286.595 132.195 289.28 Z" fill="#000000" fill-rule="nonzero" fill-opacity="1" /><polyline clip-path="url(#clip972)" style="stroke:#009af9; stroke-linecap:round; stroke-linejoin:round; stroke-width:4; stroke-opacity:1; fill:none" points="186.436,1384.24 208.099,1375.47 212.432,1368.7 217.306,1370.45 222.79,1361.36 228.959,1360.84 235.899,1354.72 243.706,1366.62 252.49,1358.46 262.371,1362.03 273.488,1343.1 285.994,1335.68 300.063,1313.41 315.892,1296.39 333.698,1297.99 353.731,1296.09 376.267,1283.27 401.468,1280.62 428.741,1278.96 458.105,1262.74 489.403,1246.44 521.536,1195.56 554.304,1165.38 587.281,1195.57 620.974,1176.73 655.372,1171.57 690.011,1186.74 724.995,1211.26 760.212,1186.36 795.46,1170.58 830.299,1133.72 865.293,1126.97 899.717,1120.92 934.226,1145.8 968.072,1154.84 1001.96,1123.81 1035.55,1081.03 1068.67,1052.26 1101.47,1036.01 1134.02,1042.74 1166.24,1012.62 1198.23,993.199 1229.74,942.525 1261.33,897.579 1292.47,883.217 1323.27,863.783 1353.83,860.578 1383.82,878.625 1413.56,898.744 1443.12,838.788 1472.54,833.295 1501.34,820.839 1530.12,861.635 1558.48,799.411 1586.85,764.668 1614.63,705.758 1642.12,676.21 1669.17,611.765 1695.74,673.963 1721.95,675.351 1748.24,641.778 1774.12,674.761 1799.7,653.727 1825.09,693.235 1850.13,709.598 1874.98,681.888 1899.8,696.8 1924.17,665.098 1948.58,689.814 1972.62,729.626 1996.89,742.033 2021.2,730.004 2045.43,723.798 2069.67,703.706 2093.8,647.931 2117.8,646.634 2141.61,635.06 2165.42,607.729 2189.14,683.12 2212.84,625.39 2236.5,665.015 2259.82,697.088 2283.25,680.437 2306.27,692.685 2329.14,624.15 2351.99,658.196 2352.76,653.826 "/>
<polyline clip-path="url(#clip972)" style="stroke:#e26f46; stroke-linecap:round; stroke-linejoin:round; stroke-width:4; stroke-opacity:1; fill:none" points="186.436,1300.64 208.099,1291.08 212.432,1283.34 217.306,1278.02 222.79,1272.8 228.959,1267.95 235.899,1282.44 243.706,1279.86 252.49,1269.33 262.371,1274.72 273.488,1268.72 285.994,1269.06 300.063,1246.54 315.892,1225.47 333.698,1219.58 353.731,1217.87 376.267,1189.12 401.468,1172.61 428.741,1177.54 458.105,1114.51 489.403,1045.73 521.536,994.094 554.304,1002.89 587.281,1007.58 620.974,1002.24 655.372,993.835 690.011,977.309 724.995,939.236 760.212,886.487 795.46,902.841 830.299,874.019 865.293,880.717 899.717,825.261 934.226,818.64 968.072,796.611 1001.96,768.41 1035.55,782.311 1068.67,791.943 1101.47,784.994 1134.02,769.258 1166.24,729.589 1198.23,795.91 1229.74,797.729 1261.33,805.094 1292.47,801.378 1323.27,757.322 1353.83,738.879 1383.82,713.36 1413.56,714.468 1443.12,679.045 1472.54,694.824 1501.34,661.46 1530.12,657.95 1558.48,632.089 1586.85,626.862 1614.63,624.22 1642.12,577.703 1669.17,589.164 1695.74,613.624 1721.95,572.567 1748.24,542.812 1774.12,501.673 1799.7,467.839 1825.09,418.14 1850.13,439.463 1874.98,372.101 1899.8,391.765 1924.17,361.895 1948.58,412.693 1972.62,438.211 1996.89,410.711 2021.2,428.983 2045.43,408.581 2069.67,389.588 2093.8,409.842 2117.8,412.392 2141.61,416.309 2165.42,432.851 2189.14,386.101 2212.84,344.104 2236.5,335.346 2259.82,239.759 2283.25,205.898 2306.27,216.774 2329.14,147.728 2351.99,86.1857 2352.76,114.983 "/>
<path clip-path="url(#clip970)" d="M258.647 248.629 L564.375 248.629 L564.375 93.1086 L258.647 93.1086  Z" fill="#ffffff" fill-rule="evenodd" fill-opacity="1"/>
<polyline clip-path="url(#clip970)" style="stroke:#000000; stroke-linecap:round; stroke-linejoin:round; stroke-width:4; stroke-opacity:1; fill:none" points="258.647,248.629 564.375,248.629 564.375,93.1086 258.647,93.1086 258.647,248.629 "/>
<polyline clip-path="url(#clip970)" style="stroke:#009af9; stroke-linecap:round; stroke-linejoin:round; stroke-width:4; stroke-opacity:1; fill:none" points="282.717,144.949 427.138,144.949 "/>
<path clip-path="url(#clip970)" d="M451.208 151.997 L451.208 136.303 L455.468 136.303 L455.468 151.835 Q455.468 155.516 456.903 157.368 Q458.338 159.196 461.208 159.196 Q464.657 159.196 466.648 156.997 Q468.662 154.798 468.662 151.002 L468.662 136.303 L472.921 136.303 L472.921 162.229 L468.662 162.229 L468.662 158.247 Q467.111 160.608 465.051 161.766 Q463.014 162.9 460.306 162.9 Q455.838 162.9 453.523 160.122 Q451.208 157.344 451.208 151.997 M461.926 135.678 L461.926 135.678 Z" fill="#000000" fill-rule="nonzero" fill-opacity="1" /><path clip-path="url(#clip970)" d="M481.301 126.21 L491.116 126.21 L491.116 129.52 L485.56 129.52 L485.56 165.168 L491.116 165.168 L491.116 168.479 L481.301 168.479 L481.301 126.21 Z" fill="#000000" fill-rule="nonzero" fill-opacity="1" /><path clip-path="url(#clip970)" d="M501.602 158.293 L509.241 158.293 L509.241 131.928 L500.93 133.595 L500.93 129.335 L509.194 127.669 L513.87 127.669 L513.87 158.293 L521.509 158.293 L521.509 162.229 L501.602 162.229 L501.602 158.293 Z" fill="#000000" fill-rule="nonzero" fill-opacity="1" /><path clip-path="url(#clip970)" d="M540.305 126.21 L540.305 168.479 L530.49 168.479 L530.49 165.168 L536.023 165.168 L536.023 129.52 L530.49 129.52 L530.49 126.21 L540.305 126.21 Z" fill="#000000" fill-rule="nonzero" fill-opacity="1" /><polyline clip-path="url(#clip970)" style="stroke:#e26f46; stroke-linecap:round; stroke-linejoin:round; stroke-width:4; stroke-opacity:1; fill:none" points="282.717,196.789 427.138,196.789 "/>
<path clip-path="url(#clip970)" d="M451.208 203.837 L451.208 188.143 L455.468 188.143 L455.468 203.675 Q455.468 207.356 456.903 209.208 Q458.338 211.036 461.208 211.036 Q464.657 211.036 466.648 208.837 Q468.662 206.638 468.662 202.842 L468.662 188.143 L472.921 188.143 L472.921 214.069 L468.662 214.069 L468.662 210.087 Q467.111 212.448 465.051 213.606 Q463.014 214.74 460.306 214.74 Q455.838 214.74 453.523 211.962 Q451.208 209.184 451.208 203.837 M461.926 187.518 L461.926 187.518 Z" fill="#000000" fill-rule="nonzero" fill-opacity="1" /><path clip-path="url(#clip970)" d="M481.301 178.05 L491.116 178.05 L491.116 181.36 L485.56 181.36 L485.56 217.008 L491.116 217.008 L491.116 220.319 L481.301 220.319 L481.301 178.05 Z" fill="#000000" fill-rule="nonzero" fill-opacity="1" /><path clip-path="url(#clip970)" d="M504.819 210.133 L521.139 210.133 L521.139 214.069 L499.194 214.069 L499.194 210.133 Q501.856 207.379 506.44 202.749 Q511.046 198.096 512.227 196.754 Q514.472 194.231 515.352 192.495 Q516.254 190.735 516.254 189.046 Q516.254 186.291 514.31 184.555 Q512.389 182.819 509.287 182.819 Q507.088 182.819 504.634 183.583 Q502.204 184.347 499.426 185.897 L499.426 181.175 Q502.25 180.041 504.704 179.462 Q507.157 178.884 509.194 178.884 Q514.565 178.884 517.759 181.569 Q520.953 184.254 520.953 188.745 Q520.953 190.874 520.143 192.796 Q519.356 194.694 517.25 197.286 Q516.671 197.958 513.569 201.175 Q510.467 204.37 504.819 210.133 Z" fill="#000000" fill-rule="nonzero" fill-opacity="1" /><path clip-path="url(#clip970)" d="M540.305 178.05 L540.305 220.319 L530.49 220.319 L530.49 217.008 L536.023 217.008 L536.023 181.36 L530.49 181.36 L530.49 178.05 L540.305 178.05 Z" fill="#000000" fill-rule="nonzero" fill-opacity="1" /></svg>
