<?xml version="1.0" encoding="utf-8"?>
<svg xmlns="http://www.w3.org/2000/svg" xmlns:xlink="http://www.w3.org/1999/xlink" width="600" height="400" viewBox="0 0 2400 1600">
<defs>
  <clipPath id="clip880">
    <rect x="0" y="0" width="2400" height="1600"/>
  </clipPath>
</defs>
<path clip-path="url(#clip880)" d="M0 1600 L2400 1600 L2400 0 L0 0  Z" fill="#ffffff" fill-rule="evenodd" fill-opacity="1"/>
<defs>
  <clipPath id="clip881">
    <rect x="480" y="0" width="1681" height="1600"/>
  </clipPath>
</defs>
<path clip-path="url(#clip880)" d="M257.69 1423.18 L2352.76 1423.18 L2352.76 47.2441 L257.69 47.2441  Z" fill="#ffffff" fill-rule="evenodd" fill-opacity="1"/>
<defs>
  <clipPath id="clip882">
    <rect x="257" y="47" width="2096" height="1377"/>
  </clipPath>
</defs>
<polyline clip-path="url(#clip882)" style="stroke:#000000; stroke-linecap:round; stroke-linejoin:round; stroke-width:2; stroke-opacity:0.1; fill:none" points="432.279,1423.18 432.279,47.2441 "/>
<polyline clip-path="url(#clip882)" style="stroke:#000000; stroke-linecap:round; stroke-linejoin:round; stroke-width:2; stroke-opacity:0.1; fill:none" points="868.751,1423.18 868.751,47.2441 "/>
<polyline clip-path="url(#clip882)" style="stroke:#000000; stroke-linecap:round; stroke-linejoin:round; stroke-width:2; stroke-opacity:0.1; fill:none" points="1305.22,1423.18 1305.22,47.2441 "/>
<polyline clip-path="url(#clip882)" style="stroke:#000000; stroke-linecap:round; stroke-linejoin:round; stroke-width:2; stroke-opacity:0.1; fill:none" points="1741.7,1423.18 1741.7,47.2441 "/>
<polyline clip-path="url(#clip882)" style="stroke:#000000; stroke-linecap:round; stroke-linejoin:round; stroke-width:2; stroke-opacity:0.1; fill:none" points="2178.17,1423.18 2178.17,47.2441 "/>
<polyline clip-path="url(#clip882)" style="stroke:#000000; stroke-linecap:round; stroke-linejoin:round; stroke-width:2; stroke-opacity:0.1; fill:none" points="257.69,1193.86 2352.76,1193.86 "/>
<polyline clip-path="url(#clip882)" style="stroke:#000000; stroke-linecap:round; stroke-linejoin:round; stroke-width:2; stroke-opacity:0.1; fill:none" points="257.69,964.535 2352.76,964.535 "/>
<polyline clip-path="url(#clip882)" style="stroke:#000000; stroke-linecap:round; stroke-linejoin:round; stroke-width:2; stroke-opacity:0.1; fill:none" points="257.69,735.212 2352.76,735.212 "/>
<polyline clip-path="url(#clip882)" style="stroke:#000000; stroke-linecap:round; stroke-linejoin:round; stroke-width:2; stroke-opacity:0.1; fill:none" points="257.69,505.889 2352.76,505.889 "/>
<polyline clip-path="url(#clip882)" style="stroke:#000000; stroke-linecap:round; stroke-linejoin:round; stroke-width:2; stroke-opacity:0.1; fill:none" points="257.69,276.567 2352.76,276.567 "/>
<polyline clip-path="url(#clip880)" style="stroke:#000000; stroke-linecap:round; stroke-linejoin:round; stroke-width:4; stroke-opacity:1; fill:none" points="257.69,1423.18 2352.76,1423.18 "/>
<polyline clip-path="url(#clip880)" style="stroke:#000000; stroke-linecap:round; stroke-linejoin:round; stroke-width:4; stroke-opacity:1; fill:none" points="432.279,1423.18 432.279,1404.28 "/>
<polyline clip-path="url(#clip880)" style="stroke:#000000; stroke-linecap:round; stroke-linejoin:round; stroke-width:4; stroke-opacity:1; fill:none" points="868.751,1423.18 868.751,1404.28 "/>
<polyline clip-path="url(#clip880)" style="stroke:#000000; stroke-linecap:round; stroke-linejoin:round; stroke-width:4; stroke-opacity:1; fill:none" points="1305.22,1423.18 1305.22,1404.28 "/>
<polyline clip-path="url(#clip880)" style="stroke:#000000; stroke-linecap:round; stroke-linejoin:round; stroke-width:4; stroke-opacity:1; fill:none" points="1741.7,1423.18 1741.7,1404.28 "/>
<polyline clip-path="url(#clip880)" style="stroke:#000000; stroke-linecap:round; stroke-linejoin:round; stroke-width:4; stroke-opacity:1; fill:none" points="2178.17,1423.18 2178.17,1404.28 "/>
<path clip-path="url(#clip880)" d="M378.807 1468.75 L408.483 1468.75 L408.483 1472.69 L378.807 1472.69 L378.807 1468.75 Z" fill="#000000" fill-rule="nonzero" fill-opacity="1" /><path clip-path="url(#clip880)" d="M419.386 1481.64 L427.024 1481.64 L427.024 1455.28 L418.714 1456.95 L418.714 1452.69 L426.978 1451.02 L431.654 1451.02 L431.654 1481.64 L439.293 1481.64 L439.293 1485.58 L419.386 1485.58 L419.386 1481.64 Z" fill="#000000" fill-rule="nonzero" fill-opacity="1" /><path clip-path="url(#clip880)" d="M448.737 1479.7 L453.621 1479.7 L453.621 1485.58 L448.737 1485.58 L448.737 1479.7 Z" fill="#000000" fill-rule="nonzero" fill-opacity="1" /><path clip-path="url(#clip880)" d="M473.807 1454.1 Q470.195 1454.1 468.367 1457.66 Q466.561 1461.2 466.561 1468.33 Q466.561 1475.44 468.367 1479.01 Q470.195 1482.55 473.807 1482.55 Q477.441 1482.55 479.246 1479.01 Q481.075 1475.44 481.075 1468.33 Q481.075 1461.2 479.246 1457.66 Q477.441 1454.1 473.807 1454.1 M473.807 1450.39 Q479.617 1450.39 482.672 1455 Q485.751 1459.58 485.751 1468.33 Q485.751 1477.06 482.672 1481.67 Q479.617 1486.25 473.807 1486.25 Q467.996 1486.25 464.918 1481.67 Q461.862 1477.06 461.862 1468.33 Q461.862 1459.58 464.918 1455 Q467.996 1450.39 473.807 1450.39 Z" fill="#000000" fill-rule="nonzero" fill-opacity="1" /><path clip-path="url(#clip880)" d="M815.777 1468.75 L845.453 1468.75 L845.453 1472.69 L815.777 1472.69 L815.777 1468.75 Z" fill="#000000" fill-rule="nonzero" fill-opacity="1" /><path clip-path="url(#clip880)" d="M865.545 1454.1 Q861.934 1454.1 860.105 1457.66 Q858.3 1461.2 858.3 1468.33 Q858.3 1475.44 860.105 1479.01 Q861.934 1482.55 865.545 1482.55 Q869.179 1482.55 870.985 1479.01 Q872.813 1475.44 872.813 1468.33 Q872.813 1461.2 870.985 1457.66 Q869.179 1454.1 865.545 1454.1 M865.545 1450.39 Q871.355 1450.39 874.411 1455 Q877.489 1459.58 877.489 1468.33 Q877.489 1477.06 874.411 1481.67 Q871.355 1486.25 865.545 1486.25 Q859.735 1486.25 856.656 1481.67 Q853.601 1477.06 853.601 1468.33 Q853.601 1459.58 856.656 1455 Q859.735 1450.39 865.545 1450.39 Z" fill="#000000" fill-rule="nonzero" fill-opacity="1" /><path clip-path="url(#clip880)" d="M885.707 1479.7 L890.591 1479.7 L890.591 1485.58 L885.707 1485.58 L885.707 1479.7 Z" fill="#000000" fill-rule="nonzero" fill-opacity="1" /><path clip-path="url(#clip880)" d="M900.823 1451.02 L919.179 1451.02 L919.179 1454.96 L905.105 1454.96 L905.105 1463.43 Q906.123 1463.08 907.142 1462.92 Q908.16 1462.73 909.179 1462.73 Q914.966 1462.73 918.346 1465.9 Q921.725 1469.08 921.725 1474.49 Q921.725 1480.07 918.253 1483.17 Q914.781 1486.25 908.461 1486.25 Q906.286 1486.25 904.017 1485.88 Q901.772 1485.51 899.364 1484.77 L899.364 1480.07 Q901.448 1481.2 903.67 1481.76 Q905.892 1482.32 908.369 1482.32 Q912.373 1482.32 914.711 1480.21 Q917.049 1478.1 917.049 1474.49 Q917.049 1470.88 914.711 1468.77 Q912.373 1466.67 908.369 1466.67 Q906.494 1466.67 904.619 1467.08 Q902.767 1467.5 900.823 1468.38 L900.823 1451.02 Z" fill="#000000" fill-rule="nonzero" fill-opacity="1" /><path clip-path="url(#clip880)" d="M1282.61 1454.1 Q1279 1454.1 1277.17 1457.66 Q1275.36 1461.2 1275.36 1468.33 Q1275.36 1475.44 1277.17 1479.01 Q1279 1482.55 1282.61 1482.55 Q1286.24 1482.55 1288.05 1479.01 Q1289.88 1475.44 1289.88 1468.33 Q1289.88 1461.2 1288.05 1457.66 Q1286.24 1454.1 1282.61 1454.1 M1282.61 1450.39 Q1288.42 1450.39 1291.47 1455 Q1294.55 1459.58 1294.55 1468.33 Q1294.55 1477.06 1291.47 1481.67 Q1288.42 1486.25 1282.61 1486.25 Q1276.8 1486.25 1273.72 1481.67 Q1270.66 1477.06 1270.66 1468.33 Q1270.66 1459.58 1273.72 1455 Q1276.8 1450.39 1282.61 1450.39 Z" fill="#000000" fill-rule="nonzero" fill-opacity="1" /><path clip-path="url(#clip880)" d="M1302.77 1479.7 L1307.65 1479.7 L1307.65 1485.58 L1302.77 1485.58 L1302.77 1479.7 Z" fill="#000000" fill-rule="nonzero" fill-opacity="1" /><path clip-path="url(#clip880)" d="M1327.84 1454.1 Q1324.23 1454.1 1322.4 1457.66 Q1320.59 1461.2 1320.59 1468.33 Q1320.59 1475.44 1322.4 1479.01 Q1324.23 1482.55 1327.84 1482.55 Q1331.47 1482.55 1333.28 1479.01 Q1335.11 1475.44 1335.11 1468.33 Q1335.11 1461.2 1333.28 1457.66 Q1331.47 1454.1 1327.84 1454.1 M1327.84 1450.39 Q1333.65 1450.39 1336.7 1455 Q1339.78 1459.58 1339.78 1468.33 Q1339.78 1477.06 1336.7 1481.67 Q1333.65 1486.25 1327.84 1486.25 Q1322.03 1486.25 1318.95 1481.67 Q1315.89 1477.06 1315.89 1468.33 Q1315.89 1459.58 1318.95 1455 Q1322.03 1450.39 1327.84 1450.39 Z" fill="#000000" fill-rule="nonzero" fill-opacity="1" /><path clip-path="url(#clip880)" d="M1719.58 1454.1 Q1715.97 1454.1 1714.14 1457.66 Q1712.33 1461.2 1712.33 1468.33 Q1712.33 1475.44 1714.14 1479.01 Q1715.97 1482.55 1719.58 1482.55 Q1723.21 1482.55 1725.02 1479.01 Q1726.85 1475.44 1726.85 1468.33 Q1726.85 1461.2 1725.02 1457.66 Q1723.21 1454.1 1719.58 1454.1 M1719.58 1450.39 Q1725.39 1450.39 1728.44 1455 Q1731.52 1459.58 1731.52 1468.33 Q1731.52 1477.06 1728.44 1481.67 Q1725.39 1486.25 1719.58 1486.25 Q1713.77 1486.25 1710.69 1481.67 Q1707.63 1477.06 1707.63 1468.33 Q1707.63 1459.58 1710.69 1455 Q1713.77 1450.39 1719.58 1450.39 Z" fill="#000000" fill-rule="nonzero" fill-opacity="1" /><path clip-path="url(#clip880)" d="M1739.74 1479.7 L1744.62 1479.7 L1744.62 1485.58 L1739.74 1485.58 L1739.74 1479.7 Z" fill="#000000" fill-rule="nonzero" fill-opacity="1" /><path clip-path="url(#clip880)" d="M1754.85 1451.02 L1773.21 1451.02 L1773.21 1454.96 L1759.14 1454.96 L1759.14 1463.43 Q1760.16 1463.08 1761.17 1462.92 Q1762.19 1462.73 1763.21 1462.73 Q1769 1462.73 1772.38 1465.9 Q1775.76 1469.08 1775.76 1474.49 Q1775.76 1480.07 1772.29 1483.17 Q1768.81 1486.25 1762.49 1486.25 Q1760.32 1486.25 1758.05 1485.88 Q1755.8 1485.51 1753.4 1484.77 L1753.4 1480.07 Q1755.48 1481.2 1757.7 1481.76 Q1759.92 1482.32 1762.4 1482.32 Q1766.41 1482.32 1768.74 1480.21 Q1771.08 1478.1 1771.08 1474.49 Q1771.08 1470.88 1768.74 1468.77 Q1766.41 1466.67 1762.4 1466.67 Q1760.53 1466.67 1758.65 1467.08 Q1756.8 1467.5 1754.85 1468.38 L1754.85 1451.02 Z" fill="#000000" fill-rule="nonzero" fill-opacity="1" /><path clip-path="url(#clip880)" d="M2145.32 1481.64 L2152.96 1481.64 L2152.96 1455.28 L2144.65 1456.95 L2144.65 1452.69 L2152.91 1451.02 L2157.59 1451.02 L2157.59 1481.64 L2165.23 1481.64 L2165.23 1485.58 L2145.32 1485.58 L2145.32 1481.64 Z" fill="#000000" fill-rule="nonzero" fill-opacity="1" /><path clip-path="url(#clip880)" d="M2174.67 1479.7 L2179.56 1479.7 L2179.56 1485.58 L2174.67 1485.58 L2174.67 1479.7 Z" fill="#000000" fill-rule="nonzero" fill-opacity="1" /><path clip-path="url(#clip880)" d="M2199.74 1454.1 Q2196.13 1454.1 2194.3 1457.66 Q2192.5 1461.2 2192.5 1468.33 Q2192.5 1475.44 2194.3 1479.01 Q2196.13 1482.55 2199.74 1482.55 Q2203.38 1482.55 2205.18 1479.01 Q2207.01 1475.44 2207.01 1468.33 Q2207.01 1461.2 2205.18 1457.66 Q2203.38 1454.1 2199.74 1454.1 M2199.74 1450.39 Q2205.55 1450.39 2208.61 1455 Q2211.69 1459.58 2211.69 1468.33 Q2211.69 1477.06 2208.61 1481.67 Q2205.55 1486.25 2199.74 1486.25 Q2193.93 1486.25 2190.85 1481.67 Q2187.8 1477.06 2187.8 1468.33 Q2187.8 1459.58 2190.85 1455 Q2193.93 1450.39 2199.74 1450.39 Z" fill="#000000" fill-rule="nonzero" fill-opacity="1" /><path clip-path="url(#clip880)" d="M1290.3 1553.98 L1290.3 1532.4 L1296.15 1532.4 L1296.15 1553.75 Q1296.15 1558.81 1298.13 1561.36 Q1300.1 1563.87 1304.05 1563.87 Q1308.79 1563.87 1311.53 1560.85 Q1314.29 1557.83 1314.29 1552.61 L1314.29 1532.4 L1320.15 1532.4 L1320.15 1568.04 L1314.29 1568.04 L1314.29 1562.57 Q1312.16 1565.82 1309.33 1567.41 Q1306.53 1568.97 1302.8 1568.97 Q1296.66 1568.97 1293.48 1565.15 Q1290.3 1561.33 1290.3 1553.98 M1305.03 1531.54 L1305.03 1531.54 Z" fill="#000000" fill-rule="nonzero" fill-opacity="1" /><polyline clip-path="url(#clip880)" style="stroke:#000000; stroke-linecap:round; stroke-linejoin:round; stroke-width:4; stroke-opacity:1; fill:none" points="257.69,1423.18 257.69,47.2441 "/>
<polyline clip-path="url(#clip880)" style="stroke:#000000; stroke-linecap:round; stroke-linejoin:round; stroke-width:4; stroke-opacity:1; fill:none" points="257.69,1193.86 276.588,1193.86 "/>
<polyline clip-path="url(#clip880)" style="stroke:#000000; stroke-linecap:round; stroke-linejoin:round; stroke-width:4; stroke-opacity:1; fill:none" points="257.69,964.535 276.588,964.535 "/>
<polyline clip-path="url(#clip880)" style="stroke:#000000; stroke-linecap:round; stroke-linejoin:round; stroke-width:4; stroke-opacity:1; fill:none" points="257.69,735.212 276.588,735.212 "/>
<polyline clip-path="url(#clip880)" style="stroke:#000000; stroke-linecap:round; stroke-linejoin:round; stroke-width:4; stroke-opacity:1; fill:none" points="257.69,505.889 276.588,505.889 "/>
<polyline clip-path="url(#clip880)" style="stroke:#000000; stroke-linecap:round; stroke-linejoin:round; stroke-width:4; stroke-opacity:1; fill:none" points="257.69,276.567 276.588,276.567 "/>
<path clip-path="url(#clip880)" d="M114.26 1194.31 L143.936 1194.31 L143.936 1198.24 L114.26 1198.24 L114.26 1194.31 Z" fill="#000000" fill-rule="nonzero" fill-opacity="1" /><path clip-path="url(#clip880)" d="M164.028 1179.66 Q160.417 1179.66 158.589 1183.22 Q156.783 1186.76 156.783 1193.89 Q156.783 1201 158.589 1204.56 Q160.417 1208.1 164.028 1208.1 Q167.663 1208.1 169.468 1204.56 Q171.297 1201 171.297 1193.89 Q171.297 1186.76 169.468 1183.22 Q167.663 1179.66 164.028 1179.66 M164.028 1175.95 Q169.839 1175.95 172.894 1180.56 Q175.973 1185.14 175.973 1193.89 Q175.973 1202.62 172.894 1207.23 Q169.839 1211.81 164.028 1211.81 Q158.218 1211.81 155.14 1207.23 Q152.084 1202.62 152.084 1193.89 Q152.084 1185.14 155.14 1180.56 Q158.218 1175.95 164.028 1175.95 Z" fill="#000000" fill-rule="nonzero" fill-opacity="1" /><path clip-path="url(#clip880)" d="M184.19 1205.26 L189.075 1205.26 L189.075 1211.14 L184.19 1211.14 L184.19 1205.26 Z" fill="#000000" fill-rule="nonzero" fill-opacity="1" /><path clip-path="url(#clip880)" d="M212.107 1180.65 L200.301 1199.1 L212.107 1199.1 L212.107 1180.65 M210.88 1176.58 L216.76 1176.58 L216.76 1199.1 L221.69 1199.1 L221.69 1202.99 L216.76 1202.99 L216.76 1211.14 L212.107 1211.14 L212.107 1202.99 L196.505 1202.99 L196.505 1198.48 L210.88 1176.58 Z" fill="#000000" fill-rule="nonzero" fill-opacity="1" /><path clip-path="url(#clip880)" d="M116.343 964.986 L146.019 964.986 L146.019 968.921 L116.343 968.921 L116.343 964.986 Z" fill="#000000" fill-rule="nonzero" fill-opacity="1" /><path clip-path="url(#clip880)" d="M166.112 950.333 Q162.501 950.333 160.672 953.898 Q158.866 957.44 158.866 964.569 Q158.866 971.676 160.672 975.241 Q162.501 978.782 166.112 978.782 Q169.746 978.782 171.552 975.241 Q173.38 971.676 173.38 964.569 Q173.38 957.44 171.552 953.898 Q169.746 950.333 166.112 950.333 M166.112 946.63 Q171.922 946.63 174.977 951.236 Q178.056 955.819 178.056 964.569 Q178.056 973.296 174.977 977.903 Q171.922 982.486 166.112 982.486 Q160.302 982.486 157.223 977.903 Q154.167 973.296 154.167 964.569 Q154.167 955.819 157.223 951.236 Q160.302 946.63 166.112 946.63 Z" fill="#000000" fill-rule="nonzero" fill-opacity="1" /><path clip-path="url(#clip880)" d="M186.274 975.935 L191.158 975.935 L191.158 981.815 L186.274 981.815 L186.274 975.935 Z" fill="#000000" fill-rule="nonzero" fill-opacity="1" /><path clip-path="url(#clip880)" d="M205.371 977.879 L221.69 977.879 L221.69 981.815 L199.746 981.815 L199.746 977.879 Q202.408 975.125 206.991 970.495 Q211.598 965.842 212.778 964.5 Q215.024 961.977 215.903 960.241 Q216.806 958.481 216.806 956.792 Q216.806 954.037 214.861 952.301 Q212.94 950.565 209.838 950.565 Q207.639 950.565 205.186 951.329 Q202.755 952.093 199.977 953.643 L199.977 948.921 Q202.801 947.787 205.255 947.208 Q207.709 946.63 209.746 946.63 Q215.116 946.63 218.311 949.315 Q221.505 952 221.505 956.491 Q221.505 958.62 220.695 960.542 Q219.908 962.44 217.801 965.032 Q217.223 965.704 214.121 968.921 Q211.019 972.116 205.371 977.879 Z" fill="#000000" fill-rule="nonzero" fill-opacity="1" /><path clip-path="url(#clip880)" d="M164.515 721.011 Q160.903 721.011 159.075 724.575 Q157.269 728.117 157.269 735.247 Q157.269 742.353 159.075 745.918 Q160.903 749.46 164.515 749.46 Q168.149 749.46 169.954 745.918 Q171.783 742.353 171.783 735.247 Q171.783 728.117 169.954 724.575 Q168.149 721.011 164.515 721.011 M164.515 717.307 Q170.325 717.307 173.38 721.913 Q176.459 726.497 176.459 735.247 Q176.459 743.973 173.38 748.58 Q170.325 753.163 164.515 753.163 Q158.704 753.163 155.626 748.58 Q152.57 743.973 152.57 735.247 Q152.57 726.497 155.626 721.913 Q158.704 717.307 164.515 717.307 Z" fill="#000000" fill-rule="nonzero" fill-opacity="1" /><path clip-path="url(#clip880)" d="M184.676 746.612 L189.561 746.612 L189.561 752.492 L184.676 752.492 L184.676 746.612 Z" fill="#000000" fill-rule="nonzero" fill-opacity="1" /><path clip-path="url(#clip880)" d="M209.746 721.011 Q206.135 721.011 204.306 724.575 Q202.5 728.117 202.5 735.247 Q202.5 742.353 204.306 745.918 Q206.135 749.46 209.746 749.46 Q213.38 749.46 215.186 745.918 Q217.014 742.353 217.014 735.247 Q217.014 728.117 215.186 724.575 Q213.38 721.011 209.746 721.011 M209.746 717.307 Q215.556 717.307 218.611 721.913 Q221.69 726.497 221.69 735.247 Q221.69 743.973 218.611 748.58 Q215.556 753.163 209.746 753.163 Q203.936 753.163 200.857 748.58 Q197.801 743.973 197.801 735.247 Q197.801 726.497 200.857 721.913 Q203.936 717.307 209.746 717.307 Z" fill="#000000" fill-rule="nonzero" fill-opacity="1" /><path clip-path="url(#clip880)" d="M166.112 491.688 Q162.501 491.688 160.672 495.253 Q158.866 498.794 158.866 505.924 Q158.866 513.031 160.672 516.595 Q162.501 520.137 166.112 520.137 Q169.746 520.137 171.552 516.595 Q173.38 513.031 173.38 505.924 Q173.38 498.794 171.552 495.253 Q169.746 491.688 166.112 491.688 M166.112 487.984 Q171.922 487.984 174.977 492.591 Q178.056 497.174 178.056 505.924 Q178.056 514.651 174.977 519.257 Q171.922 523.841 166.112 523.841 Q160.302 523.841 157.223 519.257 Q154.167 514.651 154.167 505.924 Q154.167 497.174 157.223 492.591 Q160.302 487.984 166.112 487.984 Z" fill="#000000" fill-rule="nonzero" fill-opacity="1" /><path clip-path="url(#clip880)" d="M186.274 517.29 L191.158 517.29 L191.158 523.169 L186.274 523.169 L186.274 517.29 Z" fill="#000000" fill-rule="nonzero" fill-opacity="1" /><path clip-path="url(#clip880)" d="M205.371 519.234 L221.69 519.234 L221.69 523.169 L199.746 523.169 L199.746 519.234 Q202.408 516.48 206.991 511.85 Q211.598 507.197 212.778 505.855 Q215.024 503.331 215.903 501.595 Q216.806 499.836 216.806 498.146 Q216.806 495.392 214.861 493.656 Q212.94 491.92 209.838 491.92 Q207.639 491.92 205.186 492.683 Q202.755 493.447 199.977 494.998 L199.977 490.276 Q202.801 489.142 205.255 488.563 Q207.709 487.984 209.746 487.984 Q215.116 487.984 218.311 490.67 Q221.505 493.355 221.505 497.845 Q221.505 499.975 220.695 501.896 Q219.908 503.794 217.801 506.387 Q217.223 507.058 214.121 510.276 Q211.019 513.47 205.371 519.234 Z" fill="#000000" fill-rule="nonzero" fill-opacity="1" /><path clip-path="url(#clip880)" d="M164.028 262.365 Q160.417 262.365 158.589 265.93 Q156.783 269.472 156.783 276.601 Q156.783 283.708 158.589 287.273 Q160.417 290.814 164.028 290.814 Q167.663 290.814 169.468 287.273 Q171.297 283.708 171.297 276.601 Q171.297 269.472 169.468 265.93 Q167.663 262.365 164.028 262.365 M164.028 258.662 Q169.839 258.662 172.894 263.268 Q175.973 267.851 175.973 276.601 Q175.973 285.328 172.894 289.935 Q169.839 294.518 164.028 294.518 Q158.218 294.518 155.14 289.935 Q152.084 285.328 152.084 276.601 Q152.084 267.851 155.14 263.268 Q158.218 258.662 164.028 258.662 Z" fill="#000000" fill-rule="nonzero" fill-opacity="1" /><path clip-path="url(#clip880)" d="M184.19 287.967 L189.075 287.967 L189.075 293.847 L184.19 293.847 L184.19 287.967 Z" fill="#000000" fill-rule="nonzero" fill-opacity="1" /><path clip-path="url(#clip880)" d="M212.107 263.361 L200.301 281.81 L212.107 281.81 L212.107 263.361 M210.88 259.287 L216.76 259.287 L216.76 281.81 L221.69 281.81 L221.69 285.699 L216.76 285.699 L216.76 293.847 L212.107 293.847 L212.107 285.699 L196.505 285.699 L196.505 281.185 L210.88 259.287 Z" fill="#000000" fill-rule="nonzero" fill-opacity="1" /><path clip-path="url(#clip880)" d="M28.3562 752.559 L28.3562 746.352 L58.275 735.212 L28.3562 724.072 L28.3562 717.865 L64.0042 731.233 L64.0042 739.191 L28.3562 752.559 Z" fill="#000000" fill-rule="nonzero" fill-opacity="1" /><polyline clip-path="url(#clip882)" style="stroke:#009af9; stroke-linecap:round; stroke-linejoin:round; stroke-width:4; stroke-opacity:1; fill:none" points="2017.98,423.143 1998.41,383.048 2002.21,427.186 1971.1,371.977 2009.82,346.561 1994.24,320.877 1905.64,378.506 2007.76,531.313 1971.66,404.602 2003.44,444.461 2038.7,361.429 2099.71,272.106 2183.79,247.525 2178.94,282.861 2135.79,362.257 2079.54,475.159 2052.23,330.213 2006.63,306.113 1946.47,418.569 1976.02,461.368 2004.81,426.939 2000.88,493.89 1992.42,477.967 1922.36,471.204 1902.03,489.175 1866.36,533.394 1870.41,489.585 1844.77,521.71 1816.85,410.661 1805.59,500.834 1777.65,506.345 1748.86,589.847 1731.75,575.662 1818.13,561.742 1833.98,561.408 1926.58,587.52 1863.63,562.422 1882.37,582.142 1861.41,522.598 1921.82,599.897 1975.46,547.313 1953.46,435.125 1965.1,488.301 1967.68,446.386 1952.3,381.43 1993.78,514.467 1990.12,455.534 1961.17,487.571 1929.3,549.039 1970.27,520.925 2000.13,490.29 2021.52,492.096 2046.23,491.795 2064.6,567.704 2122.39,520.753 2172.64,534.011 2164.96,546.73 2128.13,483.377 2066.53,441.325 2035.35,492.549 2018.04,525.496 2089.62,524.042 2120.52,541.137 2078.25,591.007 2157.15,465.761 2151.99,451.671 2113.59,402.497 2022.73,246.319 2099.05,134.341 2049.78,113.978 2027.43,271.327 2068.2,359.643 1999.77,424.34 1959.22,353.504 1933.51,435.363 1972.09,413.819 1931.73,299.126 1868.72,381.19 1933.52,487.383 2001.28,468.411 1968.35,504.112 1931.66,549.127 1896.07,574.789 1830.73,520.464 1836.41,567.513 1862.89,587.182 1864.17,483.825 1853.7,396.408 1827.35,427.989 1956.22,538.229 1994.87,513.669 2030.81,483.143 2088.54,636.767 2145.33,472.822 2157.7,543.635 2237.66,418.873 2233.26,372.859 2217.93,371.964 2206.51,279.816 2171.94,238.448 2208.55,424.014 2131.44,338.606 2107.92,334.058 2158.19,331.403 2111.26,286.964 2114.01,292.963 2052.97,321.846 2130.18,295.759 2124.35,331.97 2027.53,281.264 2017.65,324.399 2028.56,332.309 2015.81,225.001 1964.87,175.774 2027.16,249.07 1961.74,284.352 1897.47,283.616 1854.26,320.998 1900.11,304.241 1859.81,324.344 1806.21,496.119 1769.28,513.728 1800.21,525.926 1818.82,494.908 1737.87,553.942 1859.23,499.361 1837.02,440.494 1808.89,374.784 1877.72,492.033 1889.18,447.992 1956.24,451.284 1879.31,454.736 1951.63,392.37 1966.14,468.646 1990.24,407.888 1984.37,499.539 1980.82,404.034 1987.65,320.16 1929.75,352.336 1949.74,362.806 1975.69,441.794 1880.78,560.997 1860.89,532.093 1952.14,501.542 1958.55,450.119 1908.3,463.678 1922.17,484.066 1858.27,411.889 1817.26,463.42 1833.31,398.801 1886.7,473.054 1909.93,575.795 1942.74,495.815 1995.07,457.807 1963.99,404.506 2043.7,489.566 1973.86,460.618 1975.89,431.101 2072.77,456.492 2122.03,421.972 2079.74,306.263 2059.8,226.179 2004.38,306.722 2002.8,417.868 1917.76,447.579 1873.69,464.227 1781.32,488.72 1810.64,510.177 1843.63,510.666 1844.91,601.904 1929.51,627.156 1974.4,592.643 1929.36,601.275 1911.05,615.815 1937.64,689.978 2057.72,572.032 2085.58,556.551 2089.68,552.388 2034.08,507.21 1960.25,549.68 1952.8,478.661 2039.78,479.09 2089.35,433.665 2150.1,421.981 2131.75,451.609 2151.48,440.127 2109.89,265.298 1979.72,319.362 2061.11,364.727 2039.81,550.249 2138.3,561.635 2187.37,580.787 2186.84,677.958 2240.9,506.676 2271.5,432.514 2284.98,398.38 2313.2,456.73 2333.19,376.03 2302.14,411.865 2272.99,375.825 2210.41,364.63 2192.3,293.796 2218.98,268.609 2171.09,286.964 2229.62,177.324 2210.48,246.719 2239.75,297.149 2252.04,185.973 2220.02,185.09 2198.97,307.785 2214.2,326.314 2195.02,364.226 2182.47,394.863 2105.24,277.501 2217.58,345.955 2273.07,240.233 2240.43,346.708 2289.17,387.96 2175.69,325.584 2282.13,310.02 2296.99,355.468 2215.37,274.081 2269.63,277.617 2209.17,290.948 2223.3,304.093 2201.38,272.973 2219.31,385.618 2276.94,355.021 2215.23,235.457 2168.25,263.526 2171.91,289.096 2232.86,311.448 2253.16,329.448 2170.32,412.849 2136.8,490.162 2187.99,563.059 2250.51,469.916 2202,497.544 2199.69,361.232 2202.22,307.263 2256.16,440.16 2257.88,386.14 2180.03,362.039 2175.14,298.827 2135.58,406.712 2086.5,485.765 2143.03,500.793 2137.63,475.658 2147.72,461.576 2160.71,490.606 2214.24,535.727 2205.35,502.924 2146.98,483.382 2053.83,456.9 2129.95,519.867 2208.76,558.156 2115.16,516.41 1991.8,396.14 2026.38,447.408 1966.08,420.969 1960.28,429.76 2015.61,387.792 1998.79,374.322 1941.21,375.743 1915.6,388.295 1920.52,487.794 1996.26,361.899 2028.94,390.845 2049.23,426.049 2083.43,456.551 2096.31,481.619 2060.84,364.83 2062.25,451.404 2115.43,406.882 2078.41,449.427 2050.07,486.222 1989.19,356.167 1988.85,370.192 2061.5,524.953 2169.11,476.636 2155.13,507.232 2157.33,406.559 2157.13,337.836 2159.05,303.605 2154.43,436.387 2183.06,390.636 2159.46,337.854 2133.35,366.318 2126.67,408.513 2164.91,373.899 2050.35,295.885 2070.71,350.96 2050.73,338.34 1975.84,309.2 1926.97,269.627 1969.72,351.55 1948.57,537.405 1866.01,505.326 1911.68,492.676 1956.29,456.283 1907.63,513.777 1984.05,516.617 2071.6,438.464 2003.63,423.915 2032.24,411.54 2054.94,278.216 2048.24,301.793 2033.24,296.824 1980.75,266.955 2020.77,271.272 2028.44,321.23 1972.4,299.412 1972.58,330.02 1933.39,312.586 1947.3,374.212 1921.42,386.431 1901.36,296.572 1893.21,212.628 1961.51,232.375 1911.9,285.482 1951.31,329.033 1993.09,388.673 2021.97,376.376 1899.42,370.878 1930.56,552.701 1942.37,614.103 1990.19,510.513 1969.8,465.02 1831.97,532.445 1834.72,580.858 1843.88,588.655 1874.01,535.735 1913.44,467.221 1926.43,463.89 1828.84,472.332 1853.24,583.437 1878.8,676.68 1934.45,656.463 1871.49,520.742 1929.14,579.938 1959.4,487.812 2030.26,543.388 2122.86,518.754 2124.57,489.699 2245.41,385.799 2153.9,261.831 2169.29,454.892 2139.71,478.557 2060.71,401.808 2002.17,329.588 2004.97,327.702 2009.69,383.889 1943.88,418.176 1927.8,524.619 2029.15,419.438 1992.3,467.682 2093.05,460.543 2075.75,443.593 2043.8,457.687 1940.03,552.23 1973.91,470.057 1973.71,382.099 2001.97,285.708 1971.08,272.765 1960.51,412.755 1869.24,408.66 1828.9,389.921 1867.35,383.061 1836.25,493.379 1913.91,568.102 1912.24,529.824 1939.83,441.208 2014.42,391.654 1886.58,384.407 1901.05,506.816 1906.03,612.472 1890.09,551.612 1900.56,608.024 1989.91,545.73 2056.63,549.583 2175.68,355.733 2203.91,235.619 2087.79,119.735 1974.17,357.858 1861.14,280.382 1881.38,477.255 1827.69,386.477 1804.57,430.569 1824.72,382.253 1815.91,451.315 1789.68,406.74 1857.86,499.66 1922.11,598.123 1918.27,453.496 1902.27,427.238 2011.33,437.588 1916.46,494.02 1928.43,450.938 1951.97,497.551 1835.14,502.446 1853.21,562.148 1888.89,558.761 1911.34,605.965 1951.22,710.149 2011.49,691.661 1921.29,603.319 1994.22,565.149 2008.89,492.398 2094.38,626.004 2105.43,630.338 2081.07,612.292 2028.39,602.485 1977.06,471.328 2089.42,426.208 2020.21,523.314 2087.41,533.984 2083.59,512.397 2073.71,535.162 2060.3,471.008 2206.3,438.795 2269.15,478.307 2249.05,467.418 2277.79,417.395 2280.9,394.087 2327.88,515.168 2251.78,440.12 2293.29,415.371 2338.94,325.881 2245.68,320.646 2200.83,399.286 2279.23,403.448 2192.33,371.829 2178.19,370.014 2191.71,371.9 2084.78,489.874 2018.71,412.289 1999.47,497.463 1973.73,495.122 1914.7,468.917 1850.02,438.317 1873.78,386.967 1889.38,402.723 1928.52,426.128 1836.96,356.955 1818.62,325.184 1820.57,370.698 1839.39,432.154 1912.26,512.237 1868.42,499.357 1915.6,485.281 1906.7,404.565 1962.46,440.691 1973.3,387.78 1964.12,371.007 2009.75,477.25 1966.84,462.238 1914.49,466.943 1952.09,474.723 1934.77,480.87 1866.48,441.863 1832.66,506.455 1786.61,602.824 1905.46,668.214 2113.29,664.103 2066.38,513.462 2119.71,536.483 2117.66,578.998 2096.66,547.434 2070.16,445.418 2104.39,475.35 2120.79,341.68 2104.97,357.757 2074.4,466.011 2029.44,532.268 1960.64,541.974 1847.88,569.138 1981.22,583.17 2006.68,550.749 1987.21,514.051 1974.44,458.771 2032.99,535.445 1982.33,522.074 1985.85,491.97 2064.68,489.744 2089.16,448.54 2096.02,351.44 2030.19,387.053 2024.36,332.325 1946.6,437.961 1903.6,369.834 1853.95,454.67 1920.55,483.379 1984.52,535.659 2058.93,533.131 1977.01,523.552 1932.61,567.6 1928.45,594.25 1964.02,573.685 1920.44,489.514 1960.78,449.86 1955.71,514.118 1995.61,495.254 1914.02,431.918 1906.16,247.683 1960.29,182.495 1927.49,253.204 1924.91,310.097 1910.49,373.11 1856.46,447.075 1793.94,499.16 1791.44,449.963 1821.32,511.611 1883.79,414.23 1841.96,329.626 1853.56,378.293 1892.69,396.729 1947.26,495.932 1972.5,520.593 1955.17,473.002 1948.7,478.242 2007.79,506.946 1992.02,282.689 2023,260.196 2000.63,426.27 1998.48,380.554 1978.94,428.507 2106.89,361.166 2095.22,351.396 2060.91,458.846 2072.2,330.148 2057.55,247.549 2098.83,230.163 2019.18,312.415 1931.57,262.089 1910.4,299.057 1901.92,312.09 1875.19,356.885 1868.9,375.441 1820.8,421.844 1773.72,484.544 1763.74,552.295 1784.59,630.578 1872.3,707.255 1932.05,669.779 1999.3,702.78 2028.14,639.873 2039.41,693.326 2023.35,616.385 2005.92,551.207 2053.96,525.755 2044.37,430.195 1981.86,426.326 1980.65,413.399 1953.31,441.322 1955.91,424.485 1926.54,454.055 1969.82,433.561 1843.31,409.438 1822.19,437.605 1853.17,499.898 1869.3,500.874 1850.08,566.119 1830.67,532.87 1757.14,562.407 1893.36,515.386 1988.71,378.214 1881.6,529.1 1845.8,608.288 1922.49,600.559 1941.41,555.809 1976.26,526.359 2044.44,586.705 1995.33,522.441 2000.53,476.029 2006.84,453.371 2030.36,366.48 2067.76,379.933 2022.26,428.593 1986.19,412.364 1912.64,363.271 1947.23,344.752 2054.99,397.289 2079.73,395.254 2050.77,328.861 2105.9,358.132 2084.69,406.539 2015.1,400.247 2071.11,498.951 2041.4,569.159 2052.22,572.687 2058.27,549.035 2069.33,547.865 2065.89,529.562 1996.75,449.49 2036.78,407.109 2070.19,377.305 2010.91,404.742 2051.29,332.431 2059.27,414.771 2028.33,326.564 2105.03,389.487 2079.14,349.231 2073.29,475.619 2073.19,414.381 2007.32,370.452 2130.7,498.923 2030.2,419.652 2087.52,341.325 2123.41,345.128 2115.64,425.021 2133.24,471.267 2132.5,375.456 2151.37,464.928 2223.85,440.263 2216.97,392.287 2152.17,302.108 2175.03,361.333 2267.29,361.742 2261.69,337.363 2209.38,303.079 2213.63,313.122 2196.82,332.98 2146.94,312.858 2147.59,358.74 2107.4,423.022 2183.56,573.272 2166.56,462.091 2227.54,464.486 2220.06,316.999 2155.44,335.001 2135.2,346.901 2025.11,385.879 2073.99,418.43 2101.49,437.398 2063.72,372.479 1998.32,464.055 2063.75,496.019 2056.48,538.349 2010.14,436.21 2044.77,433.637 2028.86,472.736 2044.73,452.491 2102.05,365.859 2064.5,400.271 2075.38,403.066 2118.02,367.069 2153.24,405.335 2180.57,408.863 2131.56,416.729 2198,430.873 2080.48,396.882 1998.37,405.376 1966.46,379.268 1943.98,347.686 1964.45,437.196 1995.38,358.851 1958.79,324.501 1986.58,271.256 2078.05,350.678 2024.66,370.693 2035.5,377.382 1962.75,463.351 1966.56,516.145 1942.67,505.808 1931.47,416.527 1919.69,335.808 1855.2,343.076 1895.72,379.81 1952.14,433.201 1938.92,344.971 1880.44,271.27 1891,303.137 2008.5,263.046 2016.99,278.325 1978.09,259.116 1892.99,279.208 1819.06,374.939 1874.13,413.741 1903.84,425.663 2003.67,507.064 2017.68,432.825 2035.7,450.121 2005.5,414.043 1977.25,503.743 2027.38,472.304 1991.38,461.048 1987.07,440.628 2002.72,387.081 2071.33,455.55 2082.82,468.756 2007.41,478.947 2016.16,471.693 2047.11,315.038 1998.85,359.589 1877.54,365.274 1874.88,433.538 1856.73,404.006 1827.97,421.543 1791.6,425.928 1718.71,481.091 1765.91,409.74 1718.49,405.102 1645.13,439.312 1724.83,501.157 1786.8,607.041 1809.2,619.955 1835.97,645.577 1815.04,579.343 1896.41,585.772 2060.35,632.877 2147.53,520.015 2208.88,539.253 2236.21,421.843 2249.94,426.7 2203.54,488.812 2164.95,529.353 2063.23,495.963 2017.19,479.28 1947.12,407.553 1904.23,434.091 1840.6,412.862 1862.44,506.993 1904.44,500.094 1923.44,458.443 2014.19,445.521 1996.83,489.356 1952.3,359.53 1919.12,322.731 1916.03,412.683 1947.27,346.931 1986.96,343.837 2034.61,428.949 1976.24,474.803 1994.35,553.306 1992.61,509.728 1999.1,381.082 2028.03,373.433 2020.05,380.363 2006.76,258.219 2011.78,252.103 2046.79,330.763 2044.97,386.951 2160.89,489.986 2137.89,519.205 2101.66,511.187 2040.34,524.35 2046.83,531.566 2043.51,411.828 2032.44,441.318 2064.75,483.784 2078.07,542.301 2045.33,426.34 2097.55,546.007 2122.26,444.563 2044.99,443.094 2018.54,581.563 2050.69,576.32 2130.84,371.669 2047.67,409.161 2007.95,413.244 2003.67,321.883 2047.97,324.469 2030.54,344.502 2144.61,304.721 2072.67,237.704 2113.66,264.312 2157.04,280.459 2052.25,342.462 2082.28,402.872 2081.51,352.038 2067.64,369.04 2045,441.595 2087.45,295.276 2029.9,225.77 1997.42,347.825 2007.57,414.358 1971.97,420.075 2002.18,371.193 2085.76,395.141 2102.94,366.63 2074.87,348.963 2019.17,390.129 2005.38,467.176 1978.21,428.745 2022.59,374.873 1938.59,378.856 1964.18,385.807 1916.69,297.675 1953.44,239.485 1902.58,313.346 1877.68,386.682 1970.17,396.295 1970.15,359.235 2066.21,421.435 2020.52,442.992 1982.82,456.027 2012.4,394.804 1944.44,437.583 1955.97,398.567 1947.43,455.958 1987.96,381.882 2009.77,322.973 2051.83,332.212 2125.4,348.258 2141.61,305.522 2205.84,349.459 2197.5,386.133 2157.55,412.135 2062.14,420.723 1995.56,439.434 1999.19,468.766 2031.04,417.237 2016.58,424.758 2054.07,370.164 2022.66,391.51 2026.58,460.246 2080.34,397.217 2076.78,271.477 2035.48,355.526 2089.36,390.94 2100.84,449.965 2120.06,488.771 2124.91,500.283 2172.36,525.514 2152.61,445.016 2230.53,389.438 2231.6,298.563 2234.97,306.353 2154.69,291.932 2167.33,274.792 2148.82,373.393 2115.05,394.041 2047.02,368.232 1980.17,265.252 1927.75,321.533 1868.38,389.654 1946.84,440.709 1963.64,442.814 1936.37,490.573 1930.72,436.271 1884.42,378.574 1761.34,384.379 1786.71,372.919 1818.33,425.994 1850.88,349.022 1852.56,417.714 1909.73,382.708 1815.5,481.717 1845.82,452.95 1919.25,336.333 1987.77,383.468 1965.2,358.545 1938.07,287.97 1980.85,257.355 2040.94,263.579 1984.45,163.938 2089.82,231.819 2160.62,296.911 2154.67,236.036 2167.25,285.645 2159.05,359.419 2100.75,312.145 2140.14,296.45 2017.99,307.918 2071.37,409.302 2066.48,362.314 2073.63,387.709 2099.59,380.528 2091.29,314.263 2134.23,315.85 2051.8,300.372 2020.59,327.961 2068.56,408.578 2030.9,484.825 2050.12,390.423 2037.28,309.136 2085.55,257.756 2121.49,369.651 2071.02,345.114 2115.7,308.188 2118.21,304.195 2087.73,340.024 2149.72,406.355 2094.04,422.993 2119.02,418.888 2076.87,410.466 2015.07,323.994 2016.13,310.723 2019.05,307.268 1932.41,321.172 1949.14,365.269 1977.39,408.323 1922.12,427.644 1974.78,464.817 2073.17,465.323 2120.87,479.865 2061.67,425.528 2040.97,461.503 2041.44,540.898 2094.04,582.028 2109.79,648.829 2062.27,588.017 2013.28,539.185 1889.24,489.876 2001.88,432.534 1986.07,291.692 2009.27,228.209 2013,278.577 1973.2,369.038 2100.57,333.325 2095.2,334.502 2020.31,248.328 2029.8,339.378 1999.78,351.197 2068.95,354.704 2082.62,337.857 2088.18,316.522 2031.65,272.461 2058.36,287.599 2104.19,312.103 2144.46,364.12 2142.2,316.412 2142.04,305.515 2091.92,317.005 2063.72,234.96 2075.2,285.78 2054.25,350.559 2142.44,357.647 2075.5,351.532 1967.86,416.69 2054.69,389.411 2063.89,282.795 2036.67,364.275 2035.63,308.731 2100.97,285.567 2078.72,258.745 1994.19,310.245 2021.58,326.497 2042.01,340.608 2091.37,406.287 2085.57,485.461 1958.58,493.806 2044.31,477.339 2134.34,530.307 2140.8,409.068 2150.7,343.263 2097.63,436.222 2102.22,500.544 2033.71,491.956 2081.37,375.58 2064.98,401.633 2043.12,346.452 2090.96,437.378 2045.84,469.731 2043.67,466.387 2116.84,562.9 2105.19,519.683 2138.85,558.826 2204.03,558.007 2145.72,426.779 2149.47,348.827 2107.53,241.203 2181.26,298.102 2219.33,300.773 2235.08,292.79 2158.47,340.705 2210.09,241.067 2261.88,232.854 2180.96,171.594 2151.99,164.748 2114.86,313.321 2090.13,265.04 2119,288.821 2109.51,412.17 2138.33,443.096 2119.36,458.516 2134.95,277.46 2107.51,335.678 2102.7,333.93 2124.73,419.575 2065.05,384.849 2050.5,421.118 2028.79,341.74 2027.71,406.117 2038.61,378.571 2074.11,382.151 2094.13,374.817 2039.87,330.266 2005.46,403.051 1979.83,440.73 1963.35,496.707 1999.54,521.168 1978.65,648.144 2035.83,664.049 2053.89,669.973 1964.57,545.696 1935.37,544.175 1891.68,601.055 1849.22,518.376 1836.16,500.058 1888.08,488.39 "/>
<circle clip-path="url(#clip882)" cx="2017.98" cy="423.143" r="14.4" fill="#ff0000" fill-rule="evenodd" fill-opacity="1" stroke="#000000" stroke-opacity="1" stroke-width="3.2"/>
<circle clip-path="url(#clip882)" cx="592.467" cy="1047.28" r="14.4" fill="#ff0000" fill-rule="evenodd" fill-opacity="1" stroke="#000000" stroke-opacity="1" stroke-width="3.2"/>
</svg>
