<?xml version="1.0" encoding="utf-8"?>
<svg xmlns="http://www.w3.org/2000/svg" xmlns:xlink="http://www.w3.org/1999/xlink" width="600" height="400" viewBox="0 0 2400 1600">
<defs>
  <clipPath id="clip450">
    <rect x="0" y="0" width="2400" height="1600"/>
  </clipPath>
</defs>
<path clip-path="url(#clip450)" d="M0 1600 L2400 1600 L2400 0 L0 0  Z" fill="#ffffff" fill-rule="evenodd" fill-opacity="1"/>
<defs>
  <clipPath id="clip451">
    <rect x="257" y="47" width="2096" height="1377"/>
  </clipPath>
</defs>
<path clip-path="url(#clip450)" d="M257.69 1423.18 L2352.76 1423.18 L2352.76 47.2441 L257.69 47.2441  Z" fill="#ffffff" fill-rule="evenodd" fill-opacity="1"/>
<polyline clip-path="url(#clip451)" style="stroke:#000000; stroke-linecap:round; stroke-linejoin:round; stroke-width:2; stroke-opacity:0.1; fill:none" points="432.279,1423.18 432.279,47.2441 "/>
<polyline clip-path="url(#clip451)" style="stroke:#000000; stroke-linecap:round; stroke-linejoin:round; stroke-width:2; stroke-opacity:0.1; fill:none" points="868.751,1423.18 868.751,47.2441 "/>
<polyline clip-path="url(#clip451)" style="stroke:#000000; stroke-linecap:round; stroke-linejoin:round; stroke-width:2; stroke-opacity:0.1; fill:none" points="1305.22,1423.18 1305.22,47.2441 "/>
<polyline clip-path="url(#clip451)" style="stroke:#000000; stroke-linecap:round; stroke-linejoin:round; stroke-width:2; stroke-opacity:0.1; fill:none" points="1741.7,1423.18 1741.7,47.2441 "/>
<polyline clip-path="url(#clip451)" style="stroke:#000000; stroke-linecap:round; stroke-linejoin:round; stroke-width:2; stroke-opacity:0.1; fill:none" points="2178.17,1423.18 2178.17,47.2441 "/>
<polyline clip-path="url(#clip451)" style="stroke:#000000; stroke-linecap:round; stroke-linejoin:round; stroke-width:2; stroke-opacity:0.1; fill:none" points="257.69,1193.86 2352.76,1193.86 "/>
<polyline clip-path="url(#clip451)" style="stroke:#000000; stroke-linecap:round; stroke-linejoin:round; stroke-width:2; stroke-opacity:0.1; fill:none" points="257.69,964.535 2352.76,964.535 "/>
<polyline clip-path="url(#clip451)" style="stroke:#000000; stroke-linecap:round; stroke-linejoin:round; stroke-width:2; stroke-opacity:0.1; fill:none" points="257.69,735.212 2352.76,735.212 "/>
<polyline clip-path="url(#clip451)" style="stroke:#000000; stroke-linecap:round; stroke-linejoin:round; stroke-width:2; stroke-opacity:0.1; fill:none" points="257.69,505.889 2352.76,505.889 "/>
<polyline clip-path="url(#clip451)" style="stroke:#000000; stroke-linecap:round; stroke-linejoin:round; stroke-width:2; stroke-opacity:0.1; fill:none" points="257.69,276.567 2352.76,276.567 "/>
<polyline clip-path="url(#clip450)" style="stroke:#000000; stroke-linecap:round; stroke-linejoin:round; stroke-width:4; stroke-opacity:1; fill:none" points="257.69,1423.18 2352.76,1423.18 "/>
<polyline clip-path="url(#clip450)" style="stroke:#000000; stroke-linecap:round; stroke-linejoin:round; stroke-width:4; stroke-opacity:1; fill:none" points="432.279,1423.18 432.279,1404.28 "/>
<polyline clip-path="url(#clip450)" style="stroke:#000000; stroke-linecap:round; stroke-linejoin:round; stroke-width:4; stroke-opacity:1; fill:none" points="868.751,1423.18 868.751,1404.28 "/>
<polyline clip-path="url(#clip450)" style="stroke:#000000; stroke-linecap:round; stroke-linejoin:round; stroke-width:4; stroke-opacity:1; fill:none" points="1305.22,1423.18 1305.22,1404.28 "/>
<polyline clip-path="url(#clip450)" style="stroke:#000000; stroke-linecap:round; stroke-linejoin:round; stroke-width:4; stroke-opacity:1; fill:none" points="1741.7,1423.18 1741.7,1404.28 "/>
<polyline clip-path="url(#clip450)" style="stroke:#000000; stroke-linecap:round; stroke-linejoin:round; stroke-width:4; stroke-opacity:1; fill:none" points="2178.17,1423.18 2178.17,1404.28 "/>
<path clip-path="url(#clip450)" d="M378.807 1468.75 L408.483 1468.75 L408.483 1472.69 L378.807 1472.69 L378.807 1468.75 Z" fill="#000000" fill-rule="nonzero" fill-opacity="1" /><path clip-path="url(#clip450)" d="M419.386 1481.64 L427.024 1481.64 L427.024 1455.28 L418.714 1456.95 L418.714 1452.69 L426.978 1451.02 L431.654 1451.02 L431.654 1481.64 L439.293 1481.64 L439.293 1485.58 L419.386 1485.58 L419.386 1481.64 Z" fill="#000000" fill-rule="nonzero" fill-opacity="1" /><path clip-path="url(#clip450)" d="M448.737 1479.7 L453.621 1479.7 L453.621 1485.58 L448.737 1485.58 L448.737 1479.7 Z" fill="#000000" fill-rule="nonzero" fill-opacity="1" /><path clip-path="url(#clip450)" d="M473.807 1454.1 Q470.195 1454.1 468.367 1457.66 Q466.561 1461.2 466.561 1468.33 Q466.561 1475.44 468.367 1479.01 Q470.195 1482.55 473.807 1482.55 Q477.441 1482.55 479.246 1479.01 Q481.075 1475.44 481.075 1468.33 Q481.075 1461.2 479.246 1457.66 Q477.441 1454.1 473.807 1454.1 M473.807 1450.39 Q479.617 1450.39 482.672 1455 Q485.751 1459.58 485.751 1468.33 Q485.751 1477.06 482.672 1481.67 Q479.617 1486.25 473.807 1486.25 Q467.996 1486.25 464.918 1481.67 Q461.862 1477.06 461.862 1468.33 Q461.862 1459.58 464.918 1455 Q467.996 1450.39 473.807 1450.39 Z" fill="#000000" fill-rule="nonzero" fill-opacity="1" /><path clip-path="url(#clip450)" d="M815.777 1468.75 L845.453 1468.75 L845.453 1472.69 L815.777 1472.69 L815.777 1468.75 Z" fill="#000000" fill-rule="nonzero" fill-opacity="1" /><path clip-path="url(#clip450)" d="M865.545 1454.1 Q861.934 1454.1 860.105 1457.66 Q858.3 1461.2 858.3 1468.33 Q858.3 1475.44 860.105 1479.01 Q861.934 1482.55 865.545 1482.55 Q869.179 1482.55 870.985 1479.01 Q872.813 1475.44 872.813 1468.33 Q872.813 1461.2 870.985 1457.66 Q869.179 1454.1 865.545 1454.1 M865.545 1450.39 Q871.355 1450.39 874.411 1455 Q877.489 1459.58 877.489 1468.33 Q877.489 1477.06 874.411 1481.67 Q871.355 1486.25 865.545 1486.25 Q859.735 1486.25 856.656 1481.67 Q853.601 1477.06 853.601 1468.33 Q853.601 1459.58 856.656 1455 Q859.735 1450.39 865.545 1450.39 Z" fill="#000000" fill-rule="nonzero" fill-opacity="1" /><path clip-path="url(#clip450)" d="M885.707 1479.7 L890.591 1479.7 L890.591 1485.58 L885.707 1485.58 L885.707 1479.7 Z" fill="#000000" fill-rule="nonzero" fill-opacity="1" /><path clip-path="url(#clip450)" d="M900.823 1451.02 L919.179 1451.02 L919.179 1454.96 L905.105 1454.96 L905.105 1463.43 Q906.123 1463.08 907.142 1462.92 Q908.16 1462.73 909.179 1462.73 Q914.966 1462.73 918.346 1465.9 Q921.725 1469.08 921.725 1474.49 Q921.725 1480.07 918.253 1483.17 Q914.781 1486.25 908.461 1486.25 Q906.286 1486.25 904.017 1485.88 Q901.772 1485.51 899.364 1484.77 L899.364 1480.07 Q901.448 1481.2 903.67 1481.76 Q905.892 1482.32 908.369 1482.32 Q912.373 1482.32 914.711 1480.21 Q917.049 1478.1 917.049 1474.49 Q917.049 1470.88 914.711 1468.77 Q912.373 1466.67 908.369 1466.67 Q906.494 1466.67 904.619 1467.08 Q902.767 1467.5 900.823 1468.38 L900.823 1451.02 Z" fill="#000000" fill-rule="nonzero" fill-opacity="1" /><path clip-path="url(#clip450)" d="M1282.61 1454.1 Q1279 1454.1 1277.17 1457.66 Q1275.36 1461.2 1275.36 1468.33 Q1275.36 1475.44 1277.17 1479.01 Q1279 1482.55 1282.61 1482.55 Q1286.24 1482.55 1288.05 1479.01 Q1289.88 1475.44 1289.88 1468.33 Q1289.88 1461.2 1288.05 1457.66 Q1286.24 1454.1 1282.61 1454.1 M1282.61 1450.39 Q1288.42 1450.39 1291.47 1455 Q1294.55 1459.58 1294.55 1468.33 Q1294.55 1477.06 1291.47 1481.67 Q1288.42 1486.25 1282.61 1486.25 Q1276.8 1486.25 1273.72 1481.67 Q1270.66 1477.06 1270.66 1468.33 Q1270.66 1459.58 1273.72 1455 Q1276.8 1450.39 1282.61 1450.39 Z" fill="#000000" fill-rule="nonzero" fill-opacity="1" /><path clip-path="url(#clip450)" d="M1302.77 1479.7 L1307.65 1479.7 L1307.65 1485.58 L1302.77 1485.58 L1302.77 1479.7 Z" fill="#000000" fill-rule="nonzero" fill-opacity="1" /><path clip-path="url(#clip450)" d="M1327.84 1454.1 Q1324.23 1454.1 1322.4 1457.66 Q1320.59 1461.2 1320.59 1468.33 Q1320.59 1475.44 1322.4 1479.01 Q1324.23 1482.55 1327.84 1482.55 Q1331.47 1482.55 1333.28 1479.01 Q1335.11 1475.44 1335.11 1468.33 Q1335.11 1461.2 1333.28 1457.66 Q1331.47 1454.1 1327.84 1454.1 M1327.84 1450.39 Q1333.65 1450.39 1336.7 1455 Q1339.78 1459.58 1339.78 1468.33 Q1339.78 1477.06 1336.7 1481.67 Q1333.65 1486.25 1327.84 1486.25 Q1322.03 1486.25 1318.95 1481.67 Q1315.89 1477.06 1315.89 1468.33 Q1315.89 1459.58 1318.95 1455 Q1322.03 1450.39 1327.84 1450.39 Z" fill="#000000" fill-rule="nonzero" fill-opacity="1" /><path clip-path="url(#clip450)" d="M1719.58 1454.1 Q1715.97 1454.1 1714.14 1457.66 Q1712.33 1461.2 1712.33 1468.33 Q1712.33 1475.44 1714.14 1479.01 Q1715.97 1482.55 1719.58 1482.55 Q1723.21 1482.55 1725.02 1479.01 Q1726.85 1475.44 1726.85 1468.33 Q1726.85 1461.2 1725.02 1457.66 Q1723.21 1454.1 1719.58 1454.1 M1719.58 1450.39 Q1725.39 1450.39 1728.44 1455 Q1731.52 1459.58 1731.52 1468.33 Q1731.52 1477.06 1728.44 1481.67 Q1725.39 1486.25 1719.58 1486.25 Q1713.77 1486.25 1710.69 1481.67 Q1707.63 1477.06 1707.63 1468.33 Q1707.63 1459.58 1710.69 1455 Q1713.77 1450.39 1719.58 1450.39 Z" fill="#000000" fill-rule="nonzero" fill-opacity="1" /><path clip-path="url(#clip450)" d="M1739.74 1479.7 L1744.62 1479.7 L1744.62 1485.58 L1739.74 1485.58 L1739.74 1479.7 Z" fill="#000000" fill-rule="nonzero" fill-opacity="1" /><path clip-path="url(#clip450)" d="M1754.85 1451.02 L1773.21 1451.02 L1773.21 1454.96 L1759.14 1454.96 L1759.14 1463.43 Q1760.16 1463.08 1761.17 1462.92 Q1762.19 1462.73 1763.21 1462.73 Q1769 1462.73 1772.38 1465.9 Q1775.76 1469.08 1775.76 1474.49 Q1775.76 1480.07 1772.29 1483.17 Q1768.81 1486.25 1762.49 1486.25 Q1760.32 1486.25 1758.05 1485.88 Q1755.8 1485.51 1753.4 1484.77 L1753.4 1480.07 Q1755.48 1481.2 1757.7 1481.76 Q1759.92 1482.32 1762.4 1482.32 Q1766.41 1482.32 1768.74 1480.21 Q1771.08 1478.1 1771.08 1474.49 Q1771.08 1470.88 1768.74 1468.77 Q1766.41 1466.67 1762.4 1466.67 Q1760.53 1466.67 1758.65 1467.08 Q1756.8 1467.5 1754.85 1468.38 L1754.85 1451.02 Z" fill="#000000" fill-rule="nonzero" fill-opacity="1" /><path clip-path="url(#clip450)" d="M2145.32 1481.64 L2152.96 1481.64 L2152.96 1455.28 L2144.65 1456.95 L2144.65 1452.69 L2152.91 1451.02 L2157.59 1451.02 L2157.59 1481.64 L2165.23 1481.64 L2165.23 1485.58 L2145.32 1485.58 L2145.32 1481.64 Z" fill="#000000" fill-rule="nonzero" fill-opacity="1" /><path clip-path="url(#clip450)" d="M2174.67 1479.7 L2179.56 1479.7 L2179.56 1485.58 L2174.67 1485.58 L2174.67 1479.7 Z" fill="#000000" fill-rule="nonzero" fill-opacity="1" /><path clip-path="url(#clip450)" d="M2199.74 1454.1 Q2196.13 1454.1 2194.3 1457.66 Q2192.5 1461.2 2192.5 1468.33 Q2192.5 1475.44 2194.3 1479.01 Q2196.13 1482.55 2199.74 1482.55 Q2203.38 1482.55 2205.18 1479.01 Q2207.01 1475.44 2207.01 1468.33 Q2207.01 1461.2 2205.18 1457.66 Q2203.38 1454.1 2199.74 1454.1 M2199.74 1450.39 Q2205.55 1450.39 2208.61 1455 Q2211.69 1459.58 2211.69 1468.33 Q2211.69 1477.06 2208.61 1481.67 Q2205.55 1486.25 2199.74 1486.25 Q2193.93 1486.25 2190.85 1481.67 Q2187.8 1477.06 2187.8 1468.33 Q2187.8 1459.58 2190.85 1455 Q2193.93 1450.39 2199.74 1450.39 Z" fill="#000000" fill-rule="nonzero" fill-opacity="1" /><path clip-path="url(#clip450)" d="M1290.3 1553.98 L1290.3 1532.4 L1296.15 1532.4 L1296.15 1553.75 Q1296.15 1558.81 1298.13 1561.36 Q1300.1 1563.87 1304.05 1563.87 Q1308.79 1563.87 1311.53 1560.85 Q1314.29 1557.83 1314.29 1552.61 L1314.29 1532.4 L1320.15 1532.4 L1320.15 1568.04 L1314.29 1568.04 L1314.29 1562.57 Q1312.16 1565.82 1309.33 1567.41 Q1306.53 1568.97 1302.8 1568.97 Q1296.66 1568.97 1293.48 1565.15 Q1290.3 1561.33 1290.3 1553.98 M1305.03 1531.54 L1305.03 1531.54 Z" fill="#000000" fill-rule="nonzero" fill-opacity="1" /><polyline clip-path="url(#clip450)" style="stroke:#000000; stroke-linecap:round; stroke-linejoin:round; stroke-width:4; stroke-opacity:1; fill:none" points="257.69,1423.18 257.69,47.2441 "/>
<polyline clip-path="url(#clip450)" style="stroke:#000000; stroke-linecap:round; stroke-linejoin:round; stroke-width:4; stroke-opacity:1; fill:none" points="257.69,1193.86 276.588,1193.86 "/>
<polyline clip-path="url(#clip450)" style="stroke:#000000; stroke-linecap:round; stroke-linejoin:round; stroke-width:4; stroke-opacity:1; fill:none" points="257.69,964.535 276.588,964.535 "/>
<polyline clip-path="url(#clip450)" style="stroke:#000000; stroke-linecap:round; stroke-linejoin:round; stroke-width:4; stroke-opacity:1; fill:none" points="257.69,735.212 276.588,735.212 "/>
<polyline clip-path="url(#clip450)" style="stroke:#000000; stroke-linecap:round; stroke-linejoin:round; stroke-width:4; stroke-opacity:1; fill:none" points="257.69,505.889 276.588,505.889 "/>
<polyline clip-path="url(#clip450)" style="stroke:#000000; stroke-linecap:round; stroke-linejoin:round; stroke-width:4; stroke-opacity:1; fill:none" points="257.69,276.567 276.588,276.567 "/>
<path clip-path="url(#clip450)" d="M114.26 1194.31 L143.936 1194.31 L143.936 1198.24 L114.26 1198.24 L114.26 1194.31 Z" fill="#000000" fill-rule="nonzero" fill-opacity="1" /><path clip-path="url(#clip450)" d="M164.028 1179.66 Q160.417 1179.66 158.589 1183.22 Q156.783 1186.76 156.783 1193.89 Q156.783 1201 158.589 1204.56 Q160.417 1208.1 164.028 1208.1 Q167.663 1208.1 169.468 1204.56 Q171.297 1201 171.297 1193.89 Q171.297 1186.76 169.468 1183.22 Q167.663 1179.66 164.028 1179.66 M164.028 1175.95 Q169.839 1175.95 172.894 1180.56 Q175.973 1185.14 175.973 1193.89 Q175.973 1202.62 172.894 1207.23 Q169.839 1211.81 164.028 1211.81 Q158.218 1211.81 155.14 1207.23 Q152.084 1202.62 152.084 1193.89 Q152.084 1185.14 155.14 1180.56 Q158.218 1175.95 164.028 1175.95 Z" fill="#000000" fill-rule="nonzero" fill-opacity="1" /><path clip-path="url(#clip450)" d="M184.19 1205.26 L189.075 1205.26 L189.075 1211.14 L184.19 1211.14 L184.19 1205.26 Z" fill="#000000" fill-rule="nonzero" fill-opacity="1" /><path clip-path="url(#clip450)" d="M212.107 1180.65 L200.301 1199.1 L212.107 1199.1 L212.107 1180.65 M210.88 1176.58 L216.76 1176.58 L216.76 1199.1 L221.69 1199.1 L221.69 1202.99 L216.76 1202.99 L216.76 1211.14 L212.107 1211.14 L212.107 1202.99 L196.505 1202.99 L196.505 1198.48 L210.88 1176.58 Z" fill="#000000" fill-rule="nonzero" fill-opacity="1" /><path clip-path="url(#clip450)" d="M116.343 964.986 L146.019 964.986 L146.019 968.921 L116.343 968.921 L116.343 964.986 Z" fill="#000000" fill-rule="nonzero" fill-opacity="1" /><path clip-path="url(#clip450)" d="M166.112 950.333 Q162.501 950.333 160.672 953.898 Q158.866 957.44 158.866 964.569 Q158.866 971.676 160.672 975.241 Q162.501 978.782 166.112 978.782 Q169.746 978.782 171.552 975.241 Q173.38 971.676 173.38 964.569 Q173.38 957.44 171.552 953.898 Q169.746 950.333 166.112 950.333 M166.112 946.63 Q171.922 946.63 174.977 951.236 Q178.056 955.819 178.056 964.569 Q178.056 973.296 174.977 977.903 Q171.922 982.486 166.112 982.486 Q160.302 982.486 157.223 977.903 Q154.167 973.296 154.167 964.569 Q154.167 955.819 157.223 951.236 Q160.302 946.63 166.112 946.63 Z" fill="#000000" fill-rule="nonzero" fill-opacity="1" /><path clip-path="url(#clip450)" d="M186.274 975.935 L191.158 975.935 L191.158 981.815 L186.274 981.815 L186.274 975.935 Z" fill="#000000" fill-rule="nonzero" fill-opacity="1" /><path clip-path="url(#clip450)" d="M205.371 977.879 L221.69 977.879 L221.69 981.815 L199.746 981.815 L199.746 977.879 Q202.408 975.125 206.991 970.495 Q211.598 965.842 212.778 964.5 Q215.024 961.977 215.903 960.241 Q216.806 958.481 216.806 956.792 Q216.806 954.037 214.861 952.301 Q212.94 950.565 209.838 950.565 Q207.639 950.565 205.186 951.329 Q202.755 952.093 199.977 953.643 L199.977 948.921 Q202.801 947.787 205.255 947.208 Q207.709 946.63 209.746 946.63 Q215.116 946.63 218.311 949.315 Q221.505 952 221.505 956.491 Q221.505 958.62 220.695 960.542 Q219.908 962.44 217.801 965.032 Q217.223 965.704 214.121 968.921 Q211.019 972.116 205.371 977.879 Z" fill="#000000" fill-rule="nonzero" fill-opacity="1" /><path clip-path="url(#clip450)" d="M164.515 721.011 Q160.903 721.011 159.075 724.575 Q157.269 728.117 157.269 735.247 Q157.269 742.353 159.075 745.918 Q160.903 749.46 164.515 749.46 Q168.149 749.46 169.954 745.918 Q171.783 742.353 171.783 735.247 Q171.783 728.117 169.954 724.575 Q168.149 721.011 164.515 721.011 M164.515 717.307 Q170.325 717.307 173.38 721.913 Q176.459 726.497 176.459 735.247 Q176.459 743.973 173.38 748.58 Q170.325 753.163 164.515 753.163 Q158.704 753.163 155.626 748.58 Q152.57 743.973 152.57 735.247 Q152.57 726.497 155.626 721.913 Q158.704 717.307 164.515 717.307 Z" fill="#000000" fill-rule="nonzero" fill-opacity="1" /><path clip-path="url(#clip450)" d="M184.676 746.612 L189.561 746.612 L189.561 752.492 L184.676 752.492 L184.676 746.612 Z" fill="#000000" fill-rule="nonzero" fill-opacity="1" /><path clip-path="url(#clip450)" d="M209.746 721.011 Q206.135 721.011 204.306 724.575 Q202.5 728.117 202.5 735.247 Q202.5 742.353 204.306 745.918 Q206.135 749.46 209.746 749.46 Q213.38 749.46 215.186 745.918 Q217.014 742.353 217.014 735.247 Q217.014 728.117 215.186 724.575 Q213.38 721.011 209.746 721.011 M209.746 717.307 Q215.556 717.307 218.611 721.913 Q221.69 726.497 221.69 735.247 Q221.69 743.973 218.611 748.58 Q215.556 753.163 209.746 753.163 Q203.936 753.163 200.857 748.58 Q197.801 743.973 197.801 735.247 Q197.801 726.497 200.857 721.913 Q203.936 717.307 209.746 717.307 Z" fill="#000000" fill-rule="nonzero" fill-opacity="1" /><path clip-path="url(#clip450)" d="M166.112 491.688 Q162.501 491.688 160.672 495.253 Q158.866 498.794 158.866 505.924 Q158.866 513.031 160.672 516.595 Q162.501 520.137 166.112 520.137 Q169.746 520.137 171.552 516.595 Q173.38 513.031 173.38 505.924 Q173.38 498.794 171.552 495.253 Q169.746 491.688 166.112 491.688 M166.112 487.984 Q171.922 487.984 174.977 492.591 Q178.056 497.174 178.056 505.924 Q178.056 514.651 174.977 519.257 Q171.922 523.841 166.112 523.841 Q160.302 523.841 157.223 519.257 Q154.167 514.651 154.167 505.924 Q154.167 497.174 157.223 492.591 Q160.302 487.984 166.112 487.984 Z" fill="#000000" fill-rule="nonzero" fill-opacity="1" /><path clip-path="url(#clip450)" d="M186.274 517.29 L191.158 517.29 L191.158 523.169 L186.274 523.169 L186.274 517.29 Z" fill="#000000" fill-rule="nonzero" fill-opacity="1" /><path clip-path="url(#clip450)" d="M205.371 519.234 L221.69 519.234 L221.69 523.169 L199.746 523.169 L199.746 519.234 Q202.408 516.48 206.991 511.85 Q211.598 507.197 212.778 505.855 Q215.024 503.331 215.903 501.595 Q216.806 499.836 216.806 498.146 Q216.806 495.392 214.861 493.656 Q212.94 491.92 209.838 491.92 Q207.639 491.92 205.186 492.683 Q202.755 493.447 199.977 494.998 L199.977 490.276 Q202.801 489.142 205.255 488.563 Q207.709 487.984 209.746 487.984 Q215.116 487.984 218.311 490.67 Q221.505 493.355 221.505 497.845 Q221.505 499.975 220.695 501.896 Q219.908 503.794 217.801 506.387 Q217.223 507.058 214.121 510.276 Q211.019 513.47 205.371 519.234 Z" fill="#000000" fill-rule="nonzero" fill-opacity="1" /><path clip-path="url(#clip450)" d="M164.028 262.365 Q160.417 262.365 158.589 265.93 Q156.783 269.472 156.783 276.601 Q156.783 283.708 158.589 287.273 Q160.417 290.814 164.028 290.814 Q167.663 290.814 169.468 287.273 Q171.297 283.708 171.297 276.601 Q171.297 269.472 169.468 265.93 Q167.663 262.365 164.028 262.365 M164.028 258.662 Q169.839 258.662 172.894 263.268 Q175.973 267.851 175.973 276.601 Q175.973 285.328 172.894 289.935 Q169.839 294.518 164.028 294.518 Q158.218 294.518 155.14 289.935 Q152.084 285.328 152.084 276.601 Q152.084 267.851 155.14 263.268 Q158.218 258.662 164.028 258.662 Z" fill="#000000" fill-rule="nonzero" fill-opacity="1" /><path clip-path="url(#clip450)" d="M184.19 287.967 L189.075 287.967 L189.075 293.847 L184.19 293.847 L184.19 287.967 Z" fill="#000000" fill-rule="nonzero" fill-opacity="1" /><path clip-path="url(#clip450)" d="M212.107 263.361 L200.301 281.81 L212.107 281.81 L212.107 263.361 M210.88 259.287 L216.76 259.287 L216.76 281.81 L221.69 281.81 L221.69 285.699 L216.76 285.699 L216.76 293.847 L212.107 293.847 L212.107 285.699 L196.505 285.699 L196.505 281.185 L210.88 259.287 Z" fill="#000000" fill-rule="nonzero" fill-opacity="1" /><path clip-path="url(#clip450)" d="M28.3562 752.559 L28.3562 746.352 L58.275 735.212 L28.3562 724.072 L28.3562 717.865 L64.0042 731.233 L64.0042 739.191 L28.3562 752.559 Z" fill="#000000" fill-rule="nonzero" fill-opacity="1" /><polyline clip-path="url(#clip451)" style="stroke:#009af9; stroke-linecap:round; stroke-linejoin:round; stroke-width:4; stroke-opacity:1; fill:none" points="592.467,1047.28 612.809,1014.01 667.956,1037.3 610.839,1035.08 614.57,1062.65 647.949,1011.73 600.99,931.233 633.728,971.148 610.353,980.565 572.758,974.838 523.56,947.692 520.289,983.995 485.569,996.38 506.16,981.135 547.703,951.202 623.392,964.677 641.385,1007.51 602.412,990.792 639.528,995.337 622.125,942.628 591.655,929.306 478.077,921.623 607.408,931.914 699.496,947.936 658.883,931.814 626.819,987.832 596.817,1038.67 563.437,1075.64 558.23,1060.53 583.516,1041.27 541.267,1071.76 548.85,1043.43 525.917,1116.35 469.814,1095.15 505.348,1124.48 531.232,1181.93 503.054,1128.24 527.185,1112.76 494.101,1064.57 475.409,1118.36 438.26,1112.27 550.095,1133.9 551.737,1067.49 488.887,1105.95 506.019,1109.03 537.455,1030.9 527.796,1057.4 512.595,1100.88 462.034,975.039 441.543,900.444 422.37,1038.1 517.485,1024.17 627.451,1022.84 670.202,1064.69 555.103,1105.15 484.143,1133.19 504.209,1123.21 556.229,1142.96 661.078,1048.62 672.698,1213.84 654.064,1129.53 661.722,1077.73 635.169,1116.6 609.844,1039.81 574.261,1015.45 585.157,1165.95 650.635,1197.36 615.328,1204.75 686.95,1143 748.083,1112.58 737.324,1077.85 621.393,1179.57 647.13,1093.57 683.422,1119.28 732.629,1160.96 750.678,1096.05 808.779,1030.88 874.389,977.205 748.441,976.505 650.037,1014.39 650.579,1075.93 673.6,1126.31 677.396,1015.74 623.172,973.86 723.692,1062.44 748.132,966.232 763.584,873.842 653.678,845.296 642.847,970.52 677.797,1011.93 753.495,864.197 729.257,818.322 735.076,805.029 751.725,811.92 759.773,751.438 687.606,827.611 621.932,954.494 531.526,937.622 526.868,850.597 546.226,791.472 537.041,804.375 575.102,947.388 511.635,936.834 518.362,917.756 557.867,815.997 533.327,828.142 575.855,874.81 546.19,1015.49 499.975,1233 594.181,1254.54 615.322,1249.5 695.273,1180.04 668.834,1083.41 635.371,1071.99 597.685,930.435 709.957,921.872 749.021,955.337 779.442,1078.17 836.485,1081.02 792.251,1062.31 802.699,954.255 876.381,992.951 906.547,944.663 929.317,841.746 874.134,835.672 867.157,899.955 815.385,903.68 680.62,987.547 638.964,1006.23 556.605,1087.64 545.555,1174.71 524.445,1169.42 437.267,1250.8 490.512,1174.96 484.399,1183.67 505.473,1123.25 541.041,1212.02 541.879,1220.36 533.073,1141.97 497.859,1003.72 511.205,1171.01 459.2,1097.28 462.187,1046.5 548.815,1151.64 535.34,1274.17 625.645,1236.33 642.227,1129.46 648.221,1259.75 668.9,1196.59 700.821,1096.98 682.427,1209.41 792.466,1302.87 809.649,1260.79 752.558,1180.84 805.29,1086.02 772.1,1060.03 757.502,1125.44 710.568,1048.61 731.491,1218.12 693.925,1148.04 604.512,1099.09 609.086,1101.37 531.878,1046.33 580.837,1021.41 540.508,1019.22 609.885,1044.99 609.38,1132.36 711.987,1096.46 669.318,1176.05 646.925,1212.38 740.567,1172.29 866.289,1225.56 747.077,1135.27 759.216,1116.34 802.182,1023.81 875.269,1023.62 938.405,981.011 928.81,943.658 854.882,1006.76 923.692,1023.66 790.939,944.794 685.275,995.54 674.119,1034.95 619.303,1030.25 640.904,1046.05 627.058,1088.24 690.739,1088.44 720.599,1081.89 670.716,1016.75 665.413,1095.22 665.467,911.115 634.507,953.932 639.876,1021.59 727.113,1052.94 697.727,1013.36 683.758,868.892 610.764,904.534 611.257,961.718 534.361,1118.9 530.913,1146.84 626.988,1150.6 555.917,1089.53 512.917,1050.71 559.907,1038.88 398.143,1146.17 427.309,1194.86 417.013,1222.03 383.03,1239.01 439.803,1207.34 459.522,1194.2 449.452,1159.21 472.852,1096.37 529.318,961.535 435.948,1025 509.349,978.866 458.31,1102.47 456.784,1050.61 417.886,1071.99 425.353,1084.17 416.129,1265.76 453.859,1245.53 512.515,1153.66 584.15,1191.39 677.904,1066.14 779.327,1038.42 757.003,963.92 692.267,940.28 683.504,886.289 652.998,832.286 646.504,812.482 646.521,829.513 581.66,872.491 531.562,987.881 485.523,1010.13 464.443,952.124 436.124,981.202 519.015,967.324 562.488,954.86 577.035,920.742 534.856,874.599 457.677,937.425 466.525,846.965 498.568,860.539 554.56,836.016 533.12,921.6 515.007,1011 485.227,1019.88 545.373,1160.52 591.147,1117.25 612.57,1080.97 561.486,1066.41 547.82,1092.9 577.952,1109.75 545.54,1179.96 534.824,1092.94 483.27,1010.29 503.966,1050.69 528.402,1057.74 553.162,998.215 614.466,1098.61 720.892,1229.36 764.839,1156.89 716.208,1086.64 708.107,1168.29 663.687,1083.46 697.331,1064.22 712.93,1052.53 665.373,1104.58 620.007,1160.1 646.204,1191.43 653.087,1077.49 702.953,1053.72 706.216,1047.57 716.075,1067.11 724.798,955.441 685.76,1098.44 630.74,1072.33 598.155,1031.06 547.909,1022.91 578.383,1066.83 603.111,1060.79 657.862,1004.85 689.66,1020.12 798.881,961.009 848.067,1111.51 859.206,1115.43 746.537,1007.8 761.965,988.203 767.032,1104.62 798.534,1123.83 874.581,1033.26 924.605,890.931 795.69,857.53 785.218,935.849 800.18,903.279 853.187,1005.7 790.154,1018.33 710.101,951.533 651.477,829.023 640.007,841.199 605.865,955.81 618.334,896.302 608.287,868.082 728.03,804.328 731.328,812.365 762.075,900.555 769.958,903.606 782.53,900.994 722.739,917.173 764.761,914.965 701.026,883.216 696.681,920.932 686.702,893.924 669.04,980.947 640.349,988.018 654.988,965.056 696.808,882.012 687.596,945.592 644.277,1020.08 659.634,1058.21 671.133,1099.66 677.783,952.567 751.962,947.259 770.137,978.662 789.034,912.7 734.965,1078.53 693.641,1129.04 676.226,1057.2 683.065,1082.84 612.002,1173.12 595.814,1126.33 653.808,1220 651.958,1076.29 663.523,1085.29 752.353,1113.37 682.87,1059.37 611.29,1090.8 547.184,964.358 615.154,1100.1 567.382,1109.69 526.448,1053.97 517.484,952.751 493.613,964.502 477.057,845.7 498.134,865.441 578.88,788.623 605.945,841.125 603.854,917.638 556.753,1029.95 561.632,1017.64 467.161,1076.12 594.199,1071.06 594.873,1075.65 586.139,1057.1 593.317,1038.87 623.312,1050.56 619.93,1055.98 652.949,1085.9 634.777,1005.6 628.525,978.2 551.705,901.221 511.193,925.678 490.701,941.466 547.987,998.53 623.611,1031.43 581.239,952.841 529.754,937.149 501.234,1011.61 578.17,946.86 612.422,1036.68 614.485,966.061 644.284,982.484 642.987,875.352 627.037,927.44 684.698,944.817 645.847,995.626 673.755,983.87 640.66,1012.18 671.002,903.046 649.473,946.695 580.814,1014.9 580.364,1101.89 587.017,1107.57 528.599,1097.02 580.939,1109.34 570.105,1080.03 558.368,1025.43 524.531,975.83 457.036,883.398 499.02,878.183 438.786,951.199 476.128,1067.24 558.001,1078.32 437.29,1056.53 409.073,1111.02 437.975,1106.22 425.241,1096.07 484.937,1056.01 450.744,1000.19 546.79,1000.73 553.953,968.094 595.173,1050.3 509.834,1071.38 535.993,998.847 507.409,1036.72 580.826,1028 527.675,1052.41 526.324,1159.32 590.697,1170.88 668.119,1130.8 746.231,1121.69 718.615,1074.58 782.662,1182.85 736.917,1174.5 702.009,1104.8 742.751,1185.81 710.778,1100.53 684.869,1062.74 577.821,1160.1 649.833,1095.31 544.028,1014.44 604.278,1022.47 630.554,971.477 601.662,1061.04 594.111,920.637 623.346,987.206 631.863,1004.33 664.073,1071.77 677.629,1022.45 577.928,892.969 580.918,944.124 536.677,1003.35 610.101,1089.95 685.224,959.073 672.298,1032.03 708.536,1048.33 700.377,1092.03 716.615,1133.42 756.397,1069.01 713.502,1073.63 668.914,968.313 663.707,1007.22 641.566,1026.91 618.474,942.235 603.465,921.636 578.121,1022.04 632.02,1164.94 655.869,1276.59 660.073,1031.71 724.326,991.179 694.039,987.486 735.438,867.003 681.53,833.492 675.07,858.16 659.182,770.839 696.729,906.362 619.933,843.038 577.515,963.024 536.145,1023.18 634.13,1050.09 624.806,1119.35 663.321,1083.51 561.849,1045.7 584.245,1044.67 555.067,1021.49 562.196,1077.95 510.973,1038.66 523.213,1084.35 572.118,989.809 604.911,1057.05 595.286,1181.1 588.667,1131.33 586.438,1056.39 668.698,1041.32 712.947,1066.08 647.377,1138.91 699.707,1082.02 696.426,1134.13 761.257,1087.91 673.709,1084.79 670.102,1002.75 711.092,928.588 741.624,823.185 755.674,842.69 769.943,880.839 787.77,971.028 901.952,940.194 775.493,1021.39 786.819,913.779 820.813,847.379 728.315,926.174 676.16,1046.42 651.097,1048.81 620.172,1039.78 557.195,997.916 578.636,1024.99 600.367,998.163 615.931,961.749 619.339,992.933 619.232,972.341 531.139,948.88 511.122,959.973 607.942,1037.51 584.251,1035.49 528.176,996.106 534.916,951.462 524.124,1035.24 452.204,1084.97 448.042,1190.84 531.056,1170.1 574.93,1154.77 550.867,1144.99 531.406,1065.81 473.613,1097 483.757,1043.2 521.115,1061.17 518.929,973.26 521.299,991.669 538.854,1044.44 580.037,969.143 600.162,987.323 514.875,959.794 562.731,1117.7 504.677,1108.65 515.668,1094.03 524.328,1138.72 565.423,1266.32 582.348,1201.15 626.381,1268.81 571.756,1203.46 615.554,1159.74 695.527,1115.33 751.565,1166.89 816.573,1084.66 770.477,1116.24 806.513,999.079 778.608,934.881 739.27,915.382 753.795,963.341 815.744,988.533 842.991,925.202 901.861,863.296 810.022,974.332 786.495,1028.91 788.88,928.916 737.057,992.026 730.577,1046.53 762.728,1092.11 774.539,1008.82 814.341,943.283 896.807,949.97 879.98,911.078 801.304,847.11 715.983,864.885 662.684,902.401 556.082,891.852 540.693,975.582 551.97,977.354 529.369,1060.63 512.59,1064.13 567.557,1102.19 464.61,1091.82 464.446,1082.59 557.385,1169.55 474.64,1218.59 477.089,1120.75 493.886,1058.29 561.226,1094.13 489.068,1045.54 525.198,1177.71 578.287,1206.65 566.977,1154.55 589.158,1130.52 648.926,1116.75 657.728,1161.85 624.792,1157.45 649.753,1196.49 686.211,1176.64 676.529,1114.8 694.523,1120.77 705.825,1123.82 654.959,1109.24 634.952,1020.91 614.517,1037.04 608.84,1036.7 572.165,1085.68 611.444,1111.76 784.879,1059.11 793.471,1008.29 819.083,951.069 796.225,942.047 789.526,871.275 742.688,949.658 708.503,895.759 598.479,948.876 596.877,977.007 624.784,1050.88 582.598,985.098 602.321,1092.41 714.359,1168.54 707.939,1145.19 752.24,1024.54 761.868,879.149 723.839,946.103 694.042,1104.39 662.072,1146.05 788.901,1093.83 750.774,1121.5 723.849,1044.56 705.349,1038.92 738.207,1041.74 662.243,1098.48 676.673,1065.46 684.354,1042.34 668.067,996.296 710.64,976.86 713.868,1079.09 728.849,1109.47 756.745,1128.83 728.694,1170.02 659.938,1155.06 735.742,1198.72 725.399,1248.45 665.933,1146.15 713.751,1056.16 665.099,1103.42 691.57,1075.9 691.103,1091.33 625.606,1132.06 573.025,1106.65 552.358,994.336 575.644,1076.62 559.162,1081.76 621.554,1063.13 704.424,1055.5 772.064,916.399 772.442,987.126 795.761,941.646 833.001,863.614 791.841,898.966 691.565,853.079 661.3,1007.37 692.601,1118.7 731.694,1114.93 728.655,1127.4 822.588,1139.27 853.28,1040.29 770.981,989.899 682.203,1014.16 682.496,998.434 616.496,1019.41 735.671,1105.96 770.976,916.883 799.941,916.163 788.392,905.981 841.282,844.389 890.187,860.501 904.005,804.028 944.205,874.176 942.871,814.398 952.502,852.824 925.177,815.123 917.112,806.369 953.482,855.669 921.244,910.192 877.511,873.466 790.434,942.626 877.097,916.518 843.674,937.861 843.929,869.763 741.319,1007.5 745.249,982.77 723.898,1029.97 733.472,1095.8 796.697,915.13 779.368,833.779 759.805,799.244 665.893,968.731 606.826,899.393 577.296,935.826 523.816,1014.13 587.208,1076.94 628.933,1048.66 666.145,1096.55 641.163,1021.43 695.623,968.142 659.232,928.792 700.604,944.412 694.435,1004.23 682.666,933.791 666.003,919.519 597.59,956.011 489.843,1085.54 568.789,1138.2 615.993,1086.93 615.238,1226.12 576.28,1233.23 643.171,1186.73 690.568,1110.29 631.518,1077.09 635.227,1084.94 589.637,999.023 630.948,929.645 640.207,1027.39 683.406,935.952 678.353,889.166 677.247,935.961 708.078,868.731 678.697,956.618 617.099,892.987 668.64,889.034 652.166,815.55 638.491,785.307 582.088,886.387 548.93,985.074 567.087,1095.11 613.633,1143.24 472.574,1035.28 347.305,1045.2 498.506,1003.92 563.261,1087.58 579.914,1098.82 551.984,1119.04 454.879,1061.01 460.567,1142.58 416.776,1151.96 456.375,1210.54 446.713,1202.54 422.916,1188.25 499.379,1212.41 497.798,1276.32 531.131,1147.96 564.243,1018.8 699.541,983.817 735.744,1035.48 740.275,1072.22 671.431,1076.98 721.086,1041.81 716.821,998.648 744.609,1029.78 659.52,1132.47 651.699,1036.4 684.465,1068.97 684.905,1135.74 717.008,1070.33 621.077,987.463 593.814,1017.13 588.31,1045.8 586.106,1025.18 543.62,1025.94 582.367,956.792 626.074,982.574 638.43,1051.29 581.891,1042.45 667.239,1022.98 631.689,1033.45 664.867,1063.74 711.268,1117.78 640.013,950.246 563.209,931.566 491.505,1076.2 589.367,1117.63 583.147,1120.72 575.803,1109.97 643.659,1130.46 608.045,978.932 637.999,1025.6 653.361,976.945 618.16,951.987 673.776,928.535 796.732,956.388 718.877,812.674 778.173,887.166 779.102,986.336 689.446,957.544 657.634,916.716 738.051,1000.17 783.217,1067.06 796.156,1047.83 720.411,1039.13 583.415,1013.98 599.021,1103.43 592.012,1086.54 561.277,1103.77 617.743,1114.95 521.571,1092.6 427.1,1120.58 429.874,1070.79 450.604,1049.93 497.51,1096.68 543.93,1060.17 439.664,1057.4 363.957,1082.59 302.419,1157.57 278.105,1218.63 361.952,1129.51 438.763,1108.77 456.941,1117.39 495.831,1060.34 494.75,1069.41 531.417,1035.69 554.92,865.433 531.486,879.384 561.335,974.365 580.876,971.869 590.3,998.561 567.184,986.573 617.123,1045.84 654.978,922.939 672.753,1037.37 639.63,1003.47 587.892,1134.72 632.996,1171.58 624.783,1025.05 632.135,876.403 626.106,913.783 537.504,922.005 514.736,963.675 558.809,958.432 461.737,938.236 498.104,970.038 514.214,997.727 439.068,1087.19 475.23,981.073 448.193,977.87 568.258,956.307 536.707,1002.6 502.203,1001.63 534.895,918.82 599.242,948.34 589.775,912.989 595.271,1003.39 606.905,1046.98 595.101,1005.76 640.866,1057.65 638.367,971.384 600.658,946.912 600.977,1028.06 595.021,1064.17 573.308,1066.79 586.694,1066.55 634.635,1155.87 665.22,1199.58 605.357,1226.1 758.097,1218.49 700.229,1032.45 665.193,948.296 562.284,861.315 519.906,904.099 562.191,979.004 670.696,1022.55 709.915,892.871 629.934,1044.31 584.932,1025.42 553.667,933.084 609.728,1072.91 626.851,1076.41 716.64,1099.09 691.172,1101.59 683.138,977.702 596.179,1062.33 591.07,1007.69 619.595,1078.09 672.72,974.302 564.251,1040.03 589.777,995.092 500.246,1071.54 497.88,1115.45 504.892,1157.69 513.336,1161.9 530.333,1111.31 505.216,1170.47 581.412,1221.96 605.601,1215.44 528.907,1254.94 613.149,1193.43 720.323,1201.12 740.698,1068.71 778.651,1123.39 745.042,1044.86 679.008,1011.06 663.166,1090.48 640.479,1057.82 551.712,1008.69 569.699,1024.02 604.694,919.669 614.35,975.331 598.922,1009.93 554.692,1024.62 485.272,985.399 415.811,1000.15 348.818,1113.96 330.716,1089.8 400.878,1005.66 378.958,993.303 443.309,1003.4 418.819,1011.43 441.758,1033.17 452.347,1097.36 490.563,1113.74 564.636,1124.04 593.402,1054.76 658.841,1093.6 705.996,1124.19 658.389,1067.12 655.245,1150.15 683.711,1037.12 730.979,1134.37 724.581,1091.08 625.962,1122.37 596.121,1136.35 608.78,1073.58 681.409,1061.96 764.317,995.667 768.214,1132 726.082,1034.66 720.66,1076.26 696.616,1144.2 748.95,1194.47 817.626,1253.5 854.9,1242.34 867.55,1170.4 849.17,1033.48 733.913,975.045 710.295,881.037 735.751,990.526 689.087,1132.86 739.324,1193.38 726.928,1115.07 734.859,1013.67 753.343,1079.82 655.927,1063.28 658.72,1099.78 710.923,946.729 672.339,893.453 682.07,962.722 669.469,883.668 701.461,956.061 756.386,955.346 716.895,918.846 715.256,876.199 690.651,807.527 716.7,944.517 692.002,981.89 662.316,1044.5 659.477,1038.23 521.829,927.11 515.508,924.872 418.131,1032.54 539.654,943.933 566.299,1064.15 533.29,1001.3 480.333,1004.36 505.347,990.971 568.561,1108.28 540.176,1132.37 535.24,1140.38 548.126,1084.51 551.788,967.548 568.918,1041.96 502.612,1142.51 533.547,1042.42 548.398,977.06 508.478,1018.7 448.785,1011.07 513.025,964.485 535.79,1030.7 529.347,1030.77 563.912,1068.02 557.885,1056.91 582.751,1086.67 683.186,1043.31 699.495,1056.13 678.487,991.905 711.002,894.778 725.56,897.414 610.562,882.46 601.354,1035.94 728.567,955.684 632.85,982.449 609.17,1039.36 674.047,946.879 627.672,982.428 587.643,994.022 594.902,1008.41 566.983,1079.82 566.313,1018.11 455.122,977.391 501.123,1045.18 403.774,1162.27 512.858,1148.42 562.826,1140.48 539.21,1173.87 526.896,1215.94 529.286,1117.1 470.629,1096.68 440.564,1150.73 481.025,1232.66 549.229,1158.27 551.845,1169.56 553.15,1213.59 568.656,1279.32 579.748,1256.34 521.504,1256.76 507.945,1172.6 601.851,1250.49 682.262,1115.91 647.022,1059.23 690.206,1048.54 636.681,1029.88 685.967,1026.19 782.802,942.012 743.75,1019.08 676.811,1010.24 719.07,1088.85 767,1115.72 749.322,1186.14 715.055,1061.54 772.113,1036.27 671.85,1060.7 704.867,1043.49 605.693,1041.83 616.698,1025.21 614.506,974.914 552.443,1000.94 620.209,1086.51 681.898,1130.92 645.659,1086.46 636.103,1023.37 555.571,1139.91 544.446,1192.31 503.722,1161.83 522.008,1170.22 558.71,1161.09 662.63,1229.41 662.202,1132.5 610.346,992.999 640.025,1057.61 609.141,1043.56 538.604,1146.12 555.222,1079.55 528.602,1066 581.522,1033.39 558.957,1029.47 589.498,969.326 600.568,999.856 616.289,1054.08 646.654,953.807 580.752,842.366 558.323,1004.92 508.372,992.541 406.208,1012.97 434.918,1046.13 452.876,1065.61 517.474,1061.83 519.925,993.502 451.588,1098.04 540.092,1108.26 609.496,1032.54 626.25,1014.46 640.365,1066.2 634.86,1172.66 556.34,1102.87 559.477,1178.34 626.431,1131.87 595.085,1163.8 584.497,1036.87 636.934,935.522 635.422,945.467 655.711,897.267 690.073,884.854 628.693,900.155 589.537,915.915 570.209,979.31 635.788,881.639 664.32,947.821 735.101,934.598 701.299,897.905 699.873,905.418 513.868,1058.08 504.765,1029.88 536.558,1112.07 612.608,1019.71 582.948,992.9 461.158,960.956 450.258,1066.16 400.116,1157.55 427.869,1151.47 497.927,1091.03 545.778,1188.7 543.14,1078.59 560.127,1095.01 656.336,1022.44 560.701,1076.77 570.646,949.001 583.746,925.093 537.715,954.153 492.696,980.853 580.976,921.095 615.83,977.624 549.434,937.96 602.731,910.736 574.454,983.486 563.015,997.903 528.808,1012.18 462.97,864.593 460.918,892.833 446.001,978.346 356.777,1050.68 453.112,1003.64 401.402,1008.77 488.51,951.785 453.107,996.051 478.422,940.819 453.029,1124.52 459.988,1046.65 553.668,1015.9 508.598,1067.06 555.871,1103.94 597.907,1150.51 597.794,1078.69 598.992,1127.43 702.013,1045.05 672.041,1032.45 769.792,1088.65 711.94,1052.04 764.276,1114.52 714.871,1089.43 695.48,997.398 733.394,976.427 720.937,967.344 696.258,1015.37 626.862,1032.98 623.408,908.725 558.356,918.143 656.953,987.029 660.229,1067.63 602.661,1059.36 655.283,1046.77 688.251,986.658 662.923,1014.85 720.074,1035.24 607.202,1070.89 642.498,966.504 506.707,936.729 461.611,925.459 446.159,955.787 524.609,1034.27 484.094,1152.95 435.668,1104.33 468.171,1175.27 471.775,1210.04 489.077,1237.16 493.071,1204.44 400.797,1175.7 348.279,1207.97 404.081,1225.92 524.324,1019.5 562.553,1007.93 581.857,1127.76 548.684,1142.21 512.552,1138.62 667.066,1172.66 704.344,1089.25 634.676,1112.86 687.712,1075.05 767.768,1087 818.537,1012.4 799.026,978.981 736.296,956.202 662.406,1000.48 598.326,1057.85 637.878,1032.95 617.065,1183.69 716.787,1244.53 725.331,1377.4 757.572,1244.41 834.234,1211.93 932.408,1244.95 999.805,1173.04 1021.1,1119.9 1037.7,1063.18 1151.75,982.993 1193.47,868.027 1199.4,844.858 1138.88,799.639 1129.93,837.475 1063.77,843.085 1009.17,787.749 1084.42,719.145 1044.04,681.391 1005.9,695.837 1016.81,847.391 946.7,877.425 888.616,903.575 904.146,934.615 771.764,877.382 678.891,870.315 583.524,840.199 660.81,979.299 846.694,1036.26 893.214,980.951 880.71,851.355 928.999,819.079 876.731,836.396 960.144,941.019 1004.65,854.707 864.404,1011.87 861.797,950.374 749.812,863.764 701.986,854.27 642.461,972.06 637.087,1071.25 629.005,1188.95 594.161,1040.39 618.998,1016.99 578.793,1050.73 607.244,1008.7 645.726,1003.71 690.586,989.213 764.454,1012.56 807.63,998.248 722.592,1015.87 700.608,969.061 624.941,965.487 595.857,980.837 635.157,959.047 696.536,1028.96 758.043,1024.04 648.693,1072.65 613.296,1174.59 558.624,1056.65 604.372,1179.17 580.512,1145.01 564.17,1161.62 588.877,1112.42 548.311,1057.1 585.597,1140.79 608.888,1038.9 553.003,950.839 543.459,950.841 554.19,1048.27 492.647,964.394 484.121,1075.74 479.174,1187.87 462.908,1234.56 504.32,1109.62 532.171,1073.75 478.394,1029.7 524.871,1037.92 505.832,994.632 454.479,978.666 546.527,911.054 525.552,872.98 521.207,774.719 460.972,885.425 557.931,854.981 494.738,873.678 494.257,950.527 396.772,1060.99 428.015,1010.89 434.451,1000.38 450.511,1162.87 504.232,1259.94 579.632,1388.07 585.114,1340.06 679.748,1305.94 697.309,1201.14 741.018,1203.86 733.773,1247.73 710.376,1163.21 723.388,1197.12 732.728,1128 768.065,1162.98 723.417,1151.69 658.175,1121.19 618.356,1191.1 605.23,1237.01 588.142,1090.04 589.719,1020.64 444.446,1110.04 460.22,1116.93 437.169,1204.61 438.393,1204.72 453.029,1158.86 428.254,1215.77 428.894,1107.38 384.962,1091.01 481.833,1053.62 469.281,1050.78 460.708,1037.77 562.577,980.257 567.434,877.635 545.039,1037.13 505.937,1070.64 591.304,1127.2 631.398,1080.05 595.237,1019.84 538.559,1094.06 522.926,1047.37 534.132,1039.37 546.564,1021.19 493.285,1029.38 499.189,1091.4 574.89,1025.37 528.611,1032.46 480.109,1113.06 547.466,1101.43 629.883,1041.32 678.706,1029.55 654.507,1021.94 636.612,1067.47 627.154,1082.86 644.482,1059.32 687.642,1083.15 612.302,1129.74 676.408,1017.92 585.037,992.072 571.154,1045.41 555.719,1116.13 555.444,1046.47 553.358,1049.4 553.415,1140.31 504.725,1091.92 444.147,956.751 432.581,1073.75 407.09,1205.42 474.498,1299.78 473.981,1300.37 471.389,1234.63 514.199,1071.67 600.781,1061.09 574.102,1120.65 511.445,1070.48 602.909,1036.82 604.681,1063.62 589.504,1054.03 627.274,1053.58 628.409,1084.78 715.49,1115.2 747.811,1090.55 744.099,987.138 685.27,1005.07 711.506,963.235 808.763,1017.2 831.145,931.186 822.673,970.618 788.427,967.281 708.371,955.563 609.105,869.172 638.097,945.446 657.755,979.387 651.506,988.275 676.306,849.583 717.266,838.488 745.441,833.665 673.641,928.721 685.045,916.89 651.327,976.83 664.213,987.328 757.919,1041.71 753.89,1009.65 640.806,933.29 565.987,1016.24 599.051,963.688 578.038,1110.46 581.53,1147.27 525.361,1204.64 649.729,1162.04 663.398,1166.55 640.451,1100.23 747.669,1036.86 712.973,977.602 689.876,1017.89 695.805,1035.9 779.824,1034.71 744.242,1045.87 764.141,1021.57 867.804,1070.09 851.423,953.997 905.309,1015.43 898.054,1101.1 986.718,999.236 1006.91,963.393 921.193,1019.44 979.809,1093.82 1013.83,1017.06 986.142,954.551 959.462,999.662 1025.58,981.095 976.175,946.514 912.43,869.041 799.743,876.698 741.594,857.316 749.563,880.585 672.693,919.538 661.252,839.572 633.126,994.761 678.957,1001.97 639.932,994.182 608.431,981.718 654.919,1019.1 636.024,1152.36 631.346,999.855 600.362,1051.37 550.932,1125.11 483.99,1026.44 451.735,935.259 433.208,1023.37 440.921,992.517 450.066,994.722 423.328,996.015 391.501,1049.74 399.643,969.885 360.743,928.019 399.753,1108.36 437.294,1193.52 496.331,1177.21 524.267,1221.28 463.847,1193.3 373.252,1144.57 440.702,1231.07 462.78,1294.07 497.127,1141.31 480.919,1153.64 459.403,1089.5 444.897,1113.66 486.373,1234.49 461.678,1160.36 505.211,1072.4 435.362,1071 525.904,1076.21 573.368,1121.64 591.999,1071.91 620.596,1166.25 559.447,1188.18 528.901,1131.79 596.33,1073.59 635.083,1008.46 596.502,933.43 691.085,952.869 682.831,954.198 643.721,1004.08 667.425,1136.77 644.15,1202.68 588.142,1193.72 513.044,1192.82 503.74,1169.2 484.342,1103.57 448.988,1119.86 473.877,1088.12 465.028,1126.02 521.678,1101.69 441.172,1164.14 463.139,1095.36 419.711,1114.34 471.207,1103.93 600.655,1181.28 548.198,1073.14 558.564,1048.94 575.346,1105.3 484.679,1025.91 484.658,1030.42 522.403,997.073 560.609,1079.57 456.323,1069.54 490.536,1105.36 537.22,1177.77 483.687,1133.07 579.422,1060.69 669.447,1061.87 667.539,1032.63 717.594,1082.45 765.79,1023.02 739.652,981.866 691.539,986.215 721.194,1081.15 765.747,1120.5 756.393,1084.94 691.575,1148.35 778.379,1177.81 762.284,1141.66 807.389,1151.14 766.99,1074.4 712.215,1086.75 674.08,1063.07 707.7,920.521 755.481,914.577 725.123,1062.03 662.211,1109.73 700.543,1061.34 639.126,1002.34 655.249,1039.75 652.016,1109.95 642.385,1173.76 691.202,1120.89 588.892,1207.2 687.759,1185.96 746.627,1137.71 745.963,1106.3 726.111,1113.47 704.486,1129.24 644.241,1128.27 713.621,1212.43 638.654,1142.37 609.177,1064.69 597.191,950.154 641.405,944.638 695.738,1058.69 689.016,1062.33 695.035,1086.45 783.834,1101.51 778.764,1097.02 777.796,998.621 763.498,1004.89 695.353,972.466 694.469,966.342 695.498,993.232 702.788,1065.5 746.54,1046.34 715.49,1070.57 729.599,1080.13 750.666,1043.54 691.498,1017.5 744.77,968.793 677.094,879.713 745.367,957.741 714.692,840.297 677.503,753.455 632.32,671.805 553.49,646.578 537.039,668.252 583.45,743.635 579.87,810.589 496.618,885.784 535.383,941.217 495.328,1079.84 509.648,1096.53 592.336,1183.56 579.292,1178.99 618.296,1119.28 648.949,1089.33 619.413,1068.51 600.08,906.522 634.661,957.854 605.191,971.58 628.098,983.877 589.805,959.294 632.87,895.851 673.968,860.906 630.949,800.027 689.598,931.324 689.651,973.428 668.114,1046.77 669.29,1036.73 708.408,998.361 698.606,1023.92 635.398,1037.94 544.02,1005.64 525.023,1012.97 480.315,1054.67 521.631,1024.08 608.527,1053.95 697.063,1004.95 717.999,1009.8 703.367,1120.56 710.509,947.87 619.064,992.922 646.842,890.78 568.112,987.615 578.164,973.153 625.388,1039.17 514.985,995.086 506.325,967.179 438.768,1094.08 442.349,1029.24 459.917,1121.67 519.736,1137.05 458.121,1177.55 424.077,1035.7 389.329,1106.39 448.368,1061.45 540.202,1074.91 564.99,1136.68 632.129,1096.86 592.542,1140.84 686.241,1048.68 750.397,1065.47 744.608,1019.36 765.149,1003.99 682.952,1072.4 709.343,999.795 646.319,1096.67 564.661,1051.88 610.649,1088.74 631.823,1117.83 657.861,1057.43 614.166,1146.93 557.075,1171.34 577.282,1138.33 592.358,1084.68 606.404,1106.85 699.949,1162.59 696.047,1101.07 733.518,1036.99 640.434,1028.43 640.188,904.439 692.36,985.354 730.422,1020.1 802.582,986.47 771.057,978.776 674.665,1026.58 695.358,1049.96 758.566,966.585 785.99,871.359 800.623,975.218 730.027,1052.5 684.183,1070.81 674.699,1097.54 741.199,1041.53 768.991,1032.18 735.91,987.031 723.923,925.317 820.498,1035.67 757.793,1119.73 732.214,1107.97 639.116,966.714 546.537,1012.56 624.988,1051.42 595.298,1033.3 653.258,1094.92 542.07,1068.6 522.972,1045.23 420.365,1150.32 489.533,1123.12 511.47,1117.74 548.988,1159.36 536.732,1069.74 508.5,1134.97 540.108,1115.18 480.874,1049.12 514.326,996.559 518.067,1022.87 457.205,1072.98 425.078,1173.54 428.376,1178.46 419.5,1157.79 414.328,1164.39 508.937,1268.08 532.552,1126.4 546.404,1049.85 544.803,1004.88 517.349,1005.46 499.796,1036.29 466.164,1132.01 511.775,1048.62 545.987,999.27 527.648,962.943 581.203,939.702 594.99,940.178 645.321,968.902 660.283,976.406 690.15,1057.62 730.277,1008.1 766.488,1008.91 791.256,977.421 778.602,929.772 870.529,939.74 868.844,892.663 933.019,901.445 934.011,925.908 897.257,1071.25 872,1176.12 900.086,1180.09 897.493,1087.41 894.662,1139.34 966.53,1105.58 965.224,1081.43 894.013,992.819 832.563,1014.79 882.057,944.888 955.437,1032.87 1000.3,1139.82 1002.03,1203.72 888.034,1145.39 882.793,1126.43 825.135,1092.11 872.022,1009.7 861.692,973.457 863.62,913.824 858.568,882.404 805.954,1003.61 795.089,863.073 762.864,903.1 644.329,982.087 554.246,960.421 622.288,972.497 566.606,889.751 623.499,982.426 574.464,951.419 547.948,1079.52 565.223,1004.81 592.225,1009.55 578.588,980.547 551.207,990.545 519.257,1069.34 440.799,1095.96 503.335,1041.87 603.387,1062.93 660.536,1080.27 664.315,1095.86 667.202,1051.8 670.84,1001.51 718.757,966.465 732.697,922.192 719.395,988.88 727.562,974.776 737.505,837.43 726.329,889.785 729.52,871.057 675.224,894.159 710.294,853.036 713.883,908.39 787.769,928.292 840.016,996.918 781.41,1015.2 783.657,904.333 827.666,1001.76 790.922,885.328 777.43,857.556 763.309,896.525 711.589,860.498 735.443,943.137 725.657,1021.72 767.644,988.329 719.519,911.459 708.107,954.623 636.037,982.733 616.365,1031.05 646.434,1037.22 730.552,1030.91 706.533,956.316 658.502,986.782 681.839,896.141 662.108,921.824 677.553,1019 647.438,974.956 634.572,1033.72 725.165,934.14 674.612,923.623 637.614,968.035 588.187,986.082 533.438,959.902 484.971,997.13 422.61,1059.61 410.51,961.809 435.399,903.748 450.856,865.63 532.515,824.717 493.707,822.16 455.501,835.494 478.167,919.99 477.964,1008.66 573.843,1101.51 591.665,1042.91 594.586,989.894 624.587,997.478 655.07,957.901 686.355,1009.12 754.829,975.358 801.03,960.391 706.298,1011.3 742.601,1014.01 797.276,1066.17 792.145,971.378 718.699,1040.86 706.826,1082.71 669.991,990.471 738.079,1152.85 736.783,1100.93 732.774,1077.41 743.269,989.997 632.003,1052.66 688.277,1110.67 637.138,1124.37 748.169,1021.81 795.359,976.051 751.861,965.814 798.631,867.94 847.903,818.717 813.526,809.251 810.532,749.098 838.399,914.454 802.674,901.68 748.038,984.929 621.551,1007.12 569.743,950.455 566.048,1043.13 549.999,1137.49 587.328,1009.98 515.521,1000.89 458.661,1078.88 498.055,1169.13 526.903,1221.63 568.041,1178.79 535.194,1111.9 505.53,995.658 560.162,1084.44 570.669,1191.15 547.246,1187.53 503.273,1146.6 504.606,1203.33 497.877,1147.16 531.013,1124.68 552.545,1095.94 522.63,1004.03 488.612,1058.68 519.357,998.47 567.707,1040.83 616.571,980.93 581.338,1006.89 671.969,1021.44 713.644,1179.53 698.124,1106.92 650.17,1167.29 656.456,1105.83 694.531,1162.37 708.134,1113.97 707.218,1056.31 618.359,1008.59 623.692,1022.7 786.947,988.444 712.691,984.304 789.513,1085.08 811.544,975.802 795.355,975.876 834.068,976.876 860.218,1095.72 906.492,1029.1 918.183,886.467 911.242,954.948 918.595,921.379 924.624,898.973 809.837,916.905 817.568,857.078 778.899,895.32 846.355,869.636 838.991,921.869 749.308,938.492 693.422,894.426 595.168,966.305 695.905,958.031 643.379,949.474 665.9,868.048 552.86,888.692 418.245,952.905 482.455,993.876 427.885,1041.18 363.908,1057.64 373.538,1170.5 378.667,1162.19 461.209,1196.44 496.689,1164.09 576.988,1127.85 558.369,1041.55 504.248,1052 480.206,1108.89 515.285,1201.14 536.58,1128.07 514.469,1141 465.683,1055.59 477.233,1103.07 473.775,1012.32 471.988,1019.6 482.243,965.245 486.192,962.892 359.723,989.679 436.027,1106.11 417.034,1187.05 494.869,1274.04 525.663,1212.89 545.694,1282.95 505.457,1303.18 578.159,1139.53 499.367,1137.56 472.393,1084.94 428.443,1116.19 379.432,1161.33 424.39,1210.39 407.183,1187.64 433.61,1210.31 411.139,1236.39 522.092,1288.66 582.976,1190.59 568.908,1193.28 693.684,1255.62 741.833,1134.69 793.313,1039.33 814.324,1015.08 818.371,1029.65 861.491,1024.8 926.157,899.904 984.227,930.085 988.276,996.608 898.301,1020.73 905.614,848.198 903.564,879.813 988.371,948.946 1051.01,1045.53 1018.82,925.551 994.296,931.56 932.72,972.822 869.903,919.685 871.631,891.838 825.026,965.804 731.199,1011.19 755.638,999.264 687.433,1045.56 721.855,935.25 785.888,930.457 760.831,995.048 758.103,955.403 793.294,911.105 765.219,937.252 691.275,949.438 621.078,940.702 659.189,950.203 706.558,973.71 664.559,909.883 650.97,959.9 690.349,940.327 756.435,922.041 794.404,874.274 837.837,864.103 813.579,930.943 916.821,1015.67 944.842,1043.16 1002.82,977.541 1011.61,956.499 1051.84,890.822 1059.69,829.253 1024.99,872.264 929.233,877.405 929.98,892.761 833.557,838.777 809.123,821.319 714.562,803.293 713.667,869.065 660.169,852.841 620.431,838.423 563.736,868.781 637.012,812.264 645.962,957.534 665.285,985.491 691.811,1016.75 658.829,1029.63 667.786,1036.96 582.976,1114.53 565.784,1185.41 555.32,1119.94 533.784,1127.12 561.993,1134.8 541.608,1095.64 630.284,1189.89 639.17,992.86 646.895,996.16 583.27,957.602 469.468,900.481 530.621,983.958 492.058,930.849 540.21,1027.08 559.536,1028.03 553.588,996.369 564.86,1048.69 554.486,1013.9 507.974,1019.23 584.694,1105.28 581.844,1099.1 520.809,1082.08 618.689,1129.34 538.541,1055.06 590.079,1042.56 565.572,1048.73 524.618,1065.17 603.94,953.707 598.24,935.877 594.961,992.165 598.444,1083.82 553.849,1066.08 586.294,1079.06 619.863,1048.13 644.609,999.644 658.89,958.501 631.991,999.433 601.237,1097.86 630.162,1180.95 647.476,1183.29 640.036,1174.3 635.633,1033.09 630.088,1107.89 708.784,1015.88 "/>
<circle clip-path="url(#clip451)" cx="592.467" cy="1047.28" r="14.4" fill="#ff0000" fill-rule="evenodd" fill-opacity="1" stroke="#000000" stroke-opacity="1" stroke-width="3.2"/>
<circle clip-path="url(#clip451)" cx="2017.98" cy="423.143" r="14.4" fill="#ff0000" fill-rule="evenodd" fill-opacity="1" stroke="#000000" stroke-opacity="1" stroke-width="3.2"/>
</svg>
